<?xml version="1.0" encoding="utf-8"?>
<!-- Generator: Adobe Illustrator 25.0.0, SVG Export Plug-In . SVG Version: 6.00 Build 0)  -->
<svg version="1.1" id="Lag_1" xmlns="http://www.w3.org/2000/svg" xmlns:xlink="http://www.w3.org/1999/xlink" x="0px" y="0px"
	 viewBox="0 0 34 34" enable-background="new 0 0 34 34" xml:space="preserve">
<g>
	<rect x="1.3" y="4.4" fill="#FFFFFF" width="17.8" height="6.3"/>
	<path fill="#666666" d="M19.5,12c0.4,0,0.6-0.3,0.6-0.6V3.8c0-0.4-0.3-0.6-0.6-0.6H0.6C0.3,3.1,0,3.4,0,3.8v7.6
		C0,11.7,0.3,12,0.6,12H19.5z M1.3,4.4h17.6v6.3H1.3V4.4z"/>
</g>
<g>
	<rect x="22.7" y="4.3" fill="#FFFFFF" width="10.2" height="10.2"/>
	<path fill="#666666" d="M33.4,15.7c0.4,0,0.6-0.3,0.6-0.6V3.8c0-0.4-0.3-0.6-0.6-0.6H22c-0.4,0-0.6,0.3-0.6,0.6v11.5
		c0,0.4,0.3,0.6,0.6,0.6h11.3V15.7z M22.7,4.3h10.1v10.2H22.7V4.3z"/>
</g>
<g>
	<rect x="22.7" y="18.3" fill="#FFFFFF" width="10.1" height="11.3"/>
	<path fill="#666666" d="M33.4,30.9c0.4,0,0.6-0.3,0.6-0.6V17.6c0-0.4-0.3-0.6-0.6-0.6H22c-0.4,0-0.6,0.3-0.6,0.6v12.6
		c0,0.4,0.3,0.6,0.6,0.6H33.4z M22.7,18.3h10.1v11.3H22.7V18.3z"/>
</g>
<g>
	<rect x="1.3" y="14.5" fill="#FFFFFF" width="17.6" height="15.1"/>
	<path fill="#666666" d="M19.5,30.9c0.4,0,0.6-0.3,0.6-0.6V13.9c0-0.4-0.3-0.6-0.6-0.6H0.6c-0.4,0-0.6,0.3-0.6,0.6v16.4
		c0,0.4,0.3,0.6,0.6,0.6H19.5z M1.3,14.5h17.6v15.1H1.3V14.5z"/>
</g>
</svg>
