<?xml version="1.0" encoding="utf-8"?>
<!-- Generator: Adobe Illustrator 25.0.0, SVG Export Plug-In . SVG Version: 6.00 Build 0)  -->
<svg version="1.1" id="Lag_1" xmlns="http://www.w3.org/2000/svg" xmlns:xlink="http://www.w3.org/1999/xlink" x="0px" y="0px"
	 viewBox="0 0 176.7 176.7" style="enable-background:new 0 0 176.7 176.7;" xml:space="preserve">
<style type="text/css">
	.st0{fill:#282929;}
</style>
<g>
	<g>
		<path class="st0" d="M162.7,175c-0.3,0-0.5-0.2-0.6-0.5c0-0.3,0.2-0.6,0.5-0.6c3.1-0.3,5.5-4.6,6.3-7.2c1-3.3,0.3-6.7-2.3-10.5
			c-1.1-1.6-2.4-2.9-3.9-4c-1,0.4-2.1,0.6-3.4,0.3c-3.1-0.6-3.9-1.8-4.2-3.3c-0.1,0-0.1,0-0.2,0c-0.3,0.7-0.8,1.3-1.8,1.5
			c-1.7,0.4-4-0.9-5.8-2c-1.9,0.1-3.5,0.3-4.5,0.4c-1.3,0.2-2.5,0.5-3.7,0.9c-2.4,0.6-4.6,1.3-6.7,0.6c0,0.1-0.1,0.2-0.1,0.4
			c-0.1,0.2-0.3,0.3-0.5,0.3c-1,0.1-1.9,0-2.8,0c-1.5-0.1-2.8-0.2-4.3,0.4c-2,0.8-4.1,2-5.9,3.2l-0.5,0.3c-4.3,2.6-8,4.4-12.6,6.4
			c-4.1,1.8-8.1,3.6-11.8,6.6c-4,3.2-7.1,5-12.2,5.3c-1.4,0.1-2.7-0.2-3.9-0.5c-0.3-0.1-0.7-0.2-1-0.2c-0.2,0-0.4-0.2-0.4-0.4
			c-0.1-0.2,0-0.4,0.1-0.6c1.1-1.1,2.7-1.5,4.3-1.9c1.4-0.4,2.8-0.7,3.8-1.5c1.9-1.4,1.6-1.9,0.7-3.7c-0.2-0.4-0.5-0.9-0.7-1.5
			c-0.3-0.6-0.5-1.3-0.7-2c-0.4-1.4-0.9-2.7-1.7-3.6c-1-1-2.8-1.6-4.3-2.1c-0.8-0.3-1.5-0.5-2.1-0.8c-1.6-0.7-3.1-1.2-4.7-1.7
			c-0.8,0-1.6,0-2.4,0.1c-2.7,0.1-5.5,0.2-8-0.2c-2.8-0.4-5.2-1.7-7.5-2.9c-1.9-1-3.7-2-5.8-2.5c-5.9-1.5-11.6-0.2-17.7,1.1
			c-3.6,0.8-7.3,1.6-11.1,1.8c-0.4,0-0.8,0-1.1,0.1c-0.9,0.1-1.8,0.1-2.7,0.1c-0.7,0.3-1.3,0.7-2,1c-3.9,2.3-4.6,5.7-4.6,8.2
			c0.2,5.5,4.3,12,9.3,14.5c0.2,0.1,0.4,0.4,0.3,0.6c-0.1,0.3-0.3,0.4-0.5,0.4l-2-1.1c-4.5-3.2-8-9.3-8.2-14.5
			c-0.1-4,1.6-7.2,5.1-9.3c0.1-0.1,0.2-0.1,0.3-0.2c-3-0.3-5.7-1.6-6.4-5.7c-0.2-1,0.4-9.4,2.9-10.7c0.5-0.2,1.1-0.4,2,0.2
			c0.5-0.4,0.9-0.5,1.4-0.4c1.1,0.3,1.8,1.9,2.5,3.9c1-1.1,2.1-0.6,3-0.1c0.2,0.1,0.5,0.2,0.8,0.3c0.6,0.3,1.2,0.5,1.7,0.8
			c1.6,0.8,2.6,1.4,4.5,0.2c1.2-0.7,2.2-2,3.1-3.2c0.5-0.7,1.1-1.3,1.6-1.9c0.6-0.6,1.3-1.5,2.1-2.3c2.6-3.1,5.8-6.9,9.2-6.9
			c0,0,0,0,0,0c3.7,0,10,5.5,10.5,9.2c0.6,4.4-5.3,7-9.2,8.8c-0.6,0.3-1.1,0.5-1.5,0.7c-4.2,2.1-8.8,2.9-13.2,3.7
			c-3.1,0.6-6.3,1.1-9.4,2.1c0.2,0,0.4,0,0.6,0c3.7-0.2,7.4-1,10.9-1.8c5.9-1.3,12-2.7,18.2-1.1c2.2,0.5,4.1,1.6,6,2.6
			c2.2,1.2,4.5,2.4,7.1,2.8c2,0.3,4.1,0.3,6.3,0.2c-0.5-0.1-1-0.2-1.6-0.4c-1.4-0.3-2.8-0.6-4.3-1c-3-0.8-5.1-2.3-6-4.3
			c-0.9-2.1-0.5-4.6,1-7.4c0.7-1.3,1.6-2.5,2.5-3.6c2-2.7,3.8-5,3-8.9c-0.2-0.9-0.4-1.6-0.7-2.4c-0.5-1.2-1-2.5-0.9-4.2
			c0-1.3,0.4-2.5,0.7-3.6c0.3-1.3,0.6-2.5,0.6-3.8c0-3.4-0.9-6.7-1.8-9.9c-0.1,0.6-0.2,1.1-0.3,1.7c-0.5,3-0.2,5.5,0.1,8.2
			c0.1,0.9,0.2,1.9,0.3,2.9c0.2,2.8-0.3,4.9-0.9,7.2c-0.2,1-0.5,1.9-0.7,3L58,126c-0.6,3.2-1.1,5.6-3.6,8.6
			c-0.2,0.2-0.6,0.3-0.8,0.1c-1.3-1.1-1.7-2.8-2.2-4.4c-0.5-2-1-4-3.1-5.3c-3-1.9-7.8-1.9-10.3-1.8c-0.2,0-0.5-0.1-0.6-0.4
			c-1.3-3.4,0.6-6.3,2.5-9.2c1.2-1.8,2.3-3.5,2.6-5.2c0.3-1.5,0-2.9-0.3-4.3c-0.2-1.1-0.4-2.2-0.4-3.3c0-1.9,0.4-3.6,0.8-5.2
			c0.2-0.7,0.4-1.5,0.5-2.3c0.2-1.2,0.5-2.4,0.7-3.5c0.9-4.3,1.7-8.4,2.1-12.8c0.5-5.7,2.7-9.8,6.5-12.2c1.5-0.9,3.2-1.6,4.9-2.3
			c2.6-1,5.4-2.1,7-4.2c2-2.6,2.3-6.9,2.6-10.8c0.1-0.9,0.1-1.8,0.2-2.7c0.3-2.6,0.4-5.4,0.6-8c0.5-7.9,1.1-16,3.7-22.9
			c0.1-0.3,0.2-0.5,0.3-0.8c0.7-2,1.4-3.9,3-5.5c1.7-1.8,4.9-2.6,5.8-2.7c0.5-0.8,2.6-3.2,6.1-3.6c2.4-0.2,5.8,0.8,7.9,1.7
			c8.4,3.6,12.3,10.8,11.7,21.4c0,0.7-0.1,1.3-0.2,1.9c0.1,0.3,0.1,0.6,0.1,0.9c0,1-0.2,2.1-0.7,3.3c-0.5,2.6-1.2,5-1.9,7.2
			c-0.1,0.3-0.2,0.7-0.3,1.2c-1,3.4-2.5,8.6-4.5,10.6c-0.1,0.2-0.4,0.2-0.6,0.1c-0.2-0.1-0.4-0.2-0.4-0.4c-1-5.5,0.7-11.9,4-15.5
			c1.2-1.3,2-2.5,2.6-3.6c0.2-1.2,0.4-2.5,0.6-3.7c-0.2-0.8-0.6-1.5-1.2-1.8c-0.8-0.4-1.6,0-2.2,0.5c-0.1,0.1-0.3,0.1-0.5,0.1
			c-0.2-0.1-0.3-0.2-0.4-0.3c-0.5-1.5-0.9-2.8-1.2-4.1c-0.7-3-1.3-5.3-4.1-8C92.5,9.9,87.2,7,82.4,8.5c-9.9,3-7.7,18.3-6.6,26.4
			l0,0.1c0.7,5.3,1.1,7.5,6.3,9.5c2.5,0.9,4.7,1.1,7.1,0.5c0.5-0.1,1.1-0.4,1.7-0.7c1.5-0.7,3.1-1.5,4.4-0.6c1,0.8,1.2,3,1.3,5.6
			c0,0.7,0.1,1.2,0.1,1.6c0.2,1.2,0.5,2.4,0.8,3.6c0.3,1.2,0.6,2.5,0.8,3.7c0.6,4.3,0.1,9.9-1.6,15.4c-2.4,8-5.2,13-8.3,15.1
			c-0.2,0.1-0.5,0.1-0.7,0c-1.8-1.6-2-5.2-2.2-8.4c-0.1-1.1-0.1-2.1-0.2-2.9c-0.6-3.4-1.8-6.6-3.2-9.9c-0.2-0.4-0.4-0.9-0.6-1.4
			l-0.2-0.4c-0.5-1.2-0.9-2.3-1.3-3.4c0.3,4.8,1.2,9.8,2.6,15.1l0.3,1c1.2,4.6,2.3,8.6,2.3,13.6c0,6.5-2.3,9.6-9,12.2
			c-1.2,0.5-2.3,0.8-3.3,0.9c-0.6,3.9-2,7.7-3.5,11.5c-0.9,2.2-1.5,4.5-2.2,6.8c-0.8,2.6-1.5,5.4-2.7,8.1c-0.4,0.9-1,1.9-1.6,3
			c-2.7,4.8-4.5,8.7-0.8,10.9c3.8,2.3,10.4,1.7,15.3,0.2c5.8-1.8,10.6-1.5,16.9-0.9c1.4,0.1,2.9,0.4,4.3,0.7c3.4,0.6,7,1.3,9.9,0.3
			c1.3-0.5,2.6-1.2,3.8-1.9c0.7-0.4,1.4-0.8,2.1-1.1c0.9-0.5,2-0.7,3-0.9c-1-1.6-1.2-3.4-0.5-5.1c0.5-1.1,1.3-2.1,2.4-2.8
			c-0.9-1.2-1.8-2.3-2.2-3.2c-0.6-1.5-1-2.9-1.1-4.3c-5-7.1-7.4-17.9-7-24.8c0.1-2.3,0.6-4.7,1.1-7c0.7-3.4,1.4-6.8,0.9-10.3
			c-0.3-2.1-1.4-3.9-2.6-5.8c-1.5-2.4-3.1-5-2.9-8.5c0.1-1.7,0.7-3.2,1.2-4.5c1-2.6,1.6-4.3-1.2-6.4c-0.3-0.2-0.8-0.5-1.3-0.8
			c-1.6-0.9-3.6-2-4-3.4c-0.3-1-0.2-1.8,0.3-2.2c1.1-0.9,3.3,0.1,5.5,1.3c1.8,1,3.5,2.1,5.2,3.3c2.2,1.5,4.4,3,6.9,4.2
			c0.9,0.4,2,0.8,3.1,1.2c3.3,1.2,7.1,2.5,8.8,6.1c1.2,2.5,1.6,5.8,2,9.1c0.3,2,0.5,3.9,0.9,5.5c0.5,2,1.1,4,1.7,5.9
			c0.9,3,1.9,6,2.5,9.3c0.4,2.7,0.6,5.4,0.8,8.1c0.2,2.7,0.3,5.4,0.8,8c0.4,2.6,0.9,3.6,2.6,5.8l0.1,0.1c1,1.3,2.5,3.4,1.9,4.9
			c-0.2,0.5-0.6,0.9-1.3,1.2c0.4,0.5,0.7,1.1,1.1,1.7c0.4,0.7,0.8,1.3,1.2,2c1.5,2.7,3.1,5.6,5.6,7.7c2.2,1.8,4.1,2.7,5.2,2.2
			c0.7-0.3,1-0.8,1.3-1.3c0.2-0.5,0.5-1,1.1-1.2c0.5-0.2,1.1-0.1,1.9,0.3c0.5-1.1,1.5-2,2.8-2.2c0.2,0,0.5,0.1,0.6,0.3
			c0.5,0.9,0.7,0.8,1.3,0.6c0.5-0.2,1.2-0.6,2.1-0.2c1.4,0.6,2,2.3,2.6,3.7c0.1,0.2,0.2,0.4,0.2,0.6c1.2,2.9,2.4,5.9,1.3,9.6
			c0,0.2-0.2,0.3-0.3,0.4c-0.2,0.1-0.3,0.1-0.5,0c-1.5-0.7-2.8-0.1-4.3,0.7c-0.3,0.1-0.5,0.3-0.8,0.4c1.4,1.1,2.7,2.4,3.6,3.9
			c2.7,4.1,3.5,7.9,2.4,11.5c-0.7,2.2-2.3,5.2-4.5,6.9L162.7,175z M78.2,171.9c1.1,0.3,2.3,0.5,3.4,0.4c3.9-0.2,6.5-1.4,9.5-3.5
			c0,0,0,0-0.1,0c-0.1-0.1-0.2-0.2-0.2-0.4c-0.2-1.4-0.8-2.8-1.3-4.2c-0.9-2.2-1.9-4.5-1.1-6.8c0-0.1-0.1-0.1-0.1-0.2
			c-2.5-3.2-6.7-3.6-10.8-4c-0.5,0-1.1-0.1-1.6-0.2c-0.4,0-0.8-0.1-1.2-0.1c0.5,0.2,1,0.4,1.5,0.6c0.6,0.3,1.3,0.5,2,0.8
			c1.7,0.6,3.6,1.2,4.8,2.4c1,1.1,1.5,2.6,2,4c0.2,0.6,0.4,1.3,0.7,1.9c0.2,0.5,0.5,1,0.7,1.4c1,2.1,1.4,3.2-1.1,5.1
			c-1.2,0.9-2.7,1.3-4.1,1.7C80,171.2,79,171.5,78.2,171.9z M89.3,158.6c-0.2,1.7,0.5,3.3,1.3,5.2c0.5,1.2,1,2.4,1.3,3.7
			c0.2-0.2,0.4-0.4,0.5-0.7C92.9,165.1,90.8,161.1,89.3,158.6z M89.7,157.2c1.4,2,4.5,7,3.8,9.8c3.7-2.9,7.7-4.8,11.8-6.6
			c4.6-2,8.2-3.7,12.5-6.3l0.5-0.3c1.9-1.2,4-2.5,6.1-3.3c1.7-0.7,3.2-0.6,4.7-0.5c0.7,0,1.5,0.1,2.3,0c0,0,0-0.1,0-0.1
			c-0.5-0.3-1-0.7-1.5-1.2c-2.2-2.2-2.9-2.3-5.9-3c-1.1-0.2-2.1-0.5-2.9-0.9c-1.6,0.7-3.2,1.8-4.8,2.9c-0.8,0.6-1.6,1.2-2.4,1.7
			c-3.4,2.1-6.1,1.4-9,0.6c-1.4-0.4-2.9-0.8-4.5-0.9c-2.1-0.1-4.8,0-6.4,1.7c-0.4,0.4-0.6,0.9-0.8,1.5c-0.1,0.5-0.3,0.9-0.6,1.4
			c-0.4,0.6-1,1.1-1.4,1.5c-0.3,0.3-0.7,0.6-0.8,0.8C90,156.6,89.8,156.9,89.7,157.2z M72.4,151.8c1.2,0,2.4,0,3.6,0.2
			c0.5,0.1,1,0.1,1.6,0.2c4.2,0.4,8.5,0.8,11.3,4.1c0.1-0.2,0.3-0.4,0.4-0.7c0.3-0.4,0.6-0.7,1-1c0.5-0.4,0.9-0.8,1.2-1.3
			c0.2-0.3,0.3-0.7,0.5-1.1c0.2-0.6,0.4-1.3,1-1.9c2-2,4.9-2.1,7.3-2c1.7,0.1,3.3,0.5,4.7,0.9c2.8,0.8,5.1,1.4,8.1-0.5
			c0.8-0.5,1.6-1.1,2.4-1.6c1.3-1,2.7-2,4.2-2.7c-0.6-0.4-1.2-0.9-1.7-1.6c0,0,0,0,0,0c-1.1,0.2-2.2,0.4-3.2,0.9
			c-0.7,0.3-1.3,0.7-2,1.1c-1.3,0.7-2.6,1.5-4,2c-3.2,1.2-6.9,0.5-10.5-0.2c-1.5-0.3-2.9-0.5-4.2-0.7c-6.1-0.6-10.9-0.9-16.4,0.9
			c-3.8,1.2-11.5,2.5-16.2-0.3c-4.9-3-1.8-8.4,0.4-12.4c0.6-1,1.1-2,1.5-2.9c1.1-2.6,1.9-5.3,2.6-7.9c0.6-2.3,1.3-4.6,2.2-6.9
			c1.4-3.7,2.8-7.3,3.4-11.1c-1.2,0-2.2-0.4-3.1-1.1c-4-3.4-2-13.5-0.7-20.3c0.2-1.2,0.4-2.3,0.6-3.2c-0.8-3.2-1.4-6.5-1.6-10
			c-0.3-5.7-0.3-10.4,0-14.9C66.6,57,66,58.1,65.3,59c-1.8,2.3-4.7,3.5-7.5,4.5c-1.7,0.7-3.3,1.3-4.7,2.2c-3.5,2.2-5.5,6.1-5.9,11.4
			c-0.4,4.5-1.3,8.8-2.1,12.9c-0.2,1.2-0.5,2.3-0.7,3.5c-0.2,0.8-0.4,1.6-0.5,2.4c-0.4,1.6-0.8,3.2-0.8,4.9c0,1,0.2,2,0.4,3.1
			c0.3,1.5,0.6,3.1,0.3,4.7c-0.3,2-1.6,3.8-2.8,5.6c-1.7,2.6-3.3,5.1-2.5,7.8c3.2-0.1,7.5,0.1,10.5,2c2.4,1.5,3,3.8,3.6,5.9
			c0.3,1.3,0.7,2.5,1.4,3.4c2-2.6,2.4-4.6,3-7.7l0.1-0.6c0.2-1.1,0.5-2.1,0.7-3.1c0.6-2.2,1.1-4.2,0.9-6.8c-0.1-1-0.2-1.9-0.3-2.8
			c-0.3-2.8-0.6-5.4-0.1-8.5c0.2-1.2,0.5-2.5,0.8-3.7c-0.3-1-0.6-2.1-0.8-3.2c0-0.2-0.1-0.5-0.2-0.8c-0.5-2.4-1.4-6.1,0.2-8.1
			c0.9-1.2,1.8-1.6,2.6-1.2c1.5,0.6,1.5,3.9,1.3,5.2c-0.3,2.1-0.9,4.2-1.5,6.3c-0.2,0.6-0.3,1.2-0.5,1.8c0.2,0.6,0.3,1.1,0.5,1.6
			c1,3.4,1.9,6.9,1.9,10.5c0,1.4-0.3,2.8-0.7,4c-0.3,1.1-0.6,2.2-0.6,3.4c-0.1,1.5,0.4,2.6,0.8,3.7c0.3,0.8,0.6,1.6,0.8,2.6
			c0.8,4.4-1.2,7-3.3,9.8c-0.8,1.1-1.7,2.2-2.4,3.4c-1.4,2.5-1.7,4.7-0.9,6.4c0.7,1.7,2.5,3,5.2,3.7c1.4,0.4,2.9,0.7,4.3,1
			c1.8,0.4,3.6,0.8,5.4,1.3C71.6,151.8,72,151.8,72.4,151.8z M156.4,149.5c0.3,0.9,1.1,1.6,3.2,2c0.7,0.1,1.3,0.1,1.9,0
			C159.9,150.5,158.2,149.9,156.4,149.5z M156.2,148.2C156.2,148.2,156.2,148.2,156.2,148.2c2.6,0.6,4.8,1.5,6.7,2.7
			c0.5-0.2,0.9-0.4,1.4-0.7c1.4-0.8,2.9-1.5,4.7-1c0.7-3-0.4-5.6-1.4-8.2c-0.1-0.2-0.2-0.4-0.2-0.6c-0.4-1.2-1-2.6-2-3.1
			c-0.4-0.2-0.7,0-1.1,0.2c-0.8,0.4-1.6,0.7-2.5-0.6c-0.9,0.3-1.5,1-1.7,1.9c0,0.2-0.2,0.3-0.3,0.4c-0.2,0.1-0.3,0.1-0.5,0
			c-1-0.6-1.5-0.6-1.6-0.5c-0.2,0.1-0.3,0.3-0.5,0.6c-0.3,0.6-0.7,1.4-1.9,1.9c-2,0.8-4.8-1.2-6.3-2.4c-2.6-2.2-4.3-5.1-5.9-8
			c-0.4-0.7-0.8-1.3-1.1-2c-0.4-0.8-0.9-1.4-1.3-2c-0.4-0.1-0.9-0.4-1.7-0.8c-0.6-0.3-1.3-0.7-1.6-0.8c-0.8-0.1-2.8,0.2-3.6,0.6
			c-2.3,0.9-3.9,3.7-4.4,4.9c-0.3,0.6-0.5,1.2-0.7,1.9c-0.1,0.5-0.3,1-0.5,1.5c1.3,0.8,2.5,1.8,3.7,2.8c1,0.8,1.9,1.7,3,2.4
			c3.7,2.5,7.6,5.1,11.9,7.6c0.3,0.2,0.6,0.3,0.9,0.6c0,0,0,0,0.1,0c2-0.1,4.2,0,6.5,0.3c0-0.3,0-0.7,0-1.1c0-1,0-2.1,0.4-3
			c0.1-0.2,0.3-0.3,0.5-0.3c0,0,0,0,0,0c0.2,0,0.4,0.1,0.5,0.4c0.6,1.5,0.6,2.7,0.7,3.9C156.2,147.8,156.2,148,156.2,148.2z
			 M132.5,149.3c1.9,0.8,4,0.2,6.4-0.5c1.2-0.3,2.5-0.7,3.8-0.9c0.9-0.1,1.9-0.3,2.9-0.3c-4.2-2.4-8-5-11.5-7.4
			c-1.1-0.8-2.1-1.6-3.1-2.5c-1.1-1-2.2-1.9-3.4-2.7c-0.6,0.9-1.5,1.6-3.2,1.4c-1.5-0.2-2.6-1.1-3.3-2.3c-0.1,0-0.2,0.1-0.3,0.1
			c1.4,1.9,2.6,3.8,2.3,5.5c-0.2,0.9-0.9,1.6-1.9,2.1c-0.6,0.3-1.2,0.5-1.8,0.6c0.5,0.5,1.1,0.9,1.7,1.3c1.6-0.5,3.2-0.7,4.9-0.1
			c1.6,0.6,5.2,2.5,6.2,4.8C132.3,148.8,132.4,149.1,132.5,149.3z M149.6,148.6c1.2,0.6,2.5,1.1,3.3,0.9c0.5-0.1,0.7-0.3,0.9-0.6
			C152.4,148.8,150.9,148.7,149.6,148.6z M9.8,134.9c-0.1,0-0.2,0-0.2,0.1c-1.7,0.9-2.5,8.4-2.3,9.5c0.8,4.1,3.8,4.9,7.2,4.9
			c0,0,0.1,0,0.1,0c4.1-1.9,8.5-2.6,12.7-3.4c4.4-0.8,8.9-1.6,12.9-3.6c0.5-0.2,1-0.5,1.6-0.7c3.6-1.6,9-4.1,8.5-7.6
			c-0.4-3.1-6.2-8.2-9.4-8.2c0,0,0,0,0,0c-2.9,0-5.9,3.6-8.3,6.5c-0.8,0.9-1.5,1.8-2.1,2.4c-0.5,0.5-1,1.2-1.6,1.8
			c-1,1.3-2.1,2.6-3.4,3.4c-2.4,1.5-4,0.7-5.6-0.1c-0.5-0.3-1-0.5-1.6-0.8c-0.3-0.1-0.6-0.2-0.8-0.4c-0.9-0.5-1.3-0.6-1.8,0
			c1.3,1.5,2.5,3.1,2.4,5.5c0,0.2-0.1,0.3-0.2,0.4c-0.1,0.1-0.3,0.1-0.5,0.1c-1.5-0.4-2.3-2.9-3.1-5.6c-0.5-1.7-1.3-4.1-2-4.2
			c-0.2-0.1-0.6,0.2-0.7,0.4c-0.1,0.1-0.2,0.2-0.4,0.2c-0.2,0-0.3-0.1-0.4-0.2C10.2,135,9.9,134.9,9.8,134.9z M129.1,146.7
			c0.4,0.3,0.9,0.8,1.4,1.3C130.1,147.5,129.6,147.1,129.1,146.7z M122.9,144.5c0.4,0.1,0.8,0.2,1.3,0.3c1.8,0.4,2.9,0.6,3.9,1.2
			c-0.9-0.6-1.8-1-2.5-1.2C124.7,144.4,123.8,144.3,122.9,144.5z M15.9,141.2c0.2,0.6,0.5,1.2,0.7,1.6
			C16.5,142.2,16.2,141.7,15.9,141.2z M119.8,134.8c-0.9,0.6-1.6,1.3-2,2.3c-0.6,1.4-0.3,3.1,0.7,4.5c0.8-0.1,1.5-0.3,2.2-0.6
			c0.8-0.4,1.2-0.8,1.3-1.4C122.3,138.2,121.1,136.5,119.8,134.8z M122.3,133.9c0.5,0.8,1.3,1.4,2.2,1.5c1,0.1,1.6-0.2,2-0.8
			C125.3,134,123.9,133.7,122.3,133.9z M123.3,132.7c1.4,0,2.6,0.3,3.7,0.8c0.1-0.4,0.3-0.8,0.4-1.3c0.2-0.7,0.4-1.4,0.7-2.1
			c0.6-1.3,2.4-4.4,5-5.4c0.8-0.3,2.7-0.7,3.8-0.6c-1.3-0.3-2.8-0.1-4.7,0.9c-1.1,0.6-2.2,1.7-3.4,2.9c-2.3,2.3-4.9,4.8-7.7,3.5
			c0.1,0.5,0.3,0.9,0.5,1.4c0.1,0,0.3,0,0.4-0.1C122.5,132.8,122.9,132.7,123.3,132.7z M117.3,128.1c0.2,0.7,0.4,1.4,0.7,2
			c0.4,0.8,1.2,1.9,2.1,3c0,0,0.1,0.1,0.1,0.1c0.2-0.1,0.3-0.1,0.5-0.2c-0.4-0.9-0.6-1.8-0.8-2.6
			C118.9,129.9,118.1,129.1,117.3,128.1z M120.9,130c0.1,0.1,0.3,0.2,0.4,0.3c2,1.4,4-0.3,6.8-3.1c1.3-1.2,2.5-2.4,3.7-3.1
			c4.3-2.3,7.1-1,9.2,1.6c0.5-0.1,0.8-0.3,0.9-0.6c0.4-0.9-1.1-2.9-1.8-3.8l-0.1-0.1c-1.7-2.3-2.4-3.5-2.8-6.3
			c-0.4-2.6-0.6-5.4-0.8-8.1c-0.2-2.7-0.3-5.4-0.8-8c-0.5-3.2-1.5-6.2-2.4-9.1c-0.6-1.9-1.3-3.9-1.8-5.9c-0.4-1.7-0.7-3.6-0.9-5.7
			c-0.4-3.1-0.8-6.3-1.9-8.7c-1.5-3.1-4.9-4.3-8.2-5.5c-1.1-0.4-2.2-0.8-3.2-1.2c-2.6-1.2-4.9-2.7-7.1-4.3c-1.7-1.2-3.4-2.3-5.1-3.2
			c-3.3-1.8-4.1-1.6-4.3-1.4c-0.1,0.1-0.1,0.4,0,1c0.3,0.9,2.2,2,3.4,2.7c0.6,0.3,1.1,0.6,1.4,0.9c3.6,2.6,2.6,5,1.6,7.7
			c-0.5,1.3-1,2.6-1.1,4.1c-0.2,3.2,1.2,5.4,2.7,7.8c1.2,1.9,2.4,3.8,2.8,6.2c0.5,3.6-0.2,7.2-0.9,10.7c-0.5,2.2-0.9,4.5-1,6.8
			c-0.3,6.1,1.7,15.7,5.9,22.6c0.1-2,0.4-3.9,0.8-6c0.2-1,0.4-2.1,0.6-3.2c0.3-2.2,0.3-4.3,0.1-6.4c-1.2-2.4-2.4-4.8-2.6-7.7
			c-0.2-1.7,0-3.1,0.5-4.3c-0.2-1.6-0.1-3.2,0.4-5.2c0.3-1.3,1.6-5.7,3.4-6c0.4-0.1,1,0,1.5,0.8c1.1,1.6-0.8,4.5-2.1,6.6
			c-0.4,0.6-0.7,1-0.8,1.3c-0.5,1-0.9,1.9-1.2,2.7c0.1,0.7,0.2,1.4,0.4,2.1c0.8,3.3,1.5,6.4,1.7,9.4c0.9,1.9,1.9,3.8,2.4,6
			c0.7,2.6,0.4,5.3,0.1,8c-0.3,2.3-0.5,4.7-0.1,7C120.8,129.4,120.8,129.7,120.9,130z M116.9,125.9c0.8,1.1,1.7,2.1,2.7,3
			c-0.3-2.3,0-4.6,0.2-6.8c0.3-2.7,0.6-5.2,0-7.6c-0.3-1.2-0.7-2.3-1.2-3.4c0,1.3-0.1,2.6-0.3,4c-0.2,1.1-0.4,2.2-0.6,3.3
			C117.2,120.9,116.7,123.4,116.9,125.9z M115.7,99.7c0,0.3,0,0.7,0.1,1.1c0.1,1.4,0.5,2.7,1,4C116.5,103.1,116.1,101.4,115.7,99.7z
			 M69.2,83.4c0,0.2-0.1,0.5-0.1,0.7c-1.2,6.1-3.2,16.3,0.3,19.2c0.6,0.5,1.5,0.8,2.5,0.8c0.1-0.8,0.2-1.6,0.2-2.3
			c0.3-6.1-1.1-11.6-2.5-17C69.4,84.3,69.3,83.9,69.2,83.4z M69.7,80.7c0.3,1.3,0.6,2.6,1,3.9c1.4,5.5,2.8,11.1,2.5,17.3
			c0,0.7-0.1,1.5-0.2,2.2c0.8-0.1,1.7-0.4,2.7-0.8c6.3-2.4,8.3-5.1,8.3-11.1c0-4.9-1-8.8-2.2-13.3l-0.3-1
			c-1.5-5.8-2.4-11.2-2.7-16.5c0-0.7,0-1.5,0-2.2c-2.8-8.1-3.1-12.6-1.1-14c0.1-0.1,0.3-0.1,0.5-0.1c0.2,0,0.3,0.1,0.4,0.3
			c1.7,3.4,1.6,7.4,1.4,11.4c0,0.8,0,1.5-0.1,2.2c0.7,1.9,1.5,4,2.5,6.5l0.2,0.4c0.2,0.4,0.4,0.9,0.6,1.3c1.3,3.2,2.7,6.5,3.3,10.1
			c0.1,0.8,0.2,1.9,0.3,3c0.1,2.6,0.3,5.8,1.5,7.3c2.8-2.1,5.3-6.9,7.5-14.2c1.6-5.3,2.1-10.7,1.5-14.9c-0.2-1.2-0.5-2.4-0.8-3.6
			c-0.3-1.2-0.6-2.5-0.8-3.8c-0.1-0.4-0.1-1-0.1-1.7c-0.1-1.5-0.2-4.2-0.9-4.8c-0.7-0.5-2,0.1-3.2,0.7c-0.7,0.3-1.3,0.6-1.9,0.8
			c-2.6,0.6-5.1,0.4-7.8-0.6c-5.9-2.2-6.2-5-7-10.4l0-0.1c-1.2-8.5-3.4-24.4,7.4-27.7C87.3,5.8,93,8.9,96.3,12
			c3,2.9,3.7,5.5,4.4,8.5c0.3,1.1,0.5,2.1,0.9,3.3c1-0.5,1.9-0.6,2.7-0.2c0.3,0.2,0.6,0.4,0.8,0.6c0.5-10.1-3.2-16.9-11-20.3
			c-2.2-0.9-5.3-1.8-7.3-1.6c-3.6,0.3-5.4,3.2-5.4,3.2c-0.1,0.1-0.2,0.2-0.4,0.3c0,0-3.7,0.7-5.4,2.5c-1.4,1.5-2.1,3.3-2.8,5.2
			c-0.1,0.3-0.2,0.5-0.3,0.8C70,21.1,69.5,29.2,69,36.9c-0.2,2.7-0.4,5.5-0.6,8.1c-0.1,0.8-0.1,1.7-0.2,2.6c0,0.3,0,0.6-0.1,0.9
			c0-0.2,0.1-0.3,0.1-0.5c0.5-1.9,1.3-4.2,2.6-4.3c1.1,0,1.7,1.3,2,2.3c1.2,3.4,0.4,8.1-0.3,12.3c-0.2,1.5-0.5,2.8-0.6,4
			c-0.6,6.2-1.4,12.2-2.2,18C69.7,80.5,69.7,80.6,69.7,80.7z M60.4,88.1c-0.2,0-0.6,0.2-1.1,0.9c-1.2,1.6-0.5,5,0,7.1
			c0.1,0.3,0.1,0.5,0.2,0.8c0.1,0.4,0.2,0.8,0.3,1.2c0.6-2,1.1-4,1.4-6C61.4,90.5,61,88.3,60.4,88.1C60.4,88.1,60.4,88.1,60.4,88.1z
			 M119.1,86.4C119.1,86.4,119.1,86.4,119.1,86.4c-0.7,0.1-1.8,2.5-2.5,5.2c-0.2,0.9-0.4,1.7-0.4,2.4c0.1-0.2,0.2-0.4,0.3-0.5
			c0.2-0.4,0.5-0.9,0.9-1.4c1-1.5,2.8-4.3,2.2-5.3C119.4,86.7,119.3,86.4,119.1,86.4z M70.9,44.9C70.9,44.9,70.9,44.9,70.9,44.9
			c-0.3,0-1,1-1.6,3.4c-0.6,2.6-1.1,5.2-1.2,7.3c-0.3,4.5-0.3,9.3,0,15c0.1,2.4,0.5,4.7,0.9,6.9c0.7-5,1.3-10.1,1.8-15.3
			c0.1-1.2,0.4-2.6,0.6-4.1c0.7-4,1.4-8.6,0.3-11.7C71.2,45,70.9,44.9,70.9,44.9z M77.9,46.7c-0.5,1.1-0.7,3.5,1,9.1
			C79,52.6,79,49.4,77.9,46.7z M103.8,33.3c-0.3,0.4-0.7,0.8-1,1.2c-2.9,3.1-4.4,8.3-3.9,13.2c1.4-2.3,2.7-6.5,3.4-9.1
			c0.1-0.4,0.2-0.8,0.3-1.2C103,36,103.4,34.6,103.8,33.3z"/>
		<path class="st0" d="M17.4,176.4c-0.2,0-0.3,0-0.5-0.1l-2-1.1c-4.9-3.5-8.6-9.9-8.7-15.3c-0.1-3.7,1.2-6.7,3.9-8.9
			c-2.7-0.9-4.3-2.9-4.9-6c-0.2-0.9,0.1-10,3.4-11.8c0.5-0.3,1.4-0.5,2.4,0c0.7-0.3,1.2-0.3,1.6-0.2c1.4,0.3,2.1,1.7,2.8,3.4
			c1.1-0.3,2.2,0.2,2.9,0.5c0.2,0.1,0.5,0.2,0.7,0.3c0.7,0.3,1.3,0.6,1.9,0.9c1.5,0.8,2.1,1.1,3.5,0.2c1-0.6,2-1.8,2.9-2.9
			c0.6-0.7,1.1-1.4,1.7-2c0.6-0.6,1.3-1.4,2-2.3c2.1-2.6,4.7-5.6,7.6-6.8c-0.1,0-0.2,0-0.3,0c-0.7,0-1.3-0.4-1.5-1
			c-1.5-3.8,0.7-7.2,2.6-10.1c1.1-1.7,2.2-3.3,2.4-4.8c0.2-1.3,0-2.5-0.3-4c-0.2-1.1-0.4-2.2-0.4-3.5c0-2,0.4-3.8,0.9-5.5
			c0.2-0.7,0.4-1.5,0.5-2.2c0.2-1.2,0.5-2.4,0.7-3.5c0.9-4.3,1.7-8.4,2.1-12.7c0.5-6,2.8-10.4,6.9-13c1.5-1,3.3-1.7,5-2.3
			c2.5-1,5.1-2,6.6-3.9c1.8-2.3,2.1-6.5,2.4-10.2c0.1-1,0.1-1.9,0.2-2.7c0.3-2.6,0.4-5.3,0.6-8c0.5-7.9,1.1-16.1,3.7-23.2l0.3-0.8
			c0.7-2,1.5-4.1,3.3-5.9C75.8,5.1,78.6,4.3,80,4c0.9-1.1,3-3.3,6.6-3.7C89.3,0.1,92.7,1,95,2c8.8,3.8,12.9,11.3,12.3,22.4
			c0,0.6-0.1,1.2-0.1,1.8c0,0.3,0.1,0.6,0.1,0.9c0,1.2-0.2,2.4-0.8,3.6c-0.5,2.6-1.2,5-1.9,7.2l-0.3,1.1c-1.1,3.7-2.6,8.8-4.7,11
			c-0.4,0.4-1,0.6-1.6,0.4c-0.1,0-0.2-0.1-0.4-0.2c0,0.2,0,0.3,0,0.4c0.2,1.1,0.5,2.3,0.8,3.5c0.3,1.3,0.7,2.6,0.8,3.8
			c0.7,4.5,0.1,10.2-1.6,15.8c-2.5,8.2-5.4,13.5-8.7,15.7c-0.6,0.4-1.4,0.3-1.9-0.1c-0.5-0.4-0.8-0.9-1.1-1.5
			c0.1,1.3,0.2,2.7,0.2,4.1c0,6.9-2.6,10.4-9.7,13.1c-1,0.4-1.9,0.7-2.8,0.8c-0.7,3.8-2.1,7.5-3.5,11c-0.8,2.2-1.5,4.4-2.1,6.6
			c-0.8,2.7-1.6,5.5-2.7,8.2c-0.4,0.9-1,2-1.6,3.1c-3,5.3-3.9,7.9-1.2,9.5c3.5,2.1,9.9,1.5,14.4,0.1c6-1.9,10.9-1.6,17.3-1
			c1.4,0.1,2.9,0.4,4.4,0.7c3.3,0.6,6.7,1.3,9.4,0.3c1.2-0.4,2.4-1.1,3.7-1.8c0.7-0.4,1.4-0.8,2.1-1.2c0.6-0.3,1.3-0.5,1.9-0.7
			c-0.6-1.6-0.6-3.2,0-4.7c0.4-1,1-1.9,1.9-2.6c-0.7-0.9-1.3-1.8-1.7-2.6c-0.6-1.4-1-2.8-1.2-4.4c-5.1-7.3-7.4-18.1-7.1-25.2
			c0.1-2.4,0.6-4.8,1.1-7.1c0.7-3.3,1.4-6.7,0.9-9.9c-0.3-1.9-1.3-3.6-2.4-5.4c-1.5-2.5-3.3-5.3-3-9.1c0.1-1.8,0.7-3.4,1.2-4.7
			c1-2.5,1.3-3.6-0.9-5.2c-0.3-0.2-0.7-0.5-1.2-0.7c-1.7-1-3.9-2.2-4.4-4c-0.5-1.8,0.1-2.8,0.7-3.3c1.6-1.3,4.3-0.1,6.7,1.2
			c1.8,1,3.6,2.2,5.3,3.3c2.2,1.5,4.4,3,6.8,4.1c0.9,0.4,1.9,0.8,3,1.2c3.4,1.2,7.5,2.6,9.4,6.6c1.3,2.7,1.7,6.1,2.1,9.4
			c0.3,2,0.5,3.8,0.9,5.4c0.5,2,1.1,3.9,1.7,5.8c1,3,1.9,6.1,2.5,9.4c0.4,2.7,0.6,5.5,0.8,8.2c0.2,2.7,0.3,5.4,0.8,7.9
			c0.4,2.5,0.9,3.3,2.4,5.3c1.1,1.5,3,3.9,2.1,6c-0.1,0.3-0.4,0.7-0.8,1.1c0.2,0.3,0.4,0.6,0.5,0.9c0.4,0.7,0.8,1.4,1.2,2
			c1.5,2.7,3.1,5.4,5.4,7.4c2.2,1.8,3.7,2.3,4.1,2.1c0.4-0.1,0.5-0.4,0.8-0.9c0.3-0.6,0.7-1.4,1.7-1.7c0.6-0.2,1.2-0.1,1.7,0
			c0.7-1,1.8-1.7,3-2c0.7-0.1,1.3,0.2,1.7,0.7c0,0,0,0.1,0.1,0.1c0.6-0.3,1.6-0.7,2.8-0.2c1.8,0.8,2.6,2.8,3.1,4.3l0.2,0.6
			c1.2,2.9,2.5,6.2,1.4,10.2c-0.1,0.4-0.4,0.8-0.9,1c-0.4,0.2-0.9,0.2-1.3,0c-0.9-0.4-1.6-0.2-2.9,0.4c1,0.9,1.9,2,2.7,3.1
			c2.9,4.4,3.7,8.4,2.5,12.3c-0.7,2.3-2.4,5.6-4.9,7.4c-0.1,0.1-0.1,0.1-0.2,0.1l-2.8,1.1c-0.9,0.4-1.9-0.5-2-1.4
			c0-0.8,0.6-1.6,1.4-1.6c2.4-0.2,4.7-4,5.4-6.5c0.9-2.9,0.2-6.1-2.1-9.7c-0.9-1.3-1.9-2.4-3.2-3.4c-1.2,0.4-2.3,0.4-3.5,0.2
			c-2.2-0.4-3.6-1.2-4.4-2.5c-0.4,0.3-0.8,0.5-1.4,0.6c-1.9,0.5-4.3-0.7-6.3-2c-1.7,0.1-3.2,0.3-4.1,0.4c-1.2,0.2-2.4,0.5-3.6,0.8
			c-2.1,0.6-4.3,1.2-6.5,0.8c-0.3,0.3-0.6,0.5-1.1,0.5c-1.1,0.1-2,0-3,0c-1.5-0.1-2.6-0.1-3.9,0.4c-1.9,0.7-3.9,2-5.7,3.1l-0.5,0.3
			c-4.3,2.6-8.1,4.4-12.7,6.5c-4.1,1.8-8,3.6-11.5,6.5c-4.1,3.4-7.4,5.2-12.8,5.6c-1.5,0.1-3-0.2-4.2-0.5c-0.3-0.1-0.7-0.2-1-0.2
			c-0.6-0.1-1-0.5-1.2-1.1c-0.2-0.6,0-1.2,0.4-1.6c1.3-1.3,3.1-1.8,4.8-2.2c1.3-0.3,2.6-0.7,3.4-1.3c1.2-0.9,1.2-0.9,0.5-2.4
			c-0.2-0.5-0.5-1-0.7-1.5c-0.3-0.7-0.5-1.4-0.7-2.1c-0.4-1.3-0.8-2.5-1.5-3.2c-0.8-0.8-2.5-1.4-3.9-1.9c-0.8-0.3-1.6-0.5-2.2-0.8
			c-1.3-0.6-2.8-1.1-4.4-1.6c-0.7,0-1.4,0-2.1,0.1c-2.8,0.1-5.6,0.2-8.2-0.2c-3-0.4-5.4-1.8-7.8-3.1c-1.9-1-3.6-2-5.5-2.5
			c-5.7-1.4-11.3-0.2-17.2,1.1c-3.7,0.8-7.4,1.6-11.3,1.8l-1.1,0.1c-0.8,0-1.7,0.1-2.6,0.1c-0.6,0.3-1.1,0.6-1.7,0.9
			c-2.8,1.6-4.1,4.1-4.1,7.3c0.2,5.2,4.1,11.3,8.8,13.7c0.7,0.3,1,1.1,0.8,1.8C18.8,175.9,18.1,176.4,17.4,176.4z M77,171.7
			C77,171.7,77,171.7,77,171.7C77,171.7,77,171.7,77,171.7z M82.1,154.9c0.6,0.3,1.1,0.7,1.6,1.2c1.2,1.2,1.8,2.9,2.2,4.4
			c0.2,0.6,0.4,1.2,0.6,1.8c0.2,0.5,0.4,1,0.6,1.4c1.1,2.3,1.7,4-1.4,6.3c-0.5,0.4-1.1,0.7-1.7,1c2-0.4,3.7-1.2,5.6-2.5
			c-0.2-1.3-0.7-2.6-1.3-3.9c-0.9-2.1-1.9-4.5-1.3-7C85.9,156.1,84.1,155.4,82.1,154.9z M90.8,157.2c1.1,1.6,3.1,5,3.6,7.9
			c3.3-2.3,6.8-3.9,10.4-5.5c4.5-2,8.2-3.7,12.3-6.2l0.5-0.3c1.9-1.2,4.1-2.5,6.2-3.3c1.7-0.7,3.2-0.7,4.6-0.6
			c-1.6-1.5-2.2-1.6-4.9-2.2c-1.1-0.2-2-0.5-2.7-0.8c-1.4,0.6-2.8,1.7-4.2,2.6c-0.8,0.6-1.7,1.2-2.5,1.7c-3.8,2.4-6.8,1.5-9.8,0.7
			c-1.4-0.4-2.8-0.8-4.3-0.8c-1.9-0.1-4.3,0-5.6,1.4c-0.2,0.3-0.4,0.6-0.5,1.1c-0.2,0.5-0.3,1.1-0.7,1.6c-0.5,0.7-1.1,1.3-1.6,1.7
			c-0.3,0.2-0.6,0.5-0.7,0.6C91,156.9,90.9,157.1,90.8,157.2z M72.4,150.8c1.4,0,2.6,0.1,3.7,0.2l1.5,0.2c4,0.4,8,0.8,11.1,3.5
			c0.3-0.3,0.6-0.6,0.9-0.9c0.4-0.4,0.8-0.7,1-1.1c0.2-0.2,0.3-0.6,0.4-0.9c0.2-0.7,0.5-1.5,1.3-2.3c1.4-1.4,3.1-2,4.9-2.2
			c-1.1-0.2-2.2-0.4-3.2-0.5c-6-0.6-10.6-0.9-16,0.8c-4,1.3-12,2.6-17-0.4c-3-1.8-3.5-4.4-2.9-7c-1,2-1.3,3.8-0.7,5.1
			c0.6,1.4,2.2,2.5,4.5,3.1c1.4,0.4,2.9,0.7,4.2,1c1.8,0.4,3.5,0.8,5.3,1.3C71.7,150.8,72.1,150.8,72.4,150.8z M157.2,147.4
			c2.2,0.6,4.1,1.3,5.8,2.4c0.3-0.1,0.5-0.3,0.8-0.4c1.3-0.7,2.7-1.4,4.4-1.3c0.2-2.3-0.6-4.3-1.5-6.7l-0.2-0.6
			c-0.3-0.9-0.9-2.3-1.4-2.5c0,0-0.2,0.1-0.3,0.2c-0.5,0.2-1.9,0.9-3.2-0.3c-0.3,0.2-0.5,0.5-0.5,0.9c-0.1,0.5-0.4,0.9-0.9,1.1
			c-0.4,0.2-1,0.2-1.4,0c-0.3-0.2-0.5-0.3-0.7-0.3c0,0,0,0,0,0c-0.3,0.7-0.9,1.8-2.4,2.4c-0.1,0-0.2,0.1-0.4,0.1
			c0.6,0.1,1,0.4,1.2,1C157.1,144.9,157.1,146.3,157.2,147.4z M41.9,144.6c2,0,4.1,0.2,6.1,0.7c2.3,0.6,4.3,1.7,6.3,2.7
			c0.6,0.3,1.2,0.7,1.8,1c-0.7-0.7-1.3-1.5-1.7-2.4c-1-2.4-0.7-5.2,1-8.3c0.8-1.4,1.7-2.6,2.5-3.7c2-2.6,3.5-4.6,2.9-8.1
			c-0.1-0.8-0.4-1.4-0.7-2.2c-0.2-0.4-0.3-0.8-0.5-1.3c-0.2,0.8-0.4,1.6-0.6,2.5l-0.1,0.6c-0.6,3.3-1.1,5.9-3.8,9.1
			c-0.6,0.7-1.6,0.8-2.2,0.2c-0.2-0.2-0.4-0.3-0.5-0.5c-0.4,4.4-6,6.9-9.8,8.6c-0.6,0.2-1.1,0.5-1.5,0.7c-0.2,0.1-0.4,0.2-0.6,0.3
			C41,144.6,41.4,144.6,41.9,144.6z M105.9,148.3c2.5,0.7,4.4,1,6.8-0.5c0.8-0.5,1.5-1,2.3-1.6c1-0.7,2-1.4,3-2
			c-0.1-0.1-0.2-0.2-0.3-0.3c-0.9,0.2-1.7,0.3-2.4,0.7c-0.6,0.3-1.3,0.7-2,1.1c-1.3,0.8-2.7,1.5-4.1,2
			C108.1,148,107,148.2,105.9,148.3z M133.3,148.5c1.5,0.4,3.2-0.1,5.3-0.7c1.2-0.3,2.5-0.7,3.9-0.9c0,0,0,0,0,0c-3.2-2-6.2-4-9-5.9
			c-1.2-0.8-2.2-1.7-3.2-2.5c-0.9-0.8-1.7-1.5-2.6-2.1c-0.9,0.8-2,1.2-3.5,1.1c-0.1,0-0.3,0-0.4-0.1c0.3,0.8,0.4,1.7,0.2,2.5
			c-0.2,0.7-0.6,1.6-1.7,2.4c1.4-0.2,2.7-0.1,4,0.4c1.4,0.5,5.5,2.5,6.8,5.4C133.2,148.2,133.3,148.4,133.3,148.5z M9.8,136.1
			c-0.9,1.3-1.8,7-1.6,8.2c0.5,2.9,2.2,4,6.1,4c4.1-1.9,8.5-2.6,12.7-3.4c4.3-0.8,8.7-1.6,12.7-3.5c0.5-0.2,1-0.5,1.6-0.7
			c3.1-1.4,8.3-3.8,7.9-6.6c-0.4-2.7-5.7-7.3-8.4-7.3c-2.4,0-5.4,3.5-7.6,6.1c-0.8,0.9-1.5,1.8-2.2,2.5c-0.5,0.5-1,1.1-1.5,1.7
			c-1.1,1.3-2.2,2.7-3.7,3.6c-2.9,1.8-5,0.8-6.6-0.1c-0.5-0.3-1-0.5-1.5-0.7c0,0-0.1,0-0.1,0c0.8,1.2,1.3,2.6,1.3,4.3
			c0,0.5-0.3,0.9-0.6,1.2c-0.4,0.3-0.9,0.4-1.4,0.2c-2.1-0.6-2.9-3.3-3.8-6.2c-0.2-0.8-0.8-2.5-1.2-3.3c-0.3,0.2-0.6,0.3-0.9,0.3
			C10.6,136.6,10.2,136.4,9.8,136.1C9.8,136.1,9.8,136.1,9.8,136.1z M155,148.2c0,0,0.1,0,0.1,0l0,0l0-0.4c0-0.4,0-0.8-0.1-1.2
			c0,0,0,0.1,0,0.1c0,0.5,0,0.9,0,1.2C155.1,148,155.1,148.1,155,148.2z M149,146.5c1.4,0,2.8,0.1,4.1,0.2c0-1.1,0-2.2,0.4-3.4
			c0.2-0.4,0.4-0.7,0.8-0.8c-2.1,0.1-4.4-1.4-6.1-2.8c-2.8-2.3-4.5-5.3-6.1-8.2c-0.4-0.7-0.8-1.4-1.1-2c-0.4-0.6-0.7-1.2-1.1-1.7
			c-0.4-0.2-0.9-0.4-1.6-0.8c-0.3-0.2-1-0.6-1.2-0.6c-0.5-0.1-2.4,0.2-3.1,0.5c-2,0.8-3.5,3.5-3.9,4.4c-0.2,0.5-0.4,1.1-0.6,1.7
			c-0.1,0.3-0.2,0.5-0.2,0.8c1.1,0.7,2.1,1.6,3.1,2.5c0.9,0.8,1.9,1.6,2.9,2.3c3.6,2.5,7.6,5.1,11.9,7.6c0.2,0.1,0.5,0.3,0.8,0.4
			C148.3,146.5,148.6,146.5,149,146.5z M154.5,144.1C154.5,144.1,154.5,144.1,154.5,144.1C154.5,144.1,154.5,144.1,154.5,144.1z
			 M119.6,136.2c-0.4,0.4-0.7,0.8-0.9,1.2c-0.4,0.9-0.3,2,0.2,3c0.4-0.1,0.9-0.2,1.2-0.4c0.5-0.2,0.7-0.5,0.8-0.7
			C121.2,138.6,120.3,137.2,119.6,136.2z M125.6,132c0.3,0.1,0.5,0.1,0.8,0.2c0-0.1,0-0.2,0.1-0.2c0.1-0.2,0.1-0.4,0.2-0.7
			C126.3,131.6,126,131.8,125.6,132z M39.7,121.1c3.1,0,6.9,0.4,9.7,2.2c2.8,1.7,3.5,4.4,4,6.5c0.2,0.6,0.3,1.2,0.5,1.7
			c1.1-1.8,1.4-3.5,1.9-5.9L56,125c0.2-1.1,0.5-2.1,0.7-3.1c0.5-2.1,1.1-4.1,0.9-6.5c-0.1-1-0.2-1.9-0.3-2.8
			c-0.3-2.8-0.6-5.5-0.1-8.8c0.2-1,0.4-2.2,0.8-3.5c-0.3-1-0.5-2-0.7-3l-0.2-0.8c-0.6-2.6-1.5-6.6,0.4-8.9c1.5-1.9,2.9-1.9,3.8-1.5
			c2.2,1,2.2,4.9,1.9,6.3c-0.3,2.2-0.9,4.3-1.5,6.4l-0.4,1.5l0.3,1.2c1,3.6,2,7.2,2,10.9c0,1.6-0.4,3-0.7,4.3
			c-0.3,1.1-0.5,2.1-0.6,3.2c0,1.3,0.3,2.2,0.7,3.3c0.3,0.8,0.6,1.7,0.8,2.7c0,0.2,0.1,0.3,0.1,0.5c0.4-1.2,0.7-2.3,1-3.5
			c0.6-2.3,1.3-4.6,2.2-7c1.2-3.1,2.5-6.5,3.2-9.8c-1-0.2-1.8-0.6-2.5-1.2c-4.5-3.7-2.5-13.9-1-21.3c0.2-1.1,0.4-2.1,0.6-3
			c-0.6-2.7-1.3-6.2-1.5-10c-0.2-3.9-0.3-7.4-0.2-10.7c-2,2.3-4.8,3.4-7.6,4.5c-1.7,0.6-3.2,1.3-4.5,2.1c-3.2,2-5.1,5.6-5.5,10.6
			c-0.4,4.5-1.3,8.9-2.1,13.1c-0.2,1.2-0.5,2.3-0.7,3.5c-0.2,0.8-0.4,1.6-0.6,2.4c-0.4,1.6-0.8,3.1-0.8,4.7c0,0.9,0.2,1.9,0.4,2.9
			c0.3,1.5,0.6,3.2,0.3,5.1c-0.4,2.2-1.7,4.1-2.9,6c-1.5,2.2-2.8,4.2-2.5,6.2C39.4,121.1,39.6,121.1,39.7,121.1z M121.8,129.4
			L121.8,129.4c1.4,0.9,2.8-0.1,5.6-2.9c1.3-1.3,2.6-2.5,3.9-3.2c3.7-2,6.8-1.7,9.5,0.7c-0.2-0.4-0.7-1.1-1.4-2.1
			c-1.9-2.5-2.6-3.8-3.1-6.8c-0.4-2.7-0.6-5.5-0.8-8.2c-0.2-2.6-0.3-5.3-0.7-7.9c-0.5-3.1-1.5-6.1-2.4-9c-0.6-1.9-1.3-4-1.8-6
			c-0.4-1.8-0.7-3.7-1-5.8c-0.4-3-0.8-6.2-1.8-8.4c-1.3-2.8-4.3-3.8-7.6-4.9c-1.2-0.4-2.3-0.8-3.3-1.3c-2.6-1.2-5-2.8-7.2-4.3
			c-1.7-1.2-3.3-2.3-5-3.2c-1.1-0.6-1.9-0.9-2.4-1.1c0.7,0.6,2,1.3,2.5,1.6c0.6,0.3,1.1,0.7,1.5,0.9c4.2,3,3,6.3,2,8.9
			c-0.5,1.2-0.9,2.5-1,3.9c-0.2,2.8,1.1,4.9,2.6,7.2c1.2,2,2.5,4,2.9,6.6c0.6,3.8-0.2,7.5-0.9,11c-0.4,2.2-0.9,4.5-1,6.6
			c-0.2,5.1,1.1,12.8,4.2,19.1c0.1-0.9,0.3-1.9,0.5-2.8c0.2-1,0.4-2.1,0.6-3.2c0.3-1.9,0.3-3.8,0.2-6c-1.1-2.3-2.4-4.8-2.7-7.9
			c-0.2-1.7,0-3.1,0.4-4.5c-0.2-1.8,0-3.5,0.5-5.4c0.8-2.9,2.1-6.4,4.2-6.7c0.9-0.2,1.9,0.3,2.5,1.2c1.5,2.2-0.6,5.4-2.1,7.7
			c-0.3,0.5-0.6,1-0.8,1.2c-0.4,0.9-0.8,1.6-1.1,2.4c0.1,0.6,0.2,1.2,0.3,1.8c0.7,3,1.4,6.2,1.7,9.4c0.9,1.8,1.9,3.8,2.4,6
			c0.7,2.7,0.4,5.6,0.1,8.3c-0.2,2.2-0.5,4.6-0.1,6.7C121.8,129.1,121.8,129.2,121.8,129.4z M44.2,124.6c2.1,1,4.3,2.7,5.9,4.7
			c-0.4-1.3-1-2.5-2.3-3.3C46.8,125.3,45.5,124.9,44.2,124.6z M117.9,125.5c0.2,0.2,0.3,0.4,0.5,0.7c0-1.4,0.2-2.8,0.3-4.2
			c0.2-1.9,0.4-3.7,0.3-5.4c-0.1,0.7-0.2,1.3-0.4,2C118.2,121,117.8,123.2,117.9,125.5z M138,124.5c0.2,0.1,0.3,0.2,0.5,0.3
			C138.4,124.6,138.2,124.5,138,124.5C138,124.4,138,124.5,138,124.5z M60.1,108.5c0.1,1.3,0.2,2.5,0.3,3.8c0,0.1,0,0.3,0,0.4
			c0-0.1,0-0.1,0-0.2C60.5,111.1,60.3,109.8,60.1,108.5z M69.3,88.1c-1,5.6-1.7,12.4,0.7,14.5c0.3,0.2,0.6,0.4,1,0.5
			c0-0.4,0.1-0.8,0.1-1.3C71.2,97,70.4,92.5,69.3,88.1z M70.7,80.6c0.3,1.2,0.6,2.4,0.9,3.6c1.4,5.5,2.9,11.2,2.6,17.6
			c0,0.3,0,0.6-0.1,0.9c0.4-0.1,0.8-0.2,1.2-0.4c5.9-2.3,7.7-4.6,7.7-10.2c0-4.8-1-8.6-2.2-13l-0.3-1c-1.5-5.9-2.4-11.3-2.7-16.7
			c0-0.7,0-1.4,0-2.1c-3-8.6-3.2-13.2-0.7-15c0,0,0.1-0.1,0.1-0.1c-2.6-2.2-3-5-3.6-9c-1.2-8.3-3.2-23,5.7-27.9
			c-1,0.3-2.3,0.9-3,1.7c-1.3,1.3-1.9,2.9-2.6,4.8l-0.3,0.8C71,21.3,70.5,29.3,70,37c-0.1,2-0.3,4.1-0.4,6.2
			c0.4-0.3,0.8-0.4,1.2-0.4c2-0.1,2.8,2.2,3,3c1.3,3.7,0.5,8.5-0.2,12.8c-0.2,1.4-0.5,2.8-0.6,3.9C72.4,68.6,71.6,74.7,70.7,80.6
			L70.7,80.6z M60.1,89.6C60,89.6,60,89.6,60.1,89.6c-0.7,0.8-0.5,2.6-0.3,4.2c0.1-0.6,0.2-1.2,0.3-1.8
			C60.2,91.1,60.2,90.2,60.1,89.6z M81,58.8c0.7,1.9,1.5,4,2.4,6.3l0.7,1.8c1.3,3.3,2.7,6.6,3.3,10.3c0.1,0.9,0.2,1.9,0.3,3.1
			c0.1,1.9,0.2,4.3,0.8,5.8c2.2-2.3,4.3-6.6,6.2-12.9c1.5-5.1,2.1-10.4,1.5-14.4c-0.2-1.1-0.5-2.3-0.8-3.5c-0.3-1.3-0.7-2.6-0.8-3.9
			c-0.1-0.4-0.1-1.1-0.1-1.8c-0.1-2.4-0.3-3.7-0.5-4.1c-0.3,0-1.5,0.6-2,0.8c-0.7,0.4-1.4,0.7-2.1,0.9c-2.8,0.7-5.5,0.5-8.4-0.6
			c-0.5-0.2-1-0.4-1.5-0.6c1.3,3.4,1.2,7.2,1.1,10.9C81,57.5,81,58.2,81,58.8z M82,70c0.4,2.4,0.9,4.8,1.6,7.3l0.3,1
			c0.3,0.9,0.5,1.9,0.7,2.8c0-0.2,0-0.4,0-0.7c-0.1-1.1-0.1-2.1-0.2-2.8C83.9,75,83,72.6,82,70z M70.8,46.8c-0.2,0.4-0.4,1-0.5,1.7
			c-0.6,2.5-1,5.1-1.2,7.1c-0.3,4.1-0.3,8.5-0.1,13.6c0.3-2.4,0.5-4.7,0.8-7.1c0.1-1.2,0.4-2.7,0.6-4.2
			C71.1,54.1,71.8,49.7,70.8,46.8z M67.1,54.8C67.1,54.8,67.1,54.8,67.1,54.8c0,0,0-0.1,0-0.1C67.1,54.7,67.1,54.8,67.1,54.8z
			 M67.9,49.5c0,0.2,0,0.4-0.1,0.6C67.9,49.9,67.9,49.7,67.9,49.5C68,49.5,67.9,49.5,67.9,49.5C67.9,49.5,67.9,49.5,67.9,49.5z
			 M85.1,9.1c-0.8,0-1.6,0.1-2.4,0.3c-9.1,2.8-7,17.4-5.9,25.3c0.8,5.4,1,7,5.7,8.8c2.3,0.9,4.4,1,6.5,0.5c0.4-0.1,0.9-0.4,1.5-0.6
			c1.6-0.8,3.7-1.8,5.4-0.4c0.3,0.3,0.6,0.6,0.8,1c0.4-4.2,2-8.2,4.5-10.9c1.1-1.1,1.8-2.2,2.4-3.2c0.2-1.1,0.4-2.2,0.5-3.3
			c-0.1-0.5-0.3-0.8-0.6-0.9c-0.4-0.2-1,0.2-1.2,0.4c-0.4,0.3-0.9,0.4-1.4,0.2c-0.5-0.1-0.8-0.5-1-1c-0.6-1.5-0.9-2.9-1.2-4.2
			c-0.7-2.9-1.3-5-3.8-7.5C92.5,11.3,88.8,9.1,85.1,9.1z M101,39.4c-0.3,0.7-0.5,1.5-0.7,2.3C100.5,40.9,100.8,40.1,101,39.4z
			 M103.3,22.4c0.3,0,0.7,0,1,0.1c0-8.7-3.5-14.6-10.5-17.6c-2-0.8-4.9-1.7-6.8-1.5c-3,0.3-4.6,2.8-4.7,2.8c0,0,0,0,0,0.1
			c5.5-1.4,11.4,1.8,14.7,5c3.2,3.1,3.9,5.9,4.7,9c0.2,0.7,0.4,1.5,0.6,2.2C102.6,22.4,102.9,22.4,103.3,22.4z"/>
	</g>
</g>
</svg>
