<?xml version="1.0" encoding="utf-8"?>
<!-- Generator: Adobe Illustrator 25.0.0, SVG Export Plug-In . SVG Version: 6.00 Build 0)  -->
<svg version="1.1" id="Lag_1" xmlns="http://www.w3.org/2000/svg" xmlns:xlink="http://www.w3.org/1999/xlink" x="0px" y="0px"
	 viewBox="0 0 34 34" enable-background="new 0 0 34 34" xml:space="preserve">
<g>
	<defs>
		<rect id="SVGID_1_" width="34" height="34"/>
	</defs>
	<clipPath id="SVGID_2_">
		<use xlink:href="#SVGID_1_"  overflow="visible"/>
	</clipPath>
	<g clip-path="url(#SVGID_2_)" enable-background="new    ">
		<g>
			<defs>
				<rect id="SVGID_3_" x="-1.1" y="-1.1" width="36.2" height="35.1"/>
			</defs>
			<clipPath id="SVGID_4_">
				<use xlink:href="#SVGID_3_"  overflow="visible"/>
			</clipPath>
			<g clip-path="url(#SVGID_4_)">
				<defs>
					<path id="SVGID_5_" d="M33.6,32.3L33.6,32.3c-0.6-0.1-1.2-0.2-1.7-0.3c0.2-0.3,0.4-0.6,0.4-0.9c0.2-0.8,0.1-1.5-0.5-2.4
						c-0.1-0.2-0.2-0.3-0.4-0.5c0.1,0,0.2,0,0.2,0c0.1,0.1,0.2,0.1,0.4,0c0.1-0.1,0.2-0.2,0.2-0.3c0.2-0.8,0-1.4-0.3-2l0-0.1
						c-0.1-0.3-0.3-0.7-0.6-0.9c-0.2-0.1-0.4-0.1-0.5,0c-0.1-0.1-0.3-0.2-0.4-0.1c-0.2,0-0.4,0.2-0.6,0.3c-0.1,0-0.2,0-0.3,0
						c-0.2,0.1-0.3,0.3-0.4,0.4c0,0.1,0,0.1-0.1,0.1c0,0-0.3,0-0.6-0.4c-0.4-0.3-0.7-0.8-1-1.4c-0.1-0.1-0.1-0.2-0.2-0.3
						c0,0,0,0,0-0.1c0-0.1,0.1-0.1,0.1-0.2c0.2-0.5-0.2-0.9-0.4-1.2c-0.3-0.4-0.4-0.5-0.4-0.9c-0.1-0.5-0.1-1-0.1-1.5
						c0-0.5-0.1-1-0.1-1.5c-0.1-0.6-0.3-1.2-0.5-1.8c-0.1-0.3-0.2-0.7-0.3-1.1c-0.1-0.3-0.1-0.6-0.2-1c-0.1-0.6-0.2-1.3-0.4-1.8
						c-0.4-0.8-1.2-1.1-1.8-1.3c-0.2-0.1-0.4-0.1-0.5-0.2c-0.4-0.2-0.8-0.5-1.2-0.7c-0.3-0.2-0.6-0.4-1-0.6
						c-0.4-0.2-0.9-0.5-1.3-0.3c0,0,0.1,0,0.1-0.1C19.5,9,19.8,8.1,20,7.4l0.1-0.2c0.1-0.4,0.3-0.9,0.3-1.3c0.1-0.3,0.2-0.5,0.2-0.7
						c0-0.1,0-0.1,0-0.2c0-0.1,0-0.2,0-0.3c0.1-2.1-0.7-3.6-2.4-4.3C17.8,0.1,17.1,0,16.6,0c-0.7,0.1-1.1,0.5-1.3,0.7
						c-0.3,0.1-0.8,0.2-1.1,0.6c-0.3,0.4-0.5,0.8-0.6,1.1l-0.1,0.1c-0.5,1.3-0.6,2.9-0.7,4.4c0,0.5-0.1,1-0.1,1.5c0,0.2,0,0.3,0,0.5
						c0,0.7-0.1,1.4-0.4,1.8c-0.3,0.3-0.7,0.5-1.2,0.7c-0.3,0.1-0.7,0.3-1,0.4c-0.8,0.5-1.2,1.4-1.3,2.5c-0.1,0.8-0.2,1.5-0.4,2.3
						l0,0.1c0,0.2-0.1,0.4-0.1,0.6c0,0.1-0.1,0.3-0.1,0.4C8.1,18,8,18.4,8,18.8c0,0.2,0,0.5,0.1,0.7c0,0.3,0.1,0.5,0,0.7
						c0,0.3-0.2,0.5-0.4,0.8c-0.4,0.5-0.8,1.2-0.5,2c0,0.1,0.1,0.1,0.1,0.2c-0.4,0.3-0.8,0.7-1.2,1.1c-0.1,0.2-0.3,0.3-0.4,0.4
						c-0.1,0.1-0.2,0.2-0.3,0.4c-0.2,0.2-0.3,0.4-0.5,0.5c-0.2,0.1-0.2,0.1-0.5,0c-0.1-0.1-0.2-0.1-0.4-0.2c0,0-0.1,0-0.1-0.1
						c-0.1-0.1-0.3-0.1-0.5-0.1c-0.1-0.3-0.3-0.5-0.6-0.6c-0.1,0-0.2,0-0.3,0c-0.2-0.1-0.4,0-0.5,0c-0.7,0.4-0.7,2.2-0.7,2.3
						c0.1,0.5,0.4,0.9,0.8,1.1c-0.4,0.4-0.6,1-0.6,1.6c0,0.9,0.5,1.9,1.3,2.6c-0.2,0-0.5,0.1-0.7,0.1c-0.7,0.2-1.4,0.3-1.8,0.3
						c-0.1,0-0.2,0.1-0.3,0.2C0,33,0,33.1,0,33.2c0,0.3,0.3,0.4,0.5,0.4c0.4,0,1.1-0.2,1.9-0.4c0.4-0.1,0.9-0.2,1.4-0.3
						c0.7,0.3,2.2,1,3.4,1C7.5,34,7.8,34,8,33.8c0.2-0.1,0.5-0.4,0.5-0.9c0-0.3-0.1-0.6-0.4-0.8C7.4,31.5,5.7,31.7,4,32
						c-0.8-0.4-1.5-1.5-1.5-2.4c0-0.4,0.1-0.9,0.7-1.2c0.1-0.1,0.2-0.1,0.3-0.1c0.1,0,0.3,0,0.4,0l0.2,0c0.7,0,1.4-0.2,2.1-0.3
						c1.1-0.2,2.1-0.5,3.1-0.2c0.3,0.1,0.7,0.3,1,0.4c0.4,0.2,0.9,0.5,1.5,0.6c0.5,0.1,1,0.1,1.5,0l0.1,0c0.1,0,0.2,0,0.3,0
						c0.3,0.1,0.5,0.2,0.8,0.3c0.1,0.1,0.3,0.1,0.4,0.2c0.2,0.1,0.5,0.2,0.7,0.3c0.1,0.1,0.2,0.3,0.2,0.5c0,0.1,0.1,0.3,0.1,0.4
						c0,0.1,0.1,0.2,0.1,0.3c0,0.1,0.1,0.2,0.1,0.2c0,0-0.1,0.1-0.1,0.1c-0.1,0.1-0.4,0.2-0.6,0.2c-0.3,0.1-0.7,0.2-0.9,0.4
						c-0.1,0.1-0.2,0.3-0.1,0.4c0,0.2,0.2,0.3,0.3,0.3l0.2,0c0.2,0.1,0.5,0.1,0.8,0.1c1-0.1,1.6-0.4,2.4-1.1
						c0.6-0.5,1.4-0.9,2.1-1.2c0.9-0.4,1.6-0.7,2.4-1.2l0.1-0.1c0.3-0.2,0.7-0.4,1-0.6c0.2-0.1,0.4-0.1,0.7-0.1c0.2,0,0.4,0,0.6,0
						c0.1,0,0.2,0,0.2-0.1c0.4,0.1,0.8-0.1,1.2-0.2c0.2-0.1,0.4-0.1,0.6-0.1c0.2,0,0.4-0.1,0.7-0.1c0.4,0.2,0.8,0.5,1.2,0.4
						c0.1,0,0.1,0,0.2-0.1c0.2,0.2,0.4,0.3,0.8,0.4c0.2,0,0.4,0,0.6,0c0.2,0.2,0.4,0.3,0.5,0.6c0.4,0.6,0.5,1.2,0.4,1.7
						c-0.1,0.3-0.3,0.7-0.6,0.9c-1.5-0.3-2.5-0.5-3-0.1c-0.2,0.2-0.3,0.4-0.3,0.7c0,0.3,0.1,0.6,0.4,0.8c0.2,0.1,0.5,0.2,0.8,0.2
						c0.8,0,1.8-0.4,2.2-0.5c0,0,0.1,0,0.1,0c0.8,0.2,1.6,0.3,2.3,0.5c0.2,0,0.5-0.1,0.5-0.4C34,32.6,33.9,32.3,33.6,32.3z
						 M29.7,26.3c0.1-0.1,0.1-0.1,0.1-0.2c0,0,0,0,0,0c0.1,0.1,0.3,0.1,0.4,0c0.1-0.1,0.2-0.2,0.2-0.3c0,0,0,0,0,0
						c0.2,0.1,0.4,0.1,0.6,0c0.1,0.1,0.1,0.3,0.2,0.4l0,0.1c0.1,0.4,0.3,0.7,0.3,1c-0.3,0-0.5,0.2-0.7,0.3l-0.1,0
						c-0.3-0.2-0.6-0.3-0.9-0.4c0-0.2,0-0.4-0.1-0.7c0,0,0-0.1-0.1-0.1C29.6,26.4,29.7,26.4,29.7,26.3L29.7,26.3L29.7,26.3z
						 M16.6,29.3c0,0.1,0,0.2,0,0.3c-0.1-0.2-0.1-0.3-0.2-0.5C16.5,29.2,16.5,29.2,16.6,29.3z M17.1,31.2c0,0-0.1,0.1-0.1,0.1
						C17,31.2,17,31.1,17,31C17,31.1,17.1,31.1,17.1,31.2z M10.6,27.3C10.6,27.3,10.6,27.3,10.6,27.3c-0.3-0.2-0.7-0.3-1-0.4
						c-0.3-0.1-0.5-0.1-0.8-0.1c0.6-0.3,1.5-0.7,1.7-1.4c0.1,0,0.1,0.1,0.2,0c0.1,0,0.2-0.1,0.3-0.2c0.5-0.6,0.6-1.1,0.7-1.7l0-0.1
						c0,0,0,0,0,0c0,0.1,0,0.1,0.1,0.2c0.1,0.6-0.1,0.9-0.5,1.4c-0.2,0.2-0.3,0.4-0.5,0.7C10.4,26.2,10.4,26.8,10.6,27.3z M4.3,26.8
						c0-0.2,0-0.3-0.1-0.5c0.3,0.2,0.7,0.4,1.3,0c0.3-0.2,0.5-0.4,0.7-0.7c0.1-0.1,0.2-0.2,0.3-0.3c0.1-0.1,0.3-0.3,0.4-0.5
						c0.4-0.4,0.9-1.1,1.3-1.1c0.4,0,1.4,0.8,1.4,1.2c0.1,0.4-0.9,0.9-1.4,1.1c-0.1,0-0.2,0.1-0.3,0.1c-0.7,0.3-1.5,0.5-2.3,0.6
						c-0.5,0.1-1,0.2-1.5,0.3C4.2,27,4.3,26.9,4.3,26.8z M9,19.3l-0.1,0L9,19.3c0-0.2-0.1-0.4-0.1-0.5c0-0.3,0.1-0.6,0.1-0.8
						c0-0.1,0.1-0.3,0.1-0.4c0-0.2,0.1-0.4,0.1-0.7c0.2-0.8,0.3-1.6,0.4-2.4c0.1-0.9,0.4-1.5,0.9-1.9c0.2-0.1,0.5-0.3,0.8-0.4
						c0.4-0.2,0.9-0.3,1.2-0.6c0,0.5,0,1.1,0,1.7c0,0.7,0.2,1.4,0.3,1.8c0,0.2-0.1,0.3-0.1,0.5c-0.3,1.4-0.6,3.3,0.2,4.1
						c0.1,0.1,0.2,0.2,0.4,0.2c-0.1,0.6-0.3,1.1-0.6,1.7c-0.2,0.4-0.3,0.9-0.4,1.3c0,0.1,0,0.1-0.1,0.2c0,0,0-0.1,0-0.1
						c-0.1-0.2-0.1-0.4-0.1-0.6c0-0.2,0.1-0.4,0.1-0.6c0.1-0.3,0.1-0.5,0.1-0.8c0-0.7-0.2-1.4-0.4-2l-0.1-0.2l0.1-0.2
						c0.1-0.4,0.2-0.8,0.3-1.2c0.1-0.4,0-1.1-0.4-1.3c-0.2-0.1-0.5-0.1-0.9,0.3c-0.4,0.5-0.2,1.3-0.1,1.8l0,0.1
						c0,0.2,0.1,0.3,0.1,0.5c-0.1,0.2-0.1,0.4-0.1,0.6c-0.1,0.6,0,1.1,0,1.7c0,0.2,0,0.3,0.1,0.5c0,0.4-0.1,0.8-0.2,1.2
						c0,0.2-0.1,0.4-0.1,0.6l0,0.1c-0.1,0.3-0.1,0.5-0.2,0.8c-0.1-0.4-0.2-0.9-0.8-1.3c-0.4-0.3-1.1-0.4-1.8-0.4
						c0-0.3,0.2-0.6,0.4-0.9c0.2-0.4,0.5-0.7,0.6-1.2C9.1,19.9,9,19.6,9,19.3z M19.5,3.8c-0.1-0.6-0.3-1.1-0.9-1.7
						c-0.5-0.5-1.4-1-2.3-1c0,0-0.1,0-0.1,0c0.1-0.1,0.3-0.2,0.5-0.2c0.3,0,0.8,0.1,1.2,0.3c1.2,0.5,1.8,1.5,1.9,3c0,0-0.1,0-0.1,0
						C19.6,4,19.6,3.9,19.5,3.8z M16.4,1.9c0.6,0,1.3,0.4,1.7,0.8c0.4,0.4,0.5,0.8,0.7,1.3c0.1,0.2,0.1,0.5,0.2,0.8
						c0,0.1,0.1,0.2,0.3,0.3c0.1,0,0.3,0,0.4-0.1c0,0,0.1,0,0.1-0.1c0,0,0,0,0,0.1c0,0.2,0,0.4-0.1,0.6c-0.1,0.2-0.2,0.4-0.4,0.5
						c-0.4,0.4-0.7,1.1-0.8,1.8C18,7.6,17.6,7.9,17.3,8c-0.1,0-0.2,0.1-0.2,0.1c-0.4,0.1-0.7,0.1-1.1-0.1c-0.8-0.3-0.8-0.5-1-1.5
						c-0.2-1.4-0.6-4.1,1-4.5C16.1,1.9,16.2,1.9,16.4,1.9z M19.1,10.8C19.1,10.8,19.1,10.8,19.1,10.8c0.2,0.1,0.4,0.2,0.6,0.3
						c0.1,0,0.2,0.1,0.2,0.1c0.3,0.2,0.3,0.3,0.1,0.8c-0.1,0.3-0.2,0.6-0.2,0.9c-0.1,0.8,0.3,1.3,0.6,1.8c0.2,0.3,0.4,0.6,0.4,0.9
						c0.1,0.6,0,1.2-0.2,1.8c-0.1,0.4-0.2,0.9-0.2,1.3c-0.1,1.3,0.4,3.3,1.3,4.7c0,0.3,0.1,0.5,0.2,0.8c0.1,0.1,0.2,0.3,0.3,0.4
						c-0.1,0.1-0.2,0.3-0.3,0.4c-0.1,0.3-0.1,0.6,0,0.8c-0.1,0-0.2,0.1-0.2,0.1c-0.1,0.1-0.3,0.1-0.4,0.2c-0.2,0.1-0.4,0.2-0.6,0.3
						c-0.5,0.2-1.1,0.1-1.7-0.1c-0.3,0-0.5-0.1-0.8-0.1c-1.2-0.1-2.1-0.2-3.2,0.2c-0.8,0.3-1.9,0.4-2.6,0c-0.4-0.2-0.3-0.6,0.3-1.6
						c0.1-0.2,0.2-0.4,0.3-0.6c0.2-0.5,0.4-1,0.5-1.5c0.1-0.4,0.2-0.8,0.4-1.2c0.2-0.6,0.5-1.3,0.6-2c0.1,0,0.3-0.1,0.4-0.1
						c1.4-0.5,1.9-1.2,1.9-2.6c0-0.1,0-0.2,0-0.4c0.1,0.1,0.3,0.1,0.5,0c0.6-0.4,1.2-1.4,1.7-3C19.1,12.8,19.2,11.7,19.1,10.8z
						 M20.9,11.2c0.4,0.3,0.8,0.6,1.3,0.8c0.2,0.1,0.4,0.2,0.6,0.2c0.6,0.2,1.1,0.4,1.3,0.8c0.2,0.4,0.3,1,0.3,1.5
						c0,0.4,0.1,0.7,0.2,1.1c0.1,0.4,0.2,0.7,0.3,1.1c0.2,0.5,0.3,1.1,0.4,1.6c0.1,0.5,0.1,1,0.1,1.5c0,0.5,0.1,1,0.1,1.5
						c0.1,0.5,0.2,0.8,0.5,1.2c-0.4-0.1-0.8-0.1-1.3,0.2c-0.3,0.1-0.5,0.4-0.8,0.6c-0.5,0.5-0.7,0.6-0.8,0.5l0,0
						c-0.1-0.4,0-0.8,0-1.2c0.1-0.5,0.1-1.1,0-1.6c-0.1-0.4-0.3-0.8-0.4-1.1c-0.1-0.6-0.2-1.2-0.3-1.7c0-0.1,0-0.2-0.1-0.3
						c0-0.1,0.1-0.2,0.2-0.4c0,0,0.1-0.1,0.1-0.2c0.3-0.5,0.7-1.1,0.4-1.6c-0.2-0.3-0.5-0.3-0.6-0.3c-0.4,0.1-0.7,0.5-0.9,1.3
						c-0.1,0.4-0.1,0.7-0.1,1c-0.1,0.3-0.1,0.5-0.1,0.9c0.1,0.6,0.3,1.1,0.5,1.5c0,0.4,0,0.7,0,1c0,0.2-0.1,0.4-0.1,0.6
						c0,0,0,0,0,0.1c-0.4-1.1-0.6-2.3-0.6-3.1c0-0.4,0.1-0.8,0.2-1.2c0.1-0.7,0.3-1.4,0.2-2.1c-0.1-0.5-0.3-0.9-0.6-1.3
						c-0.3-0.4-0.5-0.8-0.5-1.3c0-0.2,0.1-0.4,0.2-0.7C20.9,12.1,21.1,11.6,20.9,11.2z M18,13.6c-0.3,1-0.6,1.7-1,2.1
						c0-0.2-0.1-0.5-0.1-0.8c0-0.2,0-0.4-0.1-0.6c-0.1-0.7-0.4-1.3-0.6-1.9l-0.1-0.3c-0.2-0.4-0.3-0.8-0.4-1.1c0-0.1,0-0.2,0-0.4
						c0-0.6,0-1.2-0.1-1.8c0.6,0.2,1.1,0.2,1.6,0.1c0.1,0,0.3-0.1,0.4-0.2c0.1-0.1,0.2-0.1,0.2-0.1c0,0.1,0,0.3,0,0.6
						c0,0.1,0,0.3,0,0.4c0,0.2,0.1,0.5,0.2,0.7c0.1,0.2,0.1,0.4,0.1,0.6C18.4,11.7,18.3,12.6,18,13.6z M13.6,18.9
						C13.6,18.9,13.6,18.9,13.6,18.9c-0.2-0.2-0.3-0.8-0.2-1.8C13.6,17.7,13.6,18.3,13.6,18.9z M21.6,27.1c-0.1,0.1-0.2,0.1-0.3,0.2
						c-0.1,0.1-0.3,0.1-0.4,0.2C21.2,27.4,21.4,27.3,21.6,27.1C21.6,27.1,21.6,27.1,21.6,27.1z M22.7,25.6
						C22.7,25.5,22.7,25.5,22.7,25.6c0.2,0.2,0.2,0.3,0.2,0.3c0,0,0,0-0.1,0c0,0-0.1,0-0.1,0C22.6,25.8,22.6,25.7,22.7,25.6z
						 M14.9,11.1c0,0.1,0,0.2,0,0.4c0,1,0.2,2,0.5,3.1l0,0.2c0.2,0.8,0.4,1.5,0.4,2.4c0,1-0.3,1.4-1.3,1.8c0,0,0,0,0,0
						c0-1.2-0.2-2.2-0.5-3.3l0,0c-0.1-0.2-0.1-0.4-0.1-0.6c0.2-1.1,0.3-2.2,0.4-3.4c0-0.2,0.1-0.5,0.1-0.7c0.1-0.4,0.1-0.7,0.2-1.1
						C14.6,10.2,14.7,10.6,14.9,11.1z M14.1,6.6l0.1,0L14.1,6.6c0.1,0.7,0.2,1.2,0.6,1.6c-0.1,0.1-0.2,0.3-0.2,0.5
						c0-0.1,0-0.2-0.1-0.3c-0.1-0.2-0.2-0.6-0.7-0.6c0,0,0,0,0,0c0,0,0,0-0.1,0c0-0.3,0-0.6,0.1-0.9c0.1-0.8,0.1-1.6,0.2-2.4
						C13.9,5.3,14,6.1,14.1,6.6z M13.5,10.8c0-0.1,0-0.3,0-0.4c0-0.3,0.1-0.6,0.1-1C13.7,9.8,13.6,10.3,13.5,10.8z M15.1,27.5
						c1-0.3,1.8-0.3,2.9-0.1c-0.1,0.1-0.3,0.2-0.4,0.3c-0.2,0.2-0.2,0.4-0.3,0.5c0,0.1,0,0.1-0.1,0.1c0,0.1-0.1,0.1-0.2,0.2
						c0,0-0.1,0-0.1,0.1c-0.6-0.5-1.4-0.5-2-0.6l-0.3,0c-0.2,0-0.4,0-0.7,0c-0.1,0-0.1,0-0.2,0c-0.1,0-0.2,0-0.2-0.1
						C14.2,27.8,14.7,27.6,15.1,27.5z M17.7,29.1c0.1-0.1,0.2-0.2,0.3-0.3c0.1-0.1,0.1-0.2,0.1-0.3c0-0.1,0-0.1,0.1-0.1
						c0.2-0.2,0.6-0.2,0.9-0.2c0.3,0,0.5,0.1,0.8,0.1c0.5,0.2,1.2,0.3,1.9-0.2c0.1-0.1,0.3-0.2,0.5-0.3c0.2-0.2,0.5-0.3,0.7-0.5
						c0.1,0,0.3,0.1,0.5,0.1c0.3,0.1,0.4,0.1,0.5,0.1c-0.2,0-0.3,0-0.5,0.1c-0.4,0.2-0.8,0.4-1.2,0.6l-0.1,0.1
						c-0.8,0.5-1.4,0.8-2.3,1.1c-0.6,0.3-1.2,0.5-1.8,0.9C18,29.9,17.8,29.5,17.7,29.1C17.6,29.1,17.6,29.1,17.7,29.1z M23.7,26
						c0-0.1,0-0.2,0-0.3c0.2,0,0.4-0.1,0.5-0.2c0.1,0.1,0.3,0.2,0.4,0.3c0.2,0.2,0.4,0.3,0.6,0.5c0.4,0.3,0.9,0.6,1.4,0.9
						c-0.1,0-0.3,0.1-0.4,0.1c-0.3,0.1-0.6,0.2-0.8,0.1c0,0,0,0,0,0c-0.3-0.6-1.1-1-1.3-1.1c-0.1-0.1-0.3-0.1-0.4-0.1
						C23.6,26.2,23.7,26.1,23.7,26z M24.7,24.7c0-0.1,0.1-0.2,0.1-0.3c0.1-0.3,0.4-0.6,0.6-0.7c0.1,0,0.4-0.1,0.5-0.1
						c0,0,0.1,0,0.2,0.1c0.1,0.1,0.2,0.1,0.3,0.1c0.1,0.1,0.1,0.2,0.2,0.3c0.1,0.1,0.1,0.2,0.2,0.3l0,0c0.3,0.5,0.6,1.1,1.2,1.6
						c0.2,0.1,0.4,0.3,0.7,0.4l0,0l0,0c0.1,0,0.1,0.1,0.2,0.1c0,0,0,0,0,0c-0.1,0.2-0.1,0.4-0.1,0.5c-0.2,0-0.4,0-0.6,0
						c-0.1,0-0.1,0-0.2,0c0,0-0.1,0-0.1-0.1c-0.8-0.4-1.5-0.9-2.2-1.4c-0.2-0.1-0.4-0.3-0.5-0.4C25,25,24.9,24.9,24.7,24.7
						C24.7,24.7,24.7,24.7,24.7,24.7z M3.8,27.2c-0.2,0.1-0.3,0.1-0.5,0.2c-0.7,0-0.9-0.2-1-0.6c0-0.2,0.1-1,0.2-1.3
						c0,0,0.1,0,0.1,0c0,0,0.1,0,0.1,0c0.1,0.2,0.1,0.4,0.2,0.5C3.1,26.5,3.3,27.1,3.8,27.2C3.7,27.2,3.8,27.2,3.8,27.2z M18.9,9.6
						C18.9,9.6,18.9,9.7,18.9,9.6c-0.1,0.1-0.1,0-0.1,0C18.9,9.6,18.9,9.6,18.9,9.6C19,9.6,19,9.6,18.9,9.6z M5.5,32.7
						c1.4-0.2,1.8-0.1,2,0.1c0,0,0,0,0,0.1c0,0.1,0,0.1-0.1,0.1C7.2,33.2,6.5,33.1,5.5,32.7z M29.1,32.4c-0.3,0-0.5,0-0.6,0
						C28.7,32.4,28.8,32.4,29.1,32.4z M28.5,32.4l-0.1,0.1L28.5,32.4C28.5,32.4,28.5,32.4,28.5,32.4z"/>
				</defs>
				<clipPath id="SVGID_6_">
					<use xlink:href="#SVGID_5_"  overflow="visible"/>
				</clipPath>
				<g clip-path="url(#SVGID_6_)">
					<defs>
						<rect id="SVGID_7_" width="34" height="34"/>
					</defs>
					<clipPath id="SVGID_8_">
						<use xlink:href="#SVGID_7_"  overflow="visible"/>
					</clipPath>
					<rect x="-5.5" y="-5.5" clip-path="url(#SVGID_8_)" fill="#676766" width="45" height="45"/>
				</g>
			</g>
		</g>
	</g>
</g>
</svg>
