<?xml version="1.0" encoding="utf-8"?>
<!-- Generator: Adobe Illustrator 25.0.0, SVG Export Plug-In . SVG Version: 6.00 Build 0)  -->
<svg version="1.1" id="Lag_1" xmlns="http://www.w3.org/2000/svg" xmlns:xlink="http://www.w3.org/1999/xlink" x="0px" y="0px"
	 viewBox="0 0 34 34" enable-background="new 0 0 34 34" xml:space="preserve">
<g id="motivate" transform="translate(27.000000, 194.000000)">
	<g>
		<path id="hand" fill-rule="evenodd" clip-rule="evenodd" fill="#686867" stroke="#989898" stroke-width="0.25" d="M-14.5-169.5
			C-14.5-169.5-14.5-169.5-14.5-169.5c0,0.2-0.1,0.4-0.2,0.5c-0.1,0.1-0.2,0.1-0.3,0.1c-0.2,0-0.4-0.2-0.6-0.5c0,0,0.1,0,0.1-0.1
			c0.3-0.1,0.5-0.3,0.8-0.5l0,0.1c0,0.1,0,0.2,0,0.3C-14.5-169.6-14.5-169.6-14.5-169.5 M-14.4-173.5c0,0,0,0.1,0,0.1l-1.7,0.6
			c0-0.1,0-0.3,0-0.4c0-0.3,0.1-0.7,0.2-0.9c0.1-0.3,0.2-0.5,0.4-0.6c0.1,0,0.1-0.1,0.2-0.1c0.1,0,0.3,0.1,0.4,0.1
			C-14.5-174.4-14.4-173.9-14.4-173.5 M-12.3-169.4L-12.3-169.4C-12.3-169.4-12.3-169.3-12.3-169.4c0,0.1,0,0.2-0.1,0.2
			c0,0,0,0.1,0,0.1c0,0-0.1,0.1-0.1,0.1c-0.2,0.1-0.4,0.2-0.6,0.1c-0.2,0-0.3-0.1-0.4-0.2c-0.1-0.1-0.2-0.2-0.2-0.3
			c0-0.1,0-0.1-0.1-0.2c0-0.1,0-0.1,0-0.2c0-0.1,0-0.3,0-0.5c0-0.2,0-0.3,0-0.5c0,0,0.1-0.1,0.1-0.1l0.1,0c0.1,0,0.1-0.1,0.2-0.1
			c0.1-0.1,0.2-0.1,0.3-0.2c0.3-0.3,0.6-0.8,0.7-1.2c0.1-0.3,0-0.6-0.1-0.8c-0.1-0.3-0.3-0.5-0.6-0.5c-0.2-0.1-0.4,0-0.5,0
			c0.1-0.2,0.2-0.3,0.4-0.4c0.3-0.1,0.6-0.1,0.8,0.1c0.2,0.3,0.3,0.7,0.4,1.1c0,0.2,0,0.3,0.1,0.5c0,0.1,0,0.2-0.1,0.3l0,0
			C-12.3-171.1-12.4-170.3-12.3-169.4 M-10.3-168.9C-10.4-168.9-10.4-168.9-10.3-168.9c-0.1,0.1-0.1,0.1-0.1,0.1
			c0,0-0.1,0.1-0.1,0.1c-0.1,0-0.2,0.1-0.4,0.1c-0.1,0-0.2,0-0.3-0.1c-0.1,0-0.1-0.1-0.2-0.2c0-0.1-0.1-0.1-0.1-0.2l0,0
			c0,0,0,0,0-0.1c0,0,0-0.1,0-0.1c0.1-0.9,0.3-1.9,0.2-2.9c0-0.1,0-0.2,0.1-0.3c0.1-0.3,0.2-0.5,0.3-0.6c0.1-0.1,0.2-0.3,0.4-0.3
			c0.2,0,0.4,0.1,0.5,0.2c0.2,0.2,0.2,0.5,0.2,0.8c0,0.2,0,0.4,0,0.6c-0.1,0.2-0.1,0.3-0.1,0.4c-0.1,0.5-0.1,1-0.2,1.5
			c0,0.3,0,0.5-0.1,0.8C-10.3-169-10.3-169-10.3-168.9 M-8.4-171.5C-8.4-171.5-8.4-171.5-8.4-171.5c-0.1,0.1-0.2,0.2-0.2,0.3
			c0,0.2-0.1,0.4-0.1,0.6c0,0.2-0.1,0.5-0.1,0.7l0,0.2c0,0.2-0.1,0.5-0.1,0.7c-0.1,0.2-0.2,0.4-0.3,0.5c0,0-0.1,0.1-0.1,0.1
			c-0.1,0-0.1,0-0.1,0c0,0,0,0,0,0c0,0-0.1-0.1-0.1-0.1c0,0-0.1-0.1-0.1-0.1c0,0,0,0-0.1-0.1c0,0,0-0.1,0-0.1
			c0.2-0.8,0.3-1.5,0.4-2.3c0-0.1,0-0.2,0-0.4c0,0,0,0,0,0c0.2-0.2,0.5-0.2,0.7-0.1C-8.5-171.6-8.4-171.6-8.4-171.5 M-9.2-172.4
			C-9.3-172.4-9.3-172.4-9.2-172.4L-9.2-172.4c-0.1-0.3-0.2-0.7-0.4-1.1c-0.2-0.3-0.5-0.6-0.9-0.6c-0.3,0-0.6,0.1-0.9,0.3
			c-0.1,0.1-0.2,0.2-0.2,0.3c-0.1-0.3-0.2-0.6-0.4-0.8c-0.4-0.4-0.9-0.5-1.5-0.3c-0.1,0.1-0.3,0.1-0.4,0.2c-0.1-0.2-0.2-0.4-0.4-0.6
			c-0.3-0.3-0.9-0.6-1.4-0.5c-0.4,0.1-0.7,0.5-0.8,0.8c-0.2,0.3-0.3,0.7-0.3,1.2c0,0.3,0,0.6,0,0.8c-0.4,0.1-0.8,0.4-1.1,0.7
			c-0.3,0.4-0.5,1-0.5,1.8c0,1.1,0.3,2.3,0.9,3.2c0.3,0.5,0.7,0.9,1.1,1.3c0.2,0.2,0.4,0.3,0.6,0.5c0.2,0.2,0.4,0.3,0.6,0.5
			c0.4,0.4,0.6,0.8,0.7,1.2c0,0.1,0.1,0.2,0.3,0.2l0.1,0c0.1,0,0.2,0,0.2-0.1c0.1-0.1,0.1-0.2,0.1-0.2c-0.1-0.6-0.5-1.2-0.5-1.2
			c-0.3-0.4-0.7-0.7-1.1-1l-0.1-0.1c-0.5-0.4-0.8-0.7-1.1-1c-0.6-0.8-1-1.8-1.1-2.8c-0.1-0.6,0-1.1,0.1-1.5c0.2-0.5,0.5-0.8,0.9-0.9
			c0.1,0,0.1,0,0.2,0c0,0,0.1,0,0.1,0c0.1,0,0.2,0,0.2-0.1l2-0.7h0c0,0,0.1,0,0.1,0c0,0,0.1,0,0.1,0c0.1,0,0.3-0.1,0.4-0.1
			c0.2-0.1,0.3,0,0.3,0c0.1,0.1,0.1,0.2,0.1,0.3c0,0.1,0,0.3-0.1,0.4c-0.1,0.2-0.2,0.3-0.3,0.4c-0.1,0.1-0.2,0.2-0.3,0.3
			c0,0-0.1,0.1-0.1,0.1c0,0-0.1,0-0.1,0.1c-0.1,0.1-0.2,0.1-0.3,0.2c-0.1,0.1-0.2,0.1-0.3,0.2c-0.2,0.2-0.5,0.3-0.7,0.5
			c-0.2,0.1-0.4,0.2-0.5,0.2c0,0-0.1,0-0.1,0c0,0,0,0-0.1,0c-0.1,0-0.3,0-0.4,0c-0.2,0-0.3,0.1-0.3,0.2c0,0.1,0,0.2,0,0.3
			c0,0.1,0.2,0.3,0.5,0.2c0,0,0,0,0.1,0l0,0c0,0,0,0.1,0.1,0.1c0.3,0.5,0.6,0.8,1,0.9c0.3,0,0.5,0,0.7-0.1c0.1-0.1,0.2-0.1,0.2-0.2
			c0.1,0.1,0.3,0.3,0.5,0.4c0.4,0.2,0.8,0.2,1.2,0.1c0.2-0.1,0.3-0.2,0.5-0.3c0.1,0.1,0.1,0.1,0.2,0.2c0.2,0.1,0.3,0.2,0.5,0.3
			c0.4,0.1,0.8,0,1.1-0.2c0,0,0,0.1,0.1,0.1c0,0.1,0.1,0.1,0.2,0.2c0.1,0.1,0.2,0.1,0.3,0.1c0.2,0,0.4,0,0.5,0
			c0.3-0.1,0.5-0.3,0.7-0.7c0.1-0.3,0.2-0.5,0.2-0.9c0-0.4,0.1-0.7,0.1-1.1l0.1-0.5c0,0,0,0.1,0.1,0.1c0.4,0.6,0.6,1.3,0.6,2.2
			c0,0.4,0,0.8-0.1,1.2c-0.1,0.4-0.2,0.8-0.3,1.2c-0.1,0.2-0.1,0.4-0.2,0.6c-0.2,0.6-0.3,1.2-0.4,1.8c0,0-0.1,0.3-0.1,0.7
			c0,0.2,0.1,0.3,0.3,0.3h0.1c0.2,0,0.3-0.1,0.3-0.3c0.1-0.8,0.3-1.6,0.5-2.4l0.1-0.2c0.2-0.8,0.4-1.7,0.5-2.6c0-1-0.2-1.9-0.5-2.6
			C-7.4-171.4-8.1-172.7-9.2-172.4"/>
		<path id="Fill-4" fill-rule="evenodd" clip-rule="evenodd" fill="#686867" stroke="#989898" stroke-width="0.25" d="M-11.5-182.8
			c0,0.1,0,0.2,0.1,0.4l0,0.1c0,0,0,0.1,0,0.1c0,0,0,0,0,0c0,0,0,0,0,0c-0.2,0.1-0.2,0.3-0.2,0.4c0,0.1,0,0.2,0,0.3c0,0,0,0.1,0,0.1
			c0,0.2,0.1,0.4,0.1,0.6c0,0.1,0,0.3,0.1,0.4c0,0.3,0.1,0.7,0.2,1.1c0,0.1,0.1,0.2,0.2,0.2c0,0,0,0,0.1,0c0.1,0,0.1-0.1,0.2-0.2
			c0-0.1,0-0.2,0-0.2l0,0c-0.1-0.4-0.1-0.7-0.2-1.1l0-0.2c0-0.2-0.1-0.4-0.1-0.6c0-0.1,0-0.1,0-0.2c0,0,0.1-0.1,0.1-0.1
			c0.1-0.1,0.1-0.2,0.1-0.4c0-0.1,0-0.2,0-0.3c0-0.1,0-0.2-0.1-0.3c-0.1-0.4-0.1-0.9-0.1-1.3c0-0.5,0-1,0-1.5c0-0.1,0-0.2-0.1-0.2
			c0-0.1-0.1-0.1-0.2-0.1c-0.1,0-0.1,0-0.2,0.1c0,0.1-0.1,0.1-0.1,0.2C-11.7-184.7-11.7-183.7-11.5-182.8"/>
		<path id="Fill-6" fill-rule="evenodd" clip-rule="evenodd" fill="#686867" stroke="#989898" stroke-width="0.25" d="M-6.6-181.3
			c0.1-0.2,0-0.3-0.1-0.4c-0.1-0.1-0.3,0-0.3,0.2c-0.3,0.8-0.5,1.6-0.8,2.5c-0.1,0.2-0.1,0.5-0.2,0.7c0,0.1,0,0.2,0,0.3
			c0.1,0.1,0.1,0.1,0.2,0.1h0l0.4,0c-0.2,0.4-0.4,0.9-0.6,1.3c-0.1,0.2-0.2,0.3-0.2,0.5c-0.1,0.1,0,0.3,0.1,0.4c0,0,0.1,0,0.1,0
			c0.1,0,0.2-0.1,0.2-0.2c0.3-0.6,0.6-1.2,0.9-1.8c0.1-0.2,0.2-0.3,0.2-0.5c0-0.1,0-0.2,0-0.3c-0.1-0.1-0.1-0.1-0.2-0.1l-0.5,0
			c0.2-0.7,0.4-1.4,0.6-2C-6.7-180.8-6.7-181-6.6-181.3"/>
		<path id="Fill-8" fill-rule="evenodd" clip-rule="evenodd" fill="#686867" stroke="#989898" stroke-width="0.25" d="M2.3-171.5
			c0.3-0.1,0.7-0.2,1.1-0.3c0.1,0,0.1-0.1,0.2-0.1c0-0.1,0-0.1,0-0.2c-0.1-0.2-0.2-0.2-0.4-0.2c-0.6,0.2-1.3,0.3-1.9,0.5
			c-0.6,0.2-1.3,0.3-1.9,0.4c-0.1,0-0.2,0-0.3,0.1c0-0.1,0.1-0.1,0.1-0.2c0-0.1,0-0.2,0-0.3c-0.1-0.1-0.2-0.1-0.3-0.1l-3.4,0.6
			c-0.2,0-0.3,0.2-0.2,0.3c0,0.2,0.2,0.3,0.4,0.2l2.8-0.5c0,0-0.1,0.1-0.1,0.1c-0.1,0.1-0.1,0.2,0,0.3c0.1,0.1,0.2,0.1,0.3,0.1
			c0,0,0,0,0.1,0c0.6-0.1,1.3-0.3,1.9-0.4C1.1-171.2,1.7-171.3,2.3-171.5"/>
		<path id="Fill-10" fill-rule="evenodd" clip-rule="evenodd" fill="#686867" stroke="#989898" stroke-width="0.25" d="M-5.3-174.4
			c0.1,0.1,0.2,0.3,0.4,0.4c0.1,0,0.2,0,0.3,0c0.1,0,0.1-0.1,0.2-0.1l2.6-2.4c0.1-0.1,0.1-0.3,0-0.4c-0.1-0.1-0.1-0.1-0.2-0.1
			c-0.1,0-0.2,0-0.2,0.1l-2.5,2.3c0,0,0,0,0,0l0-0.1c0,0,0,0,0,0l0-0.1c0-0.1-0.1-0.1-0.1-0.2c-0.1-0.2-0.3-0.3-0.5-0.3
			c-0.2,0-0.3,0.2-0.3,0.2l-1.2,1.5c-0.1,0.1-0.1,0.2-0.1,0.2c0,0.1,0.1,0.1,0.1,0.2c0,0,0.1,0.1,0.1,0.1c0,0,0,0,0.1,0
			c0.1,0,0.2,0,0.2-0.1l1.1-1.4L-5.3-174.4z"/>
		<path id="Fill-12" fill-rule="evenodd" clip-rule="evenodd" fill="#686867" stroke="#989898" stroke-width="0.25" d="M-17.4-179
			l0,0.2c-0.2-0.3-0.5-0.6-0.7-0.9c-0.3-0.5-0.6-0.9-0.9-1.4c-0.2-0.3-0.3-0.6-0.5-0.8c-0.1-0.2-0.3-0.2-0.4-0.1
			c-0.1,0.1-0.2,0.3-0.1,0.4c0.3,0.5,0.6,1,0.9,1.5c0.3,0.5,0.7,1,1,1.4c0.2,0.3,0.4,0.5,0.6,0.8c0.1,0.1,0.2,0.1,0.3,0.1
			c0.1,0,0.1-0.1,0.2-0.1l0.6,1.4c0.1,0.1,0.2,0.2,0.3,0.2c0,0,0,0,0.1,0c0.1-0.1,0.2-0.3,0.1-0.4l-1-2.2c-0.1-0.1-0.2-0.2-0.3-0.2
			C-17.3-179.2-17.4-179.1-17.4-179z"/>
		<path id="Fill-14" fill-rule="evenodd" clip-rule="evenodd" fill="#686867" stroke="#989898" stroke-width="0.25" d="M-20.6-173.2
			L-20.6-173.2c-0.1,0-0.2,0-0.3,0.1c-0.1,0.1-0.1,0.2-0.1,0.3c0,0,0,0.1,0,0.1c-0.8-0.2-1.5-0.5-2.3-0.8c-0.2-0.1-0.5-0.2-0.8-0.3
			c-0.2-0.1-0.3,0-0.4,0.2c0,0.1,0,0.2,0,0.2c0,0.1,0.1,0.1,0.2,0.2c0.9,0.4,1.9,0.8,2.8,1.1c0.3,0.1,0.5,0.2,0.8,0.2
			c0.1,0,0.2,0,0.3-0.1c0.1-0.1,0.1-0.2,0.1-0.3c0,0,0,0,0,0c0.4,0.2,0.7,0.3,1,0.5c0.1,0,0.2,0,0.2,0c0.1,0,0.1-0.1,0.2-0.2
			c0.1-0.2,0-0.4-0.2-0.4C-19.5-172.7-20.1-173-20.6-173.2"/>
		<path id="Fill-16" fill-rule="evenodd" clip-rule="evenodd" fill="#686867" d="M-11-175.6c0,0,0.1-0.1,0.1-0.1
			c0.1,0,0.2-0.1,0.2-0.1c0,0.1-0.1,0.2-0.1,0.2C-10.8-175.6-10.9-175.6-11-175.6 M-11.3-175L-11.3-175c0.1,0.1,0.3,0.1,0.4,0.1
			c0.1,0,0.1,0,0.2,0c0.4-0.1,0.7-0.4,0.7-0.9c0-0.4-0.1-0.7-0.4-0.8c-0.3-0.1-0.6,0-0.8,0.1c-0.3,0.2-0.5,0.5-0.4,0.9
			C-11.6-175.3-11.5-175.1-11.3-175"/>
		<path id="Fill-18" fill-rule="evenodd" clip-rule="evenodd" fill="#686867" d="M-1.4-179.8c0,0-0.1,0.1-0.1,0c0,0-0.1-0.1-0.1-0.2
			c0-0.1,0.1-0.1,0.1-0.2c0,0,0,0,0,0c0,0,0.1,0,0.1,0C-1.3-180-1.3-179.9-1.4-179.8 M-1.6-180.8L-1.6-180.8
			c-0.4,0.1-0.7,0.4-0.7,0.8c0,0.3,0.1,0.6,0.3,0.8c0.1,0.1,0.3,0.1,0.5,0.1c0.2,0,0.5-0.1,0.6-0.2c0.3-0.2,0.4-0.6,0.2-1
			C-0.8-180.7-1.2-180.9-1.6-180.8"/>
		<path id="Fill-20" fill-rule="evenodd" clip-rule="evenodd" fill="#686867" d="M-19.2-174.7c0,0-0.1,0-0.2,0
			c-0.1,0-0.1-0.1-0.1-0.2c0,0,0-0.1,0.1-0.1c0,0,0,0,0,0c0.1,0,0.2,0.1,0.2,0.1C-19.2-174.8-19.2-174.8-19.2-174.7 M-19.4-175.7
			L-19.4-175.7c-0.4,0-0.7,0.4-0.8,0.8c0,0.4,0.3,0.7,0.6,0.9l0,0c0.1,0,0.2,0.1,0.3,0.1c0.2,0,0.4-0.1,0.5-0.2
			c0.3-0.2,0.4-0.6,0.2-1C-18.7-175.5-19.1-175.7-19.4-175.7"/>
		<path id="Fill-22" fill-rule="evenodd" clip-rule="evenodd" fill="#686867" d="M-20.5-171.5L-20.5-171.5c-0.2,0-0.4,0-0.5,0.2
			c-0.1,0.1-0.1,0.3,0,0.4c0.1,0.1,0.2,0.2,0.4,0.2c0,0,0.1,0,0.1,0c0.2,0,0.3-0.2,0.4-0.4C-20.2-171.2-20.3-171.4-20.5-171.5"/>
		<path id="Fill-24" fill-rule="evenodd" clip-rule="evenodd" fill="#686867" d="M-26.6-174L-26.6-174c-0.2,0-0.4,0.1-0.4,0.3
			c0,0.2,0,0.3,0.2,0.5c0.1,0.1,0.2,0.1,0.3,0.1c0.1,0,0.1,0,0.2,0c0.2-0.1,0.3-0.3,0.2-0.4C-26.2-173.8-26.4-174-26.6-174"/>
		<path id="Fill-26" fill-rule="evenodd" clip-rule="evenodd" fill="#686867" d="M-6.2-178.3L-6.2-178.3
			C-6.2-178.3-6.2-178.3-6.2-178.3c0.2,0,0.3-0.1,0.4-0.2l0,0c0.1-0.1,0.2-0.3,0.1-0.5c-0.1-0.1-0.2-0.2-0.4-0.2
			c-0.1,0-0.3,0.1-0.4,0.2c-0.1,0.1-0.1,0.4,0,0.5C-6.4-178.3-6.3-178.3-6.2-178.3"/>
		<path id="Fill-28" fill-rule="evenodd" clip-rule="evenodd" fill="#686867" d="M-8.7-177.9L-8.7-177.9
			C-8.7-177.9-8.7-177.9-8.7-177.9L-8.7-177.9L-8.7-177.9z M-8.8-177.4c0,0,0.1,0,0.1,0c0.1,0,0.3-0.1,0.4-0.2
			c0.1-0.1,0.1-0.3,0-0.5l0,0h0c-0.1-0.1-0.3-0.2-0.4-0.1c-0.2,0-0.3,0.2-0.3,0.4C-9.1-177.7-9-177.5-8.8-177.4L-8.8-177.4z"/>
		<path id="Fill-30" fill-rule="evenodd" clip-rule="evenodd" fill="#686867" d="M-14.5-178.2L-14.5-178.2c-0.2-0.1-0.3,0-0.4,0.1
			c-0.1,0.1-0.2,0.3-0.1,0.5c0.1,0.2,0.2,0.3,0.4,0.3c0,0,0,0,0,0c0.2,0,0.3-0.2,0.3-0.4C-14.2-178-14.4-178.2-14.5-178.2"/>
		<path id="Fill-32" fill-rule="evenodd" clip-rule="evenodd" fill="#686867" d="M-24.8-179.4C-24.8-179.4-24.8-179.4-24.8-179.4
			c0,0.3,0.2,0.6,0.5,0.7c0.1,0,0.1,0,0.2,0c0,0.1,0,0.2,0,0.3c-0.4,0.1-0.7,0-0.8-0.3C-25-178.8-25-179.1-24.8-179.4 M-23.8-180.2
			c0,0-0.1,0-0.2,0c-0.1,0-0.1,0-0.2,0c0,0,0,0,0,0c0,0,0-0.1,0.1-0.1c0,0,0.1,0,0.1,0.1L-23.8-180.2c0.1,0,0.1,0,0.2,0.1
			c0,0,0,0,0,0C-23.7-180.2-23.8-180.2-23.8-180.2 M-23.4-180c0.1,0,0.3,0,0.3,0c0,0.1,0,0.2,0,0.3c-0.1,0.1-0.1,0.2-0.3,0.2
			c0,0,0-0.1-0.1-0.3c0-0.1,0-0.2-0.1-0.3C-23.5-180-23.5-180-23.4-180 M-23.3-181.8C-23.2-181.8-23.2-181.8-23.3-181.8
			c0.1,0.1,0.1,0.2,0,0.2C-23.2-181.7-23.2-181.8-23.3-181.8 M-21.6-180.4c0,0.1,0,0.1,0,0.2c-0.1-0.1-0.2-0.1-0.3-0.1
			c0-0.2-0.1-0.4-0.2-0.5c0,0,0.1,0,0.1,0c0.1-0.1,0.3-0.1,0.4,0C-21.6-180.8-21.5-180.6-21.6-180.4 M-24.1-179.2
			c-0.1,0-0.2-0.1-0.2-0.2c0-0.1,0.1-0.2,0.2-0.3c0.1,0,0.1-0.1,0.1-0.1c0,0,0,0.1,0,0.2c0,0.1,0,0.2,0.1,0.3c0,0,0,0,0,0
			C-24-179.2-24.1-179.2-24.1-179.2 M-22.6-180.5C-22.6-180.5-22.6-180.5-22.6-180.5L-22.6-180.5c0.1,0,0.1,0.1,0.1,0.1
			c0,0,0,0.1-0.1,0.1c0,0,0,0,0,0c0,0-0.1,0-0.1,0c0,0-0.1-0.1-0.1-0.1c0.1,0,0.1-0.1,0.1-0.1C-22.6-180.5-22.6-180.5-22.6-180.5
			 M-23.5-178.9C-23.5-178.9-23.5-178.9-23.5-178.9C-23.5-178.9-23.5-178.9-23.5-178.9c0.4,0,0.7-0.2,0.8-0.4
			c0.1-0.1,0.1-0.3,0.1-0.4c0,0,0.1,0,0.1,0c0,0,0,0,0.1,0c0.2-0.1,0.4-0.1,0.5,0c0,0,0,0.1,0,0.1c0,0.1-0.2,0.3-0.5,0.3
			c-0.1,0-0.2,0.1-0.2,0.2c0,0.1,0,0.2,0.1,0.3c0.2,0.1,0.3,0.3,0.3,0.4c0,0.1-0.1,0.2-0.4,0.3c0,0-0.1,0-0.1-0.1
			c-0.1-0.1-0.1-0.2-0.1-0.2c0.1-0.1,0-0.3-0.1-0.3c-0.1-0.1-0.3,0-0.3,0.1c-0.2,0.3-0.4,0.3-0.5,0.2
			C-23.7-178.5-23.7-178.7-23.5-178.9 M-21.1-179.2c-0.1,0.1-0.1,0.2-0.1,0.3c0,0.1,0.1,0.2,0.2,0.2l0,0c0.1,0,0.2,0,0.2,0.2
			c0,0.2-0.1,0.6-0.4,0.7c-0.1,0-0.3,0-0.4-0.2c0,0-0.1-0.1-0.2-0.1c0,0,0,0,0,0c0.1-0.1,0.1-0.2,0.1-0.3c0-0.2-0.1-0.4-0.2-0.6
			c0.2-0.1,0.4-0.3,0.4-0.5c0-0.2,0-0.4-0.1-0.5c0.1,0,0.1,0,0.2,0c0.2-0.1,0.3,0,0.3,0.1C-20.9-179.7-20.9-179.3-21.1-179.2
			 M-22.3-181.7c0,0,0.1-0.1,0.1-0.1C-22.2-181.8-22.2-181.8-22.3-181.7C-22.3-181.7-22.3-181.7-22.3-181.7 M-23.7-177.7
			c-0.1-0.1-0.2-0.2-0.1-0.3c0.2,0.1,0.5,0.1,0.8-0.1c0,0.1,0.1,0.1,0.1,0.2c0.2,0.2,0.4,0.3,0.7,0.2c0.1-0.1,0.3-0.1,0.4-0.2
			c0,0,0,0,0,0c0,0.1,0,0.1,0.1,0.2c0.2,0.2,0.5,0.3,0.7,0.3h0c0,0,0,0-0.1,0c-0.2,0.1-0.3,0-0.5,0c-0.2-0.1-0.5-0.2-0.7,0.1
			c-0.1,0.1-0.2,0.1-0.2,0.1c-0.1,0-0.1-0.2-0.1-0.4c0-0.1,0-0.2-0.1-0.2c0,0-0.1,0-0.1,0c-0.1,0-0.1,0-0.2,0.1
			C-23.3-177.6-23.5-177.6-23.7-177.7 M-22-176.9c0,0,0.1,0,0.1,0c0.2,0.1,0.5,0.2,0.8,0l0,0c0,0,0.1,0,0.1-0.1
			c0.1,0,0.1-0.1,0.1-0.1c0.1-0.1,0.3-0.3,0.2-0.6c0.3-0.3,0.4-0.7,0.3-1c0-0.2-0.1-0.4-0.3-0.5c0.1-0.3,0.1-0.8,0-1.1
			c-0.1-0.2-0.3-0.3-0.5-0.4c0-0.3-0.1-0.5-0.3-0.7c-0.1-0.1-0.3-0.2-0.5-0.2c0,0,0,0,0,0c0.2-0.5,0.1-1.1-0.4-1.5
			c-0.1-0.1-0.2-0.1-0.3,0c-0.1,0.1-0.1,0.2-0.1,0.3c0.1,0.2,0.1,0.4-0.1,0.7c-0.1-0.2-0.4-0.4-0.8-0.6c-0.1,0-0.2,0-0.3,0.1
			c-0.1,0.1-0.1,0.2-0.1,0.3c0.1,0.3,0.2,0.8,0.1,1.1c-0.2-0.1-0.3-0.2-0.4-0.3c-0.2-0.4-0.2-1,0-1.6c0-0.1,0-0.2-0.1-0.3
			c-0.1-0.1-0.2,0-0.3,0c0,0,0,0-0.1,0c-0.1,0-0.3,0-0.4,0.2c-0.3,0.6-0.1,1.4,0.3,2c-0.1,0-0.1-0.1-0.2-0.1c-0.1-0.1-0.2-0.1-0.3,0
			c-0.1,0.1-0.1,0.2-0.1,0.3l0,0.1c0,0.2,0,0.4,0.1,0.5c-0.2,0-0.4,0-0.6,0c-0.1,0-0.2,0-0.2,0.1c0,0.1-0.1,0.2,0,0.3
			c0.2,0.3,0.4,0.5,0.7,0.5c-0.1,0.3-0.1,0.7,0,0.9c0.1,0.3,0.5,0.7,1.1,0.6c0,0.2,0.2,0.4,0.4,0.6c0.2,0.2,0.5,0.2,0.8,0.1
			c0.1,0.4,0.3,0.5,0.4,0.5c0.1,0,0.1,0,0.2,0C-22.3-176.6-22.1-176.7-22-176.9C-22-176.9-22-176.9-22-176.9"/>
		<g id="Group-36" transform="translate(7.000000, 0.000000)">
			<g id="Clip-35">
			</g>
			<defs>
				<filter id="Adobe_OpacityMaskFilter" filterUnits="userSpaceOnUse" x="-28" y="-191" width="8.4" height="9.9">
					<feColorMatrix  type="matrix" values="1 0 0 0 0  0 1 0 0 0  0 0 1 0 0  0 0 0 1 0"/>
				</filter>
			</defs>
			<mask maskUnits="userSpaceOnUse" x="-28" y="-191" width="8.4" height="9.9" id="mask-3_2_">
				<g filter="url(#Adobe_OpacityMaskFilter)">
					<polygon id="path-2_2_" fill-rule="evenodd" clip-rule="evenodd" fill="#FFFFFF" points="-28,-191 -19.6,-191 -19.6,-181.1 
						-28,-181.1 					"/>
				</g>
			</mask>
			<path id="Fill-34" mask="url(#mask-3_2_)" fill-rule="evenodd" clip-rule="evenodd" fill="#686867" d="M-23.3-187.6
				c0,0.3,0,0.6,0,0.9c0,0.8,0,1.6,0.2,2.3c-0.7-0.7-1.4-1.2-2-1.7c-0.3-0.4-0.5-1-0.6-1.4c0-0.1,0-0.2-0.1-0.3
				c-0.2-0.5-0.6-1.9-0.2-2.2c0,0,0,0,0,0c0,0,0.1,0,0.3,0.3c0.1,0.1,0.2,0.1,0.4,0.1c0.1,0,0.1-0.1,0.1-0.2c0-0.1,0-0.1,0-0.2
				c-0.1-0.1-0.1-0.2-0.2-0.3C-24.6-189.9-23.9-188.9-23.3-187.6 M-22.7-182.8L-22.7-182.8c0.1,0.1,0.1,0.2,0.2,0.3c0,0,0,0-0.1,0
				c-0.4-0.1-0.9-0.3-1.3-0.7c-0.2-0.2-0.5-0.7-0.9-1.1c-0.4-0.6-0.9-1.3-1.4-1.8c0.2,0.1,0.5,0.3,0.7,0.5c0.4,0.6,0.9,1.1,1.4,1.4
				C-23.5-184.1-23.1-183.4-22.7-182.8 M-21.8-183.7C-21.8-183.7-21.8-183.8-21.8-183.7c-0.2-0.9-0.4-2.4-1-3.8c0-0.1,0-0.2,0-0.3
				c0.2,0.5,0.4,1.1,0.7,1.9l0,0.1c0.1,0.5,0.3,1.2,0.4,1.8C-21.7-183.8-21.8-183.8-21.8-183.7 M-21.8-182.4c0,0-0.1-0.1-0.1-0.1
				c-0.1-0.2-0.2-0.4-0.3-0.5l-0.1,0l0.1-0.1c0-0.1-0.1-0.1-0.1-0.2c0,0,0,0,0.1,0c0.1-0.1,0.1-0.3,0-0.4c-0.3-0.3-0.4-1.2-0.4-2.2
				c0.2,0.9,0.4,1.7,0.5,2.2c0.1,0.8,0.2,0.9,0.4,0.9h0C-21.8-182.7-21.9-182.5-21.8-182.4 M-27.8-186.9c0.8,0.2,1.9,1.7,2.7,2.8
				c0.3,0.5,0.6,0.9,0.9,1.2c0.4,0.5,1.1,0.7,1.5,0.9c0.3,0.1,0.3,0.1,0.3,0.3c0,0.1,0.1,0.3,0.2,0.5c0.1,0.2,0.4,0.1,0.5,0.1
				c0,0,0,0,0,0c0,0,0.1,0,0.2,0c0.1,0,0.2,0,0.2-0.1c0-0.1,0.1-0.1,0.1-0.2c0.2-0.2,0.1-0.4,0-0.5c-0.3-0.5-0.2-0.7-0.1-0.8
				c0.1-0.1,0.2-0.3,0.2-0.5c0-0.2,0-0.4-0.1-0.6c0.2-0.3,0.4-0.6,0.6-0.9c0.6-0.8,1.2-1.6,0.8-2.5c0-0.1-0.1-0.1-0.1-0.1
				c-0.1,0-0.1,0-0.2,0c-0.1,0-0.1,0.1-0.1,0.1c0,0.1,0,0.1,0,0.2c0.3,0.7-0.2,1.3-0.7,2.1c-0.1,0.2-0.3,0.3-0.4,0.5
				c-0.1-0.5-0.2-0.9-0.3-1.3l0-0.1c-0.4-1.5-0.8-2.3-1.2-3l-0.1-0.2c-0.1-0.5-0.3-0.8-0.5-0.9c-0.1-0.1-0.2-0.1-0.3,0
				c-0.1,0.1-0.1,0.2-0.1,0.3c0.1,0.3,0.2,0.5,0.4,0.8c0,0.1,0,0.2,0,0.2c-0.6-1.1-1.4-1.9-2.4-2.2c-0.1,0-0.1,0-0.2,0
				c-0.1,0-0.1,0.1-0.1,0.1c0,0.1,0,0.1,0,0.2c0,0.1,0.1,0.1,0.1,0.1c0,0,0,0,0.1,0c-0.1,0-0.3,0-0.4,0.1c-0.7,0.6-0.2,2,0,2.8l0,0
				c0,0.1,0.1,0.2,0.1,0.2c0.1,0.2,0.1,0.5,0.2,0.8c-0.7-0.4-1.3-0.6-1.8-0.7c-0.1,0-0.3,0.1-0.3,0.2C-28-187-27.9-186.9-27.8-186.9
				"/>
		</g>
		<g id="Group-39" transform="translate(30.000000, 12.000000)">
			<g id="Clip-38">
			</g>
			<defs>
				<filter id="Adobe_OpacityMaskFilter_1_" filterUnits="userSpaceOnUse" x="-31.3" y="-192.7" width="8.3" height="8.1">
					<feColorMatrix  type="matrix" values="1 0 0 0 0  0 1 0 0 0  0 0 1 0 0  0 0 0 1 0"/>
				</filter>
			</defs>
			<mask maskUnits="userSpaceOnUse" x="-31.3" y="-192.7" width="8.3" height="8.1" id="mask-5_2_">
				<g filter="url(#Adobe_OpacityMaskFilter_1_)">
					<polygon id="path-4_2_" fill-rule="evenodd" clip-rule="evenodd" fill="#FFFFFF" points="-31.3,-192.7 -23,-192.7 -23,-184.6 
						-31.3,-184.6 					"/>
				</g>
			</mask>
			<path id="Fill-37" mask="url(#mask-5_2_)" fill-rule="evenodd" clip-rule="evenodd" fill="#686867" d="M-24.5-190.8
				c-0.1,0-0.2,0.1-0.3,0.3c0,0-0.1,0.1-0.4,0.2c0,0,0-0.1,0-0.1c0-0.1-0.1-0.2-0.1-0.3c0-0.1,0-0.2,0.1-0.3c0.1-0.1,0.1-0.2,0-0.3
				c0,0,0,0,0,0c0.1,0,0.2,0.1,0.3,0.2c0,0,0.1,0.1,0.1,0.1c0.2,0.1,0.5,0.2,0.7,0.5C-24.2-190.8-24.4-190.8-24.5-190.8
				 M-28.8-186.3c0,0-0.1,0-0.2-0.1c-0.4-0.2-0.8-0.4-1.1-0.4c-0.1,0-0.2,0-0.3,0.1c0,0-0.1,0.1-0.1,0.1v0c-0.1-1.5,0.9-1.8,2-2.2
				c0.6-0.2,1.2-0.4,1.6-0.7c0.3-0.3,0.5-0.5,0.7-0.8c0.1,0,0.2,0,0.3-0.1c0,0,0.1-0.1,0.2-0.1c0,0.1,0,0.2,0.1,0.3
				c0,0.1,0.1,0.2,0.1,0.4c0,0.2,0.1,0.3,0.3,0.3c0.1,0,0.2,0,0.3-0.1c0,0,0.1,0,0.1,0c0.2-0.1,0.6-0.2,0.8-0.4
				c0.1,0.1,0.1,0.2,0.2,0.3c-0.1,0.1-0.2,0.3-0.3,0.4c0,0,0,0-0.1,0.1C-25.9-187-27.5-185.9-28.8-186.3 M-29.4-185.8
				c0.2,0.1,0.3,0.1,0.4,0.2c0.8,0.2,1.7,0,2.6-0.5c-0.1,0.1-0.3,0.2-0.4,0.3c-0.8,0.6-2,0.8-2.9,0.4c0-0.2-0.2-0.4-0.3-0.6
				c0-0.1-0.1-0.1-0.1-0.1C-30-186.1-29.8-186-29.4-185.8 M-23.4-191.3c-0.2-0.2-0.3-0.3-0.5-0.3c0.1-0.2,0.2-0.6,0-0.9
				c-0.1-0.2-0.3-0.2-0.6-0.3c-0.1,0-0.3,0-0.4,0.2c-0.1,0.2-0.1,0.3,0,0.4c0,0-0.1,0-0.1,0c-0.3,0-0.7-0.1-1,0.2
				c-0.2,0.2-0.3,0.4-0.5,0.7c-0.2,0.3-0.4,0.8-1,1.3c-0.3,0.3-0.8,0.4-1.3,0.6c-1.1,0.3-2.5,0.8-2.5,2.8c0,0.5,0.3,1,0.7,1.4
				c0,0,0,0,0,0.1c0,0.1,0,0.2,0.1,0.2c0.1,0.1,0.1,0.1,0.2,0.1c0.1,0,0.1,0,0.2,0c0.4,0.2,0.9,0.3,1.3,0.3c0.8,0,1.7-0.3,2.3-0.7
				c0.8-0.6,1.5-1.5,2.2-2.6c0-0.1,0.1-0.2,0-0.2c0-0.1,0-0.1-0.1-0.1c0.1-0.2,0.2-0.3,0.4-0.5l0,0c0,0,0,0,0,0
				c0-0.1,0.1-0.1,0.1-0.2c0.1,0,0.3,0,0.3-0.1C-23-189.9-22.7-190.6-23.4-191.3"/>
		</g>
		<path id="Fill-40" fill-rule="evenodd" clip-rule="evenodd" fill="#686867" d="M-4-184.2c0.1,0.1,0.2,0.1,0.3,0.1
			c0.2,0,0.3,0,0.4-0.1c0.1-0.1,0.1-0.2,0.2-0.3c0,0,0.1-0.1,0.1-0.2c0-0.1,0.1-0.1,0.2-0.1c0.2,0,0.3,0.1,0.4,0.2
			c0.1,0.1,0.2,0.3,0.2,0.5c0,0.2,0,0.4,0,0.6c0,0,0,0.1-0.1,0.1c0,0,0,0-0.1,0c0,0-0.1,0-0.1,0c-0.1,0-0.3,0-0.4,0.1
			c-0.1,0-0.1,0.1-0.2,0.1c-0.1,0-0.1,0.1-0.2,0.1c-0.1,0-0.1,0-0.2-0.1c-0.1,0-0.2-0.1-0.3-0.2c-0.1-0.1-0.3-0.3-0.3-0.5
			C-4.1-184-4.1-184.1-4-184.2 M-5.5-188.1C-5.5-188.2-5.5-188.2-5.5-188.1c0.1,0,0.1-0.1,0.1-0.1c0.2,0.1,0.3,0.2,0.5,0.3l0,0
			c0.2,0.1,0.4,0.2,0.6,0.4c0.5,0.3,1,0.5,1.4,0.7c-0.2,0-0.3,0-0.5,0c-0.5-0.1-0.9-0.3-1.3-0.5C-5.1-187.7-5.3-187.9-5.5-188.1
			 M-3.3-187.8l-0.2-0.2c-0.4-0.2-0.7-0.5-1.2-0.6c0,0-0.1,0-0.1,0c0.4-0.1,0.8,0,1.2,0.2c0.4,0.2,0.8,0.6,1.2,1.2
			C-2.7-187.5-3-187.6-3.3-187.8 M-2.2-187C-2.2-187-2.2-187-2.2-187C-2.2-187-2.2-187-2.2-187C-2.2-187-2.2-187-2.2-187 M-7.9-184
			c0.1,0.1,0.3,0.1,0.4,0c0.2-0.1,0.3-0.3,0.4-0.5c0,0,0.1,0,0.1,0.1c0.1,0.1,0.1,0.3,0.1,0.5c0,0.2-0.1,0.4-0.2,0.6
			c-0.1,0.1-0.1,0.2-0.1,0.2c0,0-0.1,0-0.2,0c-0.1,0-0.1,0-0.2,0c-0.1,0-0.2,0-0.3,0c0,0-0.1,0-0.1,0c0,0-0.1,0-0.1,0
			c-0.1,0-0.2,0-0.2-0.1c-0.2-0.1-0.3-0.4-0.3-0.7c0-0.3,0.1-0.6,0.2-0.6c0,0,0,0,0.1,0c0,0,0,0,0.1,0c0,0,0,0,0.1,0
			c0,0,0,0.1,0,0.1v0C-8.1-184.2-8-184.1-7.9-184 M-8.5-182.6L-8.5-182.6c0.1,0.1,0.3,0.1,0.5,0.1c0.1,0,0.2,0,0.3,0
			c0.1,0,0.1,0,0.2,0l0.1,0c0,0,0.1,0,0.1,0c0.1,0,0.1,0,0.2,0c0.2,0,0.4-0.1,0.5-0.3c0.1-0.1,0.2-0.2,0.2-0.3
			c0.1-0.1,0.1-0.3,0.2-0.4c0.1-0.2,0.1-0.5,0.1-0.7c0-0.3-0.2-0.6-0.5-0.8c0,0-0.1,0-0.1,0c0-0.1,0-0.1,0.1-0.2l0-0.1
			c0.2-0.6,0.4-1.3,0.7-1.9c0.1,0.3,0.2,0.7,0.3,0.9c0.2,0.5,0.5,0.9,0.8,1.2c0.2,0.2,0.3,0.3,0.5,0.5c0,0,0.1,0,0.1,0.1
			c-0.1,0.2-0.2,0.5-0.1,0.8c0.1,0.3,0.3,0.6,0.4,0.8c0.2,0.2,0.5,0.4,0.7,0.4c0.2,0,0.3,0,0.5,0c0.1,0,0.2-0.1,0.3-0.2
			c0.1,0,0.1-0.1,0.1-0.1c0.1,0,0.1,0,0.2,0c0.1,0,0.4,0,0.5-0.2c0.2-0.2,0.3-0.5,0.3-0.8c0-0.3,0-0.5-0.1-0.8
			c-0.1-0.2-0.3-0.5-0.5-0.6c-0.2-0.2-0.6-0.2-0.8-0.2c-0.2,0-0.4,0.2-0.6,0.3c-0.1,0-0.1,0-0.2,0c-0.1,0-0.2,0.1-0.3,0.1l-0.1-0.1
			c-0.1-0.1-0.2-0.2-0.4-0.3c-0.1-0.1-0.2-0.3-0.4-0.5c-0.2-0.4-0.4-0.8-0.6-1.2c0-0.1-0.1-0.2-0.1-0.2c0.4,0.3,0.7,0.5,1.2,0.7
			c0.4,0.2,0.8,0.3,1.3,0.3c0.5,0,1-0.1,1.5-0.2c0.1,0,0.1-0.1,0.2-0.2c0-0.1,0-0.2,0-0.2l0-0.1h0c-0.1-0.3-0.3-0.5-0.6-0.8
			c-0.5-0.7-1-1.1-1.6-1.3c-0.3-0.1-0.7-0.2-1-0.1c-0.3,0-0.6,0.1-0.9,0.3c0,0,0,0,0,0c-0.1-0.2-0.2-0.3-0.4-0.3l0,0
			c-0.2,0-0.3,0.1-0.4,0.3c-0.1,0.1-0.1,0.3,0,0.4c0,0.1,0.1,0.2,0.1,0.4l-0.6,1.8c-0.2,0.5-0.3,1-0.5,1.4c0,0-0.1,0-0.1,0
			c-0.1,0-0.1,0-0.2,0.1c-0.3-0.2-0.7-0.2-0.9,0c-0.2,0.1-0.3,0.4-0.4,0.7c0,0.3,0,0.6,0.1,0.9C-9-183.1-8.8-182.8-8.5-182.6"/>
		<path id="Fill-42" fill-rule="evenodd" clip-rule="evenodd" fill="#686867" d="M-25.1-169.4L-25.1-169.4c0.1,0,0.2,0,0.3,0
			c0.1,0,0.1-0.1,0.1-0.2c0.1-0.3,0.4-0.6,0.7-0.6c0.3-0.1,0.7-0.1,1.2,0.1c0.5,0.2,0.8,0.4,1,0.7c0.2,0.3,0.3,0.7,0.2,1
			c-0.1,0-0.2,0-0.3,0.1c-0.1,0.1-0.2,0.3-0.1,0.4c0.1,0.1,0.2,0.2,0.3,0.3c0,0.3-0.1,0.5-0.3,0.8c-0.1,0.1-0.2,0.3-0.4,0.4
			c-0.1,0.1-0.3,0.2-0.5,0.2c-0.4,0.1-0.8,0.2-1.2,0.1c-0.3-0.1-0.5-0.2-0.7-0.4c-0.2-0.3-0.3-0.6-0.3-0.9c0.1,0.1,0.1,0.1,0.2,0.1
			c0.2,0,0.4-0.1,0.5-0.3c0.1-0.2,0-0.6-0.2-0.9c0,0,0,0-0.1,0c0-0.1,0-0.2,0.1-0.3c0-0.1,0-0.2,0-0.2c0-0.1-0.1-0.1-0.2-0.1
			c0,0,0,0,0,0c0,0,0,0,0,0c-0.1,0-0.1,0-0.2,0c-0.1,0-0.1,0.1-0.1,0.2c0,0.1,0,0.2-0.1,0.3c-0.1,0-0.2,0-0.4,0c0-0.1,0-0.2,0.1-0.3
			C-25.3-169.2-25.3-169.3-25.1-169.4C-25.2-169.5-25.2-169.4-25.1-169.4 M-25.8-169.3c-0.1,0.2-0.2,0.3-0.2,0.4
			c-0.2-0.1-0.4-0.3-0.5-0.5c-0.1-0.2,0-0.4,0.1-0.6c0.2-0.3,0.3-0.5,0.3-0.7c0.2,0.2,0.4,0.4,0.4,0.7
			C-25.6-169.8-25.7-169.5-25.8-169.3 M-22.6-170.7c-0.7-0.3-1.2-0.2-1.6-0.1l0,0c-0.3,0.1-0.7,0.4-1,0.7c0,0,0,0,0,0
			c-0.2-0.8-1-1.3-1-1.3c-0.1-0.1-0.2,0-0.3,0c-0.1,0.1-0.1,0.2,0,0.3c0,0,0,0.3-0.3,0.9c-0.2,0.4-0.3,0.7-0.1,1.1
			c0.1,0.3,0.3,0.5,0.6,0.7l-0.1,0c-0.1,0-0.1,0.1-0.1,0.1l0,0.1c-0.1,0.1-0.1,0.2,0,0.3c0.1,0.1,0.2,0.1,0.3,0.1l0.1,0
			c0.1,0,0.3-0.1,0.6-0.2c0,0.1-0.1,0.3-0.1,0.4c0,0.5,0.1,1,0.4,1.4c0.2,0.3,0.6,0.6,1,0.7c0.5,0.1,1,0.1,1.5-0.1
			c0.2-0.1,0.5-0.2,0.7-0.3c0.2-0.1,0.4-0.3,0.5-0.5c0.2-0.3,0.3-0.6,0.4-1c0-0.2,0-0.3,0-0.4c0,0,0-0.1,0-0.1
			c0-0.1,0.1-0.1,0.1-0.1c0-0.1,0.1-0.2,0.1-0.4c0-0.4-0.1-0.9-0.3-1.3C-21.6-170.2-22-170.5-22.6-170.7"/>
		<path id="Fill-44" fill-rule="evenodd" clip-rule="evenodd" fill="#686867" d="M0.6-166.4c0.2-0.2,0.3-0.3,0.5-0.5
			c-0.1,0.2-0.2,0.4-0.4,0.6c-0.4,0.4-0.8,0.6-1.3,0.8c-0.6,0.2-1.3,0.3-2.1,0.1c-0.5-0.1-0.9-0.3-1.3-0.6c0.6,0.3,1.2,0.5,1.8,0.5
			C-0.8-165.4,0.1-165.9,0.6-166.4 M0.2-166.8c-0.4,0.4-1.2,0.8-2.4,0.8c-1.1,0-2.1-0.7-2.4-1.1c0,0,0,0,0,0c0,0,0,0,0,0
			c0.1,0.1,0.2,0.1,0.3,0.2c0.2,0.1,0.4,0.3,0.6,0.4c0.6,0.2,1.1,0.4,1.7,0.4c0.5,0,0.9-0.1,1.4-0.3c0.7-0.3,1.1-0.7,1.4-1.1
			c0.1-0.1,0.2-0.2,0.2-0.3C0.8-167.5,0.5-167.1,0.2-166.8 M1.9-169.5c-0.1-0.1-0.2-0.2-0.4-0.2c-0.1,0-0.3,0-0.4,0.1
			c-0.3,0.2-0.3,0.5-0.4,0.8l0.1,0l-0.1,0c0,0.1,0,0.1,0,0.1c0,0.1-0.1,0.3-0.5,0.7c-0.2,0.3-0.7,0.7-1.2,0.9
			c-0.8,0.3-1.6,0.3-2.5-0.1c-0.1-0.1-0.3-0.2-0.5-0.3c-0.3-0.2-0.5-0.4-0.8-0.4c-0.2-0.1-0.4-0.1-0.7,0.1c-0.2,0.1-0.3,0.2-0.3,0.4
			c0,0.2,0,0.3,0.2,0.4c0,0,0,0,0,0c0,0.3,0.4,0.9,0.7,1.1c0.4,0.4,1.1,1,2,1.1c0.4,0.1,0.7,0.1,1.1,0.1c0.5,0,1-0.1,1.4-0.2
			c0.5-0.2,0.9-0.4,1.3-0.8c0.1-0.1,0.2-0.1,0.2-0.2c0.7-0.7,0.8-1.7,0.8-2.1c0-0.2,0-0.4-0.1-0.6c0,0,0,0,0-0.1
			C1.9-168.7,2-169.3,1.9-169.5"/>
	</g>
</g>
</svg>
