<?xml version="1.0" encoding="utf-8"?>
<!-- Generator: Adobe Illustrator 25.0.0, SVG Export Plug-In . SVG Version: 6.00 Build 0)  -->
<svg version="1.1" id="Lag_1" xmlns="http://www.w3.org/2000/svg" xmlns:xlink="http://www.w3.org/1999/xlink" x="0px" y="0px"
	 viewBox="0 0 34 34" enable-background="new 0 0 34 34" xml:space="preserve">
<g>
	<defs>
		<rect id="SVGID_1_" x="0.5" width="32.9" height="34"/>
	</defs>
	<clipPath id="SVGID_2_">
		<use xlink:href="#SVGID_1_"  overflow="visible"/>
	</clipPath>
	<g clip-path="url(#SVGID_2_)" enable-background="new    ">
		<g>
			<defs>
				<rect id="SVGID_3_" x="-0.5" y="-1.1" width="35.1" height="35.1"/>
			</defs>
			<clipPath id="SVGID_4_">
				<use xlink:href="#SVGID_3_"  overflow="visible"/>
			</clipPath>
			<g clip-path="url(#SVGID_4_)">
				<defs>
					<path id="SVGID_5_" d="M33.4,31.7l-12.2-14c-0.1-0.1-0.3-0.2-0.4-0.1L20,18.2l-2.3-1.3c0.1-0.7,0-1.4,0-2l0,0
						c0-0.2,0-0.4,0-0.6c0-0.2,0-0.4,0-0.6c0-0.2,0-1.5,0.1-3l0-0.1c0-1.3,0.1-3.1,0.1-4c0.7,0.2,1.5,0,2.1-0.5C19.9,6,20,6,20,6
						c0.1-0.1,0.2-0.2,0.3-0.2c0,0,0,0,0,0c0,0,0,0,0,0c0,0.1,0.1,0.2,0.1,0.3c0.1,0.2,0.4,0.4,1,0.2l3.3-1.1
						c0.2-0.1,0.4-0.1,0.6-0.3c0.3-0.4,0.3-0.9,0.3-1.2c-0.1-0.9,0.1-1.8,0.3-2.7c0-0.1,0-0.2,0-0.3l0,0c-0.1-0.1-0.2-0.2-0.3-0.2
						c-1.4-0.4-2.9-0.1-4,0.7c0-0.1-0.1-0.3-0.2-0.4c-0.2-0.2-0.5-0.3-0.8-0.3c-0.3,0-0.6,0.2-0.8,0.4l-0.1,0
						c-0.6,0.4-1.3,0.7-2.1,0.6c0,0,0-0.1,0.1-0.1c0.2-0.4,0.1-0.8-0.2-1C17.4,0,17-0.1,16.7,0.1c-0.4,0.2-0.6,0.6-0.5,1
						c0,0.2,0.2,0.4,0.4,0.5c0,0,0.1,0,0.1,0.1c0,0.2,0,0.5,0,0.7l0,0.1c0,0.4,0,0.9,0,1.3c0,0.9,0,1.9,0,2.9l-0.2,9l-5.9,8
						l-1.4-0.9c-0.1-0.1-0.2-0.2-0.4-0.2c-0.2,0-0.4,0.1-0.6,0.3c-0.1,0.2-0.3,0.4-0.6,0.7c-1,1.3-3,4.1-5.9,8.4l-1,1.5
						c-0.1,0.1-0.1,0.2,0,0.3c0.1,0.1,0.2,0.2,0.3,0.2l0.3,0C1.7,34,2.3,34,2.9,34c1.9,0,3.8-0.3,5.8-0.8l0.5-0.1
						c0.1,0,0.2-0.2,0.2-0.3c0-0.1-0.1-0.3-0.2-0.3l-0.5-0.2C8,32,6.6,31.9,4.4,31.8c-0.5,0-1,0-1.5,0c2.6-3.8,4.4-6.4,5.4-7.6
						c0.2-0.2,0.3-0.4,0.4-0.5l1.7,1.2c0.1,0.1,0.4,0.1,0.5-0.1l0.1-0.1c0.1,0.1,0.2,0.1,0.3,0l3.8-1.5l0.1,0.5
						c0,0.1,0.1,0.2,0.2,0.3c0.1,0,0.2,0,0.3-0.1l4-3.3c0.1-0.1,0.2-0.3,0.1-0.4c-0.1-0.1-0.2-0.2-0.4-0.2l-2.2,0.4L16.9,18l0-0.2
						c0,0,0,0,0,0c0,0,0,0,0,0c0.1,0,0.2,0,0.3,0c0,0,0,0,0,0l2.5,1.4c0.1,0.1,0.2,0.1,0.4,0l0.7-0.4L31.4,31c-1.5,0-3,0-4.6,0.1
						v-2.8c0-0.1,0-0.1-0.1-0.2l-6-7.9c-0.1-0.1-0.2-0.2-0.4-0.1c-0.1,0-0.2,0.2-0.2,0.3l-0.5,6.5l-1.4,1.5
						c-0.3,0.1-0.4,0.3-0.4,0.4c-0.1,0.3,0.3,0.6,0.4,0.7c0.3,0.2,0.8,0.4,1.7,0.7l1.4,3.8c0,0.1,0.2,0.2,0.3,0.2h6.2
						c0,0,0.1,0,0.1,0l5.2-1.4c0.1,0,0.2-0.1,0.2-0.2c0,0,0-0.1,0-0.2c0.1-0.1,0.1-0.1,0.1-0.2C33.5,31.9,33.4,31.8,33.4,31.7
						 M25.9,31.9C26,32,26.1,32,26.1,32l0.2,0c1.7,0,3.4,0,5-0.1l-3.6,1h-5.6l-1.3-3.6c0-0.1-0.1-0.2-0.2-0.2l-0.1,0
						c-0.5-0.2-0.9-0.3-1.2-0.4l0-0.1l1.3-1.4c0.1-0.1,0.1-0.1,0.1-0.2l0.4-4.9l4.8,6.3v3.3C25.8,31.8,25.8,31.9,25.9,31.9
						 M16.8,21.6l0.3-0.1l-1.1,0.9l0-0.2c0-0.1-0.1-0.2-0.2-0.2c-0.1-0.1-0.2-0.1-0.3,0l-2.4,0.9l2.8-3.6l0.4,2.1
						c0,0.1,0.1,0.2,0.1,0.2C16.7,21.5,16.8,21.6,16.8,21.6 M17.1,0.9c0,0-0.1,0-0.1,0C17,0.9,17,0.9,17.1,0.9
						C17,0.9,17.1,0.9,17.1,0.9 M20.9,1.9c0.2,0.2,0.4,0.3,0.6,0.2c0.3,0,0.5-0.2,0.6-0.3C23,1.2,24,1,25,1.1
						c-0.2,0.8-0.3,1.7-0.2,2.5c0,0.2,0,0.5-0.1,0.6c0,0-0.2,0.1-0.2,0.1l-3.3,1.1c0,0,0,0,0,0c0,0,0-0.1-0.1-0.2
						c-0.2-0.4-0.7-0.5-1-0.4C20,5,20,5,20,5c-0.2,0.1-0.4,0.2-0.5,0.3c0,0-0.1,0.1-0.1,0.1c-0.5,0.4-1.1,0.5-1.7,0.2l0,0l0-3.3
						c1,0.1,2-0.2,2.8-0.8l0.1,0c0.1-0.1,0.2-0.1,0.2-0.2c0,0,0,0,0,0.1C20.7,1.5,20.8,1.7,20.9,1.9 M4.4,32.8c0.4,0,0.9,0,1.3,0.1
						C4.4,33,3.3,33.1,2.1,33l0.2-0.3C3.1,32.7,3.8,32.7,4.4,32.8"/>
				</defs>
				<clipPath id="SVGID_6_">
					<use xlink:href="#SVGID_5_"  overflow="visible"/>
				</clipPath>
				<g clip-path="url(#SVGID_6_)">
					<defs>
						<rect id="SVGID_7_" x="0.5" width="32.9" height="34"/>
					</defs>
					<clipPath id="SVGID_8_">
						<use xlink:href="#SVGID_7_"  overflow="visible"/>
					</clipPath>
					<rect x="-4.9" y="-5.5" clip-path="url(#SVGID_8_)" fill="#676766" width="43.9" height="45"/>
				</g>
			</g>
		</g>
	</g>
</g>
</svg>
