<svg width="50" height="50" viewBox="0 0 50 50" fill="none" xmlns="http://www.w3.org/2000/svg">
<path fill-rule="evenodd" clip-rule="evenodd" d="M49.9998 25.0001C49.9998 38.8071 38.8071 50.0001 24.9998 50.0001C11.1929 50.0001 0 38.8071 0 25.0001C0 11.193 11.1929 0.000244141 24.9998 0.000244141C38.8071 0.000244141 49.9998 11.193 49.9998 25.0001Z" fill="#329CCC"/>
<path d="M9.09082 36.3637C9.09082 28.8325 15.9591 22.7273 24.4316 22.7273C32.9041 22.7273 39.7726 28.8325 39.7726 36.3637" stroke="white" stroke-width="2" stroke-linecap="round" stroke-linejoin="round"/>
<path fill-rule="evenodd" clip-rule="evenodd" d="M18.182 17.6136C18.182 19.1826 17.4188 20.4545 16.4774 20.4545C15.536 20.4545 14.7729 19.1826 14.7729 17.6136C14.7729 16.0447 15.536 14.7727 16.4774 14.7727C17.4188 14.7727 18.182 16.0447 18.182 17.6136Z" fill="white"/>
<path fill-rule="evenodd" clip-rule="evenodd" d="M35.2274 17.6136C35.2274 19.1826 34.4642 20.4545 33.5228 20.4545C32.5814 20.4545 31.8184 19.1826 31.8184 17.6136C31.8184 16.0447 32.5814 14.7727 33.5228 14.7727C34.4642 14.7727 35.2274 16.0447 35.2274 17.6136Z" fill="white"/>
</svg>