<?xml version="1.0" encoding="utf-8"?>
<!-- Generator: Adobe Illustrator 25.0.0, SVG Export Plug-In . SVG Version: 6.00 Build 0)  -->
<svg version="1.1" id="Lag_1" xmlns="http://www.w3.org/2000/svg" xmlns:xlink="http://www.w3.org/1999/xlink" x="0px" y="0px"
	 viewBox="0 0 176.7 176.7" style="enable-background:new 0 0 176.7 176.7;" xml:space="preserve">
<style type="text/css">
	.st0{fill:#282929;}
</style>
<g>
	<path class="st0" d="M100.5,16.2H3.1c-1.7,0-3.1,1.4-3.1,3.1v37.1c0,1.7,1.4,3.1,3.1,3.1h97.4c1.7,0,3.1-1.4,3.1-3.1V19.3
		C103.6,17.6,102.2,16.2,100.5,16.2z M6.2,53.3V22.4h91.1v30.9H6.2z"/>
	<path class="st0" d="M173.5,16.2h-57.9c-1.7,0-3.1,1.4-3.1,3.1v59.6c0,1.7,1.4,3.1,3.1,3.1h57.9c1.7,0,3.1-1.4,3.1-3.1V19.3
		C176.7,17.6,175.3,16.2,173.5,16.2z M170.4,22.4v53.3h-51.7V22.4H170.4z"/>
	<path class="st0" d="M173.5,94.6h-57.9c-1.7,0-3.1,1.4-3.1,3.1v59.6c0,1.7,1.4,3.1,3.1,3.1h57.9c1.7,0,3.1-1.4,3.1-3.1V97.8
		C176.7,96,175.3,94.6,173.5,94.6z M170.4,100.9v53.3h-51.7v-53.3H170.4z"/>
	<path class="st0" d="M100.5,71.3H3.1c-1.7,0-3.1,1.4-3.1,3.1v82.9c0,1.7,1.4,3.1,3.1,3.1h97.4c1.7,0,3.1-1.4,3.1-3.1V74.4
		C103.6,72.7,102.2,71.3,100.5,71.3z M6.2,154.2V77.6h91.1v76.6H6.2z"/>
</g>
</svg>
