<?xml version="1.0" encoding="utf-8"?>
<!-- Generator: Adobe Illustrator 25.0.0, SVG Export Plug-In . SVG Version: 6.00 Build 0)  -->
<svg version="1.1" id="Lag_1" xmlns="http://www.w3.org/2000/svg" xmlns:xlink="http://www.w3.org/1999/xlink" x="0px" y="0px"
	 viewBox="0 0 82 27" style="enable-background:new 0 0 82 27;" xml:space="preserve">
<style type="text/css">
	.st0{filter:url(#Adobe_OpacityMaskFilter);}
	.st1{fill-rule:evenodd;clip-rule:evenodd;fill:#FFFFFF;}
	.st2{mask:url(#mask-2_1_);fill-rule:evenodd;clip-rule:evenodd;fill:#FEFEFE;}
	.st3{fill-rule:evenodd;clip-rule:evenodd;fill:#FEFEFE;}
</style>
<g id="Designs-for-Development">
	<g id="Meditate-Landing-_x28_Paid-Member---recent_x29_" transform="translate(-32.000000, -20.000000)">
		<g id="bea-logo" transform="translate(32.000000, 20.000000)">
			<g id="Group-3" transform="translate(55.000000, 0.000000)">
				<g id="Clip-2">
				</g>
				<defs>
					<filter id="Adobe_OpacityMaskFilter" filterUnits="userSpaceOnUse" x="0.4" y="0.4" width="26.6" height="25.6">
						<feColorMatrix  type="matrix" values="1 0 0 0 0  0 1 0 0 0  0 0 1 0 0  0 0 0 1 0"/>
					</filter>
				</defs>
				<mask maskUnits="userSpaceOnUse" x="0.4" y="0.4" width="26.6" height="25.6" id="mask-2_1_">
					<g class="st0">
						<polygon id="path-1_1_" class="st1" points="0.4,0.4 27,0.4 27,26 0.4,26 						"/>
					</g>
				</mask>
				<path id="Fill-1" class="st2" d="M13.7,23.3c-5.8,0-10.5-4.5-10.5-10.1S7.9,3.1,13.7,3.1s10.5,4.5,10.5,10.1
					S19.5,23.3,13.7,23.3 M13.7,0.4C6.3,0.4,0.4,6.1,0.4,13.2c0,7.1,6,12.8,13.3,12.8c4.3,0,8-1.9,10.5-4.9v3.6
					c0,0.8,0.6,1.4,1.4,1.4c0.8,0,1.4-0.6,1.4-1.4V13.2C27,6.1,21,0.4,13.7,0.4"/>
			</g>
			<path id="Fill-4" class="st3" d="M17.9,24.2H8.1c-2.9,0-5.3-2.3-5.3-5.2V3.8h13.6c2.2,0,4,1.6,4,3.6c0,2-1.8,3.6-4,3.6H6.9
				c-0.8,0-1.4,0.6-1.4,1.4s0.6,1.4,1.4,1.4h9.5h1.4c2.9,0,5.3,2.3,5.3,5.2S20.8,24.2,17.9,24.2 M21.4,11.8c1.2-1.1,1.9-2.7,1.9-4.4
				c0-3.5-3.1-6.4-6.9-6.4h-15C0.6,1,0,1.6,0,2.4V19c0,4.4,3.6,8,8.1,8h9.8c4.5,0,8.1-3.6,8.1-8C26,15.8,24.1,13.1,21.4,11.8"/>
			<path id="Fill-6" class="st3" d="M41.1,3.8c4.5,0,8.5,3,9.8,7.2H31.3C32.6,6.8,36.5,3.8,41.1,3.8L41.1,3.8z M52.6,13.7
				c0.4,0,0.8-0.2,1.1-0.5c0.3-0.3,0.4-0.7,0.3-1.1C53.1,5.8,47.5,1,41.1,1c-6.5,0-12,4.8-12.9,11.1c0,0,0,0.1,0,0.1
				C28,12.8,28,13.4,28,14c0,7.2,5.9,13,13.1,13c5.8,0,10.8-3.7,12.5-9.1c0.2-0.7-0.2-1.5-0.9-1.7c-0.7-0.2-1.5,0.2-1.7,0.9
				c-1.3,4.3-5.3,7.2-9.8,7.2c-5.7,0-10.3-4.6-10.3-10.2c0-0.1,0-0.2,0-0.3H52.6z"/>
		</g>
	</g>
</g>
</svg>
