<?xml version="1.0" encoding="utf-8"?>
<!-- Generator: Adobe Illustrator 25.0.0, SVG Export Plug-In . SVG Version: 6.00 Build 0)  -->
<svg version="1.1" id="Lag_1" xmlns="http://www.w3.org/2000/svg" xmlns:xlink="http://www.w3.org/1999/xlink" x="0px" y="0px"
	 viewBox="0 0 51 51.2" enable-background="new 0 0 51 51.2" xml:space="preserve">
<g>
	<defs>
		<rect id="SVGID_1_" y="0.2" width="51" height="51"/>
	</defs>
	<clipPath id="SVGID_2_">
		<use xlink:href="#SVGID_1_"  overflow="visible"/>
	</clipPath>
	<g clip-path="url(#SVGID_2_)" enable-background="new    ">
		<g>
			<defs>
				<rect id="SVGID_3_" x="-1" y="-0.8" width="53" height="52"/>
			</defs>
			<clipPath id="SVGID_4_">
				<use xlink:href="#SVGID_3_"  overflow="visible"/>
			</clipPath>
			<g clip-path="url(#SVGID_4_)">
				<defs>
					<path id="SVGID_5_" d="M50.4,48.7L50.4,48.7c-0.9-0.1-1.8-0.3-2.6-0.5c0.3-0.4,0.5-0.9,0.7-1.4c0.4-1.1,0.1-2.3-0.7-3.6
						c-0.2-0.2-0.3-0.5-0.6-0.7c0.2-0.1,0.2,0,0.3,0c0.2,0.1,0.4,0.1,0.5,0c0.2-0.1,0.3-0.2,0.4-0.4c0.3-1.2,0-2.1-0.4-3L48,39.1
						c-0.2-0.4-0.4-1.1-1-1.3c-0.3-0.1-0.6-0.1-0.8,0c-0.2-0.2-0.4-0.2-0.6-0.2c-0.4,0.1-0.7,0.3-0.9,0.5c-0.2,0-0.3,0-0.5,0
						c-0.4,0.1-0.5,0.4-0.6,0.6c-0.1,0.1-0.1,0.1-0.1,0.1c-0.1,0-0.4-0.1-1-0.5c-0.6-0.5-1-1.3-1.5-2c-0.1-0.2-0.2-0.3-0.3-0.5
						c0,0,0-0.1-0.1-0.1c0.1-0.1,0.1-0.2,0.1-0.3c0.3-0.7-0.3-1.4-0.6-1.9c-0.4-0.6-0.5-0.7-0.6-1.4c-0.1-0.7-0.2-1.5-0.2-2.2
						c0-0.7-0.1-1.5-0.2-2.3c-0.2-0.9-0.4-1.8-0.7-2.7c-0.2-0.5-0.3-1.1-0.5-1.6c-0.1-0.4-0.2-0.9-0.2-1.5c-0.1-0.9-0.2-1.9-0.6-2.6
						c-0.5-1.2-1.8-1.6-2.7-1.9c-0.3-0.1-0.6-0.2-0.8-0.3c-0.6-0.3-1.3-0.7-1.8-1.1c-0.5-0.3-1-0.7-1.5-0.9
						c-0.6-0.3-1.4-0.7-1.9-0.4c0,0,0.1-0.1,0.1-0.1c0.6-0.6,1-2.1,1.4-3.1l0.1-0.3c0.2-0.6,0.4-1.3,0.5-2c0.2-0.4,0.2-0.7,0.2-1.1
						c0-0.1,0-0.2,0-0.2c0-0.2,0-0.3,0-0.5c0.2-3.2-1-5.3-3.5-6.4c-0.7-0.3-1.7-0.6-2.4-0.5c-1,0.1-1.7,0.7-1.9,1
						c-0.4,0.1-1.2,0.4-1.7,0.9c-0.5,0.5-0.7,1.1-0.9,1.7l-0.1,0.2c-0.8,2-0.9,4.3-1,6.5c0,0.7-0.1,1.5-0.2,2.2c0,0.2,0,0.5-0.1,0.8
						c-0.1,1-0.1,2.1-0.6,2.7c-0.4,0.5-1.1,0.7-1.8,1c-0.5,0.2-1,0.4-1.4,0.7c-1.2,0.8-1.9,2-2,3.8c-0.1,1.2-0.3,2.3-0.6,3.5l0,0.1
						c-0.1,0.3-0.1,0.6-0.2,0.9c0,0.2-0.1,0.4-0.1,0.6c-0.1,0.5-0.2,1-0.2,1.6c0,0.4,0.1,0.7,0.1,1c0.1,0.4,0.1,0.7,0.1,1
						c-0.1,0.4-0.3,0.8-0.6,1.3c-0.5,0.8-1.2,1.8-0.7,3c0,0.1,0.1,0.2,0.2,0.2c-0.7,0.4-1.2,1.1-1.7,1.7c-0.2,0.2-0.4,0.4-0.5,0.6
						c-0.2,0.2-0.3,0.4-0.5,0.6c-0.2,0.3-0.5,0.6-0.8,0.8c-0.3,0.2-0.3,0.1-0.8-0.1c-0.2-0.1-0.3-0.2-0.5-0.2c-0.1,0-0.1,0-0.2-0.1
						c-0.2-0.1-0.4-0.2-0.7-0.2c-0.2-0.4-0.4-0.8-0.8-0.9c-0.1,0-0.3,0-0.5,0c-0.3-0.1-0.6,0-0.8,0.1c-1.1,0.6-1.1,3.3-1,3.5
						c0.1,0.8,0.5,1.4,1.2,1.7c-0.6,0.6-0.9,1.5-0.9,2.4c0,1.3,0.8,2.8,1.9,3.9c-0.3,0.1-0.7,0.1-1,0.2c-1.1,0.2-2.1,0.5-2.7,0.5
						c-0.2,0-0.4,0.1-0.5,0.3C0,49.7,0,49.9,0,50.1c0,0.4,0.4,0.7,0.8,0.6c0.6-0.1,1.6-0.3,2.8-0.5c0.6-0.1,1.3-0.3,2.1-0.4
						c1,0.5,3.3,1.5,5,1.5c0.5,0,0.9-0.1,1.3-0.3c0.3-0.2,0.7-0.6,0.8-1.4c0-0.5-0.2-0.9-0.5-1.2c-1.1-0.9-3.6-0.6-6.2-0.1
						c-1.2-0.6-2.2-2.2-2.3-3.6c0-0.6,0.1-1.3,1-1.9c0.1-0.1,0.3-0.2,0.4-0.2c0.2,0,0.4,0,0.7,0l0.3,0c1.1-0.1,2.1-0.3,3.2-0.5
						c1.6-0.4,3.1-0.7,4.7-0.3c0.5,0.1,1,0.4,1.5,0.7c0.7,0.4,1.4,0.7,2.2,0.9c0.7,0.1,1.5,0.1,2.3,0.1l0.1,0c0.2,0,0.3,0,0.5,0
						c0.4,0.1,0.8,0.3,1.2,0.4c0.2,0.1,0.4,0.2,0.6,0.2c0.3,0.1,0.8,0.3,1,0.5c0.2,0.2,0.3,0.5,0.4,0.8c0.1,0.2,0.1,0.4,0.2,0.6
						c0.1,0.2,0.1,0.3,0.2,0.4c0.1,0.1,0.1,0.2,0.1,0.3c0,0-0.1,0.1-0.2,0.2c-0.2,0.2-0.5,0.2-0.9,0.3c-0.5,0.1-1,0.3-1.4,0.7
						c-0.2,0.2-0.2,0.4-0.2,0.6c0.1,0.2,0.3,0.4,0.5,0.4l0.3,0.1c0.3,0.1,0.8,0.2,1.2,0.2c1.5-0.1,2.5-0.6,3.7-1.6
						c1-0.8,2-1.3,3.2-1.8c1.3-0.6,2.3-1.1,3.6-1.8l0.1-0.1c0.5-0.3,1-0.6,1.6-0.8c0.3-0.1,0.6-0.1,1-0.1c0.3,0,0.5,0,0.8,0
						c0.1,0,0.2-0.1,0.3-0.1c0.6,0.1,1.2-0.1,1.8-0.2c0.3-0.1,0.6-0.2,0.9-0.2c0.2,0,0.6-0.1,1.1-0.1c0.6,0.4,1.3,0.7,1.8,0.5
						c0.1,0,0.2-0.1,0.3-0.1c0.3,0.3,0.7,0.5,1.2,0.6c0.3,0.1,0.6,0.1,1,0c0.3,0.2,0.6,0.5,0.8,0.8c0.6,0.9,0.8,1.8,0.6,2.5
						c-0.1,0.5-0.5,1.1-0.9,1.4c-2.3-0.5-3.7-0.7-4.5-0.1c-0.3,0.2-0.5,0.6-0.5,1c0,0.5,0.2,0.9,0.5,1.1c0.3,0.2,0.7,0.3,1.2,0.3
						c1.2,0,2.8-0.6,3.4-0.8c0,0,0.1,0,0.1-0.1c1.1,0.3,2.3,0.5,3.5,0.7c0.4,0,0.7-0.2,0.8-0.6C51,49.1,50.8,48.7,50.4,48.7z
						 M44.6,39.7c0.1-0.1,0.2-0.2,0.2-0.3c0,0,0,0,0,0c0.2,0.1,0.4,0.1,0.6,0c0.2-0.1,0.3-0.2,0.4-0.4c0,0,0,0,0,0
						c0.3,0.1,0.6,0.1,0.9,0c0.1,0.1,0.2,0.4,0.2,0.6l0.1,0.1c0.2,0.6,0.4,1.1,0.4,1.6c-0.4,0-0.8,0.2-1.1,0.4l-0.1,0.1
						c-0.4-0.2-0.9-0.4-1.4-0.6c0-0.3-0.1-0.7-0.2-1.1c0-0.1-0.1-0.1-0.1-0.2C44.4,39.8,44.5,39.8,44.6,39.7L44.6,39.7L44.6,39.7z
						 M24.9,44.2c0,0.1,0,0.3,0,0.4c-0.1-0.2-0.2-0.5-0.3-0.7C24.7,44,24.8,44.1,24.9,44.2z M25.6,47c-0.1,0-0.1,0.1-0.2,0.1
						c0.1-0.1,0.1-0.3,0.2-0.4C25.6,46.9,25.6,46.9,25.6,47z M15.8,41.1C15.8,41.1,15.8,41.1,15.8,41.1c-0.5-0.3-1-0.5-1.5-0.6
						c-0.4-0.1-0.8-0.2-1.2-0.2c1-0.4,2.2-1.1,2.5-2.1c0.1,0.1,0.2,0.1,0.3,0.1c0.2,0,0.3-0.1,0.4-0.2c0.8-0.9,0.9-1.7,1.1-2.6
						l0-0.2c0,0,0,0,0,0c0,0.1,0.1,0.2,0.1,0.3c0.2,0.9-0.2,1.4-0.8,2.1c-0.2,0.3-0.5,0.6-0.7,1.1C15.6,39.6,15.5,40.4,15.8,41.1z
						 M6.4,40.4c0-0.3,0-0.5-0.1-0.8c0.5,0.2,1.1,0.5,2,0C8.7,39.4,9,39,9.3,38.5c0.1-0.2,0.3-0.3,0.4-0.4c0.2-0.2,0.4-0.4,0.6-0.7
						c0.5-0.6,1.4-1.6,1.9-1.6c0.6,0,2,1.2,2.1,1.8c0.1,0.6-1.4,1.3-2.1,1.6c-0.2,0.1-0.3,0.1-0.4,0.2c-1.1,0.5-2.3,0.7-3.5,0.9
						c-0.7,0.1-1.5,0.3-2.2,0.5C6.3,40.8,6.4,40.6,6.4,40.4z M13.4,29.1l-0.2,0L13.4,29.1c0-0.3-0.1-0.5-0.1-0.8
						c0-0.4,0.1-0.8,0.2-1.3c0.1-0.2,0.1-0.4,0.2-0.7c0.1-0.3,0.1-0.7,0.2-1c0.2-1.2,0.5-2.4,0.6-3.6c0.1-1.3,0.6-2.3,1.4-2.8
						c0.3-0.2,0.8-0.4,1.2-0.6c0.6-0.2,1.3-0.5,1.8-0.9c0,0.8,0,1.6,0.1,2.5c0.1,1.1,0.3,2,0.4,2.8c0,0.2-0.1,0.5-0.1,0.8
						c-0.4,2.1-1,5,0.4,6.1c0.2,0.1,0.4,0.3,0.6,0.3c-0.2,0.9-0.5,1.7-0.8,2.5c-0.3,0.6-0.4,1.3-0.6,1.9c0,0.1-0.1,0.2-0.1,0.3
						c0-0.1-0.1-0.1-0.1-0.2c-0.1-0.3-0.2-0.5-0.2-0.8c0-0.3,0.1-0.5,0.2-0.8c0.1-0.4,0.2-0.8,0.2-1.2c0-1.1-0.3-2.1-0.6-3.1
						l-0.1-0.3l0.1-0.4c0.2-0.6,0.3-1.2,0.4-1.8c0.1-0.5,0-1.7-0.7-2c-0.2-0.1-0.7-0.2-1.3,0.5c-0.6,0.7-0.3,1.9-0.2,2.6l0,0.2
						c0.1,0.3,0.1,0.5,0.2,0.8c-0.1,0.4-0.2,0.7-0.2,0.9c-0.2,0.9-0.1,1.7,0,2.5c0,0.2,0.1,0.5,0.1,0.8c0.1,0.6-0.1,1.2-0.2,1.7
						c-0.1,0.3-0.1,0.6-0.2,0.9l0,0.2c-0.1,0.5-0.2,0.8-0.3,1.1c-0.2-0.6-0.4-1.4-1.2-1.9c-0.7-0.4-1.6-0.6-2.7-0.6
						c0-0.4,0.3-0.9,0.7-1.4c0.4-0.5,0.7-1.1,0.8-1.7C13.6,30.1,13.5,29.6,13.4,29.1z M29.3,5.9c-0.2-0.9-0.4-1.7-1.4-2.6
						c-0.8-0.8-2.1-1.5-3.5-1.5c-0.1,0-0.1,0-0.2,0c0.2-0.1,0.4-0.3,0.8-0.3c0.5,0,1.2,0.2,1.8,0.4c1.8,0.8,2.7,2.3,2.8,4.4
						c-0.1,0-0.1,0-0.2,0C29.4,6.2,29.3,6.1,29.3,5.9z M24.5,3.1c1,0,2,0.6,2.5,1.2c0.7,0.6,0.8,1.2,1,2c0.1,0.4,0.2,0.7,0.3,1.2
						c0.1,0.2,0.2,0.3,0.4,0.4c0.2,0.1,0.4,0,0.6-0.1c0.1-0.1,0.1-0.1,0.1-0.1c0,0,0,0,0,0.1c0,0.3-0.1,0.5-0.1,0.8
						c-0.1,0.3-0.3,0.5-0.6,0.8c-0.6,0.7-1.1,1.6-1.2,2.7c-0.6-0.4-1.2-0.1-1.7,0.1c-0.1,0.1-0.3,0.1-0.4,0.2
						c-0.6,0.1-1.1,0.1-1.7-0.1c-1.2-0.4-1.2-0.8-1.4-2.3c-0.3-2.1-0.9-6.1,1.5-6.8C24.1,3.1,24.3,3.1,24.5,3.1z M28.7,16.5
						C28.7,16.5,28.7,16.5,28.7,16.5c0.2,0.2,0.6,0.3,0.8,0.5c0.1,0.1,0.2,0.1,0.3,0.2c0.5,0.4,0.4,0.5,0.2,1.2
						c-0.1,0.4-0.3,0.8-0.4,1.4c-0.1,1.1,0.4,1.9,0.9,2.7c0.3,0.5,0.6,0.9,0.6,1.4c0.1,0.9-0.1,1.8-0.2,2.7c-0.1,0.6-0.3,1.3-0.3,2
						c-0.1,2,0.6,5,2,7.1c0.1,0.4,0.2,0.8,0.3,1.2c0.1,0.2,0.2,0.4,0.4,0.6c-0.2,0.2-0.3,0.4-0.4,0.7c-0.2,0.4-0.2,0.8-0.1,1.3
						c-0.1,0-0.3,0.1-0.4,0.1c-0.2,0.1-0.4,0.2-0.6,0.3c-0.3,0.2-0.7,0.4-1,0.5c-0.7,0.2-1.6,0.1-2.5-0.1c-0.4-0.1-0.8-0.2-1.2-0.2
						c-1.8-0.2-3.2-0.3-4.9,0.3c-1.2,0.4-2.9,0.5-3.8,0c-0.5-0.3-0.5-0.8,0.4-2.4c0.2-0.3,0.3-0.6,0.5-0.9c0.3-0.8,0.5-1.5,0.8-2.3
						c0.2-0.6,0.3-1.2,0.6-1.8c0.4-0.9,0.7-1.9,0.9-3c0.2,0,0.4-0.1,0.7-0.2C24.2,29,25,28,25,26c0-0.2,0-0.4,0-0.5
						c0.2,0.1,0.5,0.1,0.7,0c1-0.6,1.8-2.1,2.5-4.5C28.7,19.4,28.8,17.8,28.7,16.5z M31.3,17c0.6,0.4,1.2,0.8,2,1.2
						c0.3,0.1,0.6,0.2,0.9,0.4c0.9,0.3,1.7,0.6,2,1.3c0.3,0.6,0.4,1.5,0.5,2.3c0.1,0.6,0.1,1.1,0.3,1.6c0.1,0.6,0.3,1.1,0.5,1.7
						c0.2,0.8,0.5,1.6,0.6,2.4c0.1,0.7,0.2,1.5,0.2,2.2c0,0.8,0.1,1.5,0.2,2.3c0.1,0.8,0.3,1.2,0.7,1.8c-0.6-0.2-1.3-0.1-2,0.3
						c-0.4,0.2-0.8,0.6-1.1,0.9c-0.7,0.7-1,0.9-1.2,0.8l0,0c-0.1-0.6,0-1.2,0-1.8c0.1-0.8,0.2-1.6,0-2.4c-0.2-0.6-0.4-1.2-0.7-1.7
						c-0.1-0.9-0.3-1.8-0.5-2.6c0-0.1-0.1-0.3-0.1-0.4c0.1-0.2,0.2-0.4,0.3-0.6c0-0.1,0.1-0.2,0.2-0.3c0.5-0.7,1.1-1.7,0.6-2.4
						c-0.3-0.5-0.8-0.4-0.9-0.4c-0.6,0.1-1,0.8-1.3,2c-0.1,0.5-0.2,1-0.1,1.5c-0.1,0.4-0.2,0.8-0.1,1.3c0.1,0.9,0.4,1.6,0.7,2.2
						c0,0.6,0,1.1,0,1.6c0,0.3-0.1,0.6-0.2,0.9c0,0,0,0.1,0,0.1c-0.7-1.7-0.9-3.5-0.9-4.6c0-0.6,0.2-1.2,0.3-1.8
						c0.2-1,0.4-2,0.3-3.1c-0.1-0.8-0.5-1.3-0.8-1.9c-0.4-0.6-0.7-1.2-0.7-1.9c0-0.3,0.1-0.7,0.3-1C31.3,18.3,31.6,17.7,31.3,17z
						 M27,20.6c-0.4,1.5-0.9,2.6-1.4,3.2c-0.1-0.4-0.1-0.8-0.1-1.2c0-0.3,0-0.6-0.1-0.9c-0.2-1-0.6-2-0.9-2.9l-0.2-0.5
						c-0.3-0.6-0.5-1.2-0.6-1.7c0-0.2,0-0.3,0-0.5c0-0.9,0.1-1.8-0.2-2.7c0.8,0.3,1.6,0.4,2.4,0.2c0.2-0.1,0.4-0.2,0.6-0.3
						c0.2-0.1,0.3-0.1,0.3-0.2c0,0.1,0.1,0.4,0.1,0.9c0,0.2,0,0.4,0,0.5c0.1,0.4,0.1,0.7,0.2,1.1c0.1,0.3,0.2,0.6,0.2,0.9
						C27.5,17.8,27.4,19.2,27,20.6z M20.4,28.6C20.4,28.6,20.4,28.6,20.4,28.6c-0.3-0.3-0.4-1.2-0.2-2.7
						C20.3,26.8,20.5,27.7,20.4,28.6z M32.4,40.9c-0.1,0.1-0.3,0.2-0.4,0.3c-0.2,0.1-0.4,0.2-0.6,0.2C31.8,41.3,32.1,41.1,32.4,40.9
						C32.4,40.9,32.4,40.9,32.4,40.9z M34,38.6C34,38.5,34,38.5,34,38.6c0.3,0.3,0.2,0.4,0.2,0.4c0,0,0,0-0.1,0.1c0,0-0.1,0-0.1,0.1
						C34,38.9,34,38.7,34,38.6z M22.3,16.9c0,0.2,0,0.4,0,0.6c0.1,1.5,0.3,3,0.8,4.7l0.1,0.3c0.3,1.2,0.6,2.3,0.6,3.6
						c0,1.4-0.5,2-2,2.6c0,0,0,0,0,0c0.1-1.8-0.3-3.4-0.7-4.9l0-0.1c-0.1-0.3-0.2-0.6-0.2-0.9c0.2-1.6,0.5-3.3,0.6-5
						c0-0.3,0.1-0.7,0.2-1.1c0.1-0.5,0.2-1.1,0.2-1.7C21.9,15.5,22,16.1,22.3,16.9z M21.2,10.2l0.2,0L21.2,10.2
						c0.1,1,0.3,1.8,0.9,2.4c-0.2,0.2-0.3,0.4-0.4,0.7c0-0.1-0.1-0.3-0.1-0.4c-0.1-0.3-0.3-0.9-1-0.9c0,0,0,0-0.1,0c0,0-0.1,0-0.1,0
						c0-0.5,0.1-0.9,0.1-1.4c0.1-1.2,0.2-2.4,0.3-3.6C20.9,8.2,21,9.4,21.2,10.2z M20.3,16.4c0-0.2,0-0.4,0-0.6
						c0-0.4,0.1-0.9,0.2-1.4C20.5,15,20.4,15.7,20.3,16.4z M22.6,41.5c1.5-0.5,2.7-0.4,4.3-0.2c-0.2,0.1-0.4,0.2-0.6,0.4
						C26.1,42,26,42.2,26,42.4c0,0.1,0,0.2-0.1,0.2c0,0.1-0.2,0.2-0.3,0.3c0,0-0.1,0.1-0.1,0.1c-0.9-0.7-2-0.8-3-0.9l-0.4,0
						c-0.3,0-0.7,0-1,0c-0.1,0-0.2,0-0.3,0c-0.1,0-0.2-0.1-0.4-0.1C21.2,41.9,22.1,41.7,22.6,41.5z M26.5,43.9
						c0.2-0.1,0.3-0.3,0.5-0.5c0.1-0.2,0.2-0.4,0.2-0.5c0-0.1,0.1-0.2,0.1-0.2c0.3-0.3,0.9-0.3,1.4-0.3c0.4,0,0.8,0.1,1.1,0.2
						c0.8,0.2,1.8,0.5,2.9-0.2c0.2-0.1,0.5-0.3,0.7-0.5c0.3-0.3,0.7-0.5,1-0.7c0.2,0.1,0.4,0.1,0.7,0.2c0.4,0.1,0.6,0.1,0.8,0.2
						c-0.2,0-0.5,0.1-0.7,0.2c-0.6,0.2-1.2,0.6-1.8,0.9l-0.1,0.1c-1.1,0.7-2.1,1.2-3.4,1.7c-0.9,0.4-1.8,0.8-2.7,1.4
						c-0.2-0.7-0.6-1.4-0.9-1.8C26.4,43.9,26.4,43.9,26.5,43.9z M35.5,39.3c0-0.2,0-0.3,0-0.5c0.3,0,0.6-0.1,0.8-0.2
						c0.2,0.1,0.4,0.3,0.6,0.5c0.3,0.2,0.6,0.5,0.9,0.7c0.6,0.4,1.3,0.9,2.1,1.4c-0.2,0-0.4,0.1-0.6,0.2c-0.5,0.1-0.9,0.3-1.2,0.2
						c0,0,0,0,0,0c-0.4-0.9-1.6-1.4-2-1.6c-0.2-0.1-0.4-0.1-0.7-0.1C35.4,39.5,35.5,39.4,35.5,39.3z M37,37.3
						c0.1-0.2,0.1-0.3,0.2-0.4c0.2-0.4,0.6-1,1-1.1c0.2-0.1,0.6-0.1,0.7-0.1c0,0,0.1,0.1,0.3,0.2c0.2,0.1,0.3,0.2,0.4,0.2
						c0.1,0.1,0.2,0.2,0.3,0.4c0.1,0.2,0.2,0.3,0.3,0.5l0,0.1c0.5,0.8,0.9,1.7,1.7,2.3c0.2,0.2,0.6,0.5,1,0.7l0,0l0.1,0
						c0.1,0,0.2,0.1,0.3,0.1c0,0,0,0,0,0c-0.1,0.3-0.1,0.5-0.1,0.8c-0.3,0-0.6,0-0.9,0c-0.1,0-0.2,0-0.3,0c-0.1,0-0.1-0.1-0.2-0.1
						c-1.2-0.7-2.3-1.4-3.3-2.1c-0.3-0.2-0.5-0.4-0.8-0.6C37.5,37.8,37.3,37.6,37,37.3C37,37.3,37,37.3,37,37.3z M5.7,41
						c-0.3,0.1-0.5,0.2-0.8,0.3c-1.1,0-1.3-0.4-1.5-0.9c0-0.3,0.1-1.5,0.3-2c0.1,0,0.1,0,0.2,0c0.1,0,0.1,0,0.2,0
						c0.1,0.2,0.2,0.6,0.2,0.7C4.6,40,4.9,40.8,5.7,41C5.6,41,5.6,41,5.7,41z M28.4,14.7c0,0-0.1,0.1-0.1,0.1c0,0,0-0.1,0-0.1
						C28.3,14.6,28.4,14.6,28.4,14.7C28.4,14.6,28.4,14.6,28.4,14.7z M8.3,49.3c2-0.3,2.8-0.1,3,0.1c0,0,0,0,0,0.1
						c0,0.2-0.1,0.2-0.1,0.2C10.8,50,9.7,49.8,8.3,49.3z M43.7,48.8c-0.4,0.1-0.7,0.1-0.8,0C43,48.8,43.3,48.8,43.7,48.8z
						 M42.8,48.8L42.6,49L42.8,48.8C42.8,48.8,42.8,48.8,42.8,48.8z"/>
				</defs>
				<clipPath id="SVGID_6_">
					<use xlink:href="#SVGID_5_"  overflow="visible"/>
				</clipPath>
				<g clip-path="url(#SVGID_6_)">
					<defs>
						<rect id="SVGID_7_" y="0.2" width="51" height="51"/>
					</defs>
					<clipPath id="SVGID_8_">
						<use xlink:href="#SVGID_7_"  overflow="visible"/>
					</clipPath>
					<rect x="-5" y="-4.8" clip-path="url(#SVGID_8_)" fill="#676766" width="61" height="61"/>
				</g>
			</g>
		</g>
	</g>
</g>
</svg>
