<?xml version="1.0" encoding="utf-8"?>
<!-- Generator: Adobe Illustrator 25.0.0, SVG Export Plug-In . SVG Version: 6.00 Build 0)  -->
<svg version="1.1" id="Lag_1" xmlns="http://www.w3.org/2000/svg" xmlns:xlink="http://www.w3.org/1999/xlink" x="0px" y="0px"
	 viewBox="0 0 176.7 176.7" style="enable-background:new 0 0 176.7 176.7;" xml:space="preserve">
<style type="text/css">
	.st0{fill:#FFFFFF;}
</style>
<g>
	<path class="st0" d="M97.4,113.3c-0.2,0-0.3,0.1-0.5,0.1l0,0c-0.1-1.9-0.4-4-1.5-5.7c-1.1-1.8-2.8-2.9-4.6-3.2
		c-1.7-0.2-3.3,0.3-4.7,1.6c-0.5,0.4-0.9,0.9-1.3,1.4c-0.6-1.8-1.3-3.2-2.3-4.3c-2-2.2-5.1-2.8-7.8-1.7c-0.7,0.3-1.4,0.7-2,1.2
		c-0.5-1.2-1.1-2.3-2-3.2c-1.7-1.8-4.7-3.3-7.6-2.4c-2.4,0.7-3.8,2.6-4.5,4.2c-0.9,1.8-1.4,3.8-1.6,6.3c-0.1,1.6-0.1,3,0.1,4.3
		c-2.2,0.5-4.3,1.9-5.7,3.9c-1.7,2.3-2.5,5.4-2.6,9.4c-0.1,5.8,1.6,11.7,4.7,16.8c1.6,2.5,3.5,4.8,5.7,6.7c1.1,0.9,2.2,1.8,3.4,2.6
		c1.1,0.8,2.2,1.6,3.2,2.5c2.1,1.9,3.4,4,3.8,6.4c0.1,0.7,0.7,1.2,1.3,1.3l0.6,0.1c0.5,0.1,0.9-0.1,1.2-0.4c0.3-0.3,0.5-0.8,0.5-1.3
		c-0.3-3.4-2.6-6.2-2.6-6.2c-1.7-2.2-3.8-3.7-5.9-5.2l-0.4-0.3c-2.5-1.8-4.4-3.5-5.8-5.3c-3.3-4.1-5.5-9.2-6-14.4
		c-0.3-3.2-0.1-5.8,0.6-8c0.8-2.5,2.5-4.4,4.6-4.9c0.3-0.1,0.6-0.1,1-0.1c0.2,0,0.4,0.1,0.6,0c0.4,0.1,0.8-0.1,1.2-0.3l10.8-3.5
		c0,0,0,0,0,0c0.2,0,0.5,0,0.7-0.1c0.2-0.1,0.3-0.2,0.5-0.3c0.7-0.2,1.4-0.5,2.2-0.7c1.1-0.3,1.5-0.1,1.7,0.1c0.5,0.4,0.7,1,0.8,1.7
		c0,0.6-0.1,1.4-0.5,2.3c-0.3,0.8-0.8,1.6-1.4,2.3c-0.6,0.7-1.2,1.2-1.8,1.6c-0.2,0.1-0.5,0.3-0.8,0.4c-0.2,0.1-0.5,0.2-0.7,0.4
		c-0.5,0.3-1.1,0.7-1.6,1c-0.6,0.4-1.1,0.7-1.8,1.2c-1.2,0.8-2.5,1.7-3.9,2.4c-1,0.6-2,1-2.9,1.2c-0.2,0-0.3,0.1-0.5,0.1
		c-0.1,0-0.2-0.1-0.3-0.1c-0.6-0.1-1.3-0.1-2.1,0.1c-0.8,0.2-1.4,0.7-1.7,1.3c-0.2,0.5-0.2,1.1,0,1.7c0.3,0.5,1,1.4,2.7,1.1
		c0.1,0,0.2,0,0.3-0.1l0,0c0.1,0.3,0.2,0.5,0.4,0.8c1.4,2.7,3.3,4.3,5.6,4.7c1.3,0.2,2.7,0,3.7-0.6c0.5-0.3,0.9-0.6,1.3-1.1
		c0.7,0.8,1.5,1.4,2.5,1.9c2.1,1,4.5,1.1,6.5,0.4c1-0.3,1.8-0.9,2.5-1.6c0.3,0.4,0.6,0.8,0.9,1c0.8,0.7,1.8,1.2,2.9,1.5
		c2,0.5,4.4,0.1,6.1-0.9c0.1,0.2,0.2,0.4,0.4,0.6c0.2,0.3,0.5,0.7,1,1c0.5,0.3,1.1,0.5,1.5,0.6c1,0.2,1.9,0.1,2.8-0.2
		c1.4-0.6,2.6-1.8,3.5-3.6c0.7-1.3,1.1-2.8,1.3-4.5c0.2-1.9,0.5-3.8,0.8-5.7l0.4-2.7c0.1,0.2,0.2,0.3,0.3,0.5
		c1.9,3.1,3,6.9,3.1,11.4c0.1,2.1,0,4.2-0.3,6.1c-0.3,2.2-0.9,4.4-1.4,6.2c-0.3,1.1-0.6,2.2-0.9,3.3c-0.9,3.1-1.8,6.4-2.3,9.5
		c0,0.2-0.4,1.8-0.4,3.5c0,0.9,0.7,1.6,1.6,1.6h0.5c0.8,0,1.5-0.6,1.5-1.4c0.3-4.2,1.5-8.5,2.6-12.5l0.3-1c1.2-4.3,2.4-9,2.4-13.8
		c0-5.2-0.9-9.7-2.9-13.4C107.5,118.5,103.5,111.8,97.4,113.3z M69.8,107.7c-0.1,0.2-0.1,0.4-0.2,0.6l-9,2.9
		c-0.1-0.7-0.1-1.5-0.1-2.3c0.1-1.8,0.3-3.5,0.9-5c0.5-1.5,1.3-2.5,2.1-3c0.4-0.2,0.8-0.3,1.3-0.3c0.8,0,1.6,0.3,2.3,0.7
		C69.4,102.8,69.9,105.7,69.8,107.7z M69.3,128.5c-0.2,0.9-0.4,1.7-0.8,2.2c-0.3,0.3-0.8,0.5-1.4,0.4c-1.2-0.1-2.3-1.1-3.2-2.9
		c0.2-0.1,0.5-0.2,0.7-0.3c1.5-0.6,2.9-1.5,4.5-2.5l0,0.5c0,0.5,0,1.1,0.1,1.6c0,0.3,0.1,0.5,0.2,0.7
		C69.3,128.4,69.3,128.5,69.3,128.5z M81.9,115.3l0,0.1c-0.9,4.5-1.2,9.1-0.8,13.7v0c0,0.2,0.1,0.3,0.1,0.5
		c-0.2,0.3-0.4,0.5-0.5,0.7c-0.1,0.1-0.1,0.3-0.2,0.4c-0.1,0.2-0.3,0.4-0.5,0.6c-0.8,0.7-2.1,0.9-3.4,0.7c-0.8-0.2-1.6-0.5-2.2-0.9
		c-0.5-0.4-0.8-1-1.2-1.8c-0.1-0.3-0.2-0.5-0.4-0.8c0.2-0.3,0.2-0.7,0.3-1c0.1-0.8,0.1-1.5,0.2-2.4c0-0.8,0-1.6,0-2.4
		c0.2-0.1,0.5-0.3,0.7-0.4l0.4-0.2c0.4-0.2,0.7-0.4,1.1-0.6c0.5-0.3,1-0.7,1.4-1.2c1.8-1.7,3.1-4,3.5-6.3c0.3-1.6,0.1-3-0.5-4.3
		c-0.7-1.4-1.8-2.4-3.2-2.8c-1-0.3-2-0.2-2.9,0c0.5-0.9,1.1-1.5,1.9-2c1.4-0.8,3-0.5,4,0.7c1.3,1.4,1.8,3.6,2.1,5.5
		c0.1,0.8,0.2,1.7,0.3,2.7C82.1,114.4,82.1,114.8,81.9,115.3z M92.8,119c-0.4,2.4-0.7,5-1,8c-0.1,1.3-0.2,2.7-0.3,4
		c0,0.2,0,0.4,0,0.5c-0.1,0.1-0.2,0.2-0.3,0.2c-0.1,0.1-0.2,0.2-0.3,0.2c-0.2,0.2-0.5,0.3-0.8,0.4c-0.6,0.2-1.2,0.3-2,0.3
		c-0.6,0-1.2-0.2-1.7-0.4c-0.4-0.2-0.7-0.6-1.1-1.1c-0.2-0.3-0.4-0.6-0.5-0.8l-0.1-0.2c-0.1-0.1-0.1-0.2-0.2-0.3
		c0.1-0.2,0.1-0.3,0.2-0.5c0.7-4.9,1.4-9.9,1.1-15c0.1-0.4,0.2-0.9,0.4-1.3c0.4-1.3,0.9-2.4,1.5-3.3c0.4-0.6,1.1-1.4,2-1.6
		c1-0.2,1.9,0.5,2.4,1.2c0.8,1.1,1,2.7,1.2,4c0.1,1.1,0.1,2.2,0.2,3.4C93.1,117.5,93,118.3,92.8,119z M102,117.9
		c-0.6,0.2-1,0.8-1.1,1.4c-0.1,1.1-0.3,2.2-0.5,3.3c-0.2,1.3-0.4,2.6-0.5,3.9l-0.1,1c-0.2,1.3-0.3,2.4-0.7,3.5
		c-0.5,1.2-1,2.1-1.6,2.6c-0.1,0.1-0.4,0.3-0.7,0.3c-0.3,0-0.5-0.1-0.6-0.1c0,0,0,0,0,0c-0.1-0.2-0.3-0.4-0.5-0.7
		c-0.1-0.2-0.3-0.5-0.5-0.7c-0.1-0.1-0.2-0.2-0.3-0.4c0.1-0.1,0.2-0.3,0.2-0.5c1.1-4,1.7-8,1.9-12.1c0-0.6,0-1.3,0-1.9
		c0,0,0.1-0.1,0.1-0.1c1-1,2.6-0.9,3.7-0.3C101.3,117.4,101.7,117.6,102,117.9C102,117.9,102,117.9,102,117.9z"/>
	<path class="st0" d="M81.8,60.4c-0.3-0.3-0.7-0.5-1.1-0.6c-0.5,0-0.9,0.1-1.2,0.4c-0.3,0.3-0.5,0.7-0.6,1.1
		c-0.4,4.6-0.1,9.3,0.8,13.8c0.1,0.6,0.3,1.2,0.4,1.7l0.2,0.7c0.1,0.2,0.1,0.5,0.2,0.7c0,0,0,0,0,0c0,0-0.1,0-0.1,0
		c-1.2,0.4-1.5,1.3-1.6,1.7c-0.1,0.5,0,1,0.1,1.4c0.1,0.2,0.1,0.5,0.2,0.7c0.2,0.8,0.4,1.8,0.6,2.9c0.1,0.6,0.2,1.2,0.4,1.9
		c0.3,1.7,0.6,3.5,1.1,5.2c0.2,0.7,0.8,1.2,1.6,1.2c0.1,0,0.3,0,0.4-0.1c0.4-0.1,0.8-0.4,1-0.8c0.2-0.4,0.3-0.8,0.2-1.1l0-0.1
		c-0.4-1.7-0.8-3.5-1.1-5.3l-0.2-0.9c-0.2-0.9-0.4-1.9-0.6-3c-0.1-0.3-0.2-0.7-0.3-1c0.3-0.1,0.6-0.3,0.9-0.6c0.5-0.5,0.7-1.2,0.7-2
		c0-0.6-0.1-1.2-0.3-1.6c-0.1-0.5-0.3-1-0.4-1.6c-0.5-2.1-0.8-4.3-1-6.4c-0.2-2.4-0.2-4.9,0-7.4C82.2,61.1,82.1,60.7,81.8,60.4z"/>
	<path class="st0" d="M112.5,63.3c0.3-0.8-0.1-1.7-0.9-2.1c-0.8-0.3-1.8,0.1-2.1,0.9c-1.7,4.3-3.3,8.6-4.7,13
		c-0.4,1.2-0.8,2.5-1.2,3.7c-0.2,0.5-0.1,1.1,0.3,1.5c0.3,0.4,0.8,0.6,1.4,0.6c0,0,0,0,0,0l2.4-0.2c-1.2,2.3-2.5,4.6-3.8,6.8
		c-0.5,0.9-1,1.8-1.5,2.6c-0.5,0.8-0.2,1.8,0.6,2.2c0.3,0.1,0.5,0.2,0.8,0.2c0.6,0,1.1-0.3,1.4-0.8c1.8-3.1,3.6-6.3,5.3-9.4
		c0.5-0.9,1-1.8,1.5-2.7c0.3-0.5,0.2-1.2-0.1-1.7c-0.3-0.5-0.9-0.8-1.4-0.7l-2.9,0.2c1.2-3.6,2.4-7.2,3.7-10.6
		C111.5,65.8,111.9,64.6,112.5,63.3z"/>
	<path class="st0" d="M161,113.6c-3.2,1-6.4,1.9-9.5,2.7c-3.2,0.9-6.4,1.7-9.6,2.4c-0.6,0.1-1.1,0.3-1.7,0.4
		c0.1-0.3,0.3-0.6,0.4-0.9c0.2-0.5,0.1-1.1-0.2-1.6c-0.4-0.5-1-0.7-1.6-0.6l-17.4,3.4c-0.9,0.2-1.4,1-1.3,1.9c0.2,0.9,1,1.5,1.9,1.3
		l14-2.7c-0.2,0.2-0.3,0.4-0.5,0.6c-0.5,0.5-0.5,1.3-0.1,1.9c0.3,0.5,0.8,0.8,1.4,0.8c0.1,0,0.2,0,0.4,0c3.2-0.7,6.5-1.5,9.8-2.3
		c3.2-0.8,6.5-1.7,9.6-2.6c1.7-0.5,3.6-1,5.4-1.6c0.4-0.1,0.8-0.4,1-0.8c0.2-0.4,0.2-0.8,0.1-1.2C162.7,113.8,161.8,113.3,161,113.6
		z"/>
	<path class="st0" d="M120.3,99.2c0.5,0.7,1.2,1.7,2.3,1.9c0.4,0.1,1.1,0,1.8-0.5c0.3-0.2,0.5-0.5,0.7-0.8L136.7,85
		c0.6-0.7,0.4-1.8-0.3-2.3c-0.3-0.3-0.7-0.4-1.2-0.3c-0.4,0.1-0.8,0.3-1.1,0.6l-11.3,14.4c0,0,0,0,0,0l-0.2-0.3v0
		c0,0-0.1-0.1-0.1-0.1l-0.3-0.4c-0.2-0.3-0.5-0.7-0.7-1c-0.7-1-1.7-1.3-2.7-1c-0.9,0.3-1.4,1.2-1.6,1.6l-5,9.1
		c-0.2,0.4-0.3,0.9-0.1,1.3c0.1,0.4,0.4,0.7,0.7,0.9c0.2,0.1,0.5,0.2,0.8,0.2c0.1,0,0.2,0,0.3,0c0.5-0.1,0.8-0.4,1.1-0.8l4.6-8.4
		L120.3,99.2z"/>
	<path class="st0" d="M52.8,86.8L52.8,86.8c-0.7-0.1-1.3,0.2-1.7,0.7l-0.4,0.7c-0.9-1.8-1.7-3.5-2.4-5.3c-1.1-2.6-2.2-5.3-3.1-8.1
		c-0.5-1.5-1-3.1-1.4-4.7c-0.2-0.9-1.1-1.3-2-1.1c-0.9,0.3-1.4,1.1-1.1,2c0.8,2.9,1.8,5.7,2.8,8.5c1,2.7,2.2,5.5,3.4,8.2
		c0.7,1.5,1.4,3,2.2,4.5c0.3,0.5,0.8,0.8,1.4,0.9c0.5,0,0.9-0.2,1.2-0.5l1.5,7.7c0.1,0.8,0.8,1.3,1.6,1.3c0.1,0,0.2,0,0.3,0
		c0.9-0.2,1.5-1,1.3-1.9L54,88C53.9,87.4,53.4,86.9,52.8,86.8z"/>
	<path class="st0" d="M40.2,107.3L40.2,107.3c-0.5-0.4-1.1-0.5-1.7-0.3c-0.6,0.2-1,0.8-1,1.4c0,0.2,0,0.3,0,0.5
		c-3.5-2.4-6.9-5-10.1-7.7c-1-0.9-2.1-1.9-3.2-2.9c-0.7-0.6-1.7-0.6-2.3,0.1c-0.3,0.3-0.4,0.7-0.4,1.2c0,0.4,0.2,0.8,0.5,1.1
		c3.8,3.5,7.9,6.9,12.2,9.9c1.2,0.8,2.4,1.7,3.6,2.5c0.4,0.3,1,0.3,1.5,0.1c0.5-0.2,0.9-0.6,1-1.2c0-0.1,0-0.1,0-0.2
		c1.5,1.4,2.9,2.8,4.3,4.1c0.3,0.3,0.7,0.5,1.1,0.5c0.4,0,0.8-0.2,1.1-0.5c0.6-0.6,0.6-1.6,0-2.3C44.8,111.4,42.5,109.3,40.2,107.3z
		"/>
	<path class="st0" d="M88.1,96.5L88.1,96.5c0.6,0.3,1.2,0.5,1.9,0.5c0.3,0,0.6,0,0.9-0.1c1.9-0.4,3.3-1.9,3.6-3.8
		c0.2-1.6-0.6-3-2-3.5c-1.6-0.5-3.1,0.1-4,0.6c-1.4,0.8-2.7,2.3-2.2,4.1C86.6,95.2,87.2,96,88.1,96.5z M90.1,93
		c0.4-0.2,0.9-0.3,1.2-0.4c-0.1,0.4-0.3,0.7-0.7,0.9c-0.3,0.1-0.8,0.2-1-0.1C89.6,93.4,89.8,93.2,90.1,93z"/>
	<path class="st0" d="M121.2,75.3L121.2,75.3c-1.9,0.4-3,2.1-3.2,3.7c-0.2,1.5,0.4,3,1.5,3.8c0.6,0.4,1.3,0.7,2,0.7
		c1,0,2-0.4,2.7-1.1c1.2-1.1,1.6-3,1.1-4.6C124.9,76,123,74.9,121.2,75.3z M122.1,80c-0.2,0.2-0.5,0.3-0.6,0.2
		c-0.2-0.1-0.3-0.5-0.2-0.9c0-0.3,0.2-0.7,0.5-0.8c0,0,0.1,0,0.1,0c0.2,0,0.4,0.1,0.4,0.2C122.4,79,122.3,79.6,122.1,80z"/>
	<path class="st0" d="M44.2,96.8L44.2,96.8c-1.9,0-3.5,1.6-3.6,3.5c-0.1,2,1.3,3.4,2.8,4l0.1,0.1c0.5,0.2,1,0.3,1.5,0.3
		c0.9,0,1.7-0.3,2.3-0.7c1.3-1,1.8-2.9,1-4.5C47.7,97.9,46,96.8,44.2,96.8z M45.4,101.3c-0.1,0.1-0.6,0.1-0.9,0
		c-0.3-0.1-0.7-0.4-0.7-0.7c0-0.2,0.2-0.5,0.3-0.5c0,0,0.1,0,0.1,0c0.5,0,1,0.2,1.2,0.6C45.5,100.9,45.5,101.2,45.4,101.3z"/>
	<path class="st0" d="M36,120.7L36,120.7c-1.3-0.2-2.5,0.3-3.3,1.6c-0.6,1-0.7,2.1-0.2,3.1c0.5,1,1.5,1.6,2.6,1.6
		c0.2,0,0.5,0,0.7-0.1c1.3-0.3,2.4-1.6,2.6-3C38.4,122.3,37.4,120.9,36,120.7z"/>
	<path class="st0" d="M9.6,104L9.6,104c-1.4-0.2-2.7,0.8-3.1,2.2c-0.3,1.2,0.2,2.5,1.3,3.4c0.6,0.4,1.3,0.6,2,0.6
		c0.4,0,0.8-0.1,1.1-0.2c1.2-0.5,1.9-1.9,1.6-3.2C12.3,105.4,11,104.2,9.6,104z"/>
	<path class="st0" d="M114,86L114,86c0.1,0,0.1,0,0.2,0c0.9,0,1.7-0.4,2.3-1.2l0.1-0.1c0.6-0.9,1.1-2.4,0.4-3.6
		c-0.5-0.9-1.5-1.4-2.6-1.3c-1,0.1-1.9,0.5-2.5,1.3c-0.8,1.1-0.8,2.6,0,3.7C112.5,85.4,113.2,85.9,114,86z"/>
	<path class="st0" d="M100.8,83.3L100.8,83.3c-0.8-0.8-1.9-1.2-2.9-1.1c-1.3,0.2-2.4,1.5-2.4,2.9c0,1.4,0.9,2.7,2.2,3.2
		c0.3,0.1,0.6,0.2,0.9,0.2c1,0,2-0.6,2.5-1.5c0.6-1.1,0.5-2.4-0.2-3.4L100.8,83.3z M98.7,85.2l-0.2,0l0,0L98.7,85.2
		C98.7,85.2,98.7,85.2,98.7,85.2z"/>
	<path class="st0" d="M60.4,84c-1.1-0.3-2.2-0.1-3,0.6c-1,0.8-1.2,2.3-0.6,3.5c0.5,1.1,1.8,1.8,3.1,1.8c0.1,0,0.2,0,0.3,0
		c1.4-0.1,2.5-1.4,2.6-2.9C62.8,85.7,61.9,84.5,60.4,84L60.4,84z"/>
	<path class="st0" d="M7.2,75.8c-0.6,1.7-0.6,3.5,0.2,5c0.8,1.7,2.8,3.5,5.8,3.2c0.2,1.2,0.9,2.2,1.9,2.9c1.2,0.8,2.7,1.1,4,0.7
		c0.5,1.9,1.7,2.5,2.2,2.7c0.4,0.1,0.8,0.2,1.2,0.2c1.2,0,2.4-0.6,3.2-1.6c0,0,0.1-0.1,0.1-0.1c0.1,0,0.3,0.1,0.6,0.2
		c0.9,0.4,2.5,1,4.5,0.1l0,0c0.3-0.1,0.5-0.2,0.8-0.4c0.3-0.2,0.5-0.4,0.6-0.7c0.7-0.7,1.3-1.8,1.1-3c1.4-1.4,2.1-3.7,1.8-5.5
		c-0.2-1.1-0.8-2-1.7-2.5c0.8-1.8,0.7-4.2-0.1-5.7c-0.6-1.1-1.6-1.8-2.7-2c0-1.4-0.5-2.7-1.5-3.6c-0.7-0.7-1.6-1-2.6-1.1
		c0,0,0-0.1,0-0.1c1.1-2.8,0.3-5.7-2.3-7.8c-0.5-0.4-1.1-0.4-1.6-0.1c-0.5,0.3-0.7,1-0.5,1.5c0.4,1.3,0.6,2.2-0.5,3.5
		c-0.6-1.2-2-2.1-4.4-2.9c-0.5-0.2-1.1,0-1.4,0.3c-0.4,0.4-0.5,0.9-0.3,1.4c0.6,1.7,1.1,4.2,0.4,6c-0.9-0.4-1.5-0.9-2-1.7
		c-1.2-1.9-1.2-5,0-8.6c0.2-0.6,0-1.3-0.6-1.6c-0.5-0.3-1.2-0.2-1.6,0.2c-0.1,0-0.2,0-0.5,0.1c-0.6,0.1-1.8,0.2-2.3,1.3
		c-1.4,3.4-0.7,7.7,1.6,10.7c-0.4-0.2-0.7-0.4-1.1-0.7c-0.4-0.3-1-0.4-1.5-0.1c-0.5,0.3-0.8,0.8-0.7,1.4l0.1,0.6
		C7.4,69,7.6,70,8.1,70.8C7,70.9,5.9,71,4.9,70.9c-0.5,0-1,0.2-1.3,0.6c-0.3,0.4-0.3,1,0,1.4C4.5,74.5,5.8,75.5,7.2,75.8z
		 M29.8,86.8c-1,0.4-1.7,0.2-2.4-0.1c-0.9-0.3-2.4-1-3.8,0.7c-0.4,0.5-0.9,0.7-1.3,0.5c-0.4-0.1-0.7-0.9-0.7-2.2
		c0-0.6-0.3-1.1-0.8-1.3c-0.2-0.1-0.4-0.1-0.6-0.1c-0.3,0-0.7,0.1-0.9,0.3c-0.9,0.8-2.1,0.7-2.8,0.2c-0.4-0.3-0.9-0.8-0.7-1.6
		c1.2,0.6,2.7,0.5,4-0.3c0.2,0.3,0.4,0.6,0.6,0.9c1,1.2,2.4,1.7,3.8,1.1c0.7-0.3,1.4-0.6,1.9-1c0,0,0,0.1,0,0.1c0,0.4,0.1,0.7,0.4,1
		c1.3,1.3,2.6,1.7,3.6,1.7c0,0,0,0,0,0C30,86.7,29.9,86.7,29.8,86.8z M29.3,72.2c1.1-0.4,1.4,0,1.7,0.4c0.6,1.2,0.3,3.6-0.5,4.2
		c-0.5,0.4-0.6,1-0.4,1.5c0.2,0.5,0.7,0.9,1.3,0.9l0.1,0c0.7,0,1,0.2,1.1,0.8c0.2,1.3-0.6,3.3-1.9,3.7c-0.6,0.2-1.4-0.1-2.1-0.8
		c-0.3-0.3-0.6-0.4-1-0.4c0,0-0.1,0-0.1,0c0.3-0.5,0.5-1,0.5-1.6c0.1-1.3-0.5-2.4-1.1-3.1c1.1-0.7,1.9-1.7,2.2-2.8
		c0.3-1,0.1-2.1-0.6-2.9C28.7,72.3,29,72.3,29.3,72.2z M25.4,67.7c0.7-0.5,1.3-0.5,1.9,0c0.6,0.5,0.9,1.6,0.4,2.5
		c-0.2,0.4-0.2,0.8-0.1,1.2c-0.5-0.3-1.1-0.6-1.8-0.7c0.1-1.1-0.3-2-1.2-2.8C24.9,67.9,25.2,67.9,25.4,67.7z M24.3,62.6
		c0,0.2-0.1,0.5-0.2,0.7c-0.1,0-0.2-0.1-0.2-0.1C24.1,63,24.2,62.8,24.3,62.6z M21.9,70.2c0.4-0.3,0.6-0.4,0.6-0.4c0,0,0,0,0.1,0
		l0,0c0.3,0.2,0.6,0.4,0.6,0.6c0,0.2-0.3,0.5-0.6,0.6c-0.1,0-0.2,0-0.3,0.1c-0.2,0.1-0.3,0.1-0.5,0.2c-0.2-0.2-0.4-0.5-0.7-0.7
		C21.5,70.5,21.7,70.3,21.9,70.2z M19.2,63.1c0,0.1,0.1,0.3-0.3,0.8c0-0.4-0.1-0.8-0.1-1.3C19.1,62.9,19.2,63,19.2,63.1z M18.2,72.7
		c0.8-0.1,1.3,0,1.5,0.3c0.2,0.3,0.2,1-0.2,1.6c-0.3,0.5-0.7,1-1.4,0.9c-0.1-0.1-0.2-0.3-0.4-1.4c-0.1-0.5-0.3-1.2-0.5-1.7
		C17.4,72.6,17.8,72.7,18.2,72.7z M17.4,78.3c0-0.1,0.1-0.1,0.1-0.2c0.1,0,0.2,0,0.3,0c1.5,0.1,3.1-0.7,4-2.2
		c0.4-0.7,0.7-1.5,0.7-2.2c0.2,0,0.4,0,0.5,0c0.1,0,0.2-0.1,0.3-0.1c1.3-0.4,2.3-0.3,2.8,0.1c0.2,0.2,0.2,0.4,0.2,0.7
		c-0.1,0.6-0.9,1.4-2.4,1.8c-0.5,0.1-0.9,0.6-1,1.1s0.2,1.1,0.6,1.4c0.9,0.6,1.7,1.5,1.7,2.1c0,0.5-0.8,1-2,1.5
		c-0.1,0-0.4,0.1-0.7-0.3c-0.4-0.5-0.5-1.1-0.5-1.3c0.3-0.6,0.2-1.4-0.4-1.8c-0.6-0.4-1.4-0.2-1.9,0.3c-1,1.4-2.3,1.7-2.8,1.3
		C16.6,80.4,16.6,79.5,17.4,78.3z M14.2,71c0.1-0.2,0.2-0.3,0.3-0.5c0.2,0.1,0.4,0.3,0.6,0.3l0.5,0.1c1,0.2,1,0.2,1.1,0.7
		c0,0,0,0.1,0,0.1c-0.2-0.2-0.5-0.4-0.8-0.6C15.6,71,15.3,71,15,71c-0.3,0-0.7,0.1-1,0.2C14.1,71.1,14.1,71,14.2,71z M14.2,74.1
		c0.3-0.2,0.5-0.3,0.6-0.4c0.1,0.2,0.1,0.4,0.2,0.9c0.1,0.5,0.3,1.2,0.5,1.7c0,0-0.1,0.1-0.1,0.1c-0.5,0.4-1,0.2-1.3,0.1
		c-0.5-0.2-0.9-0.7-1-1.1C13.1,74.9,13.8,74.4,14.2,74.1z M10.4,75.4c0,0.1,0,0.3,0,0.4c0.2,1.4,1.2,2.7,2.7,3.3
		c0.3,0.1,0.6,0.2,0.9,0.3C14,80,14,80.5,14.1,81c-1.9,0.7-3.6,0.1-4.3-1.4C9.3,78.6,9.3,77,10.4,75.4z"/>
	<path class="st0" d="M38.5,36.1c4.2,1,9.9,9,14.1,14.9c1.8,2.6,3.4,4.8,4.7,6.2c2.3,2.5,5.6,3.9,8,4.6c1.4,0.4,1.5,0.6,1.7,1.5
		c0.2,0.7,0.5,1.5,1.2,2.6c0.8,1.1,2.1,0.8,2.8,0.5c0,0,0.1,0,0.1,0.1c0.2,0.2,0.5,0.3,0.8,0.3c0.4,0,0.8-0.2,1.1-0.6
		c0.2-0.3,0.5-0.7,0.6-1.3c1-0.8,0.3-2.3,0-2.9c-1.3-2.9-1-3.5-0.5-4.1c0.4-0.6,0.9-1.4,0.8-2.8c-0.1-1-0.2-2.2-0.4-3.4
		c1-1.6,2.2-3.2,3.3-4.6c3.3-4.3,6.4-8.4,4.2-13.4c-0.1-0.3-0.4-0.5-0.6-0.6c-0.3-0.1-0.6-0.1-0.9,0c-0.3,0.1-0.5,0.4-0.6,0.6
		c-0.1,0.3-0.1,0.6,0,0.9c1.6,3.7-0.9,7.1-4,11c-0.7,0.9-1.4,1.8-2.1,2.8c-0.5-2.5-1.1-5-1.6-6.9l-0.2-0.6c-2-7.8-4.3-12.2-6.3-16.1
		l-0.6-1.1c-0.5-2.4-1.3-4-2.5-4.8c-0.5-0.4-1.2-0.4-1.6,0c-0.5,0.4-0.7,1-0.4,1.6c0.6,1.5,1.3,2.9,2,4.2c0.1,0.4,0.1,0.8,0.2,1.3
		C58.5,20,54.3,16,49.4,14c-0.3-0.1-0.6-0.1-0.9,0c-0.3,0.1-0.5,0.3-0.6,0.6c-0.1,0.3-0.1,0.6,0,0.9c0.1,0.3,0.3,0.5,0.6,0.6
		c0.1,0,0.2,0.1,0.3,0.1c-0.8-0.1-1.5,0.1-2.1,0.7c-3.7,3-1.3,10.6,0,14.7l0.1,0.2c0.2,0.6,0.3,1,0.4,1.3c0.3,1.3,0.7,2.7,1.3,4
		c-3.6-2.2-6.8-3.4-9.5-3.7c-0.7-0.1-1.3,0.4-1.5,1.1C37.3,35.3,37.8,35.9,38.5,36.1z M70,59.8c-0.2-0.2-0.3-0.4-0.4-0.5
		c-0.6-0.9-1.2-1.9-1.8-2.9l-0.3,0.2l0.3-0.3c-0.2-0.4-0.4-0.7-0.7-1.1c0.1-0.1,0.2-0.1,0.3-0.2c0.6-0.5,0.5-1.4,0.1-1.9
		c-1.4-1.9-1.9-6.5-2.1-11.9c1.2,4.6,2,8.8,2.5,11.8c0.7,4.2,0.9,4.9,2.1,4.9c0,0,0,0,0,0C69.9,58.4,69.9,59,70,59.8z M68.5,41.5
		l0.2,0.7c0.7,2.8,1.6,6.4,2.1,9.6c-0.2,0.4-0.4,0.7-0.5,1c0-0.1,0-0.2,0-0.3c-0.8-4.6-2.2-12.3-5.1-19.7c0-0.5,0-1-0.1-1.4
		C66.1,33.8,67.4,37,68.5,41.5z M48.4,19.1c0.1-0.1,0.1-0.1,0.1-0.1c0.1,0,0.5,0.2,1.3,1.3c0.4,0.6,1.3,0.7,1.9,0.3
		c0.3-0.2,0.5-0.5,0.5-0.9c0.1-0.4,0-0.7-0.3-1c-0.4-0.5-0.8-1-1.2-1.4c4.7,2.7,8.6,7.8,11.6,14.9c0.1,1.6,0.1,3.1,0.2,4.7
		c0.1,4.5,0.3,8.8,0.8,12.2c-3.7-3.5-7.2-6.5-10.4-8.9c-1.4-2.4-2.6-5.1-3.2-7.7c-0.1-0.3-0.2-0.9-0.5-1.7
		C48.4,28.1,46.1,20.9,48.4,19.1z M50.9,42c2.1,3.2,4.6,5.6,7.4,7.2c3,1.7,5.2,5.2,7.2,8.6l0.1,0.1c0.3,0.5,0.6,1,0.9,1.5
		c-0.1,0-0.2-0.1-0.4-0.1c-2.1-0.6-4.9-1.8-6.8-3.9c-1.2-1.3-2.8-3.5-4.5-6c-2.3-3.2-4.9-6.8-7.5-9.8C48.4,40.3,49.6,41.1,50.9,42z"
		/>
	<path class="st0" d="M174.4,75.7c-1-0.9-1.7-1.4-2.2-1.6c0.3-1.2,0.7-2.9-0.2-4.2c-0.6-0.8-1.5-1.2-2.8-1.2c-0.4,0-1.5,0-2.2,1
		c-0.5,0.7-0.3,1.5-0.1,2.1c-0.2,0-0.3,0-0.5-0.1c-1.3-0.2-3.3-0.4-5.1,1.1c-1,0.8-1.7,2-2.4,3.3c-0.9,1.7-2.1,3.8-4.7,6.3
		c-1.5,1.4-3.9,2.1-6.5,2.9c-5.6,1.7-12.5,3.8-12.1,13.8c0.1,2.7,1.2,5,3.3,6.7c0,0.1,0,0.2,0,0.3c0,0.4,0.2,0.8,0.5,1.1
		c0.3,0.3,0.7,0.4,1.1,0.4c0.3,0,0.6-0.1,0.9-0.2c1.9,0.9,4.2,1.3,6.6,1.3c4.1,0,8.2-1.3,11.4-3.6c3.9-2.9,7.6-7.2,10.9-12.9
		c0.2-0.4,0.3-0.8,0.2-1.2c-0.1-0.3-0.2-0.5-0.4-0.7c0.6-0.8,1.2-1.7,1.7-2.5l0.1-0.2c0.1-0.1,0.1-0.1,0.1-0.2
		c0.2-0.3,0.4-0.5,0.6-0.8c0.6,0.1,1.3-0.1,1.6-0.7C176.6,82.3,178,79.2,174.4,75.7z M157.6,102.4c-4,2.9-10,3.9-14.3,2.2
		c-0.1-1.1-0.8-2.1-1.4-3c-0.2-0.3-0.3-0.5-0.4-0.6c0.6,0.2,1.6,0.6,3.6,1.6c0.9,0.5,1.4,0.7,1.8,0.8c4,1.1,8.3,0.2,12.6-2.6
		C158.9,101.4,158.3,101.9,157.6,102.4z M169.8,85.3c0,0-0.1,0.2-0.4,0.6c-7.3,11.1-14.9,16.2-21.5,14.5c-0.1,0-0.5-0.2-1.2-0.6
		c-2.1-1.1-4.1-2-5.6-2c-0.7,0-1.2,0.2-1.7,0.5c-0.2,0.1-0.4,0.3-0.5,0.5c0,0,0,0,0,0c-0.3-7.6,4.4-9,9.9-10.7
		c3-0.9,5.8-1.7,7.8-3.7c1.4-1.3,2.5-2.6,3.5-4.1c0.5,0.1,1.1-0.1,1.4-0.4c0.2-0.2,0.5-0.3,0.8-0.4c0.1,0.5,0.2,1,0.3,1.5
		c0.2,0.6,0.3,1.2,0.3,1.8c0,0.8,0.6,1.4,1.3,1.6c0.4,0.1,0.9-0.1,1.3-0.4c0.2-0.1,0.4-0.1,0.7-0.2c1.2-0.3,2.9-0.8,3.9-1.9
		c0.4,0.4,0.7,1,1,1.5C170.7,84,170.3,84.6,169.8,85.3z M169.2,78.2c-0.7,0.2-1.2,0.7-1.4,1.5c0,0.1-0.3,0.5-2.2,1
		c0-0.2-0.1-0.3-0.1-0.5c-0.1-0.4-0.3-0.9-0.3-1.3c-0.1-0.6,0.2-1,0.7-1.6c0.4-0.5,0.5-1.2,0.2-1.7c0-0.1-0.1-0.1-0.1-0.2
		c0.5,0.1,1.1,0.5,1.6,1c0.2,0.2,0.4,0.3,0.6,0.4c0.8,0.3,2.5,1,3.3,2.3C170.7,78.3,169.9,78,169.2,78.2z"/>
	<path class="st0" d="M96.2,57.4L96.2,57.4c0.7,0.4,1.5,0.6,2.4,0.6c0.5,0,1-0.1,1.4-0.2c0.3-0.1,0.6-0.1,0.8-0.1l0.3,0
		c0.2,0,0.4,0,0.6,0.1c0.4,0.1,0.7,0.1,1.1,0.1c1.1,0,2-0.4,2.8-1.4c0.5-0.6,0.8-1.2,1-1.8c0.3-0.7,0.6-1.4,0.8-2.1
		c0.4-1.3,0.5-2.4,0.4-3.4c-0.1-1.8-1.1-3.2-2.6-3.9c-0.2-0.1-0.4-0.2-0.7-0.3c0.1-0.3,0.2-0.6,0.3-0.9l0.1-0.4
		c1.1-3.4,2.3-6.8,3.4-10c0.4,1.8,1.1,3.4,1.6,4.6c1.1,2.4,2.4,4.6,3.8,6.5c0.8,1,1.5,1.7,2.3,2.4c0.2,0.1,0.3,0.2,0.5,0.4
		c-0.7,1.2-0.9,2.7-0.7,4.1c0.3,1.8,1.3,3.1,2.2,3.9c1.1,1.1,2.4,1.8,3.8,2.2c0.8,0.2,1.6,0.2,2.3,0c0.6-0.2,1.1-0.6,1.5-0.9
		c0.3-0.2,0.5-0.4,0.7-0.4c0.3-0.1,0.6-0.1,1-0.2c0.7-0.1,1.9-0.2,2.8-1.1c1.1-1,1.4-2.6,1.4-4c0.1-1.4-0.1-2.8-0.6-4
		c-0.5-1.3-1.4-2.4-2.4-3.1c-1.2-0.8-2.8-1.2-4.1-1c-1.2,0.2-2.2,0.8-2.8,1.8c-0.4-0.1-0.7-0.1-1.1,0c-0.6,0.1-1.1,0.3-1.6,0.6
		l-0.4-0.3c-0.6-0.4-1.1-0.9-1.8-1.7c-0.6-0.7-1.2-1.6-1.9-2.6c-1.3-2-2.2-4.2-2.9-6.4c-0.1-0.4-0.3-0.9-0.4-1.3
		c1.8,1.6,3.8,2.8,5.9,3.8c2.1,0.9,4.3,1.4,6.5,1.5c2.4,0.1,5-0.3,7.4-1.2c0.4-0.1,0.7-0.5,0.9-0.8c0.1-0.3,0.1-0.8,0-1.2l-0.2-0.3
		h0c-0.7-1.4-1.6-2.8-2.8-4.4c-2.6-3.4-5.2-5.6-8.2-6.7c-1.6-0.6-3.4-0.9-5.1-0.7c-1.6,0.2-3.1,0.7-4.7,1.5c0-0.1-0.1-0.2-0.1-0.2
		c-0.5-1-1.2-1.5-2.1-1.6l-0.1,0c-0.8,0-1.6,0.6-2,1.4c-0.3,0.6-0.4,1.4-0.2,2.2c0.1,0.6,0.3,1.3,0.7,1.9l-3.2,9.3
		c-0.8,2.4-1.7,5-2.5,7.5c-0.2,0-0.4,0.1-0.7,0.2c-0.3,0.1-0.6,0.2-0.8,0.3c-1.7-1-3.4-1-4.7-0.1c-1.1,0.8-1.8,2.1-2,3.8
		c-0.2,1.5-0.1,3.1,0.3,4.6C93.9,54.9,94.7,56.5,96.2,57.4z M119.1,49.1c0.5,0.3,1,0.4,1.5,0.5c1,0.1,1.6-0.2,1.9-0.5
		c0.3-0.3,0.7-0.8,0.8-1.7c0.2-0.2,0.5-0.5,0.5-0.8c0.1-0.5,0.7-0.7,1.2-0.7c0.9,0.1,1.6,0.4,2.2,1.1c0.5,0.6,0.9,1.4,1.1,2.4
		c0.2,1.1,0.1,2.2-0.2,3.1c-0.1,0.2-0.2,0.4-0.3,0.5c-0.1,0-0.2,0.1-0.5,0.2c-0.2,0-0.4,0.1-0.6,0.1c-0.6,0.1-1.3,0.2-2,0.5
		c-0.4,0.2-0.7,0.5-1,0.7c-0.3,0.3-0.6,0.4-0.8,0.4c-0.3,0-0.7-0.1-1.2-0.3c-0.5-0.2-0.9-0.5-1.3-0.8c-0.6-0.5-1.4-1.3-1.6-2.4
		C118.7,50.6,118.8,49.8,119.1,49.1z M128.2,34.6c0,0.1,0.1,0.1,0.1,0.2c-0.1,0-0.1,0-0.2,0C128.2,34.8,128.2,34.7,128.2,34.6z
		 M121.1,27.1c2.2,1.2,4.2,3.2,6.2,6.1c-1.6-0.8-3.2-1.8-4.7-2.8l-1.3-0.8c-1.9-1.2-3.8-2.4-5.9-3.3c-0.2-0.1-0.4-0.2-0.6-0.3
		C116.9,25.6,119,25.9,121.1,27.1z M111.5,28.6c0,0,0.1-0.1,0.3-0.1c0.8,0.5,1.6,0.9,2.4,1.4l0.1,0.1c1,0.6,2.1,1.3,3.2,1.9
		c2.6,1.5,4.9,2.6,7,3.5c-0.8,0-1.7-0.1-2.5-0.2c-2.3-0.4-4.6-1.3-6.7-2.8c-1.5-1-2.9-2.2-4-3.6C111.4,28.7,111.4,28.6,111.5,28.6z
		 M97,47.8c0.1-0.1,0.2-0.1,0.4-0.1c0.1,0,0.2,0,0.3,0c0.1,0,0.2,0.1,0.3,0.1c0,0.3,0,0.5,0,0.8v0c0.1,0.7,0.7,1.4,1.4,1.8
		c0.8,0.4,1.6,0.4,2.3,0.1c1.2-0.5,1.7-1.7,2-2.4c0.2,0.1,0.5,0.2,0.6,0.3c0.7,0.5,0.7,1.6,0.5,2.5c-0.2,1.1-0.6,2.2-1.1,3.4
		c-0.4,0.8-0.6,0.8-0.6,0.9c-0.2,0-0.5,0-0.8-0.1c-0.3,0-0.5-0.1-0.8-0.1c-0.5-0.1-1,0-1.6,0.1c-0.2,0-0.4,0.1-0.7,0.2
		c-0.1,0-0.3,0.1-0.4,0.1c-0.5,0.1-0.9-0.1-1.2-0.3c-0.9-0.7-1.3-2.3-1.4-3.6C96.1,49.8,96.4,48.2,97,47.8z"/>
	<path class="st0" d="M21.5,121.8c-3.5-1.4-6.1-1.1-7.7-0.7l-0.2,0.1c-1.7,0.5-3.6,1.7-4.7,3.5c0,0,0-0.1,0-0.1
		c-0.8-3.7-4.7-6-4.7-6c-0.5-0.3-1.1-0.2-1.5,0.2c-0.4,0.4-0.4,0.9-0.2,1.3c0,0.2,0.1,1.3-1.6,4.1c-1,1.7-1.2,3.4-0.6,5
		c0.5,1.3,1.5,2.4,2.9,3.4l-0.4,0.2c-0.2,0.1-0.5,0.3-0.6,0.5l-0.2,0.4c-0.3,0.5-0.2,1.1,0.1,1.6c0.3,0.4,0.9,0.6,1.4,0.4l0.5-0.2
		c0.5-0.2,1.7-0.6,2.9-0.9c-0.2,0.6-0.3,1.3-0.4,1.9c-0.2,2.4,0.5,4.8,2,6.8c1.2,1.6,3,2.7,5.1,3.1c2.3,0.5,4.7,0.3,7.2-0.4
		c1.1-0.3,2.2-0.7,3.3-1.4c1-0.6,1.8-1.4,2.6-2.4c1-1.4,1.7-2.9,1.9-4.5c0.1-0.7,0.1-1.4-0.1-2.1c0-0.2-0.1-0.4-0.1-0.5
		c0.2-0.3,0.3-0.5,0.3-0.7c0.2-0.5,0.3-1.1,0.4-1.7c0.2-2-0.3-4.1-1.5-6C26.5,124.5,24.4,122.9,21.5,121.8z M5.8,128.7
		c-0.5,0.7-0.8,1.4-0.9,2.1c-0.9-0.6-1.9-1.4-2.3-2.5c-0.3-0.9-0.2-1.9,0.5-2.9c0.8-1.3,1.3-2.5,1.6-3.5c0.8,0.8,1.7,1.9,2,3.2
		C6.9,126.2,6.6,127.4,5.8,128.7z M26.2,132.7c-0.5,0-1.1,0.2-1.4,0.5c-0.6,0.6-0.8,1.4-0.5,2.1c0.2,0.6,0.8,1.1,1.5,1.2
		c0,1.2-0.4,2.5-1.3,3.6c-0.5,0.7-1.1,1.3-1.8,1.7c-0.7,0.4-1.5,0.8-2.6,1.1c-1.9,0.6-3.9,0.7-5.7,0.4c-1.4-0.3-2.5-1-3.3-2
		c-1-1.3-1.5-2.9-1.4-4.4c0.3,0.3,0.7,0.4,1.2,0.5c1,0.1,1.9-0.4,2.3-1.3c0.5-1.1,0.2-2.9-1.1-4c-0.1-0.1-0.2-0.2-0.3-0.2
		c0.1-0.5,0.2-0.9,0.3-1.5c0.1-0.4,0-0.7-0.2-1c-0.2-0.3-0.5-0.5-0.9-0.6c0,0-0.1,0-0.1,0c0,0-0.1,0-0.1,0c-0.4-0.1-0.7,0-1,0.2
		c-0.3,0.2-0.5,0.5-0.6,0.9c-0.1,0.3-0.2,0.8-0.2,1.4c-0.5,0-1.1,0.1-1.7,0.2c0-0.3,0.2-0.8,0.6-1.4c0.5-0.7,0.9-1.5,1.1-2.3
		c0.1,0.1,0.3,0.2,0.4,0.2l0.3,0.1c0.3,0.1,0.7,0.1,1-0.1c0.3-0.2,0.5-0.5,0.6-0.8c0.4-1.6,2.1-2.6,3.5-3.1c1.6-0.5,3.6-0.3,5.7,0.6
		c2.3,0.9,3.9,2.1,4.8,3.5C26.2,129.6,26.5,131.3,26.2,132.7z"/>
	<path class="st0" d="M155.7,127.5c-0.4-0.7-1.2-1.1-2.1-1.1c-0.7,0-1.4,0.2-2,0.6c-1.4,0.8-1.6,2.6-1.7,4l0.4,0l-0.4,0.1
		c0,0.3-0.1,0.5-0.1,0.7c-0.1,0.3-0.6,1.7-2.3,3.6c-1.2,1.4-3.1,3.4-5.8,4.7c-3.7,1.8-7.8,1.6-12-0.4c-0.6-0.3-1.4-0.9-2.3-1.6
		c-1.2-0.9-2.5-1.9-3.7-2.3c-0.8-0.3-2.1-0.3-3.2,0.3c-0.8,0.5-1.3,1.3-1.5,2.2c-0.1,0.9,0.2,1.7,0.8,2.2c0,0,0,0,0,0
		c-0.2,1.4,2.1,4.5,3.2,5.8c1.9,2.2,5.1,4.9,9.7,5.9c1.8,0.4,3.6,0.6,5.2,0.6c2.4,0,4.7-0.4,6.8-1.2c2.2-0.9,4.2-2.1,6.1-3.9
		c0.4-0.3,0.7-0.7,1.1-1.1c3.6-3.8,3.8-9,3.7-11c0-1.2-0.2-2.2-0.4-2.9c0.1-0.1,0.1-0.2,0.2-0.3
		C155.8,131.8,156.4,128.7,155.7,127.5z M124.2,139.9c-0.1-0.1-0.1-0.2-0.2-0.2c0-0.1,0.1-0.1,0.1-0.2c0.5,0.3,0.9,0.7,1.4,1
		c1,0.7,1.9,1.4,2.8,1.9c2.7,1.3,5.3,1.9,8,1.9c2.3,0,4.5-0.5,6.7-1.5c3.2-1.5,5.5-3.8,6.9-5.5c0.4-0.5,0.8-1,1.2-1.5
		c-0.6,2.2-1.9,4.3-3.6,6c-2,1.9-5.7,4.2-11.5,4C130.6,145.6,126,142.2,124.2,139.9z M149.8,144.6c-1.9,2-3.8,3.4-6.1,4.2
		c-3,1.2-6.5,1.3-10.3,0.5c-2.5-0.5-4.6-1.8-6.1-3c2.8,1.6,5.7,2.4,8.5,2.5c7,0.3,11.3-2.5,13.7-4.8c0.8-0.8,1.6-1.7,2.2-2.6
		C151.3,142.7,150.6,143.7,149.8,144.6z"/>
</g>
</svg>