<svg width="22" height="22" viewBox="0 0 22 22" fill="none" xmlns="http://www.w3.org/2000/svg">
<path d="M1.01106 20.2753C0.945571 20.4626 1.19239 20.5426 1.19239 20.5426C2.93462 21.0107 4.74251 21.2471 6.55955 21.2441C6.83912 21.2441 7.06328 21.244 7.25469 21.2326C7.28419 21.244 7.31582 21.2503 7.34788 21.2509H8.7709C8.82547 21.2514 8.87835 21.2338 8.91962 21.2014C8.96088 21.169 8.98771 21.124 8.99506 21.075C9.00359 21.0262 8.99251 20.9764 8.96384 20.9344C8.93517 20.8925 8.89083 20.8612 8.83891 20.8465C7.26981 20.3895 5.19447 19.4756 4.20718 17.6614C3.37855 16.1259 3.43395 14.1769 4.37088 11.8624C5.12646 9.97961 5.25995 8.43496 4.7386 7.23311C5.44722 7.44694 6.10452 7.78116 6.67542 8.21791C6.94239 9.91102 7.83902 11.8737 8.86409 12.9979C8.89341 13.0311 8.93349 13.0552 8.97868 13.0667C9.02386 13.0782 9.07187 13.0765 9.11595 13.0619C9.16 13.0474 9.19811 13.021 9.22513 12.9863C9.25215 12.9516 9.26678 12.9102 9.26706 12.8677C9.28536 11.5751 8.91252 10.3027 8.18911 9.18899C7.89023 8.74891 7.52388 8.34964 7.10106 8.00315C7.07336 7.78608 7.05572 7.57594 7.05069 7.38172C7.00283 5.67491 7.57708 3.32604 10.5012 1.6695C9.96221 3.2575 10.2493 5.71597 10.7531 6.62307C10.8765 6.83785 11.0502 7.15315 11.2568 7.5233C10.8919 8.54389 10.8474 9.63651 11.1283 10.6787C11.3021 11.3642 11.5212 12.0245 11.7328 12.6643C11.9937 13.3586 12.1892 14.0718 12.3171 14.7961C12.4143 15.496 12.3491 16.2065 12.1257 16.8822C11.8738 17.5242 11.4658 17.8761 10.8941 17.9287C10.75 17.952 10.602 17.9478 10.4598 17.9163C10.3175 17.8848 10.1841 17.8268 10.068 17.7459C9.75819 17.506 9.5819 17.0216 9.53153 16.2676C9.51461 15.5021 9.33055 14.7473 8.99002 14.0467C8.74063 13.5937 8.38658 13.1946 7.95197 12.8768C7.51736 12.559 7.01238 12.3299 6.47141 12.2051C6.42445 12.1934 6.37459 12.1958 6.32923 12.2119C6.28387 12.2279 6.24541 12.2568 6.21955 12.2942C6.19331 12.3327 6.18181 12.3779 6.18682 12.423C6.19183 12.468 6.21306 12.5103 6.24725 12.5432C6.66786 12.9522 6.75097 13.6125 6.5117 14.5631C6.46888 14.723 6.41349 14.9103 6.35052 15.1068C6.12384 15.8426 5.84679 16.7611 6.02813 17.4717C6.54696 19.4344 7.6602 21.2509 12.2542 21.2509H12.5841C13.657 21.2509 16.7851 21.1185 20.7746 19.7772C20.7746 19.7772 21.0718 19.6858 20.9837 19.4642C20.8955 19.2425 20.6159 19.3888 20.6159 19.3888C15.8558 20.9882 12.2491 20.8305 12.2138 20.8282V20.8443C7.96998 20.8328 6.94491 19.174 6.47141 17.3827C6.31022 16.7772 6.57468 15.9157 6.79128 15.2188C6.85424 15.0178 6.91216 14.8281 6.95498 14.6636C7.15143 13.8958 7.14891 13.2927 6.95498 12.8106C8.6626 13.5212 8.99254 14.963 9.08321 16.2974C9.14114 17.1839 9.36278 17.7459 9.77835 18.0658C9.94029 18.1839 10.1278 18.2697 10.3287 18.3177C10.5296 18.3657 10.7394 18.3749 10.9445 18.3446C11.7001 18.2761 12.2567 17.819 12.5614 17.0239C12.8051 16.2915 12.8772 15.521 12.773 14.7619C12.646 14.0099 12.4454 13.2697 12.1736 12.5501C11.9645 11.9194 11.7479 11.2682 11.5766 10.5942C11.3555 9.7691 11.3486 8.90871 11.5565 8.0808C12.2214 9.31692 13.0677 10.9186 13.3195 11.4693C14.1683 13.2469 14.735 15.7672 13.7754 17.5175C13.2112 18.5434 12.1786 19.2266 10.7002 19.5487C10.6485 19.5604 10.6029 19.5878 10.5712 19.6266C10.5395 19.6654 10.5236 19.713 10.5264 19.7612C10.5293 19.8092 10.5505 19.8547 10.5863 19.8901C10.6222 19.9255 10.6704 19.9486 10.7228 19.9554C12.7377 20.1839 14.3144 19.9075 15.41 19.1009C16.4602 18.3286 17.0647 17.081 17.2108 15.397C17.3317 13.9598 17.7649 12.9865 18.4701 12.5866C18.5138 12.5614 18.5468 12.5236 18.5637 12.4792C18.5806 12.4348 18.5805 12.3865 18.5633 12.3422C18.546 12.2961 18.5111 12.2572 18.4649 12.2324C18.4187 12.2077 18.3642 12.1987 18.3114 12.2073C17.7154 12.2823 17.1577 12.5171 16.7096 12.8814C16.5839 12.3335 16.3842 11.8016 16.1152 11.2979C15.5804 10.2489 15.1325 9.16513 14.7753 8.0557C14.5687 7.27655 14.1809 5.35273 14.9843 4.3451C15.0154 4.30839 15.0322 4.2634 15.0322 4.21713C15.0322 4.17086 15.0154 4.12587 14.9843 4.08916C14.9514 4.05409 14.9064 4.03011 14.8566 4.02099C14.8069 4.01188 14.7552 4.01811 14.7098 4.03884C13.4987 4.57604 12.4856 5.42061 11.7932 6.47C11.6799 6.64522 11.5773 6.82603 11.486 7.01154C11.36 6.78305 11.2517 6.58878 11.1686 6.44255C10.6649 5.56515 10.3576 2.69305 11.1686 1.29698C11.1918 1.25812 11.2004 1.21349 11.1932 1.16979C11.1859 1.12609 11.1631 1.08568 11.1283 1.05477C11.0945 1.02285 11.05 1.00203 11.0017 0.995415C10.9534 0.988804 10.9041 0.996853 10.8614 1.01829C7.24714 2.77765 6.552 5.46004 6.60489 7.39991C6.60489 7.48216 6.6049 7.56449 6.61749 7.64903C5.94168 7.21437 5.18358 6.89597 4.38096 6.70987C4.33793 6.69994 4.29265 6.70157 4.25062 6.71455C4.20859 6.72753 4.17163 6.75137 4.14421 6.78305C4.11654 6.81516 4.09988 6.85389 4.0963 6.89451C4.09271 6.93513 4.10237 6.97586 4.12406 7.01154C4.82423 8.13799 4.76883 9.72597 3.95532 11.7298C2.97054 14.1518 2.92268 16.2128 3.80923 17.851C4.62526 19.3591 6.12888 20.2753 7.45367 20.8214C5.38888 20.9097 3.32226 20.6858 1.33847 20.1588C1.33847 20.1588 1.07906 20.0902 1.01106 20.2753ZM14.2665 4.72431C13.8308 5.89417 14.1582 7.46618 14.3345 8.15164C14.7003 9.28997 15.1592 10.402 15.7072 11.4785C16.0321 12.0862 16.3393 12.9386 16.3041 13.3887C16.2997 13.4356 16.3134 13.4823 16.3428 13.521C16.3722 13.5598 16.4155 13.5881 16.4653 13.6011C16.513 13.6125 16.5636 13.6093 16.6092 13.592C16.6547 13.5746 16.6927 13.5441 16.7171 13.5052C16.9193 13.2275 17.1992 13.0036 17.5281 12.8563C17.105 13.4367 16.8355 14.2912 16.7423 15.3697C16.6088 16.9371 16.0598 18.0864 15.1103 18.7833C14.3219 19.3636 13.2364 19.647 11.8839 19.6264C12.8757 19.2568 13.6876 18.5754 14.1708 17.7071C14.6745 16.8046 14.8307 15.6826 14.6594 14.378C14.5081 13.3209 14.1926 12.2886 13.7225 11.3117C13.4329 10.7016 12.4204 8.78002 11.7303 7.50277C12.2211 6.35156 13.1113 5.37634 14.2665 4.72431ZM7.23454 8.72063C8.32258 9.84937 8.67016 11.234 8.77342 12.1846C8.0391 11.1214 7.51808 9.94862 7.23454 8.72063Z" fill="#3F433F" stroke="#3F433F" stroke-width="0.4"/>
</svg>