<?xml version="1.0" encoding="utf-8"?>
<!-- Generator: Adobe Illustrator 25.0.0, SVG Export Plug-In . SVG Version: 6.00 Build 0)  -->
<svg version="1.1" id="Lag_1" xmlns="http://www.w3.org/2000/svg" xmlns:xlink="http://www.w3.org/1999/xlink" x="0px" y="0px"
	 viewBox="0 0 472.9 330.7" enable-background="new 0 0 472.9 330.7" xml:space="preserve">
<g>
	<defs>
		<rect id="SVGID_1_" x="129.1" y="180.2" width="343.8" height="150.5"/>
	</defs>
	<clipPath id="SVGID_2_">
		<use xlink:href="#SVGID_1_"  overflow="visible"/>
	</clipPath>
	<g clip-path="url(#SVGID_2_)" enable-background="new    ">
		<g>
			<defs>
				<rect id="SVGID_3_" x="128" y="180" width="346" height="236"/>
			</defs>
			<clipPath id="SVGID_4_">
				<use xlink:href="#SVGID_3_"  overflow="visible"/>
			</clipPath>
			<g clip-path="url(#SVGID_4_)">
				<defs>
					<path id="SVGID_5_" d="M472.6,180.3c-8-0.3-16.1,0-24,0.8c-1.4,0.1-2.8,0.3-4.2,0.6c-0.6,0.1-1.7,0.2-2.1,0.8
						c-1.3,1.8,4,1.7,4.5,1.8c0.9,0,1.8,0,2.6,0.2c0.9,0.2,1.6,0.9,0.4,1.3c-1.5,0.6-3.4,0.4-4.9,0.5c-1.5,0.1-6-0.2-6.2,2
						c-0.3,2.5,6.7,5.3,5,7.5c-0.8,1-2.7,1.2-3.8,1.4c-2.9,0.5-5.9,0.5-8.9,0.7c-3,0.2-7.8,0.1-10.1,2.4c-3.3,3.2,4.9,7.3,6.9,8.3
						c1.1,0.6,2.3,1.1,3.5,1.6c0.7,0.3,1.7,0.6,2.3,1.2c0.9,0.8-0.6,0.9-1.4,1.1c-4.9,0.8-10.2,0.4-15.1,0.4
						c-5.8-0.1-11.7-0.2-17.5,0.2c-1.1,0.1-7.7,0.3-6,2.9c0.9,1.4,3.8,1.4,5.3,1.4c3.3,0.1,6.6-0.1,9.9-0.3c2.9-0.2,6-0.5,8.9-0.2
						c0.4,0,2,0.1,2,0.7c0,0.6-1.4,1-1.8,1.1c-2.8,0.9-5.8,1.1-8.7,1.4c-3.5,0.4-7.1,0.7-10.6,1.1c-1.1,0.1-11.8,1-8.4,3.9
						c1,0.9,2.6,1.1,3.9,1.3c2.1,0.4,4.1,0.5,6.2,0.7c4.5,0.4,10.1,0.4,14,3.2c2.8,2,2.8,5.4,0.5,7.7c-1.9,1.9-4.6,3.1-7.1,3.8
						c-4.3,1.2-8.7,1.9-13.1,2.5c-4.6,0.6-9.2,1.1-13.8,1.9c-2.6,0.4-6.1,0.6-8.4,2.2c-1.4,0.9-0.9,2.3,0.5,2.8
						c2.8,0.9,6.2,0.3,9.1,0.3c1.4,0,3-0.1,4.3,0.4c1.9,0.7,0.2,2.2-1,2.7c-1.6,0.7-3.4,1-5.1,1.6c-0.8,0.3-2.1,0.6-2.4,1.5
						c-0.4,1.2,0.8,2.2,1.7,2.6c2.5,1.1,5.6,1,6.8,4c1.6,3.8-2.9,5.4-5.7,6.3c-2.2,0.7-4.5,1.3-6.8,1.9c-9.3,2.3-18.7,3.7-28,5.8
						c-2.3,0.5-5.4,0.9-7.3,2.3c-1.7,1.2,0.2,2.7,1.5,3.2c9.2,3.8,21.4-1.3,28.3,7.9c6.3,8.4-4.8,14.9-11.6,17.5
						c-13.1,4.9-27.4,6.8-41.2,8.8c-16.6,2.4-33.3,4.1-49.9,6.5c-7.3,1-14.5,2.2-21.7,3.7c-5.5,1.1-11,2.5-16.2,4.6
						c-2.9,1.2-6.5,3-8,5.9c-2.4,4.6,1.8,8.3,5.6,9.8c6,2.5,12.8,3,19.2,3.5c6.6,0.5,13.4,0.6,20,1.5c1.7,0.2,4.2,0.4,5.5,1.6
						c2.1,1.7-2.6,4.1-3.8,4.8c-7.2,3.8-15.5,6-23.4,7.7c-11.4,2.5-23,3.3-34.7,3.2c-9.2-0.1-18.4-0.8-27.6-0.5
						c-7.9,0.3-15.8,1.5-23,5.1c-6.1,3-11.3,7.5-15.5,12.9c-6.3,8.1-10.3,17.7-13.1,27.4c-0.1,0.4,0.5,0.5,0.6,0.2
						c4.9-16.9,14-34.3,31.2-41.2c7.7-3.1,16-3.8,24.2-3.8c9.6,0,19.2,0.7,28.8,0.5c11.7-0.2,23.4-1.6,34.7-4.5
						c6.7-1.7,14.1-3.8,19.9-7.5c1.2-0.8,3.6-2.4,2.6-4.1c-0.7-1.2-2.6-1.5-3.8-1.8c-5.8-1.3-11.9-1.2-17.9-1.6
						c-7-0.4-14.1-0.8-20.8-2.8c-4.2-1.2-11.3-4.6-8.1-10.2c1.8-3.2,5.9-4.8,9.1-6.1c5.4-2.1,11.1-3.3,16.8-4.5
						c15.6-3.1,31.5-4.8,47.2-6.8c15.8-2,31.7-3.9,47.3-7.2c6-1.3,12-2.8,17.7-5.1c5.9-2.4,14.4-7.4,11.9-15c-1.3-4-5.2-6.7-8.9-8
						c-4.8-1.7-10.1-1.1-15.1-1.6c-2.2-0.2-4.8-0.5-6.7-1.6c-1.2-0.7-1.4-1.4-0.3-2c2.6-1.4,5.9-1.8,8.7-2.4c9.4-2,18.9-3.5,28.2-6
						c2.2-0.6,4.5-1.2,6.7-2c1.7-0.7,3.6-1.6,4.2-3.5c0.7-2-0.5-4.1-2.1-5.3c-1.8-1.3-4.2-1.1-5.9-2.3c-2.5-1.8,1.4-2.7,2.7-3
						c1.5-0.4,3.2-0.7,4.5-1.6c1.7-1,2-2.9-0.1-3.5c-2.8-0.8-6.1-0.3-9-0.3c-1.4,0-3,0.1-4.3-0.4c-1.2-0.5-0.9-1.3,0.1-1.8
						c2.7-1.5,6.5-1.7,9.5-2.2c4.7-0.7,9.4-1.2,14-1.9c4.3-0.6,8.9-1.2,13-2.8c3.4-1.3,8.2-4,7.5-8.4c-0.7-4.2-5.8-5.6-9.4-6.2
						c-4.4-0.8-8.8-0.7-13.2-1.4c-0.9-0.2-4.2-0.5-4.2-1.8c0-0.7,1-0.9,1.6-1.1c2.7-0.8,5.6-1,8.4-1.3c3.6-0.4,7.1-0.7,10.7-1.1
						c2.6-0.3,5.4-0.5,7.8-1.4c0.8-0.3,2.4-1.1,1.4-2.1c-1-1.1-4-0.8-5.3-0.8c-3.4,0.1-6.7,0.3-10.1,0.5c-2.9,0.1-6,0.4-8.8-0.2
						c-1.3-0.3-2.7-1.3-0.9-2c1.8-0.6,3.8-0.7,5.7-0.8c5.9-0.3,11.8-0.2,17.7-0.1c4.7,0,9.7,0.4,14.3-0.4c0.6-0.1,2-0.3,2-1.2
						c0-1-2-1.7-2.7-2c-2.6-1.1-5.2-2.2-7.6-3.8c-1.2-0.8-4.5-2.9-3.3-4.8c0.7-1.2,2.6-1.5,3.8-1.8c2.7-0.6,5.6-0.8,8.4-0.9
						c2.5-0.1,5-0.2,7.4-0.7c1.1-0.2,2.5-0.5,3.3-1.2c2.7-2.2-3.2-5.6-4.2-7.2c-2.5-3.9,12.8-1,11.4-4.5c-0.3-0.9-1.7-1-2.5-1.1
						c-1.7-0.2-3.8,0.2-5.3-0.4c-1.5-0.6,0.6-0.9,1.3-1c1.6-0.3,3.2-0.5,4.8-0.6c7.6-0.7,15.4-1,23.1-0.7
						C473,181,473,180.4,472.6,180.3"/>
				</defs>
				<clipPath id="SVGID_6_">
					<use xlink:href="#SVGID_5_"  overflow="visible"/>
				</clipPath>
				<g clip-path="url(#SVGID_6_)">
					<defs>
						<rect id="SVGID_7_" x="129" y="180" width="344" height="151"/>
					</defs>
					<clipPath id="SVGID_8_">
						<use xlink:href="#SVGID_7_"  overflow="visible"/>
					</clipPath>
					<rect x="124.1" y="175.2" clip-path="url(#SVGID_8_)" fill="#221F1F" width="353.8" height="245.6"/>
				</g>
			</g>
		</g>
	</g>
</g>
<g>
	<defs>
		<path id="SVGID_9_" d="M167.5,25c3.1-0.4,3.7,5.2,11.6,9.9c4.1,2.4,5.1,2.2,7.9,4.2c3,2.3,3.6,3.7,6.6,5.6
			c0.5,0.4,2.6,1.7,7.1,3.1c4.8,1.5,7.5,0.9,15.4,2.5c2.2,0.5,4.1,0.9,4.6,2.4c0.5,1.3,0,3.2-1.2,4c-1.3,0.9-3.2,0.2-3.8,0
			c-7.1-2.3-17.4,0.5-22.5,1.9c-3,0.8-8.3,2.3-8.5,4.9c-0.1,1.3,1.1,2.5,1.9,3.3c2.5,2.5,5.8,1.8,5.9,2.8c0.2,1-2.7,2.5-5.4,3.3
			c-5.6,1.8-8.2-0.1-10.6,2.1c-2.1,1.8-1.5,4.2-3.5,4.9c-1.8,0.6-3.9-1-4.5-1.6c-2.8-2.2-3.9-5.5-5.1-11.1
			c-1.2-5.9-1.9-11.5-2.3-18.5c-0.5-8.1-0.2-10.1,0-11.1C161.5,36.3,163.3,25.6,167.5,25"/>
	</defs>
	<clipPath id="SVGID_10_">
		<use xlink:href="#SVGID_9_"  overflow="visible"/>
	</clipPath>
	<g clip-path="url(#SVGID_10_)">
		<defs>
			<rect id="SVGID_11_" x="-734" y="-152" width="1440" height="1040"/>
		</defs>
		<clipPath id="SVGID_12_">
			<use xlink:href="#SVGID_11_"  overflow="visible"/>
		</clipPath>
		<rect x="156" y="20" clip-path="url(#SVGID_12_)" fill="#FFFFFF" width="70" height="65"/>
	</g>
</g>
<g>
	<defs>
		<path id="SVGID_13_" d="M293.1,68c1.3-0.1,2.8,1.1,3.4,2.3c2.7,5.3-6,19-15.3,23.6c-1,0.5-3,1.4-4,3.4c-1.4,2.9,0.4,5.9,1.6,9.2
			c2.9,8.1-0.9,9.3,1.3,20c1.6,7.6,3.9,9,3.2,14.6c-0.2,2-0.8,6.5-4,8.6c-4.7,3.2-13.8,0-18.2-5.6c-4.9-6.2-0.1-10.4-3.2-25.2
			c-1.5-7.2-3.9-18.3-12.6-24.1c-3.5-2.3-5.8-2.3-6.3-4.3c-1.2-5.1,11.7-16.2,22.9-14.4c7.8,1.2,11.4,8.2,17.6,6.7
			c1.9-0.5,4.7-2.5,6.5-5.2c1-1.5,1.2-2.5,3.2-5.6C291.4,68.6,292.3,68.1,293.1,68"/>
	</defs>
	<clipPath id="SVGID_14_">
		<use xlink:href="#SVGID_13_"  overflow="visible"/>
	</clipPath>
	<g clip-path="url(#SVGID_14_)">
		<defs>
			<rect id="SVGID_15_" x="-734" y="-152" width="1440" height="1040"/>
		</defs>
		<clipPath id="SVGID_16_">
			<use xlink:href="#SVGID_15_"  overflow="visible"/>
		</clipPath>
		<rect x="234" y="63" clip-path="url(#SVGID_16_)" fill="#FFFFFF" width="68" height="93"/>
	</g>
</g>
<g>
	<defs>
		<path id="SVGID_17_" d="M342.2,295c-0.2,0-0.5,0.1-0.8,0.2c-19.2,5.1-39.6,6.1-59.3,4.1c-1-0.1-3-0.3-3.7,0.5
			c-1.3,1.3,0.7,1.9,1.8,2.5c6.7,3.5,15.5,4.8,22.8,5.9c8.1,1.1,16.4,1.2,24.4-0.6c3.4-0.8,6.8-1.9,9.7-3.7c2.1-1.3,4-2.9,5.4-4.9
			C343.6,297.7,345.4,294.6,342.2,295"/>
	</defs>
	<clipPath id="SVGID_18_">
		<use xlink:href="#SVGID_17_"  overflow="visible"/>
	</clipPath>
	<g clip-path="url(#SVGID_18_)">
		<defs>
			<rect id="SVGID_19_" x="-734" y="-152" width="1440" height="1040"/>
		</defs>
		<clipPath id="SVGID_20_">
			<use xlink:href="#SVGID_19_"  overflow="visible"/>
		</clipPath>
		<rect x="273" y="290" clip-path="url(#SVGID_20_)" fill="#408EC1" width="76" height="24"/>
	</g>
</g>
<g>
	<defs>
		<path id="SVGID_21_" d="M261.6,297c17.2,1.7,34.6,1,51.8-0.4c1.6-0.1,5.5-1.4,2.6-3.2c-1.6-1-3.3-1.6-5-2
			c-4.6-1.3-9.4-1.4-14.1-1.3c-7.9,0.2-15.7,0.5-23.6,0.7c-4.4,0.1-8.9,0-13.3,0.2c-2.9,0.1-5.8,0-8.7,0.4c-0.6,0.1-4,0.3-4.3,1
			c-0.5,1.3,2.1,1.9,2.9,2.2C253.7,295.9,257.6,296.6,261.6,297"/>
	</defs>
	<clipPath id="SVGID_22_">
		<use xlink:href="#SVGID_21_"  overflow="visible"/>
	</clipPath>
	<g clip-path="url(#SVGID_22_)">
		<defs>
			<rect id="SVGID_23_" x="-734" y="-152" width="1440" height="1040"/>
		</defs>
		<clipPath id="SVGID_24_">
			<use xlink:href="#SVGID_23_"  overflow="visible"/>
		</clipPath>
		<rect x="242" y="285" clip-path="url(#SVGID_24_)" fill="#408EC1" width="80" height="18"/>
	</g>
</g>
<g>
	<defs>
		<path id="SVGID_25_" d="M269.5,286.6c14,0.7,28.2,0.4,42.2-0.3c1,0,2-0.1,2.8-0.6c2.7-1.4,1.1-5.3-0.2-7.1
			c-3-4.4-7.3-7.5-12.3-9.1c-4.9-1.5-10.5-2.9-14.3-6.3c-3.1-2.8-5-6.6-8.6-9c-2.5-1.6-5.4-2.5-8.3-3c-3.8-0.6-7.8-0.9-11.6-1.2
			c-9.7-0.9-24.6-3.9-25.1,7.2c-0.2,5.1,24.3,9.1,25.7,14c0.8,3-13.2,8.4-11.3,10.9c2,2.8,5.4,3.2,8.6,3.5
			C261.1,286.1,265.3,286.4,269.5,286.6"/>
	</defs>
	<clipPath id="SVGID_26_">
		<use xlink:href="#SVGID_25_"  overflow="visible"/>
	</clipPath>
	<g clip-path="url(#SVGID_26_)">
		<defs>
			<rect id="SVGID_27_" x="-734" y="-152" width="1440" height="1040"/>
		</defs>
		<clipPath id="SVGID_28_">
			<use xlink:href="#SVGID_27_"  overflow="visible"/>
		</clipPath>
		<rect x="229" y="244" clip-path="url(#SVGID_28_)" fill="#408EC1" width="92" height="48"/>
	</g>
</g>
<g>
	<defs>
		<path id="SVGID_29_" d="M270.7,50.5c7.2,0.8,14.7,1.4,20.3,6.5c5.4,4.9,7.7,10,14.4,13.8c9.9,5.5,27.2,6.8,31.5,19
			c1.5,4.3,0.6,9.1,1.2,13.7c1.5,11,16.2,10.9,24.5,12.3c17.1,2.8,22.3-19.4,24-32c2.7-20.8-3.8-41.2-17.8-57
			C336.3-9.7,265.5-12.2,247.8,40C242.9,54.2,262.7,49.6,270.7,50.5"/>
	</defs>
	<clipPath id="SVGID_30_">
		<use xlink:href="#SVGID_29_"  overflow="visible"/>
	</clipPath>
	<g clip-path="url(#SVGID_30_)">
		<defs>
			<rect id="SVGID_31_" x="-734" y="-152" width="1440" height="1040"/>
		</defs>
		<clipPath id="SVGID_32_">
			<use xlink:href="#SVGID_31_"  overflow="visible"/>
		</clipPath>
		<rect x="242" y="-5" clip-path="url(#SVGID_32_)" fill="#FED83E" width="150" height="126"/>
	</g>
</g>
<g>
	<defs>
		<path id="SVGID_33_" d="M220.8,238.9c-0.6-1.3-3.8-1.7-5-1.9c-4.7-0.9-8.8-3.1-13.3-4.5c-2.1-0.7-21.9-3.9-21.6-7.6
			c0.3-5.5,21.3-3.9,26.9-5.8c1-0.3,2-0.7,2.5-1.6c1.7-3.2-8-3.3-9.6-3.6c-2.2-0.3-4.2-1.5-2.8-3.9c0.7-1.1,1.9-1.7,3.2-2.1
			c4.4-1.4,9-2.6,13-4.9c0.6-0.4,1.3-0.8,1.7-1.4c2.3-3.6-8.4-7.3-10.2-9.1c-0.5-0.5-1-1.3-0.7-2.1c0.5-1.6,2.9-1.6,4.1-2.6
			c0.1-0.3,0.1-0.6,0.1-0.9c0.1-1.6-1.3-2.7-2.4-3.5c-2.7-2-6-2.9-9.2-3.5c-2.8-0.6-5.7-1-8.5-1.8c-0.2-0.1-0.3-0.1-0.5-0.2
			c-2.6-0.4-5.2-0.6-7.9-0.8c-7-0.3-14,0-20.9,1.3c-0.4,0.1-0.7,0.3-1.1,0.5c-0.8,0.4-1.8,1.2-1.6,2.1c0.1,0.7,0.9,1.2,1.6,1.5
			c5.7,2.5,12,3.1,17.7,5.4c3.9,1.5,6.2,6.1,1.8,8.6c-6.2,3.5-13.2,4.2-19,6.1c-2.3,0.7-4,3.5,1.1,4.9c4.5,1.3,9,2,13.5,3.4
			c1.6,0.5,5.9,2,4.7,4.3c-0.8,1.5-4.8,1.7-6.2,1.7c-6.7,0.4-13.7,0.1-20.3,1.2c-1.8,0.3-5,0.7-6.2,2.3c-1.3,1.9,0.2,3.9,2,4.8
			c2,1,4.6,1,6.9,1.2c2.6,0.2,5.2,0.3,7.8,0.4c5.8,0.2,12.3,0,17.7,2.5c1.1,0.5,2.6,1.6,2.9,2.9c0.4,1.9-2.1,2.3-3.4,2.4
			c-9.7,0.9-19.4,1.4-29.1,1.5c-0.6,0-1.2,0-1.6,0.4c-1.3,1.3,3.3,3,4.1,3.2c2,0.6,4.2,0.9,6.3,1c4.1,0.2,8.2-0.2,12.3-0.4
			c7.7-0.3,15.3,0.8,23,1.1c7.5,0.4,15.1,0.6,22.6,0.3C218.5,241.8,221.9,241.4,220.8,238.9"/>
	</defs>
	<clipPath id="SVGID_34_">
		<use xlink:href="#SVGID_33_"  overflow="visible"/>
	</clipPath>
	<g clip-path="url(#SVGID_34_)">
		<defs>
			<rect id="SVGID_35_" x="-734" y="-152" width="1440" height="1040"/>
		</defs>
		<clipPath id="SVGID_36_">
			<use xlink:href="#SVGID_35_"  overflow="visible"/>
		</clipPath>
		<rect x="140" y="172" clip-path="url(#SVGID_36_)" fill="#5664A6" width="86" height="75"/>
	</g>
</g>
<g>
	<defs>
		<path id="SVGID_37_" d="M175.5,156.5c3.9,1.2,7.6,2.7,11.4,4c3.3,1.1,8.1,3.3,11.5,2.2c2.9-1,1.4-3.1-0.4-4
			c-4.5-2.2-9.9-2.8-14.8-3.9c-0.3-0.1-0.6-0.1-0.8-0.3c-0.2-0.2-0.4-0.5-0.3-0.7c0.3-1.1,8.9,0.8,10.1,1c1.5,0.3,3.1,0.4,4.4-0.3
			c0.8-0.4,1.6-1.3,1-2.2c-0.6-0.7-1.6-0.8-2.4-1c-1.2-0.4-2.2-0.9-3.1-1.6c-0.5-0.4-1-1-1-1.7c0-0.5,0.4-0.9,0.8-1.2
			c1.6-1.1,4.2-0.9,6-0.6c2.4,0.3,1.6-1.5,0.6-2.7c-1.7-2-3.9-3.5-5.7-5.4c-4.9-5-3.6-11.6-3.4-17.9c0.1-3.6,0.1-8.8-3.6-11
			c-0.9-0.5-2.2,7.2-2.2,7.7c-0.2,3.5,0.2,7.1,0.6,10.6c0.7,6.7,1.2,15-5.8,18.7c-1.4,0.8-17.1,4.7-13.5,7.4c1.8,1.4,5,1.5,7.2,2.1
			C173,155.8,174.2,156.1,175.5,156.5"/>
	</defs>
	<clipPath id="SVGID_38_">
		<use xlink:href="#SVGID_37_"  overflow="visible"/>
	</clipPath>
	<g clip-path="url(#SVGID_38_)">
		<defs>
			<rect id="SVGID_39_" x="-734" y="-152" width="1440" height="1040"/>
		</defs>
		<clipPath id="SVGID_40_">
			<use xlink:href="#SVGID_39_"  overflow="visible"/>
		</clipPath>
		<rect x="159" y="104" clip-path="url(#SVGID_40_)" fill="#5664A6" width="46" height="64"/>
	</g>
</g>
<g>
	<defs>
		<path id="SVGID_41_" d="M196,165.9c-4.4-0.5-8.8-0.6-13.2-0.8c-0.9,0-1.8-0.1-2.6,0.3c-3,1.5,0,4.2,2.8,4
			c5.6-0.2,11.5,0.4,17.1,0.6c0.8,0,1.5,0.1,2.3-0.1c2-0.4,1.9-1.8,0.4-2.5C201.1,166.4,198.3,166.1,196,165.9"/>
	</defs>
	<clipPath id="SVGID_42_">
		<use xlink:href="#SVGID_41_"  overflow="visible"/>
	</clipPath>
	<g clip-path="url(#SVGID_42_)">
		<defs>
			<rect id="SVGID_43_" x="-734" y="-152" width="1440" height="1040"/>
		</defs>
		<clipPath id="SVGID_44_">
			<use xlink:href="#SVGID_43_"  overflow="visible"/>
		</clipPath>
		<rect x="174" y="160" clip-path="url(#SVGID_44_)" fill="#5664A6" width="35" height="15"/>
	</g>
</g>
<g>
	<defs>
		<path id="SVGID_45_" d="M251.9,213.1c-1.6-1.2-9.3-3.9-5.9-6.2c1.3-0.9,2.7-1.5,4.1-2c0.3-0.1,0.7-0.2,1-0.4
			c2.1-1.6-4.6-3.7-5.3-3.9c-3.6-1.1-7.4-1.9-9.7-5.3c-2.7-3.9,2.3-22.3-2.8-21.2c-4.8,1-0.1,20.1-1.5,22c-1.3,1.9-6.2,2.2-8.2,2.8
			c-1.4,0.4-3.4,0.6-4.4,1.7c-3.4,3.6,9,5.5,10.6,6c0.9,0.3,3.1,0.9,2.8,2.2c-0.4,1.6-4.1,2.1-5.4,2.4c-3.4,0.7-6.8,1.8-10,3.1
			c-1.6,0.6-1.7,1.5-0.1,2c1.9,0.6,4,0.9,6,1.4c2.2,0.5-1.2,2.7-1.9,3.2c-1.8,1.2-3.4,2.6-4.9,4.1c-2.9,3.1-0.2,4.8,2.8,5.5
			c5.3,1.2,10.7,1.7,16.1,1.3c2.8-0.2,5.5-0.7,8.2-1.4c0.6-0.2,6.8-2.3,4.5-3c-3.3-1.1-7-0.8-10-2.5c-1-0.6-1.9-1.6-1.7-2.7
			c0.2-1.1,1.4-1.9,2.4-2.2c3.7-1.4,7.9-0.7,11.6-2c1.4-0.5,2.9-1.6,2.7-3.1c-0.1-0.7-0.5-1.2-1-1.7
			C251.9,213.1,251.9,213.1,251.9,213.1"/>
	</defs>
	<clipPath id="SVGID_46_">
		<use xlink:href="#SVGID_45_"  overflow="visible"/>
	</clipPath>
	<g clip-path="url(#SVGID_46_)">
		<defs>
			<rect id="SVGID_47_" x="-734" y="-152" width="1440" height="1040"/>
		</defs>
		<clipPath id="SVGID_48_">
			<use xlink:href="#SVGID_47_"  overflow="visible"/>
		</clipPath>
		<rect x="210" y="169" clip-path="url(#SVGID_48_)" fill="#5664A6" width="48" height="68"/>
	</g>
</g>
<g>
	<defs>
		<path id="SVGID_49_" d="M434.9,179.2c-0.4-2.3-2.5-3.9-4.4-4.5c-1.4-0.5-3-0.6-4.4-0.8c-0.6-0.1-1.1-0.1-1.7-0.2
			c-0.5-0.1-1.1-0.2-1.3-0.5c-0.4-0.5-0.1-1.1,0.2-2.1c0.1-0.2,0.2-0.5,0.3-0.7c1.3-3.9-2.9-7.3-4.2-8.3c-0.3-0.2-0.7-0.5-1-0.7
			c-1-0.7-2.1-1.4-2.9-2.3c-0.4-0.4-0.8-1-1.2-1.5c-0.6-0.8-1.1-1.6-1.8-2c-0.5-0.3-1.1-0.4-1.7-0.5c-0.7-0.2-1.5-0.3-2.2-0.8
			c-0.5-0.4-1-0.8-1.5-1.2c-0.8-0.7-1.6-1.4-2.5-1.9c-1.5-0.7-3.1-0.8-4.8-0.9c-0.3,0-0.6,0-0.9,0c-3-2.2-7.5-4.6-13.3-6.8
			c2-2.1,3.4-4.7,4.2-7.5c0.5-1.9,1-5.3-1.6-6.8c-0.9-0.5-1.9-0.8-2.9-0.9c-0.1-0.6-0.4-1.1-0.9-1.4c-2.1-1.6-7.2-0.5-12.6,0.8
			c-5,1.1-10.2,2.3-12.1,0.9c-0.4-0.3-0.6-0.8-0.7-1.4c0-0.4,0.1-0.7,0.3-1c1-1.1,4-1.3,6.6-1.4c2.9-0.2,5.4-0.3,6.2-1.5
			c0.3-0.4,0.3-1,0.1-1.6c-1.2-3-5.4-2.1-9.6-1.1c-2.8,0.6-5.7,1.3-7,0.4c-0.4-0.3-0.6-0.7-0.7-1.2c-0.2-1.3,1.3-1.9,3.7-2.7
			c1-0.3,2.1-0.7,2.9-1.2c1.7-1.1,2.4-2.3,1.9-3.4c-0.2-0.5-0.7-1-1.5-1.3c-1.5-0.5-3-0.4-4.5-0.3c-0.9,0.1-1.8,0.1-2.7,0.1
			c-0.3,0-0.6-0.1-0.8-0.2c0,0,0.1,0,0.1,0c3.1,0,6.2-0.6,9-1.8c1.3-0.6,2-1.4,1.9-2.3c-0.1-0.9-1-1.5-1.6-1.8
			c-2.2-1.1-5.4-1.1-8.6-0.9c1.3-1,2.3-2.1,1.6-3.2c-0.5-0.7-1.1-1.1-2-1.3c-3-0.4-7.5,3.2-9.5,4.9c-0.9-0.1-1.6-0.3-1.9-0.7
			c-0.3-0.3-0.3-0.8-0.1-1.4c0.1-0.2,0.1-0.5,0.2-0.7c0.5-1.8,1.1-3.6,0.4-4.9c-0.3-0.6-0.8-0.9-1.5-1.1c-1.5-0.4-3,0.1-4.4,0.6
			c-1,0.4-2,0.7-2.9,0.8c-0.4,0-0.8,0-1.3-0.1c-0.9-0.1-1.9-0.2-2.8,0.3c-1.2,0.6-1.7,1.9-2.2,3.1c-0.1,0.3-0.3,0.7-0.4,1
			c-0.1,0.2-0.2,0.4-0.3,0.6c-0.4-0.2-0.8-0.3-1.2-0.3c-1.5,0.1-3.1,1.6-4.6,3.9c-1,0.1-2,0-3-0.4c-0.2-0.1-1.7-0.1-7.2-0.1
			c-4.5,0-10.9-0.1-13.2-0.2c2.3-0.7,9.3-1.7,13.8-2.4c9.1-1.3,9.1-1.4,9.1-1.9c0-0.4-0.5-0.5-0.7-0.5c-3.7-0.4-13.9-1.4-17.6-2
			c1.6-0.1,4.3-0.2,7-0.3c13-0.4,22.9-0.8,23.4-3.2c0-0.2,0-0.4-0.1-0.6c-0.5-0.8-2.4-1.1-5.4-1.6c-1.7-0.3-4.9-0.8-5.2-1.4
			c0.3-0.4,2.7-0.9,4.1-1.2c2.6-0.6,4.2-0.9,4.6-1.6c0.1-0.2,0.1-0.3,0.1-0.5c-0.6-2.5-3.3-3.2-5.9-3.8c-1.2-0.3-2.5-0.6-3.5-1.2
			c-0.9-0.5-2.1-1.1-2.7-2.1c-0.2-0.4-0.1-0.7,0.2-1.3c0.3-0.5,0.5-1.1,0.5-1.7c-0.2-1.3-1.5-1.4-2.7-1.5c-0.8-0.1-1.6-0.1-2.1-0.5
			c-1.1-0.9-1.1-2.3-1.1-3.8l0-0.3c-0.1-4.2-5.1-6.6-8.8-8.3l-0.4-0.2c-2-0.9-3.9-1.4-5.6-1.4c-2.6,0-5.2,1-7.5,2.8
			c-1.2-0.7-3.1-1.8-5.9-3.5c-3-1.7-6.1-3.5-7.3-4.3c-0.8-0.5-1.7-1.1-2.8-1.3c-1.7-0.2-3.3,0.7-4.8,1.6c-1.6,1-3.2,1.9-4.6,1.1
			c-0.4-0.2-0.7-0.6-1.1-0.9c-0.3-0.3-0.6-0.7-1-0.9c-1.2-0.8-2.6-0.8-4-0.3c-1.6-1.1-3.5-1.9-5.4-2.4c-0.7-0.2-1.3-0.4-2-0.7
			l-0.4-0.1c-1.9-0.7-2.6-3.1-3.2-5.3l0-0.1c-0.9-3.2-2.6-5.1-4.7-5c-1.1,0-1.9,0.5-2.6,1.3c-0.5-0.6-1.2-1.1-1.9-1.1
			c-0.9-0.1-1.7,0.5-2.4,1c-0.2,0.2-0.4,0.3-0.6,0.4c-1,0.6-2.1,0.8-3.3,1c-1.3,0.2-2.6,0.4-3.7,1.1c-1.1,0.7-1.8,1.7-2.4,2.7
			l-5.2,7.5c-5.3-2.9-16.9-5.3-20-5.6c-0.4,0-0.7-0.1-1.1-0.1c-3.6-0.4-7.4-0.7-10-3c-0.5-0.4-1-1-1.4-1.5c-1-1.1-2.1-2.3-3.7-2.7
			c-0.6-0.2-1.2-0.2-1.8-0.2c-0.4,0-0.9-0.1-1.3-0.1c-2.3-0.5-3.9-2.5-5.4-4.5c-0.3-0.4-0.6-0.8-1-1.2c-2.9-3.5-6.7-6.1-10.5-8.5
			c-0.8-0.5-1.7-1.1-2.8-1.2c-0.9-0.1-1.8,0.2-2.6,0.5c-6.4,2.2-14.5,5.5-19.5,10.5c-4.2,4.2-9.3,7.6-14.3,10.9
			c-1.4,1-2.9,1.9-4.4,2.9c-0.8,0.6-1.7,1.3-1.7,2.3c0,0.6,0.4,1.2,0.7,1.6c0.1,0.1,0.1,0.2,0.2,0.3c1.8,2.8,0.1,6.9-2.5,9
			c-1.9,1.6-4.3,2.5-6.6,3.4c-1,0.4-2,0.8-2.9,1.2c-7.6,3.4-13.4,9.9-15.3,17.4c-0.1,0.3-0.2,0.6-0.2,0.9c-0.3,1.1-0.5,2.2-1.1,3.2
			c-1.1,2-3.4,3.2-5.3,4.3c-7.4,4-14.8,8.2-22,12.5c-3.5,2.1-6.8,4.6-7.4,8.3c0,0.2,0,0.4-0.1,0.5c-1.1-0.3-2.2-0.5-3.5-0.4
			c-2.4,0.3-4.1,1.7-5.6,3.3c-2.7-0.4-6.4-0.7-7.4,0.3c-0.3,0.3-0.4,0.6-0.3,1c0.1,0.6,1.3,1.4,3.5,2.7c-0.3,0.3-0.7,0.5-1,0.8
			c-1.6,1.3-3.3,2.7-4.6,4.1c-1.5,0.2-2.8,0.5-3.4,1.1c-0.3,0.3-0.5,0.7-0.4,1.2c0.1,0.7,0.6,1.1,1.2,1.4c-0.6,1.4-0.7,2.9-0.2,4.6
			c0.6,1.7,2.3,2.4,3.7,3c1.3,0.5,1.9,0.8,1.7,1.3c-0.5,1.6-3.7,1.8-6.4,1.1c-2.2-0.6-4.2-1.9-3.8-3.4c0.2-0.9,1-1.1,1.8-1.3
			c1.1-0.3,2.4-0.6,2.3-2.6c0-1-1-1.5-2.1-2.2c-1.1-0.7-2.3-1.4-2.3-2.4c0-0.8,1-1.3,1.9-1.7c0.8-0.4,1.6-0.8,1.6-1.4
			c0-0.6-0.7-0.7-1.4-0.9c-1.1-0.2-1.9-0.5-1.9-1.3c0-0.8,0.8-1.1,2-1.5c0.9-0.3,1.8-0.6,1.7-1.4c-0.1-0.6-0.9-0.9-2.3-1.4
			c-0.6-0.2-1.4-0.5-1.6-0.7c-0.1-0.8-0.2-1.5-0.2-2.2c-0.1-1.5-0.2-2.6-0.9-2.7c-0.5-0.1-0.8-0.1-1.1,0.2c-0.6,0.5-0.7,1.6-0.8,3
			c0,0.3,0,0.6-0.1,1c-0.2,0.2-1,0.3-1.6,0.5c-1.6,0.4-3.3,0.8-3.3,2c0,1.2,0.9,1.3,1.6,1.3c0.9,0.1,1.9,0.2,2.3,2.3
			c-0.3,0-0.7,0.1-1.1,0.1c-1.7,0.2-3.5,0.3-3.5,1.4c0,1.3,2,1.7,3.4,1.9c0.2,0,0.4,0.1,0.5,0.1c-0.4,0.3-0.8,0.6-1.3,0.8
			c-1.2,0.6-2.5,1.4-2.6,3.3c0,0.5,0.2,0.8,0.3,0.9c0.6,0.6,1.8,0.4,3,0.2c0.6-0.1,1.7-0.2,1.9,0c0,0,0,0,0,0.1
			c-0.1,0.8-1.8,1-3.4,1.2c-1.9,0.2-3.9,0.5-3.7,2c0,0.4,0.2,0.7,0.5,0.9c0.8,0.6,2.3,0.4,3.7,0.2c1-0.1,2.2-0.3,2.5-0.1
			c0,0,0,0,0.1,0.1c0.2,1.1-1,1.6-2.9,2.3c-1.6,0.6-3.5,1.3-3.7,3c0,0.2,0,0.4,0.2,0.6c0.4,0.3,1.1,0.2,2.4-0.1
			c1.2-0.3,2.8-0.6,3.5-0.1c0.2,0.1,0.3,0.3,0.3,0.5c0.6,3.5-2.3,6.7-4.1,8.3c-2.7,2.4-6.3,4.4-9.2,5c-1.6,0.3-3.2-0.3-4.9-0.9
			c-2.1-0.8-4.2-1.5-6.1-0.4l-0.1,0l0,0.1c-0.9,1.3-0.4,2.8,0.2,4.2c0.5,1.3,0.9,2.5,0.3,3.5c-0.3,0.6-1,0.9-1.6,1.3
			c-0.9,0.5-1.8,1-2.1,2c-0.2,0.7-0.1,1.3,0.4,1.8c0.9,1.2,3.1,1.6,4.7,1.6c5.9-0.2,9.9,1.3,11.8,4.2c0.2,0.3,0.4,0.6,0.6,0.9
			c0.9,1.5,2,3.3,3.8,3.1c1.3-0.2,2.1-1.3,2.9-2.3l0-0.1c3.4-4.7,8.6-8.2,14.3-9.6l0.4-0.1c1.1-0.2,2.2-0.5,3-1.2
			c1.5-1.3,1.7-3.3,1.8-5.2c0.1-1.6,0.2-3.2,1-4.3l9.3,2.2c1.6,0.4,3.4,1.1,3.5,2.6c0,1.2-1.3,2.1-2.4,2.8l-6.6,3.8
			c-2.4,1.4-3.5,3.1-2.8,4.6c0.3,0.7,0.9,1.1,1.5,1.6c0.5,0.3,0.9,0.6,1.2,1.1c0.3,0.5,0.3,1,0.1,1.6c-0.5,1.2-2.3,2.2-3.9,2.5
			l-0.1,0c-2.5,0.4-5.8,0.9-6.4,3.5c-0.4,2.2,1.5,3.9,3,5.1c-0.1,0.7-0.8,1.3-1.6,1.9c-1,0.8-2.1,1.7-1.5,2.9
			c0.3,0.6,0.9,0.9,1.5,1.2c0.6,0.3,1.3,0.5,2,0.8c3.2,1.2,6.4,2.4,6.9,5.4c0.6,3.8-4.1,6.2-7.5,6.9c-2.6,0.5-7.8,2.2-8.7,4.7
			c-0.3,0.9,0,1.7,0.7,2.5c0.6,0.6,1.4,0.9,2.4,0.9c3.5,0,9.3-2.9,15.4-6c6.5-3.2,13.1-6.6,15.4-5.4c0.4,0.2,0.7,0.7,0.7,1.3
			c0.3,3.4-6.9,5.6-13.3,7.5c-5.6,1.7-10,3-10.1,5.1c0,0.5,0.2,1,0.6,1.3c1.7,1.4,7,0.2,12.6-1c3.6-0.8,6.9-1.5,8.8-1.4
			c3,0.2,6,1,8.8,1.8c1.3,0.4,2.6,0.8,3.9,1.1c5.4,1.3,11.2,1.5,17.4,0.7c1.9-0.3,4.6-0.8,6.5-2.3c1.8-1.5,2.2-4.3,2.3-5.8
			c0.1-1.8-0.1-3.5-0.6-5.2c-0.3-0.9-0.7-2.3-1.8-3.1c-1.1-0.8-2.5-0.8-3.9-0.8c-1,0-2,0-2.9-0.3c-0.3-0.1-0.6-0.4-0.6-0.6
			c0-0.1,0-0.1,0-0.2c0.1-0.1,0.3-0.1,0.4-0.2c0.7-0.1,1.6-0.1,2.4,0c1.2,0.1,2.4,0.2,3.6-0.4c0.1-0.1,0.4-0.2,0.5-0.5
			c0.1-0.2,0.1-0.5-0.2-0.8c-0.4-0.5-1-0.8-1.6-1c-0.3-0.1-0.5-0.2-0.7-0.3c-0.4-0.2-0.7-0.6-0.8-1c0-0.2,0-0.3,0.1-0.4
			c0.1-0.1,0.4-0.2,0.7-0.2l2.7-0.5c0.2,0,0.5-0.1,0.7-0.3c0.3-0.2,0.4-0.6,0.3-1c-0.1-0.6-0.7-1.1-1.3-1.3c-1-0.3-2.1-0.2-3.2,0
			c-1.1,0.1-2.1,0.3-3-0.1c-0.2-0.1-0.3-0.2-0.4-0.2c0,0-0.1-0.1,0-0.2c0.1-0.2,0.3-0.5,0.6-0.6c1-0.4,2.1-0.4,3.3-0.3
			c1.2,0,2.4,0.1,3.5-0.4c0.2,0.1,0.3,0.2,0.5,0.2c1.6,0.6,3.3,0.7,4.9,0.7c1.3,0,2.7,0.1,4,0.5c0.4,0.1,0.7,0.3,0.7,0.5
			c0,0.1,0,0.2,0,0.3c-0.1,0.2-0.5,0.5-0.9,0.6c-1,0.3-2,0.4-3.1,0.4c-1.4,0.1-2.8,0.2-4.1,0.8c-0.5,0.3-1.2,0.9-1.2,1.6
			c0,0.4,0.1,0.7,0.4,0.9c0.2,0.2,0.5,0.2,0.8,0.3c1.1,0.2,2.2,0.1,3.2,0.1c1.3,0,2.5,0,3.7,0.2c0.3,0.1,0.7,0.2,0.7,0.4
			c0,0.1-0.1,0.3-0.3,0.5c-0.6,0.6-1.4,0.9-2.2,1.3c-0.6,0.3-1.2,0.6-1.7,1c-0.3,0.2-0.5,0.4-0.7,0.7c-0.3,0.7,0.2,1.2,0.5,1.7
			c0.2,0.2,0.3,0.4,0.4,0.6c0.4,0.8-0.4,1.8-1.3,2.7c-0.6,0.6-1.3,1.6-1.3,2.6c0,0.5,0.2,0.9,0.5,1.2c0.3,0.2,0.6,0.4,1.1,0.5
			c1.1,0.2,2.1,0.1,3.2,0c1.1-0.1,2.2-0.3,3.2,0c0.3,0.1,0.5,0.3,0.6,0.4c0,0.1,0,0.1,0,0.1c0,0.1-0.2,0.2-0.4,0.3
			c-1,0.4-2,0.4-3.1,0.4c-0.3,0-0.7,0-1,0c-0.2,0-0.4,0-0.6,0c-1,0-2.3,0-2.6,1c-0.4,1.1-0.3,2.1,0.2,3.1c2.4,4.4,13.9,6.7,18.3,7.6
			c0.5,0.1,0.9,0.2,1.2,0.4c0.4,0.3,0.5,0.7,0.4,1.3c-0.3,2.3-2.9,3.5-4,3.9c-0.6,0.2-1.3,0.4-2,0.6c-1.4,0.4-2.8,0.8-4,1.6
			c-1.9,1.2-3.3,3.8-2.2,5.9c0.8,1.4,2.5,2,3.8,2.4c5.4,1.4,11,1.1,16.4,0.8l8.2-0.4c0.7,0,1.4-0.1,2.2-0.2c1.9-0.2,3.8-0.4,5.4,0
			c0.9,0.2,1.7,0.8,1.9,1.6c0.5,1.6-0.7,2.7-2.1,3.5c-6.2,0.3-12.4,0.3-17.3-0.2c-1.3-0.1-2.9-0.4-4.5-0.6
			c-5.5-0.8-11.8-1.8-14.4,0.3c-0.7,0.6-1.1,1.3-1.2,2.2c-0.1,1,0.2,1.9,0.9,2.7c4.9,5.4,28.2,5.7,45.3,5.9c2.6,0,5,0.1,7.2,0.1
			c6.2,0.1,10,1.8,11.2,4.9c0.1,0.3,0.2,0.5,0.3,0.8c0.2,0.7,0.5,1.4,1,2c0.8,0.9,2.1,1.2,3.4,1.3c5.8,0.7,11.7,0.1,17.4-0.3
			c1-0.1,2.1-0.2,3.1-0.3c3.6-0.3,7.2-1.1,10.6-1.9c2.1-0.5,4.4-1,6.5-1.4c3.2-0.6,6.7-0.6,10.1-0.1c3.8,0.5,5.3,2,5.5,3.1
			c0.1,0.6-0.2,1.1-0.8,1.4c-1.6,0.9-3.5,1.3-5.4,1.6c-0.9,0.2-1.8,0.4-2.7,0.6c-1.7,0.4-2,1.3-2,2c0,0.8,0.6,1.6,1.6,2.4
			c1,0.8,2.3,1.2,3.7,1.4c0.4,0,0.8,0,1.2,0c2.9-0.1,5.7-1,8.4-1.8c3.6-1.1,6.9-2.2,10.6-1.6c1.4,0.2,3.5,1.1,3.3,2.7
			c-0.1,0.8-0.8,1.5-2.1,2.2c-7.2,3.6-15.2,3.2-23.6,2.8c-5.8-0.3-11.9-0.6-17.6,0.6c-1.2,0.2-2.6,0.9-3.2,2
			c-0.3,0.5-0.3,1.1-0.1,1.6l0.1,0.2l24.2,8.3c1.4,0.5,2.1,1.1,2.2,1.8c0.1,0.9-0.9,1.5-1.8,2c-0.4,0.2-0.8,0.5-1.1,0.7
			c-1.2,0.9-1.8,2.2-1.7,3.8c0.1,2.3,1.5,5,3.5,6.4c1.6,1.2,3.5,1.9,5.4,2.6c1.7,0.6,3.4,1.3,4.9,2.3c0.1,0,0.1,0.1,0.2,0.1
			c0.1,0,0.3-0.1,0.3-0.2c0.1-0.2,0.1-0.4-0.1-0.5c-1.6-1-3.3-1.7-5-2.3c-1.8-0.7-3.6-1.4-5.2-2.5c-1.8-1.3-3.1-3.6-3.2-5.8
			c0-0.9,0.2-2.3,1.4-3.2c0.3-0.2,0.7-0.4,1-0.7c1.1-0.7,2.3-1.4,2.2-2.8c-0.1-1.4-1.6-2.1-2.7-2.5l-23.9-8.2
			c-0.1-0.3,0-0.5,0.1-0.8c0.4-0.8,1.7-1.4,2.7-1.6c5.6-1.1,11.6-0.9,17.4-0.6c8.2,0.4,16.6,0.8,24-2.9c1.6-0.8,2.4-1.7,2.5-2.8
			c0.2-1.9-1.9-3.2-4-3.5c-3.9-0.6-7.5,0.5-11,1.6c-2.7,0.8-5.4,1.7-8.2,1.8c-0.4,0-0.8,0-1.1,0c-0.9-0.1-2.2-0.4-3.3-1.2
			c-0.6-0.4-1.2-1.1-1.3-1.8c0-0.6,0.5-1,1.4-1.2c0.9-0.2,1.8-0.4,2.7-0.6c1.9-0.4,3.8-0.8,5.6-1.7c0.9-0.5,1.3-1.3,1.2-2.2
			c-0.2-1.4-2-3.1-6.2-3.7c-3.6-0.5-7.1-0.5-10.4,0.1c-2.2,0.4-4.4,0.9-6.6,1.4c-3.4,0.8-6.9,1.6-10.5,1.9c-1,0.1-2.1,0.2-3.1,0.3
			c-5.7,0.5-11.6,1-17.3,0.3c-1.1-0.1-2.2-0.3-2.9-1.1c-0.4-0.5-0.6-1.1-0.8-1.7c-0.1-0.3-0.2-0.6-0.3-0.9c-1.4-3.5-5.4-5.3-12-5.4
			c-2.2,0-4.6-0.1-7.2-0.1c-16-0.2-40.1-0.4-44.7-5.6c-0.6-0.6-0.8-1.3-0.7-2.1c0.1-0.7,0.4-1.3,0.9-1.7c2.3-1.8,8.7-0.9,13.8-0.1
			c1.7,0.3,3.2,0.5,4.6,0.6c4.4,0.4,9.9,0.5,15.4,0.3c-0.2,0.1-0.4,0.1-0.5,0.2c-0.5,0.2-1,0.3-1.5,0.4c-1.2,0.3-2.4,0.6-3.6,1.2
			c-1.2,0.5-1.2,1.3-1.2,1.6c0.1,0.7,0.8,1.1,1.7,1.3l0.3,0c16.2,2.2,27.5-0.9,34.3-3.9c0.2-0.1,0.3-0.3,0.2-0.5
			c-0.1-0.2-0.3-0.3-0.5-0.2c-6.6,2.9-17.9,6-33.8,3.8l-0.3,0c-0.7-0.1-1-0.4-1-0.6c0-0.2,0.2-0.5,0.7-0.7c1.1-0.5,2.3-0.8,3.4-1.1
			c0.5-0.1,1.1-0.3,1.6-0.4c1-0.3,1.8-0.6,2.6-1c4.2-0.2,8.3-0.5,11.9-0.9c4.2-0.4,18.1-2,19.4-4.2l0.1-0.2l-0.1-0.2
			c-0.2-0.3-0.2-0.4-8.9-1.4c-6.5-0.8-20-2.3-21.2-3.4c0.1-0.2,0.9-1,5.8-1.5c3.6-0.4,8.3-0.7,12.9-1c8.7-0.5,13.3-0.8,14.9-1.6
			c2.7,0.2,6.4,0.4,11.5,0.6c6.6,0.3,14.8,0.6,16.2,1.2c-0.3,0.2-1.2,0.4-3.9,0.4c-0.3,0-0.4,0-0.6,0c-2.8,0.1-5.7,0.2-8.5,0.2
			l-1.2,0c-0.4,0-0.7,0-1.1,0c-1.9,0-3.9,0-5.9,0.2c-0.1,0-0.2,0-0.3,0c-3.1,0.2-4.6,0.6-5.1,1.3c-0.1,0.2-0.2,0.5-0.1,0.7
			c0.4,1,1.5,1.7,3,1.9c0.4,0,1.7,0.1,3.4,0.2c4.2,0.3,16.3,1,18.9,1.9c-1.4,0.2-5,0.2-8,0.2c-7.6,0-10.4,0.1-11.1,0.8
			c-0.1,0-0.1,0.1-0.1,0.2c0,0,0,0,0,0l0.7,0.3c0,0,0,0,0,0c0,0,0,0,0,0c-0.1,0.1-0.2,0.1-0.2,0.2c0.5-0.1,4.7,0.8,6.3,1.1
			c0.6,0.1,1,0.2,1.2,0.2c2.3,0.4,5.1,0.9,7.9,1.2c6.2,0.8,11.3,1,15.8,0.6c1.9-0.2,3.7-0.4,5.6-0.8c1-0.2,1.9-0.5,2.4-1.5
			c0.3-0.6,0.3-1.3,0.3-1.9c0-1.9,0-3.8,0.1-5.7c0-0.9,0-1.9,0.1-2.8l0-0.4c0-2.2,0.1-4.8-1.8-6.4c-0.9-0.7-2.4-1-3.8-1.2
			c-1.3-0.2-2.6-0.5-2.9-1c-0.1-0.1-0.1-0.3,0-0.6c0.3-0.7,1.7-0.7,3.1-0.6c1.6,0,3.3,0.1,3.9-1l0.1-0.2l-0.1-0.2
			c-0.1-0.2-0.1-0.3-3-0.8c-1.3-0.2-2.8-0.4-3-0.5l-0.3,0c-1.5-0.2-3.1-0.4-4.6-0.6c-0.2,0-0.4-0.1-0.6-0.1c-1.3-0.2-2.7-0.4-3.9-1
			c0,0,0,0,0,0c0.4-0.3,1-0.4,1.7-0.4c0.9-0.1,1.7-0.2,2.6-0.2c4-0.3,8.1-0.7,11.9-2c1.8-0.6,2.8-1.6,2.8-3c0.1-2.5-2.6-3.1-4.2-3.4
			c-1.8-0.4-3.7-0.6-6.1-0.9c-1.1-0.1-2.2-0.2-3.1-0.2c-0.2,0-0.5,0-0.7,0c-0.6,0-1.5,0-1.9-0.2c0,0,0,0,0,0c0,0,0.1,0,0.1,0
			c4.3-0.9,8.7-1.3,13.1-1.1c0.5,0.6,1.2,1,2.3,1.4c4.9,1.6,10,1.8,14.9,1.9c1.3,0,2.6,0.1,3.9,0.2c0.5,0,0.6,0.1,0.6,0.2
			c0,0,0,0.1,0,0.1c-0.1,0.2-0.4,0.4-0.7,0.5c-2,0.6-4,0.9-6,1.2c-1.5,0.2-3.1,0.4-4.6,0.8c-3.8,0.9-6.1,2.1-6.8,3.5
			c-0.3,0.7-0.3,1.4,0,2.1c0.3,0.7,1.6,0.7,3.8,0.7c1.6,0,3.6-0.1,4.1,0.5c0.1,0.1,0.1,0.1,0.1,0.2c-0.5,0.3-2.8,0.8-4.3,1.1
			c-3.8,0.8-5,1.1-4.9,1.8c0.1,0.8,1.5,0.9,4.5,1c1.3,0,3.3,0.1,3.6,0.4c0.1,0.1,0.1,0.2,0,0.3c-0.2,0.6-2.1,1.1-2.9,1.4
			c-0.3,0.1-0.5,0.1-0.6,0.2c-1.1,0.4-2.3,0.9-3.1,1.8c-1,1.1-1,2.5-0.9,3.8c0,0.2,0,0.5,0,0.7c0,1,0,2,0,2.9c0,1.1,0,2.2,0,3.3
			c0,0.2,0,0.4,0,0.6c0,1.7,0.1,4.1,1.7,5c0.6,0.4,1.3,0.5,1.9,0.5c1.6,0.1,3.3,0,4.9-0.1c1.8-0.1,3.6-0.2,5.4,0
			c1.2,0.1,2.4,0.4,3.5,0.7c1.2,0.3,2.4,0.6,3.6,0.8c2.9,0.4,5.6-0.2,8.4-0.7c1.1-0.2,2.3-0.4,3.5-0.6c1.1-0.1,2.3-0.4,2.8-1.5
			c0.5-1.1-0.2-2.1-0.8-3c-0.5-0.7-0.9-1.4-0.9-2.1c0-1.2,1.2-1.7,2.7-2.3c1.4-0.6,2.8-1.2,3.3-2.5c0.4-1.2,0-2.3-0.4-3.4
			c-0.3-0.7-0.5-1.3-0.6-2c-0.2-2.7,3-4.4,6-4.9c0.3-0.1,0.7-0.1,1.1-0.2c3.1-0.4,7-1,8.5-3.5c1.2-2,0.9-11.1,0.6-20.2
			c-0.1-2.3-0.2-4.2-0.1-4.9c0-1.2-0.3-2.2-1.1-2.8c-0.5-0.4-1.2-0.6-1.7-0.7l-7.4-1.5c-1-0.2-2.1-0.9-2.1-1.1c0,0,0,0,0.1-0.1
			c1.2-0.9,3.6-0.4,5.8,0.2c2.4,0.6,5,1.3,6.5,0.1c0.2-0.1,0.2-0.3,0.2-0.5c0-0.5-0.7-1-2-1.9c-0.6-0.4-1.7-1.2-1.9-1.5
			c0.3-0.5,1.1-0.6,1.8-0.7c0.9-0.1,2.1-0.3,2.3-1.5c0.2-1.3,0.4-3.2,0.5-5.5c0-0.7-1-0.8-2.8-1c-0.5-0.1-1.3-0.1-1.7-0.2
			c0.5-0.2,1.3-0.6,2-0.8c2-0.7,2.7-1,2.7-1.5c0-0.5-0.4-0.6-4.2-0.7c-1,0-2.4-0.1-3.1-0.1c0.7-0.5,2.6-1.2,3.6-1.6
			c2.5-0.9,3.5-1.3,3.3-2c-0.3-1.1-1.6-1.2-2.7-1.2c-0.9,0-1.8-0.1-2.2-0.5c-0.1-0.1-0.1-0.2-0.1-0.2c0.1-0.5,1.3-1.1,2.2-1.6
			c0.6-0.3,1.2-0.6,1.6-0.9c0.1-0.1,0.2-0.1,0.3-0.2c0.4-0.3,0.9-0.7,1.1-1.2c0.5-1.2-0.5-2.5-1.7-3.1c-0.4-0.2-0.9-0.3-1.5-0.4
			c-0.5-0.1-1.3-0.2-1.4-0.4c0,0,0,0,0-0.1c0.4-0.9,1.2-1.4,2-1.9c1-0.6,2.1-1.3,2.4-2.7c0.1-0.6,0.3-1.2,0.6-1.8
			c0.2,0.3,0.4,0.5,0.4,0.8c0,0.3-0.1,0.7-0.3,1.1c-0.1,0.1-0.1,0.2-0.2,0.3c-0.7,1.6,0.2,3.7,1.1,5.9c0.7,1.6,1.4,3.3,1,4.2
			c-0.1,0.2-0.3,0.4-0.6,0.5c-0.5,0.2-1.1,0.5-1.1,1c0,0.7,1.1,1.1,2.7,1.8c1.7,0.7,4.1,1.6,4,2.7c-0.3,0.1-1.2,0.3-1.9,0.4
			c-2.7,0.5-4.6,0.9-4.7,2.1c0,0.3,0.1,0.7,0.3,0.9c1,1.2,4.5,1.4,8.6,1.5c1.1,0,2.3,0.1,2.8,0.2c-0.5,0.8-3.8,1.7-5.9,2.3
			c-3.6,1-5.7,1.7-5.9,2.7c-0.1,1,0.1,2.5,0.5,3.5c0.7,1.7,1.4,2.3,3.3,2.6c0.6,0.1,1.4,0,2.2,0c1-0.1,2.2-0.2,2.5,0.2
			c0,0,0.1,0.1,0.1,0.3c0,0.9-1,0.9-3,0.9c-1.6,0-3.2-0.1-4.1,0.8c-1,1-1.7,2.4-2,4.2c-0.6,3.4-1.2,20.1,1.2,23.4
			c1.2,1.6,4.3-0.4,6.8-2.1c0.7-0.4,1.3-0.8,1.7-1c1.1-0.6,1.4-1.8,1.6-2.8c0.2-1,0.4-1.9,1.1-2.3c0.9-0.6,2.1-0.3,3.3-0.1
			c1.5,0.3,3,0.6,4-0.9c0.2-0.3,0.3-0.6,0.5-0.8c0.4-0.7,0.7-1.4,1.3-1.6c1-0.4,1.7,0.3,2.9,1.4c0.8,0.8,1.7,1.7,2.8,2
			c0.4,0.1,0.8,0.1,1.1,0.1c0.7,0,1.3,0.1,1.6,0.5c0.2,0.3,0.2,0.8,0.1,1.2c-0.2,0.9-0.9,1.7-1.6,2.5c-0.9,1-1.9,2.1-1.7,3.5
			c0.3,1.6,2.1,1.7,3.7,1.7c1,0,2,0.1,2.7,0.4c1.2,0.6,1.4,1.7,1.6,3.1c0.1,0.6,0.2,1.2,0.4,1.9c0.4,1.1,1.4,1.5,2.7,1.1
			c3.1-0.9,7.5-5.5,7-7.9c-0.2-0.7-0.9-1.2-1.6-1.6c-0.5-0.3-1.2-0.8-1.1-1c0.4-0.7,1.3-0.8,2.2-1c1.1-0.2,2.2-0.4,2.8-1.4
			c0.1-0.1,0.1-0.3,0-0.4c-0.2-0.5-1.4-0.8-5.3-1.7c-1.7-0.4-4.3-1-4.9-1.4c0.4-0.5,3.3-1.2,5.1-1.6c3.5-0.8,5.5-1.3,5.6-2.2
			c0.5,0,1.2,0,1.9,0.1c1.7,0.1,4,0.1,5,0.3c-0.6,0.2-1.7,0.5-2.5,0.7c-2.2,0.5-3.1,0.8-3.3,1.3c-0.1,0.2-0.1,0.3,0,0.5
			c0.5,1.1,2.8,0.8,5.5,0.5c1.7-0.2,3.9-0.5,4.4-0.1c0,0,0.1,0.1,0.1,0.1c0,0.1,0,0.1-0.1,0.2c-0.6,0.7-3.7,0.8-6,0.9
			c-2.9,0.1-4.4,0.2-4.8,0.8c-0.1,0.2-0.2,0.4-0.1,0.6c0.2,0.6,1.3,0.8,3.4,1.2c2.1,0.4,5.3,1,5.6,2.2c-0.4,0.3-2.3,0.9-3.6,1.3
			c-2.4,0.7-3.3,1-3.5,1.4c-0.1,0.2-0.1,0.4,0,0.6c0.3,0.5,1.4,0.6,4.2,0.6c1,0,2.4,0,2.8,0.1c0,0.8-1.7,1.8-2.6,2.3
			c-0.8,0.5-1.2,0.7-1.1,1c0,0.1,0.1,0.3,0.5,0.4c0.5,0.1,1.1,0,1.8-0.1c0.8-0.1,1.7-0.2,2.2,0c-0.1,0.2-0.6,0.8-0.9,1.1
			c-0.7,0.7-1.4,1.4-1.4,2.1c0,0.4,0.2,0.8,0.6,1c1.7,1,6.9-0.4,8.3-1.1c2-0.9,1.4-2.9,0.9-4.7c-0.1-0.2-0.1-0.4-0.2-0.6
			c-0.1-0.3,0-0.4,0.1-0.4c0.5-0.6,2.8-0.5,4.5-0.1c0.4,0.1,0.9,0.2,1.3,0.4c1.3,0.4,2.7,0.8,4.1,0.6c1.2-0.2,2.4-1,2.9-2
			c0.4-0.8,0.5-1.6,0.1-2.3c-0.4-0.9-1.3-1.4-2.1-1.8c-0.2-0.1-0.5-0.3-0.7-0.4c-0.7-0.5-1.5-1.5-1.1-2.2c0.2-0.3,0.5-0.5,0.8-0.6
			c2.1-1,7.9-2,10.3-1.1c0.5,0.2,0.6,0.6,0.7,1.3c0.1,0.4,0.1,0.9,0.3,1.3c0.1,0.3,0.4,0.5,0.7,0.6c0.9,0.3,2.4-0.5,3.1-1
			c0.6-0.4,1.1-1.1,1.3-1.9c0.1-0.6,0-1.2-0.3-1.6c-0.1-0.2-0.3-0.3-0.4-0.4c-0.2-0.2-0.3-0.3-0.4-0.5c-0.2-0.6,0.5-0.9,1.6-1.4
			c0.2-0.1,0.4-0.2,0.6-0.3c1.4-0.7,2-2.2,2.7-3.6c0.1-0.3,0.3-0.6,0.4-0.9c0.4-0.9,2.1-1.2,3.6-1.5c0.8-0.1,1.5-0.3,2.1-0.5
			c0.5-0.2,0.7-0.4,0.7-0.7c0-0.7-1.4-1.2-5.1-2.1c-1.3-0.3-2.9-0.8-3.6-1.1c0.7-0.1,2.3-0.3,3.5-0.4c5.6-0.5,6.7-0.7,6.7-1.4
			c0.1-0.6-0.1-1.2-0.6-1.7c-1.4-1.4-5-1.4-6.7-1.2l-0.2,0c-0.7,0.1-1.3,0.2-1.7-0.2c-0.2-0.2-0.2-0.5-0.1-0.7c0.1-0.5,0.5-0.9,1-1
			c0.8-0.2,1.6,0.1,2.4,0.3c0.1,0,0.3,0.1,0.4,0.1c1.5,0.4,2.6,0.3,3.3-0.3c0.2-0.2,0.3-0.4,0.3-0.6c0-0.5-0.6-0.9-1.3-1.4
			c-0.5-0.3-1.2-0.8-1.3-1.1c0.1-0.2,1.1-0.5,1.7-0.6c1-0.2,1.8-0.4,2.1-1c0.1-0.2,0.1-0.4,0-0.6c-0.4-0.9-1.5-1.1-2.4-1.3
			c-0.2,0-0.3-0.1-0.5-0.1c-0.6-0.1-1.2-0.7-1.2-1.1c0-0.1,0-0.1,0.1-0.1c4.1-2.1,4.3-6.8,4.5-10c0.1-1.1,0.1-2.5,0.4-2.7
			c0.3,0.6,0.3,3.8,0.2,5.7c-0.1,2.8-0.1,4.6,0.2,5.2c0.4,0.8,1.4,0.9,2.1,1c0.4,0,1,0.1,1,0.3c0.1,0.5-0.4,0.7-1.2,1.1
			c-0.8,0.4-1.8,0.9-1.7,1.9c0.1,1,1.1,1.2,1.9,1.4c0.9,0.2,1.2,0.4,1.2,0.7c0,0.2-0.2,0.3-0.5,0.6c-0.2,0.1-0.3,0.2-0.5,0.4
			c-0.2,0.2-0.2,0.4-0.2,0.6c0.1,0.7,1.3,1.2,3.6,2.2c1.3,0.5,3.2,1.3,3.4,1.8c-0.3,0.3-2.1,0.8-3.3,1.1c-2.5,0.6-4.1,1.1-4.2,2
			c-0.1,0.7,0.2,1.1,0.5,1.3c1,0.7,3.2-0.1,6.2-1.4c0.7-0.3,1.4-0.6,1.9-0.8c1.5-0.6,3.4-0.2,5.2,0.2c2.4,0.5,4.8,1,6.5-0.7
			c0.9-0.9,1.4-2,1.9-3.1c0.6-1.4,1.2-2.7,2.6-3.2c1.4-0.5,2.8-0.7,4.2-0.9c1.4-0.2,2.8-0.4,4.1-0.8
			C432.6,184.9,435.4,182.3,434.9,179.2z M402.1,154.6c0.2,0.4,0.2,0.6,0.2,0.7c-0.2,0.4-0.4,0.7-0.8,0.8c-2.1,0.8-7.4-1.8-13-4.6
			c0,0-0.1,0-0.1-0.1c3.4-0.2,6.8-0.2,10.2-0.2C400.4,152.6,401.6,153.8,402.1,154.6z M397.4,150.4c-3.5,0-7,0.1-10.4,0.2
			c-2.4-1.2-4.9-2.4-7.3-3.4c1.5-0.4,2.9-1,4.2-2.1c0.4-0.3,0.7-0.6,1.1-0.9C390.4,146.2,394.5,148.5,397.4,150.4z M369.5,144.6
			c-0.4,0-0.9,0-1.3,0.1c-1.4-0.7-2.7-1.5-3.7-2.2c-2.3-1.7-3-2.9-2.9-3.2c0,0,0.2-0.1,0.7-0.1c8.7,0.9,15.9,2.7,21.8,4.8
			c-0.2,0.2-0.5,0.4-0.7,0.6c-1.6,1.2-3.3,1.9-5.1,2.2C375.2,145.4,372.1,144.6,369.5,144.6z M376.4,146.8c-2.2,0-4.5-0.6-6.5-1.4
			C371.8,145.5,374.1,146,376.4,146.8z M378.2,147.5c2.4,0.9,4.8,2.1,7.1,3.2c-1.9,0.1-3.8,0.3-5.6,0.5c-3.8,0.4-8,0.8-11.7-0.7
			c-1.2-0.5-3.1-1.7-3.3-2.8c-0.1-0.4,0.2-0.8,0.7-1.2c0.8-0.6,1.7-0.9,2.7-1.1C371.1,146.9,374.7,147.9,378.2,147.5z M363,105.7
			c0.8,0.4,1.2,0.8,1.2,1.2c0.1,0.7-0.9,1.2-1.4,1.5c-3.2,1.4-6.9,2-10.4,1.7c-0.4-0.3-0.8-0.7-1-1.2c-0.4-0.7-0.4-1.3,0-1.9
			c0.3-0.6,1.3-1.4,2.3-2.1C357.2,104.6,360.8,104.6,363,105.7z M354.3,100.4c0.6,0.1,1.1,0.4,1.4,0.9c0.5,0.7-1,1.8-2.4,2.8
			c-0.7,0.1-1.3,0.1-2,0.2c-1.9,0.2-3.8,0.3-5.3,0.3C348.8,102.3,352.2,100.1,354.3,100.4z M344.7,105.8c0.2-0.1,0.3-0.3,0.5-0.4
			c1.7,0.1,3.9,0,6.2-0.2c0.2,0,0.5,0,0.7-0.1c-0.7,0.5-1.2,1-1.5,1.6c-0.4,0.8-0.4,1.7,0,2.6c0.1,0.2,0.3,0.5,0.4,0.7
			c-1.9-0.3-3.8-0.8-5.5-1.5c-0.4-0.2-1.7-0.8-1.6-1.7C344.1,106.3,344.4,106,344.7,105.8z M326.4,102.4
			C326.4,102.4,326.5,102.4,326.4,102.4c0.3,0,0.5,0,0.7,0.1c-1,1.4-2.6,2.3-4.3,2.7C324.1,103.6,325.3,102.5,326.4,102.4z
			 M322.2,106.2c2.2-0.3,4.2-1.5,5.6-3.2c0.3,0.3,0.7,0.7,1,1.3c1.3,2.4-3.1,5.2-7.4,7.9c-1.2,0.7-2.3,1.5-3.3,2.2
			C319.1,111.9,320.6,108.7,322.2,106.2z M299,62.1c0,0,0.1,0,0.1,0c1.6,0,3.4,0.5,5.3,1.4l0.4,0.2c3.7,1.7,8.3,3.9,8.4,7.6l0,0.3
			c0,1.6,0.1,3.3,1.4,4.4c0.7,0.5,1.6,0.6,2.5,0.7c1.3,0.1,1.9,0.2,2,0.8c0.1,0.4-0.2,0.8-0.4,1.3c-0.3,0.6-0.7,1.3-0.2,2.1
			c0.7,1.2,2,1.8,3,2.4c1.1,0.5,2.4,0.9,3.6,1.2c2.5,0.6,4.8,1.3,5.3,3.2c-0.3,0.4-2.7,0.9-4.1,1.2c-3.3,0.7-4.9,1.1-4.7,2.1
			c0.2,1.1,2.4,1.5,5.9,2c1.6,0.3,4.9,0.8,4.9,1.3c-0.1,0.3-0.8,1.2-7.9,1.9c-4.5,0.4-10.2,0.6-14.8,0.7c-8.7,0.2-9,0.3-9,1
			c0,0.6,0,0.9,18,2.8c-1.7,0.3-4.3,0.7-6.7,1c-10.8,1.6-14.7,2.3-15.1,3.1c-0.1,0.2-0.1,0.3,0,0.5c0.2,0.4,0.9,0.6,14.6,0.6
			c3.2,0,6.6,0,6.9,0.1c0.9,0.3,1.8,0.4,2.7,0.4c-1.6,2.5-3.1,5.8-4.5,9c-1.3,1-2.3,2-2.8,3c-0.2,0.4-0.2,0.7-0.1,1
			c0.2,0.3,0.5,0.5,0.9,0.7c-0.2,0.4-0.4,0.9-0.7,1.2c-0.8,0.9-1.9,1.4-3.1,1.9c-0.6,0.2-1.2,0.5-1.7,0.8c-1.3,0.7-2.3,1.7-3.2,2.8
			c-0.2,0.1-0.4,0.2-0.5,0.2c-1.8,0.9-3.4,2.3-4.9,3.7c-2.5,2.3-4.8,4.4-7.8,3.8c-0.6-0.1-1.2-0.4-1.9-0.6c-1.4-0.6-2.9-1.2-4.3-0.4
			c-0.8,0.4-1.3,1.3-1.3,2.3c-0.1,1.3,0.5,2.7,1.5,3.5c1.6,1.3,3.8,1.4,6,1.3l0.1,0c1.2,0,2.5-0.1,3.5,0.5c0.2,0.1,0.4,0.3,0.6,0.5
			c-0.3,0.2-0.7,0.4-1,0.6c-1.1,0.5-2.4,0.8-3.7,1.1c-2.2,0.5-4.5,1-5.9,2.8c-0.4,0.5-0.7,1-1,1.5c-0.7,1.2-1.4,2.4-2.5,2.4
			c-1.8,0-2.3-2.7-2.7-4.6l0,0c-1.3-6.6-7.4-10.8-12.3-13.1c-1.8-0.9-3.6-1.6-5.4-2.4c-1.1-0.4-2.2-0.9-3.2-1.4
			c-0.6-3.6-3.1-6.9-6.6-8c-0.7-0.2-1.5-0.4-2.2-0.6c-0.5-0.1-1-0.3-1.5-0.4c0,0,0-0.1,0-0.1c0.1-0.5,0.4-1,0.7-1.5
			c0.3-0.4,0.5-0.9,0.7-1.3c0.9-2.3-0.5-4.9-1.7-6.5c-0.2-0.3-0.4-0.6-0.6-0.9c1-2.4,1.5-5.1,0.2-7.5c-1.4-2.6-4.3-3.7-7.1-4.9
			c-2.8-1.1-5.5-2.2-6.4-4.6c0.2-0.1,0.3-0.3,0.5-0.4l24.2-16.1c0.2,0,0.5-0.1,0.7-0.1c1.8-0.1,3.7,0.1,5.6,0.4
			c1.1,0.1,2.2,0.3,3.3,0.4l4.1,2.7c1.3,0.8,2.7,1.8,4.4,2c4.7,0.5,7.3-4.7,9.4-8.8l0.1-0.3c0.4-0.7,1.1-2,2.1-3.4
			c2.1-0.5,4-1.1,4.9-2l0.1-0.1l0-0.2c0-0.2,0-0.3-1.6-1.3C294.2,63.2,296.4,62.1,299,62.1z M315.1,119.1c0,0.1-0.1,0.1-0.1,0.2
			c-0.3-0.1-0.4-0.2-0.5-0.3c0-0.1,0-0.2,0.1-0.3c0.3-0.6,0.8-1.1,1.4-1.7c-0.2,0.4-0.3,0.8-0.5,1.1
			C315.3,118.4,315.2,118.7,315.1,119.1z M316.3,120.4c1.1,0.2,2.4,0.4,2.9,1c0.3,0.4,0.3,0.6,0.2,0.8c-0.4,1.3-3.9,2.6-6.2,3.1
			c-0.8,0.2-1.7,0.3-2.5,0.4c-1.1,0.2-2.3,0.3-3.4,0.6c0.6-0.7,1.3-1.2,2.2-1.7c0.5-0.3,1.1-0.5,1.7-0.8c1.2-0.5,2.5-1.1,3.4-2.1
			c0.4-0.5,0.7-1,0.9-1.5C315.7,120.3,316,120.3,316.3,120.4z M259,129.3c0.9,0.4,1.9,0.8,2.8,1.2c1.8,0.7,3.6,1.5,5.4,2.3
			c4.7,2.3,10.6,6.3,11.8,12.6l0,0c0.4,2.2,1.1,5.3,3.5,5.3c0,0,0,0,0.1,0c1.6,0,2.4-1.4,3.2-2.8c0.3-0.5,0.6-1,0.9-1.5
			c1.3-1.6,3.3-2.1,5.5-2.5c1.3-0.3,2.7-0.6,3.9-1.2c0.4-0.2,0.7-0.4,1.1-0.6c0.1,0.1,0.1,0.3,0.1,0.4c0.1,0.3,0.1,0.7-0.3,1.1
			c-0.2,0.2-0.4,0.4-0.6,0.5c-2.9,1.9-5.5,3.1-8.3,4.3c-1.9,0.9-3.9,1.8-6.1,2.9c-0.4,0.2-0.8,0.5-1.3,0.8c-1.5,1-3.6,2.3-4.5,1.5
			c-0.7-0.7-0.8-1.8-0.9-2.9c0-0.6-0.1-1.3-0.3-1.9c-1-3.7-5.3-4.9-9-5.6c-5-0.9-7.7-2.5-8.3-5.2c-0.3-1.4,0.1-2.9,0.6-4.4
			c0.2-0.7,0.5-1.5,0.6-2.3C259,130.8,259,130.1,259,129.3z M296.5,140.4c-0.9-0.5-1.9-0.6-2.9-0.6c-0.3,0-0.7,0-1,0l-0.1,0
			c-1.9,0.1-4,0-5.5-1.1c-0.8-0.6-1.3-1.7-1.2-2.8c0.1-0.7,0.4-1.3,0.9-1.6c1.1-0.6,2.3-0.1,3.6,0.4c0.6,0.3,1.3,0.5,2,0.7
			c3.4,0.7,6-1.7,8.5-4c1.3-1.1,2.6-2.3,4-3.2c-1,1.6-1.8,3.3-2.5,5c-1.4,3.1-2.7,6-5.1,7.9C297.1,140.8,296.8,140.5,296.5,140.4z
			 M240.6,97.3c2.7,1.1,5.4,2.2,6.7,4.5c1.1,2,0.8,4.3,0,6.4c-3.4-4.8-7.6-8.9-12.3-12.5c-0.8-0.6-1.6-1.3-1.6-2.1
			c0-0.4,0.2-0.8,0.5-1.1C235,95,237.8,96.2,240.6,97.3z M237.2,84.5c2.1-1.7,4.4-2.5,6.8-3.3c1.3-0.4,2.7-0.9,4-1.5
			c0.8-0.4,1.7-0.8,2.5-1.2c2.1-1,4.3-2.1,6.7-2.7l-22.6,15.1c-0.1,0.1-0.2,0.1-0.3,0.2C233.6,88.6,235.3,86,237.2,84.5z
			 M247.4,109.7c0.1,0.2,0.2,0.4,0.4,0.5c1,1.5,2.3,3.8,1.6,5.8c-0.2,0.4-0.4,0.8-0.7,1.2c-0.3,0.5-0.7,1-0.8,1.7c0,0,0,0.1,0,0.1
			c-1.8-0.6-3.2-1.5-3.3-3.1c-0.1-1.1,0.6-2.3,1.2-3.2C246.3,111.8,246.9,110.8,247.4,109.7z M258,128c-2.4-1.1-4.7-2.3-6.8-3.9
			c-0.9-0.7-2.6-2.2-2.8-4c0.5,0.1,0.9,0.3,1.4,0.4c0.8,0.2,1.5,0.4,2.2,0.6C255.1,122.1,257.4,124.9,258,128z M260.5,74.6l0.6-0.4
			c0.9-0.6,1.7-1.1,2.6-1c0.7,0.1,1.3,0.5,1.8,0.8l1.8,1.2c-0.6-0.1-1.2-0.1-1.8-0.2c-1.5-0.2-3.1-0.4-4.6-0.4
			C260.7,74.5,260.6,74.5,260.5,74.6z M270.2,76.1c1.2,0,2.4-0.2,3.6-0.6c2.6-0.9,4.6-2.8,6.5-4.6c1.1-1,3.9-1.7,6.6-2.3
			c0.3-0.1,0.6-0.1,0.8-0.2c-0.6,0.9-1.1,1.8-1.7,2.8l-0.1,0.3c-2,3.9-4.5,8.8-8.6,8.4c-1.5-0.2-2.9-1-4.1-1.8L270.2,76.1z
			 M291.7,65.1c0.5,0.3,1,0.6,1.2,0.8c-0.7,0.5-1.9,0.9-3.3,1.3C290.3,66.5,290.9,65.8,291.7,65.1z M263,59.6c0.6,1,0.8,2,0.5,2.8
			c-0.6,2.2-4.5,3.5-7.6,3.3c-1-0.1-3.3-0.4-3.6-2.2c-0.2-1.4,1.2-2.3,2.7-3.3c0.9-0.6,1.7-1.1,2.4-1.9c0.7-0.8,1.6-1.5,2.6-2
			C261.3,57.4,262.4,58.5,263,59.6z M241.7,44.5c0,0.1,0.1,0.1,0.1,0.2c0.4,0.8,0.4,1.6,0.1,2c-0.4,0.6-1.2,1-2.1,1.4
			c-0.1,0.1-0.3,0.1-0.4,0.2c0.4-0.6,0.8-1.3,1.1-2C241,45.8,241.4,45.1,241.7,44.5z M222.6,56.8c0.6,0.4,1,0.8,1.3,1.1
			c0.2,0.3,0.3,0.6,0.3,0.9c-0.1,0.4-0.8,1.2-4.2,1.7c0,0,0.1-0.1,0.1-0.1L222.6,56.8z M183.9,84.8c3.7,0.4,8.1,0.8,10.4,2.3
			c0.1,0.4,0.1,0.9,0.1,1.3c-0.3,3.1-6.1,2.8-12.3,2.5c-6.1-0.3-12.5-0.6-15.1,2.2c-0.6,0.6-0.9,1.3-1.1,2.1c-1.6-0.7-2.8-1.9-3-3.7
			c-0.3-2.8,2-4.8,3.9-6c2.4-1.5,5.6-2.6,8.9-3.2C176.3,84,179.6,84.4,183.9,84.8z M176.5,82.3c5.8-0.9,12-0.5,15.4,1.6
			c0.9,0.6,1.6,1.3,2,2c-2.5-1.2-6.4-1.6-9.9-1.9C180.6,83.7,177.1,83.3,176.5,82.3z M195.2,87.8c0.5,0.5,0.8,1.2,0.8,1.9
			c0,1.3-2.5,2.9-6.6,4.3c-4.2,1.4-9.4,2.4-13.9,2.5c-2.1,0.1-6,0.1-8.9-1c0.1-0.8,0.4-1.4,0.9-1.9c2.4-2.5,8.8-2.2,14.5-1.9
			c6.6,0.3,12.8,0.6,13.1-3.2C195.2,88.3,195.2,88,195.2,87.8z M175.5,97.3c9.5-0.4,21.2-4,21.2-7.6c0-1.4-0.7-2.4-1.8-3.2
			c-0.4-1.3-1.3-2.4-2.7-3.3c-3.5-2.2-9.9-2.6-15.9-1.7c0.2-3.5,8.2-5.3,14.6-6.7c5.5-1.2,8.9-2,9.4-3.5c0.1-0.3,0.2-0.8-0.2-1.3
			c-1.1-1.5-3.3-2-5.4-2.6c-0.9-0.2-1.8-0.5-2.6-0.8c8.2,1.2,22.7,3.2,27.7,0.3c1.4,0.5,3.1,0.3,3.8,0.2c3.7-0.5,7.5-1.2,11.2-1.9
			c1.1-0.2,2.4-0.6,3-1.6c0.1-0.2,0.2-0.5,0.3-0.7c0.1-0.3,0.2-0.6,0.4-0.8c0.2-0.3,0.5-0.4,0.9-0.4c0.9,0.1,2.1,1,2.6,1.9
			c0.6,0.9,1.4,1.2,2.3,1.5c0.7,0.2,1.3,0.5,1.8,1c0.5,0.5,0.3,0.8,0.3,0.9c-0.7,1.4-6.8,2-10.5,1.7l-0.6,0
			c-3.7-0.3-7.8-0.6-10.9,1.8c-3.3,2.5-3.7,6.9-4.2,11c-0.1,0.9-0.2,1.9-0.3,2.8c-0.1,0.4-0.1,0.9-0.4,1.2c-0.3,0.3-0.8,0.5-1.5,0.6
			c-1.6,0.1-3.2-0.2-4.8-0.5c-0.8-0.2-1.5-0.3-2.3-0.4c-1.8-0.3-5.2-0.4-7.2,1.9c-0.8,0.9-1.2,2.1-1.6,3.2c-0.8,2.2-1,5.3-1.3,8.3
			c-0.4,4.4-0.8,8.9-2.7,10.4c-0.6,0.5-1.4,0.6-2.3,0.4c-3.1-0.6-4.4-3-5.7-5.4c-1.4-2.6-2.9-5.2-6.6-5.3c0,0,0,0,0,0
			c-0.4,0-1.2,0.1-2.4,0.2c-4.2,0.4-14.1,1.5-14.5-1.7c0-0.3,0-0.5,0-0.8C168.8,97.2,171.8,97.5,175.5,97.3z M189.5,65.6
			C189.5,65.6,189.5,65.6,189.5,65.6c-1.2-0.2-1.8-0.5-1.9-1c-0.2-0.8,1-1.4,1.6-1.6c0.2-0.1,0.5-0.1,0.9-0.2
			c-0.6,0.6-0.9,1.2-0.8,1.8C189.3,64.9,189.4,65.3,189.5,65.6z M191.6,62.6c2.2-0.1,5.4-0.2,9-0.2c7.2-0.1,13.5-0.2,17.9-0.8
			c-0.7,1.3-1.1,2.8-0.3,4.2c0.2,0.4,0.6,0.7,0.9,0.9c-5.5,2.5-21,0.2-28-0.9c-0.2,0-0.4-0.1-0.6-0.1c-0.3-0.3-0.5-0.7-0.5-1.2
			C190.1,63.9,190.6,63.2,191.6,62.6z M193.2,61.7c2.1-0.9,5.1-1.7,8.7-2.2c2.2-0.3,4.5-0.5,6.7-0.5c3.9,0,7.5,0.5,9.8,1.7
			c-0.7,0.1-1.4,0.2-2.3,0.2c-4.7,0.4-10.5,0.5-15.6,0.5C197.7,61.6,195.2,61.7,193.2,61.7z M219.9,66.2c-0.4-0.2-0.8-0.5-1-0.9
			c-0.7-1.2-0.2-2.6,0.6-3.9c0,0,0,0,0,0c0.8,0.6,1.3,1.3,1.5,2.1c0.2,0.9,0.1,1.6-0.5,2.2C220.3,65.9,220.1,66.1,219.9,66.2z
			 M59.3,119.4c0-0.5-0.1-1-0.1-1.4c0.8,0.3,1.4,0.7,2,1.1l0.1,0c0.5,0.3,1.3,0.9,1.3,1.4c0,0.1,0,0.3-0.1,0.4
			c-0.2,0.3-0.9,0.6-1.9,0.8c-0.4,0.1-0.8,0.1-1.2,0.1C59.4,120.9,59.4,120.1,59.3,119.4z M55.1,117.2c1.2-0.1,2.3,0.1,3.4,0.4
			c0,0.6,0,1.2,0.1,1.8c0.1,0.7,0.1,1.5,0.1,2.3c-2-0.1-3.9-0.7-5.8-1.2l-0.5-0.2c-0.4-0.1-1.1-0.3-2-0.4
			C51.7,118.5,53.1,117.4,55.1,117.2z M49.4,120.8c0.1-0.1,0.2-0.2,0.3-0.3c1,0.2,1.8,0.3,2.4,0.5l0.5,0.2c1.9,0.6,3.9,1.2,6,1.3
			c-0.4,2.4-2.1,4.7-4.5,5.8c-1.3-1.2-2.8-2.2-3.9-3c-0.3-0.2-1-0.5-1.9-1c-0.4-0.2-1-0.5-1.6-0.8C47.6,122.6,48.6,121.7,49.4,120.8
			z M42.4,120.8c0-0.1,0-0.2,0.1-0.2c0.3-0.3,1.3-0.4,2.4-0.4c1.1,0,2.5,0.1,3.8,0.3c-0.8,0.9-1.8,1.8-2.9,2.7
			C44.2,122.2,42.5,121.2,42.4,120.8z M44.7,125c0.4-0.3,0.8-0.7,1.3-1c0.6,0.3,1.2,0.6,1.9,1c0.9,0.4,1.6,0.8,1.8,1
			c1,0.7,2.4,1.6,3.6,2.7c-1.6,0.5-3.3,0.3-5,0c-0.3,0-0.6-0.1-0.9-0.1c0,0-2.2-0.2-4.6-0.2c-0.6,0-1.3,0-1.9,0.1
			C41.9,127.2,43.3,126.1,44.7,125z M39.9,129.2c2.7-0.3,6.1,0,7.3,0.1c0.3,0,0.6,0.1,0.9,0.1c1.9,0.3,3.8,0.6,5.8-0.2
			c0.7,0.7,1.3,1.5,1.7,2.4c0.3,0.7,0.3,1.5,0,2.1c-0.2,0.5-0.7,0.9-1.2,1c-0.6,0.2-1.3,0.1-1.9,0c-1.2-0.2-2.4-0.6-3.6-0.9
			c-0.8-0.2-1.6-0.5-2.4-0.7c-1.3-0.3-2.6-0.5-3.9-0.6c-0.7-0.1-1.4-0.2-2.1-0.3c-0.1,0-0.2,0-0.4-0.1c-0.5-0.1-1.4-0.2-2.1-0.4
			C38.4,130.9,39.1,130.1,39.9,129.2z M36.4,130.7c0-0.2,0-0.4,0.2-0.5c0.4-0.4,1.1-0.6,2-0.8c-0.6,0.7-1.1,1.4-1.5,2.1
			C36.8,131.3,36.5,131.1,36.4,130.7z M102.3,191.1C102.3,191.1,102.3,191.1,102.3,191.1c-0.1,0-0.1,0-0.1,0c-0.1-0.3,0-0.7,0.3-0.9
			c0.1,0.1,0.2,0.2,0.2,0.3C102.8,190.6,102.6,190.9,102.3,191.1z M102.4,189.2c-0.3-0.1-0.6-0.1-0.9-0.1c-0.1,0-0.2,0-0.3,0
			c-1.1,0.1-2.3,0.1-3.5,0.1c-0.3,0-0.5-0.1-0.5-0.1c0-0.1,0.3-0.2,0.6-0.2l4.8,0.1c0,0,0.1,0,0.1,0
			C102.8,189.1,102.6,189.2,102.4,189.2z M184.6,232.3c-2.8-0.2-4.9-0.5-5.4-0.8c0.3-0.4,1.9-0.6,3.9-0.8
			C183.7,231.2,184.2,231.7,184.6,232.3C184.6,232.3,184.6,232.3,184.6,232.3C184.6,232.3,184.6,232.3,184.6,232.3z M179.2,220.6
			c-0.7-0.9-3.2-1.2-5.8-1.5c-1.3-0.1-2.6-0.3-3.5-0.5c-0.9-0.2-1.2-0.4-1.2-0.5c0.6-0.4,4.2-0.4,6.9-0.4c1.8,0,3.4,0,4.8-0.1
			c0,0,0,0.1,0,0.1c0.5,3.8,10.5,4.9,13.5,4.6c0.5,0,1.2-0.1,1.9-0.2c3.4-0.3,9.6-1,10.8,0.4c0.1,0.1,0.2,0.3,0.1,0.7
			c-0.7,2.5-6,1.7-10.2,1.1c-2.2-0.3-4.2-0.6-5.6-0.5c-1.6,0.1-3.4,0.4-3.9,1.2c-0.1,0.2-0.2,0.6,0,1c0.4,1,2.5,1.1,5.9,1.3
			c1.3,0.1,2.7,0.2,3.7,0.3c1.3,0.2,1.3,0.5,1.3,0.5c0,0-0.1,0.5-2.9,0.8c-1.9,0.2-4.4,0.3-6.9,0.4c-1.9,0.1-3.5,0.2-4.9,0.3
			c-5-3.5-14.7-3.7-22-3.9c-2.6-0.1-4.8-0.1-6.3-0.3c-2.2-0.3-2.2-0.7-2.2-0.7c0,0,0-0.5,3-0.7c2-0.2,4.7-0.2,7.6-0.2
			c9.6,0,15.9-0.2,16.2-2.8C179.5,221.1,179.4,220.8,179.2,220.6z M231.3,204.5c-0.3,0.3-0.4,0.6-0.5,1l-9.3-0.8
			c-0.5,0-0.6-0.2-0.6-0.2c0-0.1,0.1-0.3,0.4-0.5c1.5-1.2,3.4-1.7,5.3-2.3c1.8-0.5,3.7-1.1,5.3-2.2c0.3-0.2,0.6-0.5,0.8-0.8
			c0.3-0.6,0.1-1.3-0.4-1.8c-0.4-0.4-0.9-0.7-1.4-0.9l-2.4-1.2c0,0-0.1,0-0.1,0c0,0,0.1-0.1,0.2-0.1c1.8-0.9,3-2.9,3.5-5.9
			c0.4-2.3,0.5-4.7,0.6-7c0.1-1.6,0.1-3.2,0.3-4.8c0.1-0.5,0.2-0.6,0.2-0.6c0.1,0,0.3,0.1,0.5,0.3c0.5,0.8,0.8,1.7,0.9,2.7
			c0.7,4.2,0.9,8.5,0.4,12.8c0,0.4-0.1,1,0.3,1.5c0.3,0.3,0.7,0.4,1,0.5c0.8,0.2,1.6,0.2,2.4,0.3c1.1,0.1,2.2,0.1,3.2,0.5
			c0.1,0.1,0.2,0.1,0.3,0.2c0,0-0.1,0-0.2,0.1c-1.3,0.4-2.6,0.7-3.9,0.8c-0.5,0.1-1.3,0.2-1.7,0.9c-0.2,0.4-0.1,0.7-0.1,1l0,0.1
			c0,0.2-0.3,0.3-1,0.4c-0.6,0.1-1.1,0.2-1.3,0.6c-0.1,0.1-0.2,0.4,0,0.7c0.8,2.2,5.9,1.7,9.5,1.4c0.6-0.1,1.2-0.1,1.6-0.1
			c0.5,0,1.1,0,1.1,0.3c0,0.1,0,0.1-0.1,0.2c-0.1,0.2-0.6,0.4-1,0.5c-1.1,0.1-2.3,0.1-3.5,0.1c-1.7,0-3.4-0.1-5,0.4
			c-0.2,0-0.7,0.2-0.8,0.7c-0.1,0.5,0.2,0.9,0.8,1.1c1.1,0.4,2.3,0.4,3.4,0.5c1.2,0.1,2.3,0.2,3.4,0.6c0.2,0.1,0.3,0.2,0.4,0.3
			c0,0-0.1,0-0.3,0c-2.9-0.3-5.9-0.8-8.8-1.5c-0.4-0.1-1.1-0.3-1.8-0.3C232.6,203.8,231.9,204,231.3,204.5z M231.6,206.4l1.7,0.1
			c0.1,0,0.4,0,0.8,0c0.9,0,3.6,0.2,4.4,0.4c-0.4,0.4-2.2,0.4-3.3,0.3c-1.1-0.1-2.2-0.2-3.3-0.2
			C231.8,206.8,231.7,206.6,231.6,206.4z M290.8,152.3c-0.4-1-0.6-2.4-0.4-2.7c0,0,0.1,0,0.1,0.1C291.3,150.2,291.2,151,290.8,152.3
			z M429.5,185.1c-1.3,0.4-2.7,0.6-4,0.8c-1.5,0.2-3,0.4-4.4,0.9c-1.7,0.6-2.4,2.1-3,3.6c-0.4,1-0.9,2.1-1.7,2.8
			c-1.4,1.4-3.6,0.9-5.8,0.5c-1.9-0.4-3.9-0.8-5.6-0.1c-0.6,0.2-1.2,0.5-2,0.8c-1.8,0.8-4.7,2-5.4,1.5c0,0-0.2-0.1-0.2-0.6
			c0.1-0.4,2.5-1,3.6-1.3c2.1-0.5,3.5-0.9,3.8-1.5c0.1-0.2,0.1-0.4,0-0.6c-0.3-0.7-1.6-1.3-3.9-2.2c-1.1-0.5-2.7-1.2-3.1-1.5
			c0.1-0.1,0.2-0.1,0.3-0.2c0.4-0.3,0.8-0.6,0.9-1.1c0.1-1-1-1.3-1.7-1.5c-0.8-0.2-1.3-0.4-1.3-0.8c0-0.5,0.5-0.7,1.3-1.1
			c0.8-0.4,1.8-0.9,1.7-1.9c-0.1-0.8-1-0.9-1.7-1c-0.6-0.1-1.3-0.1-1.5-0.5c-0.2-0.5-0.2-2.9-0.1-4.8c0.1-3.9,0.1-5.8-0.5-6.4
			c-0.1-0.1-0.3-0.2-0.5-0.2c-1.1,0-1.1,1.5-1.2,3.5c-0.2,3.1-0.4,7.5-4,9.3c-0.4,0.2-0.6,0.5-0.5,1c0.1,0.7,1,1.6,1.9,1.8
			c0.2,0,0.3,0.1,0.5,0.1c0.8,0.1,1.5,0.2,1.8,0.8c-0.2,0.2-1,0.4-1.6,0.5c-1,0.2-1.9,0.4-2.2,1c-0.1,0.2-0.1,0.4-0.1,0.6
			c0.2,0.6,0.9,1.1,1.6,1.5c0.3,0.2,0.8,0.6,1,0.7c-0.7,0.6-1.8,0.4-2.6,0.1c-0.1,0-0.3-0.1-0.4-0.1c-0.9-0.3-1.9-0.6-2.8-0.4
			c-0.7,0.2-1.3,0.8-1.6,1.5c-0.2,0.6,0,1.1,0.3,1.5c0.6,0.6,1.6,0.5,2.3,0.4l0.2,0c2.2-0.3,5,0,6,0.9c0.3,0.3,0.4,0.6,0.4,0.9
			c-0.6,0.3-4,0.6-6,0.8c-2.9,0.3-4,0.4-4.3,0.6c-0.3,0.2-0.3,0.5-0.3,0.6c0.1,0.6,1,0.9,4.5,1.8c1.5,0.4,3.7,1,4.3,1.4c0,0,0,0,0,0
			c-0.5,0.2-1.2,0.3-1.9,0.4c-1.7,0.3-3.6,0.6-4.2,1.9c-0.2,0.3-0.3,0.6-0.4,1c-0.6,1.3-1.2,2.6-2.3,3.2c-0.2,0.1-0.4,0.2-0.6,0.3
			c-1,0.5-2.4,1.1-2,2.4c0.1,0.4,0.4,0.6,0.6,0.8c0.1,0.1,0.2,0.2,0.3,0.3c0.3,0.3,0.3,0.7,0.2,1c-0.1,0.5-0.5,1.1-0.9,1.3
			c-1.1,0.7-2.1,1-2.5,0.9c-0.1,0-0.2-0.1-0.2-0.2c-0.2-0.3-0.2-0.7-0.3-1.1c-0.1-0.8-0.2-1.6-1.2-2c-2.7-0.9-8.7,0.1-10.9,1.2
			c-0.4,0.2-0.9,0.5-1.1,0.9c-0.7,1.1,0.1,2.6,1.3,3.3c0.2,0.1,0.5,0.3,0.7,0.4c0.7,0.4,1.4,0.8,1.7,1.5c0.3,0.6,0.1,1.2-0.1,1.6
			c-0.4,0.8-1.4,1.5-2.3,1.6c-1.3,0.2-2.5-0.2-3.8-0.5c-0.4-0.1-0.9-0.3-1.3-0.4c-1.1-0.3-4.2-0.7-5.2,0.3c-0.2,0.2-0.4,0.6-0.3,1.2
			c0.1,0.2,0.1,0.4,0.2,0.6c0.5,1.9,0.8,3.1-0.5,3.7c-1.6,0.7-6.4,1.9-7.6,1.2c-0.1-0.1-0.2-0.2-0.2-0.3c0-0.3,0.7-1.1,1.2-1.5
			c0.7-0.7,1.2-1.3,1.2-1.8c0-0.2-0.2-0.4-0.4-0.5c-0.7-0.4-1.7-0.2-2.8-0.1c-0.2,0-0.3,0-0.5,0.1c1.3-0.7,3.2-1.8,2.8-3.2
			c-0.1-0.6-1-0.6-3.6-0.6c-1,0-2.5,0-3.2-0.1c0.6-0.3,1.8-0.6,2.8-0.9c3.1-1,4.2-1.4,4.2-2c-0.1-1.9-3.3-2.5-6.2-3
			c-1-0.2-2.3-0.4-2.7-0.7c0.5-0.3,2.6-0.3,4.1-0.4c3.4-0.1,5.7-0.3,6.5-1.2c0.2-0.2,0.3-0.5,0.3-0.8c0-0.2-0.1-0.5-0.3-0.6
			c-0.7-0.6-2.3-0.4-5-0.1c-1.5,0.2-3.9,0.5-4.6,0.1c0.5-0.2,1.8-0.6,2.7-0.8c2.2-0.5,3.1-0.8,3.4-1.3c0.1-0.1,0.1-0.3,0-0.5
			c-0.2-0.5-1.1-0.6-6-0.8c-0.6,0-1.4,0-2.1-0.1c-0.2-0.4-0.6-0.7-1.1-0.9c1-0.2,2.3-0.3,3.5-0.4c3.9-0.4,6.3-0.7,6.6-1.7
			c0.1-0.2,0-0.3-0.1-0.5c-0.3-0.5-1.5-0.7-4-0.9c-0.8-0.1-1.9-0.2-2.7-0.3c0.3,0,0.6-0.1,0.9-0.1c2-0.2,3.2-0.4,3.6-0.9
			c0.1-0.2,0.1-0.4,0-0.6c-0.3-0.6-1.3-0.7-3.2-0.7c-0.7,0-1.8,0-2.2-0.1c0.3-0.3,2.3-0.3,3-0.4c1.8,0,3-0.1,3.4-0.6
			c0.2-0.2,0.2-0.4,0.2-0.6c-0.1-1.1-1.8-1.2-3.8-1.4c-0.9-0.1-2.7-0.2-2.8-0.5c0-0.2,0.7-0.3,1-0.3c0.7-0.1,1.6-0.2,1.5-1
			c0-0.4-0.3-8.9-2-9.8c-0.3-0.1-0.5-0.1-0.8,0c-0.8,0.5-0.9,2.9-0.7,7.1c0,0.5,0,0.9,0,1.1c0,0.6-1,1.1-2,1.5
			c-1,0.5-2.1,0.9-2.5,1.7c-0.1,0.2-0.1,0.4,0,0.6c0.2,0.5,1,0.7,2.3,1c0.6,0.1,1.6,0.4,1.8,0.6c-0.3,0.5-1.4,0.5-2.3,0.5
			c-1,0-1.9,0-2.2,0.5c-0.1,0.2-0.2,0.4-0.1,0.8c0.3,0.9,1.6,1.3,2.7,1.6c0.5,0.2,1.5,0.5,1.5,0.7c0,0,0,0,0,0.1
			c-0.4,0.6-2.1,0.4-3.4,0.3c-1.4-0.2-2.6-0.3-3.1,0.2c-0.2,0.1-0.3,0.4-0.3,0.9c0.1,1.5,1.6,1.8,3.1,1.9c-0.1,0.2-0.1,0.3-0.1,0.5
			c0,0.5,0.6,0.7,3.5,0.9c-0.5,0.5-3.3,1.1-4.9,1.5c-3.7,0.8-5.8,1.4-5.7,2.4c0,0.7,1.2,1,5.6,2c1.7,0.4,4,0.9,4.6,1.2
			c-0.4,0.5-1.2,0.7-2.1,0.8c-1,0.2-2.2,0.4-2.7,1.4c-0.5,0.9,0.5,1.5,1.3,2c0.5,0.3,1.2,0.8,1.3,1.1c0.4,1.9-3.6,6.2-6.5,7
			c-1.4,0.4-1.7-0.4-1.8-0.6c-0.2-0.6-0.3-1.2-0.4-1.8c-0.3-1.4-0.5-2.9-2.1-3.6c-0.8-0.4-1.9-0.4-3-0.4c-1.7,0-2.8-0.1-3-1
			c-0.2-1,0.6-1.9,1.5-2.8c0.8-0.9,1.6-1.7,1.8-2.9c0.1-0.5,0.2-1.2-0.2-1.8c-0.5-0.8-1.4-0.8-2.2-0.9c-0.4,0-0.7,0-1-0.1
			c-0.9-0.2-1.7-1-2.4-1.8c-1.1-1.1-2.3-2.3-3.8-1.6c-0.9,0.4-1.3,1.2-1.7,2c-0.1,0.3-0.3,0.5-0.4,0.8c-0.6,1-1.6,0.8-3.1,0.5
			c-1.2-0.2-2.6-0.5-3.8,0.2c-1,0.6-1.3,1.8-1.5,2.8c-0.2,1-0.4,1.9-1.2,2.3c-0.5,0.2-1.1,0.6-1.8,1.1c-1.8,1.1-5,3.2-5.7,2.3
			c-2.2-3.1-1.6-19.6-1-22.8c0.3-1.6,0.9-2.9,1.8-3.8c0.7-0.7,2.1-0.6,3.5-0.6c1.7,0.1,3.7,0.1,3.8-1.6c0-0.4-0.1-0.7-0.3-0.9
			c-0.6-0.6-1.8-0.5-3.1-0.4c-0.7,0.1-1.5,0.1-2,0c-1.6-0.3-2.1-0.7-2.7-2.1c-0.4-0.9-0.5-2.3-0.4-3.1c0.1-0.6,3.4-1.5,5.3-2.1
			c4.1-1.1,6.6-1.9,6.5-3.3c0-0.6-0.6-0.6-3.6-0.7c-2.7-0.1-7.2-0.2-8.1-1.2c-0.1-0.1-0.1-0.2-0.1-0.3c0.1-0.6,2.8-1.2,4.1-1.4
			c1.9-0.4,2.5-0.5,2.6-1c0.3-1.8-2.4-2.9-4.5-3.7c-0.8-0.3-2-0.8-2.2-1c0-0.1,0.2-0.2,0.6-0.3c0.5-0.2,0.8-0.5,1-1
			c0.5-1.2-0.2-2.9-1-4.8c-0.8-1.9-1.6-4-1.1-5.2c0-0.1,0.1-0.2,0.1-0.3c0.2-0.4,0.5-0.9,0.4-1.5c-0.1-0.6-0.4-1-0.8-1.4
			c0,0-0.1-0.1-0.1-0.1c0.6-1.6,1.1-3.2-0.3-4.1c-0.6-0.4-1-0.1-1.1,0.1c-0.7,0.7-0.1,3.2,0.6,4.2c0,0,0,0,0,0
			c-0.3,0.8-0.6,1.6-0.8,2.3c-0.2,1-1,1.6-2,2.2c-0.9,0.6-1.9,1.2-2.4,2.3c-0.1,0.3-0.1,0.6,0,0.7c0.3,0.5,1.1,0.6,1.9,0.8
			c0.5,0.1,1,0.2,1.3,0.3c0.9,0.4,1.6,1.3,1.3,2.1c-0.2,0.4-0.5,0.6-0.9,0.9c-0.1,0.1-0.2,0.1-0.3,0.2c-0.3,0.3-0.9,0.5-1.5,0.8
			c-1.3,0.6-2.5,1.2-2.6,2.1c-0.1,0.3,0,0.6,0.2,0.9c0.6,0.8,1.7,0.8,2.8,0.8c1,0,1.8,0.1,2,0.5c-0.4,0.3-1.8,0.8-2.8,1.2
			c-3,1.1-4.4,1.7-4.4,2.5c0,0.5,0.3,0.6,4.1,0.7c1,0,2.1,0.1,2.9,0.1c-0.5,0.2-1.1,0.4-1.6,0.6c-2.1,0.8-2.8,1.1-2.8,1.6
			c0,0.7,0.9,0.8,2.7,0.9c0.7,0.1,1.7,0.2,2.1,0.3c-0.1,2.2-0.3,4-0.5,5.2c-0.1,0.5-0.5,0.6-1.6,0.8c-0.9,0.1-1.9,0.3-2.4,1.1
			c-0.5,0.7,0.6,1.5,2.1,2.5c0.5,0.4,1.3,0.9,1.6,1.2c-1.3,0.8-3.5,0.2-5.7-0.3c-2.4-0.6-5-1.3-6.5-0.1c-0.4,0.3-0.4,0.7-0.3,0.9
			c0.2,0.9,1.9,1.6,2.7,1.7l7.4,1.5c0.5,0.1,1,0.2,1.4,0.5c0.7,0.6,0.8,1.5,0.8,2.2c0,0.7,0,2.6,0.1,4.9c0.2,6.2,0.7,17.9-0.5,19.8
			c-1.3,2.2-5.1,2.7-7.9,3.1c-0.4,0.1-0.7,0.1-1.1,0.2c-3.4,0.5-6.9,2.5-6.7,5.7c0.1,0.8,0.3,1.5,0.6,2.2c0.4,1,0.7,2,0.4,2.8
			c-0.4,1-1.7,1.6-2.9,2.1c-1.5,0.6-3.1,1.3-3.1,3c0,0.9,0.5,1.8,1.1,2.5c0.6,0.8,1.1,1.6,0.7,2.3c-0.3,0.7-1.3,0.9-2.2,1
			c-1.2,0.2-2.4,0.4-3.5,0.6c-2.6,0.5-5.4,1-8.1,0.7c-1.2-0.1-2.4-0.4-3.5-0.7c-1.2-0.3-2.4-0.6-3.6-0.8c-1.8-0.2-3.7-0.1-5.5,0
			c-1.6,0.1-3.2,0.2-4.8,0.1c-0.6,0-1.1-0.1-1.6-0.4c-1.2-0.7-1.2-2.8-1.3-4.4c0-0.2,0-0.4,0-0.6c0-1.1,0-2.2,0-3.2c0-1,0-2,0-3
			c0-0.2,0-0.5,0-0.7c-0.1-1.2-0.1-2.3,0.7-3.2c0.7-0.8,1.8-1.2,2.8-1.6c0.1,0,0.3-0.1,0.6-0.2c1.6-0.4,3.1-0.9,3.5-1.8
			c0.1-0.2,0.1-0.6-0.1-1c-0.3-0.5-1.5-0.6-4.2-0.7c-1.2,0-2.9-0.1-3.5-0.3c0.7-0.3,2.7-0.7,4.1-1c3.7-0.8,4.9-1.1,4.9-1.8
			c0-0.3-0.1-0.6-0.4-0.9c-0.8-0.8-2.8-0.7-4.7-0.7c-1,0-2.9,0.1-3.1-0.2c-0.2-0.5-0.2-1,0-1.4c0.4-0.8,1.8-2.1,6.3-3.1
			c1.5-0.3,3-0.6,4.5-0.8c2-0.3,4.1-0.6,6.2-1.2c0.2-0.1,0.9-0.3,1.2-0.9c0.1-0.2,0.1-0.5,0-0.7c-0.3-0.7-1.1-0.7-1.3-0.7
			c-1.3-0.1-2.6-0.1-3.9-0.2c-5.1-0.2-9.9-0.3-14.7-1.9c-0.5-0.2-0.9-0.4-1.3-0.6c0.8,0,1.6,0.1,2.3,0.2c0.5,0.1,3.1,0.3,3.9-0.5
			c0.2-0.2,0.3-0.5,0.3-0.7c-0.1-0.5-0.5-0.8-5.2-1c-0.3,0-0.6,0-0.7,0l-1.7-0.2c0.1-0.2,0.1-0.4,0.3-0.5c0.6-0.7,1.8-0.5,2.9-0.2
			c2.9,0.7,5.9,1.2,8.9,1.5c0.2,0,0.7,0.1,0.9-0.3c0.2-0.2,0.2-0.4,0.2-0.7c-0.1-0.4-0.5-0.7-0.9-0.9c-1.2-0.4-2.4-0.5-3.6-0.6
			c-1.1-0.1-2.2-0.2-3.2-0.5c-0.2-0.1-0.3-0.1-0.3-0.2c0,0,0.1-0.1,0.2-0.1c1.5-0.4,3.1-0.4,4.8-0.3c1.2,0,2.4,0.1,3.6-0.1
			c0.5-0.1,1.2-0.3,1.5-0.8c0.2-0.3,0.2-0.5,0.2-0.8c-0.1-0.7-0.9-1-2-1c-0.5,0-1,0.1-1.6,0.1c-3,0.3-8.1,0.8-8.7-0.9c0,0,0,0,0,0
			c0.1-0.1,0.5-0.2,0.8-0.2c0.7-0.1,1.7-0.3,1.6-1.2l0-0.2c0-0.2,0-0.5,0-0.6c0.1-0.3,0.6-0.4,1.1-0.4c1.4-0.2,2.7-0.5,4.1-0.9
			c0.2-0.1,0.6-0.2,0.7-0.6c0.2-0.5-0.1-0.9-0.7-1.2c-1.1-0.5-2.3-0.5-3.5-0.6c-0.8-0.1-1.6-0.1-2.3-0.3c-0.2,0-0.4-0.1-0.6-0.2
			c-0.2-0.2-0.1-0.5-0.1-0.9c0.5-4.3,0.3-8.7-0.4-13c-0.2-1-0.4-2.1-1.1-3c-0.4-0.6-0.9-0.8-1.4-0.6c-0.6,0.2-0.7,1-0.7,1.3
			c-0.2,1.6-0.2,3.2-0.3,4.8c-0.1,2.3-0.2,4.6-0.6,6.9c-0.5,2.7-1.6,4.5-3.1,5.3c-0.2,0.1-0.7,0.4-0.6,0.9c0.1,0.4,0.4,0.5,0.6,0.6
			l2.4,1.2c0.4,0.2,0.9,0.4,1.2,0.8c0.2,0.3,0.4,0.7,0.2,1c-0.1,0.2-0.3,0.4-0.5,0.5c-1.5,1-3.3,1.6-5.1,2.1
			c-1.9,0.6-3.9,1.2-5.5,2.4c-0.6,0.4-0.8,0.9-0.6,1.4c0.2,0.6,1,0.7,1.3,0.7l9.3,0.8c0,0.2,0.1,0.5,0.2,0.7
			c-4.3-0.1-8.6,0.3-12.8,1.1c-0.1,0-0.4,0.1-0.5,0.2c-0.2,0.2-0.2,0.4-0.2,0.6c0,0.3,0.2,0.5,0.4,0.7c0.6,0.4,1.5,0.4,2.3,0.4
			c0.2,0,0.5,0,0.7,0c0.9,0.1,2,0.1,3.1,0.2c2.3,0.2,4.3,0.5,6,0.8c1.9,0.4,3.6,0.9,3.6,2.6c0,1.1-0.8,1.8-2.3,2.3
			c-3.8,1.2-7.8,1.6-11.7,1.9c-0.9,0.1-1.7,0.1-2.6,0.2c-0.8,0.1-1.4,0.2-2,0.6c-0.3,0.2-0.4,0.5-0.4,0.7c0,0.3,0.2,0.5,0.5,0.7
			c1.3,0.6,2.8,0.9,4.1,1c0.2,0,0.4,0.1,0.6,0.1c1.5,0.2,3.1,0.4,4.6,0.6l0.3,0c0.4,0.1,3.5,0.5,4.8,0.8c-0.7,0.3-1.7,0.2-2.7,0.2
			c-1.7,0-3.4-0.1-3.9,1.2c-0.2,0.5-0.2,0.9,0.1,1.3c0.5,0.8,1.9,1.1,3.5,1.4c1.3,0.2,2.7,0.5,3.5,1.1c1.6,1.3,1.6,3.8,1.5,5.7
			l0,0.4c0,0.9,0,1.9-0.1,2.8c0,1.9-0.1,3.8-0.1,5.7c0,0.6,0,1.1-0.2,1.6c-0.3,0.6-0.9,0.9-1.8,1.1c-1.8,0.4-3.7,0.6-5.5,0.8
			c-4.5,0.4-9.5,0.2-15.7-0.6c-2.8-0.4-5.5-0.8-7.9-1.2c-0.1,0-0.6-0.1-1.2-0.2c-2-0.4-3.3-0.7-4.3-0.9c2.2-0.2,5.9-0.2,8.7-0.2
			c7,0,8.8-0.1,9.1-0.7c0.1-0.2,0.1-0.4-0.1-0.5c-0.8-1.1-8.2-1.7-19.9-2.5c-1.7-0.1-3-0.2-3.4-0.2c-1.3-0.2-2.1-0.6-2.4-1.4
			c0-0.1,0.4-0.6,4.5-0.9c0.1,0,0.2,0,0.3,0c1.9-0.2,3.9-0.2,5.8-0.2c0.4,0,0.7,0,1.1,0l1.2,0c2.8,0,5.7-0.1,8.5-0.2
			c0.1,0,0.3,0,0.5,0c2.7,0,4.5-0.2,4.8-1.1c0.1-0.2,0-0.3-0.1-0.5c-0.6-0.9-5.7-1.2-17-1.6c-3.4-0.1-7.5-0.3-10.9-0.5
			c0-0.1,0-0.3-0.2-0.5c-0.3-0.4-0.6-0.8-1-1.1c1.4-0.1,2.8-0.2,4-0.2c7.2-0.3,10.4-0.6,10.5-2c0.1-1.3-2.5-1.5-5.8-1.7
			c-1.9-0.1-5-0.3-5.2-0.9c-0.1-0.2,0-0.2,0-0.3c0.2-0.3,0.9-0.7,3.3-0.8c1.3-0.1,3.3,0.2,5.4,0.5c4.8,0.7,10.2,1.4,11.1-1.7
			c0.1-0.5,0-1-0.3-1.4c-1.3-1.6-6.4-1.2-11.5-0.7c-0.8,0.1-1.4,0.1-1.9,0.2c-3.5,0.2-12.3-1.1-12.7-4c0,0,0,0,0,0
			c3.4-0.2,5.5-0.6,5.7-1.7c2.1-0.1,4.6,0,6.9,0.1c6,0.2,11.6,0.3,13.2-1.3c0.3-0.3,0.5-0.8,0.4-1.2c-0.1-0.7-0.9-1.6-6.4-1.8
			c-3.3-0.1-6.7,0-7.1,0.1c-1.1,0.1-2.3,0.2-3.3,0.4c-1.3,0.2-2.7,0.4-4.1,0.4c-0.8,0-1.7-0.3-2.1-0.7c-0.1-0.2-0.2-0.4-0.1-0.6
			c0.2-0.6,1.1-1.1,1.9-1.4c1.1-0.3,2.2-0.3,3.4-0.3c0.4,0,0.8,0,1.2,0c0.7,0,1.4,0,2.1-0.1c2.6-0.1,5.4-0.2,8-0.4
			c0.1,0,0.2,0,0.4,0c2.9-0.2,5.5-0.5,5.5-1.9c0-0.7-0.8-0.8-8.1-0.9c-6,0-15.2-0.1-16.5-1.5c-0.1-0.1-0.1-0.2-0.1-0.3
			c0.3-3.1,9.8-2.3,17.4-1.7c8.4,0.7,13.5,1,13.9-1.2c0.1-0.4,0-0.7-0.3-1c-1.2-1.4-5.8-1.3-13.1-1.1c-7.3,0.2-16.4,0.4-17.1-2.1
			c-0.2-1-0.1-1.9,0.4-2.6c1.9-2.5,8.3-2.8,14-3.1c5-0.2,9.4-0.4,10.8-2c0.3-0.4,0.5-0.9,0.5-1.4c-0.2-2.5-6.1-2.9-13-3.2
			c-5-0.3-10.8-0.6-12-2c-0.2-0.2-0.2-0.4-0.2-0.6c0,0,0.1-0.3,1.6-0.4c1.1-0.1,2.6,0,4,0c3.1,0.1,4.9,0.1,5.4-0.5
			c0.1-0.2,0.2-0.4,0.1-0.7c-0.5-1.4-3.2-1.6-6-1.7c-2.2-0.1-5-0.2-5-1.2c-0.1-1.9,3.9-2.6,7.8-3.3c4-0.7,7.9-1.4,8.7-3.5
			c0.1-0.2,0.1-0.5,0-0.7c-0.4-0.6-2-0.7-4.9-0.8c-0.2,0-0.4,0-0.6,0c0,0,0,0,0,0c0-0.3-0.1-0.6-0.3-0.9c-0.7-0.7-2.6-0.5-5.5,0
			c0,0-0.1-0.1-0.1-0.1c-0.1-0.1-0.1-0.2-0.1-0.3c0,0,0.1-0.4,2-0.7c1.3-0.2,3-0.3,4.6-0.5c3.4-0.3,4.6-0.4,4.9-0.9
			c0.1-0.2,0.1-0.4,0-0.6c-1.3-2.2-4.3-3.1-7.7-3.5c0,0,0,0,0-0.1c0.1-0.6-0.5-0.9-2.5-1.2c-1.4-0.2-3.2-0.5-5.2-0.7
			c-0.8-0.1-1.5-0.2-2.3-0.3c7.3-0.9,14.6-1.9,14.4-5.7c-0.1-1-1.5-1.4-4.1-1.6c0.4-0.3,0.7-0.6,0.9-1c0.2-0.4,0.1-0.7,0-0.8
			c-0.5-0.7-2.2-0.6-6.5-0.2c-1.1,0.1-2.3,0.2-3.5,0.3c-0.1-0.1-0.1-0.2-0.1-0.3c0-0.7,2.7-1.2,4.5-1.5c2.4-0.5,4.4-0.9,5-1.8
			c0.2-0.3,0.2-0.5,0.1-0.8c-0.3-1.1-2.3-1.7-4.7-2.5c-0.9-0.3-2.1-0.6-3-1c0.2-0.2,0.2-0.4,0.2-0.7c0-0.2-0.1-0.3-0.2-0.5
			c0.8-0.1,1.7-0.2,2.3-0.3c2-0.2,3.1-0.3,3.5-0.9c0.1-0.2,0.1-0.4,0.1-0.6c-0.3-0.8-1.6-0.9-2.9-1.1c-0.7-0.1-1.7-0.2-1.9-0.4
			c0.3-1,2-2.2,3.7-2.8c1.4,1.1,2.7,1.8,3.5,1.6c0.3-0.1,0.9-0.3,0.6-1.5c-0.1-0.5-0.5-1.2-2-1.3c-0.6,0-1.3,0.1-2,0.3
			c-1.5-1.2-3-2.9-3.4-4.2l-0.1-0.4c-0.7-2.3-1.2-4.3-1.6-6c0.8-3,1.3-6,0.8-7.6c-0.3-0.9-0.8-1.2-1.3-1.2c-0.4,0-0.7,0.1-0.9,0.4
			c-0.9,1.1-0.4,4.5,0.6,8.4c-1.5,5.6-4.4,12.3-6.8,14.2c-0.3,0.2-0.3,0.5-0.3,0.6c0.1,0.6,1.1,0.9,3.3,1.5c0.9,0.2,2.3,0.6,3.3,1
			c-0.1,0.1-0.2,0.3-0.3,0.4c-0.1,0.3,0,0.6,0.2,0.9c-0.5,0.1-1,0.1-1.5,0.2c-1.2,0.1-2.3,0.2-2.7,0.8c-0.1,0.2-0.2,0.4-0.1,0.8
			c0.3,0.9,1.7,1,3.4,1.2c0.8,0.1,2.2,0.2,2.3,0.4c-0.2,1-2.5,1.5-4.3,2c-1.8,0.4-3.3,0.8-3.6,1.6c-0.1,0.2-0.1,0.6,0.2,1
			c0.7,0.9,2.6,1,5.5,0.9c1.1,0.9,3.7,1.2,6.5,1.4c-2.1,0.6-4.7,1.1-7.2,1.5c-4.8,0.7-8.9,1.4-9.1,3.4c-0.1,0.8,1,1.4,3.4,1.9
			c-2.8,0.4-5,1-5.7,1.9c-0.2,0.3-0.3,0.6-0.3,1c0.2,1.4,2.9,1.3,7.5,0.9c0,1,1.9,1.5,4.6,2.1c1.3,0.3,3.7,0.9,4.1,1.4
			c-0.5,0.2-2.4,0.2-3.6,0.1c-2.5-0.1-4-0.1-4.5,0.5c-0.1,0.1-0.2,0.3-0.2,0.5c0.1,0.6,0.3,1.1,0.8,1.5c1.6,1.2,5.3,0.6,8.8,0
			c0.1,0,0.3,0,0.4-0.1c0.9,0.5,2.5,0.7,4.3,0.8c-1.7,0.6-5.7,0.5-9.1,0.4c-5.2-0.2-9.7-0.4-10.2,1.5c-0.2,0.7,0.8,1.4,2.5,2.6
			c0.8,0.5,2.1,1.4,2.2,1.8c-0.1,0.7-2.5,0.7-4.1,0.7c-2,0-3.6,0-4.2,0.7c-0.2,0.2-0.3,0.5-0.2,0.8c0.2,1.3,2.4,1.4,4.7,1.6
			c1.4,0.1,3.2,0.2,3.6,0.6c0,0,0,0.1,0,0.1c-0.4,2.3-5.7,2-10,1.7c-3.5-0.2-5.7-0.3-6.5,0.4c-0.2,0.2-0.3,0.4-0.3,0.7
			c0,1.6,4.7,1.9,16.4,2.1c7.5,0.1,16.9,0.3,18.1,1.7c0.1,0.1,0.1,0.1,0.1,0.2c0,0.1-0.5,0.5-4,0.5c-2.4,0-5.4-0.1-8.7-0.3
			c-8.8-0.4-14.7-0.6-15.8,0.8c-0.2,0.3-0.3,0.6-0.2,0.9c0.2,1,2.4,1.3,7.4,1.6c2.1,0.1,5.8,0.4,6.8,0.9c-1.2,0.2-5.3,0.3-9,0.3
			c-8.4,0.1-14,0.2-14.8,1.2c-0.2,0.2-0.2,0.4-0.2,0.5c0.1,0.8,1.9,1.2,11.4,2.3c4.1,0.5,9.3,1.1,9.9,1.6c0.2,0.5,0.2,0.9,0,1.4
			c-0.8,1.5-4.4,2.6-7.5,2.9c-1.9,0.2-4.4,0-6.9-0.1c-4.3-0.3-8.4-0.6-10,0.8c-0.4,0.4-0.7,0.9-0.7,1.4c0,0.4,0.1,0.7,0.4,1
			c1.3,1.4,6,1.4,11,1.5c2.7,0,5.5,0,7.6,0.3c1,0.1,2,0.3,2.6,1c0.1,0.1,0.1,0.1,0.1,0.1c-0.1,0.4-2.1,0.8-3.2,1.1
			c-2.6,0.6-5.3,1.1-5.2,2.8c0.1,1,2.4,1.4,10.2,2.1c2.6,0.2,6,0.6,8,0.9c-1.9,0.2-3.3,0.5-3.9,1.3c-0.1,0.1-0.2,0.2-0.2,0.3
			c-1.6,0.1-3.3,0.1-5,0c-5.7,0-7.6,0.1-7.7,1.1c-0.1,1.3,2.4,1.6,5.5,1.9c2.1,0.2,4.7,0.5,5.3,1.2c0.1,0.1,0.1,0.1,0.1,0.2
			c-0.2,2.1-9,2.1-15.4,2.1c-7.5,0-11.4,0.1-11.4,1.7c0,1.5,2.9,1.6,9.3,1.8c6.9,0.2,15.8,0.4,20.8,3.3c-1.9,0.2-3.1,0.5-3.5,1
			c-0.1,0.2-0.2,0.4-0.1,0.7c0.1,0.5,1.3,0.9,4.1,1.2c-0.6,0.1-1.5,0.2-2.6,0.3c-2.8,0.3-6.3,0.5-10.1,0.7
			c-12,0.7-19.3,1.2-19.4,3.3c0,0.6,0.5,1.3,7.7,2.4c4.3,0.7,9.8,1.3,14.2,1.8c3.4,0.4,6.6,0.8,7.9,1c-2.7,1.6-15.8,3.6-28.9,4.2
			c1.3-1,1.7-2.3,1.3-3.7c-0.3-1.2-1.5-1.9-2.4-2.1c-0.7-0.2-1.5-0.2-2.3-0.2c-1.1,0-2.2,0.1-3.4,0.2c-0.8,0.1-1.5,0.2-2.1,0.2
			l-8.2,0.4c-5.3,0.3-10.9,0.5-16.1-0.8c-1.2-0.3-2.7-0.8-3.3-2c-0.9-1.6,0.3-3.8,1.9-4.9c1.1-0.7,2.4-1.1,3.8-1.5
			c0.7-0.2,1.4-0.4,2-0.6c1.2-0.4,4.1-1.8,4.6-4.5c0.1-0.9-0.1-1.6-0.8-2c-0.5-0.3-1-0.4-1.5-0.5c-4.2-0.9-15.5-3.1-17.7-7.2
			c-0.4-0.8-0.5-1.6-0.2-2.4c0.2-0.5,1.1-0.5,1.9-0.5c0.2,0,0.4,0,0.6,0c0.3,0,0.7,0,1,0c1.1,0,2.3,0,3.4-0.5
			c0.3-0.1,0.7-0.3,0.8-0.7c0.1-0.3,0.1-0.5,0-0.8c-0.2-0.4-0.7-0.7-1.1-0.8c-1.2-0.4-2.3-0.2-3.5-0.1c-1,0.1-2,0.3-2.9,0.1
			c-0.3-0.1-0.6-0.2-0.7-0.3c-0.2-0.2-0.3-0.4-0.3-0.6c0-0.7,0.5-1.5,1-2c0.7-0.7,2.2-2.1,1.5-3.6c-0.1-0.3-0.3-0.5-0.5-0.7
			c-0.3-0.4-0.5-0.7-0.4-0.9c0.1-0.1,0.2-0.3,0.4-0.4c0.5-0.4,1.1-0.6,1.7-0.9c0.8-0.4,1.6-0.8,2.3-1.5c0.2-0.1,0.7-0.6,0.6-1.2
			c-0.1-0.5-0.5-0.9-1.3-1.1c-1.3-0.3-2.6-0.3-3.9-0.2c-1,0-2.1,0-3.1-0.1c-0.2,0-0.3,0-0.4-0.1c-0.1-0.1-0.1-0.1-0.1-0.2
			c0-0.3,0.4-0.8,0.8-1c1.2-0.6,2.4-0.6,3.8-0.7c1.1-0.1,2.2-0.1,3.2-0.5c0.5-0.1,1.1-0.5,1.3-1c0.1-0.3,0.2-0.6,0.1-0.9
			c-0.2-0.7-1-0.9-1.3-1c-1.4-0.4-2.8-0.4-4.2-0.5c-1.7-0.1-3.2-0.1-4.7-0.7c0.4-0.4,0.6-0.8,0.6-1.2c0-0.2-0.1-0.4-0.2-0.6
			c0.3-0.1,0.6-0.1,0.9-0.1c1.8-0.2,3.6-0.4,5.3-0.8c1.2-0.2,1.4-0.8,1.4-1.2c0-0.6-0.5-1.1-1.4-1.2l-3.1-0.6
			c-0.6-0.1-1.1-0.3-1.4-0.6c-0.2-0.3-0.3-0.6-0.2-1c0.2-0.7,0.8-1.4,1.5-1.7c0.6-0.2,1.3-0.3,2-0.4c0.7-0.1,1.5-0.2,2.2-0.4
			c1-0.3,1.8-1.2,2-2.2c0.2-0.7,0-1.3-0.4-1.7c-0.7-0.8-1.9-0.8-2.9-0.7l-0.1,0c-0.6,0-1.2,0-1.7,0c0.8-0.4,1.3-0.9,1.3-1.6
			c0.1-0.4-0.1-0.9-0.4-1.2c-0.2-0.3-0.5-0.5-0.9-0.7c0.6-0.1,1.2-0.3,1.8-0.6c0.4-0.2,0.9-0.6,1.1-1.1c0.1-0.3,0-0.6-0.1-0.8
			c-0.2-0.2-0.4-0.4-0.6-0.5c-0.4-0.2-0.9-0.4-1.4-0.5c-0.3-0.1-0.5-0.1-0.8-0.2c0.2-0.1,0.4-0.2,0.5-0.5c0.1-0.2,0.1-0.4,0-0.6
			c-0.1-0.1-0.2-0.2-0.3-0.3c0.1,0,0.1,0,0.2,0c0.9-0.2,2-0.5,1.9-1.5c-0.2-1.2-1.7-1.3-3.2-1.2l-0.2-0.2c-0.3-0.3-0.8-0.6-1.2-0.9
			c0.6-0.2,1.2-0.5,1.3-1.2c0-0.1,0-0.2,0-0.3c0-0.2,0-0.4,0.1-0.6c0.1-0.2,1-0.3,1.4-0.3c1-0.1,2-0.3,2-1c0.2-2.3-1.1-4-2.3-5.7
			c-0.6-0.9-1.3-1.8-1.8-2.7c-0.2-0.5-0.6-0.8-1-0.7c-0.2,0-0.6,0.2-0.7,1c-0.1,0.4-0.1,0.9-0.1,1.3c-0.1,1.1-0.2,2.1-0.5,3.1
			c-0.3,1-1.1,1.5-1.9,2.2c-0.3,0.2-0.6,0.5-1,0.8c-0.4,0.3-0.5,0.7-0.5,1.1c0.1,1,1.5,1.9,3.2,2.8c0,0,0,0,0,0
			c-0.3,0.2-0.5,0.5-0.5,0.9c0,0.2,0,0.4,0.1,0.5c-0.3,0.1-0.6,0.2-0.7,0.4c-0.1,0.2-0.3,0.4-0.2,0.8c0.1,0.9,1.6,1.2,3.2,1.6
			c0.2,0,0.5,0.1,0.8,0.2c-0.1,0.1-0.1,0.2-0.1,0.4c-0.5-0.1-0.9-0.3-1.3-0.4c-1.7-0.5-3.3-1-3.8,0c-0.2,0.4-0.2,0.7,0,1
			c0.4,0.7,1.6,0.8,2.9,0.9c1,0.1,2.1,0.2,2.7,0.6c0.1,0.1,0.2,0.1,0.2,0.1c-0.1,0-0.2,0.1-0.4,0.1l-2.2,0.1c-0.8,0-1.3,0.4-1.4,0.9
			c0,0.4,0.1,0.7,0.5,1c0.2,0.1,0.3,0.2,0.5,0.3c-0.8,0.3-1.2,0.8-1.3,1.4c-0.1,0.6,0.3,1.2,1,1.6c-0.1,0-0.1,0-0.2,0
			c-1.2-0.1-2.5-0.1-3.8,0.2c-0.2,0.1-0.5,0.2-0.7,0.4c-0.5,0.5-0.3,1.3,0.1,1.7c0.4,0.4,1,0.5,1.4,0.6c1.6,0.2,3.1,0,4.6-0.2
			c0.9-0.1,1.9-0.3,2.8-0.3c0.5,0,1,0.1,1.2,0.3c0.1,0.1,0.1,0.2,0.1,0.3c0,0.3-0.5,0.5-0.9,0.6c-1.1,0.2-2.2,0.1-3.3,0
			c-0.4,0-0.8-0.1-1.3-0.1c-0.2,0-0.3,0-0.5,0c-1.9-0.1-3.4-0.2-4.1,0.5c-0.2,0.2-0.3,0.5-0.2,1c0.2,1.1,1.6,1.2,2.9,1.4
			c0.6,0.1,1.2,0.1,1.7,0.3c0.4,0.1,0.4,0.3,0.4,0.3c0,0,0,0.1-0.1,0.2c-0.8,1-2.2,1.1-3.8,1.1c-0.5,0-1,0-1.4,0.1
			c-0.7,0.1-1.2,0.4-1.3,0.9c-0.2,0.6,0.4,1.2,1,1.4c1.1,0.4,2.2,0.4,3.3,0.3c0.9,0,1.8-0.1,2.6,0.1c0.2,0.1,0.3,0.1,0.4,0.2
			c0,0,0,0.1,0,0.1c-0.1,0.2-0.6,0.4-1,0.3l-4.8-0.1c-0.4,0-0.9,0.1-1.2,0.4c-0.2,0.2-0.2,0.4-0.2,0.6c0.1,0.5,0.5,0.8,1.2,0.8
			c1.2,0,2.4,0,3.5-0.1c0.1,0,0.2,0,0.3,0c-0.3,0.4-0.4,1-0.2,1.5c0,0,0,0.1,0,0.1c-0.8,0.3-1.8,0.2-2.8,0.2c-1.2,0-2.5-0.1-3.6,0.4
			c-0.5,0.2-0.9,0.7-1,1.1c-0.1,0.3-0.1,0.6,0.1,0.9c0.2,0.3,0.5,0.5,0.8,0.6c1.1,0.4,2.3,0.3,3.4,0.1c1-0.1,2-0.3,2.9,0
			c0.3,0.1,0.7,0.5,0.8,0.7c0,0.1,0,0.2-0.1,0.2c-0.1,0.1-0.2,0.1-0.4,0.1l-2.7,0.5c-0.3,0.1-0.7,0.1-1,0.4
			c-0.3,0.3-0.4,0.7-0.4,1.1c0.1,0.6,0.5,1.3,1.1,1.6c0.3,0.1,0.5,0.3,0.8,0.4c0.5,0.2,1,0.4,1.3,0.8c0,0,0,0,0,0.1c0,0,0,0-0.1,0
			c-0.9,0.5-2,0.4-3.2,0.3c-0.8-0.1-1.7-0.1-2.5,0c-0.3,0.1-0.6,0.1-0.9,0.4c-0.2,0.2-0.3,0.5-0.2,0.9c0.1,0.5,0.7,1,1.1,1.1
			c1,0.4,2.1,0.4,3.1,0.4c1.3,0,2.5,0,3.4,0.7c0.9,0.6,1.3,1.8,1.5,2.7c0.5,1.6,0.6,3.3,0.6,5c-0.1,1.4-0.4,4-2,5.3
			c-1.7,1.4-4.3,1.9-6.1,2.1c-6.1,0.8-11.9,0.6-17.1-0.7c-1.3-0.3-2.6-0.7-3.9-1.1c-2.9-0.8-5.9-1.7-9-1.9c-2-0.1-5.4,0.7-9,1.4
			c-4.9,1.1-10.5,2.3-11.9,1.2c-0.2-0.2-0.3-0.4-0.3-0.7c0-1.5,4.8-3,9.5-4.3c6.7-2,14.3-4.2,13.9-8.3c-0.1-0.9-0.5-1.5-1.1-1.9
			c-2.6-1.4-9.1,1.9-16.1,5.4c-7,3.5-14.9,7.5-16.9,5.3c-0.5-0.6-0.7-1.2-0.5-1.8c0.6-1.8,4.6-3.5,8.1-4.2c4.5-0.9,8.7-3.9,8.1-7.8
			c-0.6-3.4-4.2-4.8-7.4-6c-0.7-0.3-1.3-0.5-2-0.8c-0.4-0.2-0.9-0.4-1-0.8c-0.3-0.6,0.2-1.1,1.3-2c0.9-0.7,2-1.6,1.9-2.8l0-0.2
			l-0.1-0.1c-1.4-1-3.3-2.6-2.9-4.4c0.4-2.1,3.4-2.6,5.7-2.9l0.1,0c1.6-0.2,3.8-1.4,4.5-2.9c0.4-0.8,0.3-1.6-0.1-2.3
			c-0.4-0.6-0.9-1-1.4-1.3c-0.5-0.4-1-0.7-1.3-1.2c-0.7-1.6,1.7-3.2,2.5-3.6l6.6-3.8c1.3-0.8,2.9-1.9,2.8-3.5c0-1.1-0.8-2.5-4.1-3.3
			l-9.8-2.3l-0.2,0.2c-1.1,1.3-1.3,3.2-1.4,4.9c-0.1,1.9-0.2,3.6-1.5,4.7c-0.7,0.6-1.7,0.8-2.7,1.1l-0.4,0.1
			c-5.8,1.4-11.2,5-14.8,9.9l0,0.1c-0.7,0.9-1.4,1.9-2.3,2c-1.4,0.2-2.2-1.3-3.1-2.7c-0.2-0.3-0.4-0.6-0.6-0.9
			c-2.1-3.2-6.3-4.7-12.5-4.6c-1.5,0-3.4-0.4-4.1-1.3c-0.3-0.3-0.3-0.7-0.2-1.1c0.2-0.7,0.9-1.1,1.7-1.5c0.7-0.4,1.5-0.8,1.9-1.6
			c0.8-1.3,0.2-2.8-0.3-4.2c-0.5-1.3-0.9-2.5-0.3-3.4c1.6-0.9,3.4-0.2,5.4,0.5c1.7,0.6,3.5,1.3,5.3,0.9c6.2-1.3,15-8.1,13.9-14.3
			c-0.1-0.5-0.3-0.8-0.7-1.1c-1-0.7-2.6-0.3-4.1,0c-0.6,0.1-1.3,0.3-1.6,0.3c0.2-1.1,1.7-1.7,3.2-2.2c1.7-0.6,3.6-1.3,3.4-3.1
			c0-0.3-0.2-0.5-0.4-0.6c-0.6-0.4-1.7-0.3-3.1-0.1c-1.2,0.2-2.6,0.4-3.1,0c-0.1-0.1-0.2-0.2-0.2-0.4c-0.1-0.7,1.2-0.9,3-1.1
			c1.9-0.2,3.9-0.5,4.1-1.9c0.1-0.4-0.1-0.6-0.2-0.7c-0.5-0.5-1.4-0.3-2.5-0.2c-0.9,0.1-2,0.3-2.4,0c0,0-0.1-0.1-0.1-0.3
			c0.1-1.5,1.1-2,2.2-2.7c0.7-0.4,1.4-0.8,1.9-1.4c0.1-0.1,0.1-0.3,0.1-0.4c-0.1-0.3-0.5-0.4-1.4-0.6c-0.9-0.2-2.8-0.5-2.8-1.2
			c0.2-0.3,2.1-0.5,2.8-0.6c1.1-0.1,1.6-0.2,1.8-0.4c0.1-0.1,0.1-0.2,0.1-0.4c-0.5-3-2-3.2-3.1-3.3c-0.7-0.1-0.9-0.1-0.9-0.6
			c0-0.6,1.7-1,2.7-1.2c1.3-0.3,2.1-0.5,2.2-1.1c0-0.4,0-0.7,0.1-1c0.1-1.1,0.1-2.1,0.4-2.4c0,0,0.2-0.1,0.5,0
			c0.2,0.1,0.3,1.3,0.3,2c0.1,0.7,0.1,1.5,0.2,2.3c0.1,0.5,0.7,0.7,2.1,1.2c0.6,0.2,1.6,0.5,1.8,0.7c-0.1,0.2-0.8,0.4-1.2,0.5
			c-1.1,0.4-2.6,0.9-2.6,2.3c0,1.5,1.5,1.8,2.5,2c0.2,0.1,0.6,0.1,0.7,0.2c-0.1,0.2-0.8,0.5-1.1,0.7c-1,0.5-2.3,1.2-2.3,2.4
			c0,1.5,1.5,2.3,2.7,3.1c0.8,0.5,1.7,1,1.7,1.5c0,1.4-0.7,1.5-1.7,1.8c-0.9,0.2-2,0.5-2.4,1.8c-0.5,1.8,1.2,3.5,4.3,4.4
			c3.1,0.9,6.8,0.6,7.4-1.6c0.3-1.2-1-1.8-2.2-2.3c-1.3-0.5-2.8-1.2-3.3-2.5c-0.5-1.4-0.3-2.7,0.2-4c0.8,0.3,1.7,0.4,2.4,0.5
			c0.1,0,0.2,0,0.4,0.1c0.7,0.1,1.4,0.2,2.1,0.3c1.3,0.2,2.6,0.3,3.8,0.6c0.8,0.2,1.6,0.4,2.3,0.7c1.2,0.4,2.5,0.7,3.7,0.9
			c0.7,0.1,1.4,0.2,2.2,0c0.8-0.2,1.4-0.7,1.8-1.4c0.4-0.8,0.4-1.9,0-2.8c-0.4-0.9-1-1.7-1.7-2.4c2.6-1.4,4.3-3.8,4.7-6.4
			c0.5,0,0.9,0,1.4-0.1c0.8-0.1,2-0.4,2.4-1.1c0.2-0.3,0.3-0.6,0.2-1c-0.1-0.9-1.1-1.5-1.7-1.9l-0.1,0c-0.7-0.5-1.5-0.9-2.4-1.3
			c0-0.2,0-0.5,0.1-0.7c0.6-3.5,3.9-5.9,7.1-7.7c7.2-4.3,14.6-8.5,21.9-12.5c2.1-1.1,4.4-2.4,5.6-4.6c0.6-1.1,0.9-2.2,1.2-3.4
			c0.1-0.3,0.1-0.6,0.2-0.9c1.9-7.2,7.5-13.6,14.9-16.9c0.9-0.4,1.9-0.8,2.9-1.2c2.4-0.9,4.8-1.9,6.8-3.5c2.9-2.4,4.8-6.7,2.7-10
			c-0.1-0.1-0.1-0.2-0.2-0.3c-0.3-0.4-0.5-0.8-0.6-1.2c0-0.7,0.6-1.2,1.3-1.7c1.4-1,2.9-2,4.3-2.9c5-3.3,10.1-6.8,14.4-11
			c4.9-4.9,12.8-8.1,19.2-10.3c0.8-0.3,1.6-0.5,2.3-0.4c0.9,0.1,1.7,0.6,2.4,1.1c3.7,2.4,7.5,4.9,10.3,8.4c0.3,0.4,0.7,0.8,1,1.2
			c1.6,2.1,3.3,4.2,5.9,4.7c0.5,0.1,0.9,0.1,1.4,0.1c0.6,0,1.1,0.1,1.6,0.2c1.3,0.4,2.3,1.4,3.3,2.5c0.5,0.5,1,1.1,1.5,1.5
			c2.8,2.5,6.7,2.9,10.5,3.2c0.4,0,0.7,0.1,1.1,0.1c2.9,0.3,14.5,2.7,19.6,5.4l-2.5,3.6c-0.1,0.1-0.1,0.2-0.2,0.3
			c-3.7-2.2-10.9-2.5-17.4-1.6c-3.8,0.5-8.1,1.6-10.5,3.1c-1.1,0.1-1.9,0.2-2.3,0.3c-1.2,0.4-2.4,1.3-2.2,2.5c0.3,1.3,2,1.6,2.5,1.7
			c0.3,0,0.5,0.1,0.8,0.1c1,0.9,2.8,1.4,4.5,1.8c2,0.5,4,1.1,5,2.3c0.2,0.3,0.2,0.5,0.1,0.6c-0.4,1.1-4.7,2.1-8.9,3
			c-7.2,1.6-15.3,3.3-15.2,7.6c-3.5,0.6-6.8,1.7-9.2,3.3c-3,1.9-4.5,4.2-4.2,6.7c0.2,2,1.4,3.5,3.7,4.4c0,0.4,0,0.8,0,1.2
			c0.5,4,10.1,3,15.3,2.4c1.1-0.1,1.9-0.2,2.3-0.2c3.3,0,4.5,2.3,6,4.9c1.4,2.5,2.8,5,6.2,5.7c1.1,0.2,2.1,0,2.9-0.5
			c2.2-1.7,2.6-6.2,3.1-10.9c0.3-2.9,0.5-6,1.3-8.1c0.4-1,0.7-2.1,1.5-2.9c1.7-2,4.8-1.9,6.5-1.6c0.8,0.1,1.5,0.3,2.3,0.4
			c1.6,0.3,3.3,0.7,5.1,0.5c1-0.1,1.6-0.4,2.1-0.9c0.4-0.5,0.5-1,0.6-1.6c0.1-0.9,0.2-1.9,0.4-2.8c0.4-4,0.9-8.2,3.9-10.5
			c2.8-2.2,6.6-1.9,10.3-1.6l0.6,0c2.5,0.2,10.2,0,11.3-2.2c0.2-0.4,0.3-1-0.4-1.8c-0.6-0.7-1.4-1-2.1-1.3c-0.7-0.3-1.4-0.5-1.9-1.2
			c-0.7-1-2-2.2-3.2-2.2c-0.6,0-1.2,0.2-1.6,0.7c-0.3,0.3-0.4,0.6-0.5,1c-0.1,0.2-0.2,0.4-0.3,0.6c-0.5,0.8-1.5,1.1-2.5,1.3
			c-3.7,0.8-7.4,1.4-11.1,1.9c-1.2,0.2-2.1,0.2-2.9,0c0.1-0.1,0.2-0.1,0.2-0.2c0.7-0.8,0.9-1.8,0.7-3c-0.2-0.8-0.6-1.5-1.2-2
			c2.7-0.5,4.3-1.2,4.5-2.3c0.1-0.5,0-1-0.4-1.5c-0.3-0.4-0.9-0.9-1.5-1.3l5.1-7.5c0.6-0.9,1.3-1.9,2.2-2.5c1-0.6,2.1-0.8,3.4-1
			c1.2-0.2,2.5-0.4,3.5-1.1c0.2-0.1,0.5-0.3,0.7-0.5c0.6-0.5,1.2-0.9,1.9-0.8c0.5,0.1,1,0.4,1.5,1c-0.5,0.7-0.9,1.4-1.3,2.2
			c-0.6,1.1-1.1,2.2-1.9,2.9c-0.6,0.7-1.4,1.1-2.2,1.6c-0.8,0.5-1.7,1-2.4,1.8c-0.9,0.9-1.3,2.6-0.9,3.8c0.3,0.8,0.9,1.4,1.7,1.5
			c1.6,0.3,2.9-1.3,3.2-3c0.1-0.6,0.1-1.1,0.2-1.7c0.1-0.9,0.1-1.7,0.4-2.5c0.3-0.7,1.3-1.2,2.2-1.7c0.9-0.5,1.9-1,2.4-1.7
			c0.5-0.7,0.4-1.7-0.1-2.8c-0.1-0.2-0.2-0.4-0.3-0.5c0.6-0.7,1.3-1.1,2.2-1.1c0,0,0,0,0,0c2.4,0,3.6,3.4,3.9,4.5l0,0.1
			c0.6,2.2,1.4,4.9,3.7,5.8l0.4,0.1c0.7,0.3,1.3,0.5,2.1,0.7c1.7,0.4,3.4,1.1,4.8,2c-0.9,0.5-1.7,1.2-2.4,1.9
			c-0.6,0.6-1.4,1.2-2.2,1.7c-1.6,1.1-3.3,2.2-3,4.1c0.2,1.6,1.8,2.7,4.3,2.8c3.5,0.2,7.7-1.3,8.4-3.9c0.3-1,0.1-2.2-0.6-3.4
			c-0.6-1.1-1.6-2.1-2.8-3c1-0.3,2-0.2,2.8,0.4c0.3,0.2,0.6,0.5,0.9,0.8c0.4,0.4,0.8,0.8,1.3,1.1c1.8,1,3.6-0.1,5.4-1.1
			c1.4-0.8,2.8-1.7,4.3-1.5c0.9,0.1,1.7,0.7,2.4,1.2c1.3,0.8,4.4,2.6,7.3,4.4c1.9,1.1,4.1,2.4,5.7,3.3c-0.9,0.8-1.8,1.8-2.6,2.8
			c-0.6,0.1-1.1,0.3-1.7,0.4c-2.9,0.7-5.7,1.3-7,2.5c-1.8,1.7-3.7,3.6-6.2,4.4c-1.5,0.5-3,0.6-4.6,0.5l-3.1-2
			c-0.6-0.4-1.3-0.9-2.2-1c-1.1-0.1-2.1,0.5-3.1,1.1l-1.8,1.2c-3.1,0.4-6,1.8-8.7,3.2c-0.8,0.4-1.7,0.8-2.5,1.2
			c-1.3,0.6-2.6,1-3.9,1.4c-2.5,0.8-4.9,1.6-7,3.4c-2.1,1.7-4,4.7-3.2,7.6c0,0.1,0,0.1,0,0.2c-0.5,0.5-1,1.1-1,1.9
			c0,1.3,1.2,2.2,1.9,2.7c4.8,3.6,9,7.8,12.4,12.7c-0.5,1.2-1.2,2.3-1.8,3.3c-0.6,1-1.4,2.3-1.4,3.7c0.1,2.2,1.9,3.2,4,3.9
			c0,2.3,2.1,4.1,3.1,4.9c2.3,1.7,4.8,3,7.4,4.2c0.1,0.8,0.1,1.6-0.1,2.4c-0.1,0.7-0.4,1.5-0.6,2.2c-0.5,1.6-1,3.2-0.6,4.8
			c0.6,3,3.5,4.8,8.9,5.8c3.5,0.6,7.6,1.7,8.4,5c0.1,0.5,0.2,1.1,0.2,1.7c0.1,1.2,0.2,2.5,1.1,3.4c1.3,1.3,3.6-0.2,5.5-1.4
			c0.5-0.3,0.9-0.6,1.3-0.8c2.1-1.2,4.1-2,6-2.9c2.8-1.3,5.5-2.5,8.4-4.4c0.3-0.2,0.6-0.4,0.8-0.7c0.4-0.5,0.5-1.1,0.4-1.7
			c0-0.2-0.1-0.5-0.2-0.7c2.5-2,4-5.1,5.4-8.2c1-2.1,1.9-4.3,3.3-6c1.4-0.5,2.9-0.7,4.5-1c0.8-0.1,1.7-0.2,2.6-0.4
			c1.5-0.3,6.1-1.7,6.8-3.6c0.1-0.4,0.2-1-0.4-1.6c-0.7-0.8-2.1-1.1-3.3-1.3c-0.2,0-0.5-0.1-0.7-0.1c0,0,0-0.1,0.1-0.1
			c0.1-0.3,0.3-0.7,0.4-1c0.2-0.5,0.5-1.2,0.9-1.9c0.1-0.2,0.2-0.4,0.3-0.6c1.3-1,2.9-2,4.4-3c4.6-2.9,9.3-5.9,7.7-9
			c-0.4-0.7-0.8-1.2-1.2-1.6c0.1-0.2,0.3-0.5,0.4-0.8c0.2-0.3,0.3-0.7,0.4-1c0.4-1.1,0.8-2.2,1.8-2.7c0.7-0.3,1.5-0.3,2.4-0.2
			c0.5,0,0.9,0.1,1.4,0.1c1.1,0,2.2-0.4,3.2-0.8c1.4-0.5,2.6-1,3.9-0.6c0.5,0.2,0.9,0.4,1.1,0.8c0.5,1,0,2.6-0.5,4.3
			c-0.1,0.2-0.1,0.5-0.2,0.7c-0.3,0.9-0.2,1.6,0.3,2.1c0.4,0.5,1,0.8,1.8,0.9c-0.4,0.4-0.8,0.8-0.9,1.4c-0.2,1,0.6,1.9,2,2.5
			c2.1,0.9,4.4,1.5,6.8,1.7c0.8,0.6,1.7,1,2.7,1c0.9,0.1,1.9,0,2.8,0c1.5-0.1,2.9-0.2,4.2,0.3c0.6,0.2,0.9,0.5,1.1,0.8
			c0.4,1-1.1,2.1-1.6,2.4c-0.7,0.4-1.7,0.8-2.7,1.1c-2.1,0.7-4.4,1.4-4.2,3.5c0.1,0.8,0.4,1.4,1,1.8c1.5,1.1,4.5,0.4,7.6-0.3
			c3.8-0.9,7.7-1.7,8.7,0.7c0.1,0.4,0.1,0.7,0,0.9c-0.6,0.9-3.1,1-5.6,1.2c-2.9,0.2-5.9,0.3-7.1,1.7c-0.4,0.4-0.6,1-0.5,1.6
			c0,0.8,0.4,1.5,1,1.9c2.1,1.6,7.3,0.5,12.7-0.8c5-1.1,10.2-2.3,11.9-0.9c0.2,0.2,0.4,0.4,0.5,0.7c-0.6,0-1.2-0.1-1.7-0.1l-0.2,0
			c-7-0.2-14.5,1.4-20.7,4.2c-0.1,0-0.2,0.1-0.3,0.1c-1.3,0.6-3.7,1.6-3.6,3.3c0.2,2.4,5.1,2.4,7.9,2.3c7.9-0.5,19.2-4,19.4-8.9
			c0.9,0.1,1.7,0.3,2.5,0.8c2.1,1.2,1.7,4.2,1.2,5.9c-0.8,2.8-2.2,5.4-4.2,7.4c-6.1-2.2-13.6-4.1-22.3-5c-1-0.1-1.4,0.3-1.5,0.6
			c-0.5,1.3,2.3,3.5,3.2,4.2c0.8,0.6,1.8,1.2,2.9,1.8c-0.8,0.2-1.4,0.5-2.1,1c-0.9,0.7-1.1,1.4-1,1.9c0.2,1.7,2.8,3.1,3.8,3.5
			c3.9,1.5,8.2,1.1,12.1,0.7c2.3-0.2,4.6-0.4,7-0.5c0.5,0.2,0.9,0.5,1.4,0.7c6,3,11.1,5.6,13.6,4.7c0.6-0.2,1-0.6,1.3-1.2
			c0.1-0.4,0.1-0.8-0.3-1.4c-0.5-0.8-1.4-1.8-2.9-3c1.6,0,3.1,0.1,4.3,0.8c0.9,0.5,1.6,1.1,2.4,1.8c0.5,0.4,1,0.9,1.5,1.2
			c0.8,0.6,1.7,0.8,2.5,0.9c0.5,0.1,1.1,0.2,1.5,0.5c0.6,0.3,1,1,1.5,1.7c0.4,0.6,0.8,1.1,1.3,1.6c0.9,0.9,2,1.7,3.1,2.4
			c0.3,0.2,0.7,0.5,1,0.7c1.2,0.9,5.1,4,3.9,7.4c-0.1,0.2-0.2,0.4-0.2,0.6c-0.4,0.9-0.8,2-0.1,2.9c0.4,0.6,1.1,0.7,1.8,0.8
			c0.6,0.1,1.2,0.1,1.7,0.2c1.4,0.1,2.9,0.3,4.3,0.7c1.7,0.6,3.5,1.9,3.8,3.9C434.6,182,432.1,184.2,429.5,185.1z M335.5,203.7
			c-0.2,0-0.4,0-0.5-0.1c-1.7-0.2-2.8-0.3-2.9-1.3c0-0.2,0-0.2,0.1-0.2c0.1-0.1,0.4-0.2,0.7-0.2c0.5,0,1.2,0.1,1.7,0.2
			c1.7,0.2,3.5,0.5,4.1-0.6c0.2-0.3,0.2-0.6,0.1-0.8c-0.2-0.6-1-0.8-2-1.1c-0.9-0.3-2-0.6-2.2-1.1c0-0.1,0-0.1,0-0.1
			c0.1-0.2,1.1-0.2,1.6-0.2c1.3,0,2.7-0.1,3.1-1.1c0.1-0.2,0.1-0.4,0-0.5c-0.3-0.5-1.1-0.7-2.4-1c-0.6-0.1-1.5-0.4-1.7-0.5
			c0.3-0.5,1.2-0.9,2-1.3c1.2-0.5,2.5-1.1,2.5-2.3c0-0.3,0-0.7,0-1.2c-0.1-3.9,0-6.1,0.4-6.4c0,0,0,0,0,0c0.9,0.4,1.5,6.1,1.6,9.1
			c-0.1,0.1-0.6,0.2-0.9,0.2c-0.7,0.1-1.5,0.2-1.6,0.9c0,0.2,0,0.5,0.1,0.6c0.4,0.6,1.6,0.7,3.4,0.9c0.9,0.1,3.1,0.3,3.1,0.7
			c-0.2,0.3-2,0.4-2.9,0.4c-2,0.1-3.7,0.1-3.8,1.2c0,0.2,0.1,0.3,0.2,0.5c0.4,0.4,1.3,0.4,2.9,0.4c0.7,0,1.9,0,2.3,0.1
			c-0.5,0.2-2,0.4-2.9,0.5c-1.6,0.2-2.1,0.2-2.3,0.6c-0.1,0.1-0.1,0.3,0,0.4c0.3,0.5,1.5,0.7,4.1,1c1.1,0.1,2.8,0.3,3.3,0.5
			c-0.6,0.6-3.9,0.9-5.9,1.1C338.4,203.1,336.6,203.3,335.5,203.7z M337.3,205c-1-0.1-1.8-0.1-2.2-0.2c0.1-0.1,0.2-0.1,0.5-0.2
			C336.3,204.6,336.9,204.7,337.3,205z M175.3,207.8c-0.8-0.9-1.9-1.1-3.1-1.2c-2.1-0.3-4.9-0.3-7.7-0.3c-4.4,0-9.4-0.1-10.4-1.2
			c-0.1-0.1-0.2-0.3-0.2-0.5c0-0.4,0.2-0.7,0.4-0.9c1.4-1.2,5.4-0.9,9.4-0.6c2.5,0.2,5.1,0.3,7,0.1c2.5-0.3,7-1.2,8.2-3.3
			c0.4-0.7,0.4-1.4,0-2.1c-0.3-0.6-2.7-1-10.5-1.9c-4-0.5-9.4-1.1-10.6-1.6c1.4-0.7,9.3-0.8,14.1-0.8c7.4-0.1,9.4-0.2,9.9-0.6
			c0.1-0.1,0.1-0.2,0.1-0.4c-0.1-1.2-2.9-1.5-7.7-1.8c-2.4-0.2-6.4-0.4-6.7-1c0-0.1,0-0.1,0-0.2c1-1.2,8.9-0.8,15.2-0.5
			c9.4,0.5,13.3,0.5,13.5-0.9c0-0.3,0-0.6-0.2-0.8c-1.3-1.6-8.3-1.8-18.7-1.9c-4-0.1-7.9-0.1-10.8-0.3c-4.5-0.3-4.8-0.9-4.8-0.9
			c0-0.1,0-0.1,0.1-0.1c0.6-0.5,3.4-0.4,5.9-0.2c4.8,0.3,10.3,0.7,10.8-2.4c0-0.3,0-0.5-0.2-0.7c-0.6-0.7-2.2-0.8-4.2-0.9
			c-1.6-0.1-3.9-0.3-4-0.9c0-0.1,0-0.1,0-0.2c0.4-0.4,2.2-0.4,3.7-0.4c2.4,0,4.7,0,4.9-1.4c0.1-0.7-0.8-1.4-2.5-2.5
			c-0.8-0.5-2.1-1.4-2.2-1.8c0.4-1.2,5.4-1.1,9.5-0.9c4.9,0.2,9.2,0.3,10.4-1.1c0.3,0,0.6,0,0.9,0c1.6,0.1,3.9,0.1,4.3,0.4
			c-0.8,1.7-4.5,2.3-8.1,3c-4.4,0.8-8.5,1.5-8.4,4.1c0.1,1.7,2.8,1.8,5.8,1.9c2.2,0.1,4.9,0.2,5.3,1.1c-0.4,0.3-3.1,0.2-4.7,0.2
			c-3.9-0.1-6.2-0.1-6.4,1.1c0,0.4,0.1,0.9,0.4,1.2c1.4,1.7,6.8,2,12.5,2.3c5.4,0.3,12.1,0.7,12.2,2.5c0,0.3-0.1,0.6-0.3,0.8
			c-1.2,1.3-5.8,1.5-10.2,1.7c-6.2,0.3-12.5,0.6-14.6,3.4c-0.7,0.9-0.9,2-0.5,3.2c0.8,3.2,9.5,3,17.9,2.7c5.7-0.2,11.5-0.3,12.5,0.8
			c0.1,0.1,0.1,0.2,0.1,0.3c-0.3,1.6-7.3,1-13,0.5c-8.8-0.7-17.8-1.5-18.2,2.4c0,0.3,0.1,0.6,0.3,0.9c1.4,1.6,8.3,1.8,17.1,1.8
			c3,0,6.3,0,7.2,0.2c-0.2,0.3-1.1,0.7-4.7,1c-0.2,0-0.3,0-0.4,0c-2.7,0.2-5.4,0.3-8,0.4c-0.7,0-1.4,0-2.1,0.1c-0.4,0-0.8,0-1.2,0
			c-1.2,0-2.4,0-3.6,0.4c-0.2,0.1-2.1,0.7-2.4,1.9c-0.1,0.5-0.1,1,0.2,1.3c0.6,0.8,2,1,2.7,1c1.4,0,2.8-0.2,4.2-0.4
			c1.1-0.2,2.2-0.3,3.3-0.4c0.4,0,3.8-0.2,7-0.1c5.5,0.2,5.6,1.1,5.6,1.1c0,0.2,0,0.4-0.2,0.6c-1.3,1.4-7.3,1.2-12.6,1.1
			c-1.8-0.1-3.6-0.1-5.2-0.1c-0.7,0-1.3,0-1.9,0c-0.8-0.7-3.5-1-9.9-1.6c-3.6-0.3-8.9-0.8-9.5-1.4c0-0.9,2.6-1.5,4.6-1.9
			c2.3-0.5,3.6-0.8,3.8-1.6C175.6,208.5,175.6,208.2,175.3,207.8z M193.5,169.5c-1.2,0-2.4-0.1-3.4-0.3c1.6-0.2,3-0.3,3.3,0
			C193.5,169.3,193.5,169.4,193.5,169.5C193.5,169.5,193.5,169.5,193.5,169.5z M181.6,216.9c0.8-0.5,2.3-0.7,4.3-0.8
			c-0.3,0.2-1.1,0.6-3,0.7C182.5,216.8,182.1,216.8,181.6,216.9z M187.6,168.8c-3,0.5-6.7,1.1-8,0.1c-0.3-0.2-0.4-0.5-0.5-0.9
			c0.4-0.3,2.6-0.2,3.9-0.2c2.5,0.1,3.9,0.1,4.3-0.5c0.1-0.2,0.2-0.4,0.1-0.6c-0.2-0.9-1.9-1.4-4.7-2c-1.3-0.3-3.8-0.9-4-1.3
			c0,0,0.1-0.1,0.1-0.1c0.2,0,0.4,0,0.6-0.1c0.9-0.1,1.9-0.2,3-0.3c0.9,0,1.9,0,2.6,0c3.1,0,5.1,0.1,6.2-0.3c3.5,0.2,6.4,1,7.8,3
			c-0.6,0.2-2.6,0.4-4.1,0.5c-4.5,0.3-7.2,0.6-7.3,1.9C187.4,168.4,187.5,168.6,187.6,168.8z M191.1,153.2c2,0.2,4.4,0.5,4.4,1
			c0.2,3.2-7.9,4.1-14.4,4.9c-0.8,0.1-1.5,0.2-2.2,0.3c-0.6-0.1-1.2-0.2-1.8-0.3c-3.1-0.6-3.4-1.1-3.4-1.1c0.1-1.4,4.5-2.1,8.4-2.7
			C185.5,154.7,188.9,154.2,191.1,153.2z M190.1,152.3c-1.9-0.2-4.3-0.4-5.7-0.8c0.8-0.1,1.6-0.1,2.4-0.2c2.2-0.2,5.2-0.5,5.7-0.2
			c0,0,0,0,0,0c-0.3,0.5-0.8,0.9-1.5,1.3C190.7,152.4,190.4,152.3,190.1,152.3z M179,160.2c1.5,0.2,3.2,0.5,5.2,0.7
			c2.7,0.3,6.1,0.8,6.9,1.1c0,0,0,0,0,0c-2.8-0.2-5.9,0-8.8,0.3c-1.8,0-2.9,0.1-3.6,0.3c-3.3,0.3-7.4,0.7-7.5-0.1
			c0-0.1,0-0.3,0.1-0.4C172.1,161.2,175.3,160.7,179,160.2z M182.4,150.8c-2.1,0.1-3.9,0-4.4-0.6c-0.1-0.1-0.1-0.2-0.1-0.2
			c0.2-0.4,1.8-0.8,3-1.1c2.2-0.5,4.6-1.1,4.9-2.6c0.1-0.2,0-0.4-0.1-0.6c-0.4-0.5-1.3-0.6-2.9-0.8c-0.9-0.1-2.6-0.2-2.7-0.6
			c0-0.1,0-0.1,0-0.2c0.2-0.3,1.3-0.4,2.1-0.5c0.8-0.1,1.6-0.1,2.2-0.4c0.8,0.5,2.1,0.9,3.5,1.3c1.7,0.5,4,1.2,4.2,1.9
			c0,0.1,0,0.1,0,0.2c-0.4,0.6-2.7,1.1-4.5,1.4c-2.7,0.5-5.1,1-5.1,2.2C182.3,150.6,182.4,150.7,182.4,150.8z M185.9,130.3l0.1,0.4
			c0.4,1.3,1.8,3,3.3,4.3c-1.8,0.7-3.5,1.9-3.8,3.2c-0.1,0.2,0,0.4,0.1,0.6c0.3,0.5,1.2,0.6,2.5,0.8c0.7,0.1,2,0.3,2.3,0.5
			c-0.3,0.2-1.9,0.4-2.9,0.5c-1.2,0.1-2.2,0.2-2.9,0.4c-0.8-0.5-2.2-0.9-3.9-1.3c-1-0.3-2.2-0.6-2.7-0.8c2.1-1.8,4.4-6.7,5.8-10.7
			c0.3-0.8,0.5-1.6,0.8-2.5C185,127.2,185.4,128.8,185.9,130.3z M184.2,116.2c0.1-0.1,0.1-0.1,0.2-0.1c0,0,0,0,0,0
			c0.1,0,0.4,0,0.6,0.6c0.3,1.1,0.1,3.2-0.5,5.7C183.8,118.9,183.7,116.8,184.2,116.2z M184.4,141.8c0.1,0.1,0.2,0.2,0.2,0.3
			c0,0.1-0.1,0.2-0.2,0.3c-0.2-0.2-0.3-0.3-0.3-0.4C184.2,142,184.3,141.9,184.4,141.8z M191,135.3c0.4-0.1,0.8-0.1,1.1-0.1
			c0.7,0,1.1,0.2,1.2,0.7c0,0.1,0.1,0.5,0,0.5C192.9,136.5,192,136,191,135.3z M104.5,187.5c-0.2-0.4-0.6-0.5-0.8-0.6
			c-0.6-0.2-1.2-0.2-1.8-0.2c-0.4,0-0.7,0-1.1,0c-1.1,0.1-2,0.1-2.9-0.3c-0.3-0.1-0.5-0.3-0.5-0.5c0-0.1,0.3-0.2,0.6-0.3
			c0.4,0,0.9,0,1.4,0c1.7,0,3.4,0,4.4-1.4c0.1-0.2,0.3-0.4,0.3-0.7c0-0.7-0.7-0.9-1-1c-0.5-0.2-1.2-0.3-1.8-0.3
			c-1-0.1-2.1-0.3-2.2-0.8c0-0.2,0-0.3,0.1-0.3c0.4-0.5,2.4-0.4,3.4-0.3c0.2,0,0.4,0,0.5,0c0.4,0,0.8,0.1,1.2,0.1
			c1.1,0.1,2.3,0.2,3.5,0c0.7-0.1,1.5-0.5,1.6-1.3c0-0.3-0.1-0.6-0.3-0.9c-0.4-0.5-1.2-0.6-1.8-0.6c-1,0-1.9,0.2-2.9,0.3
			c-1.5,0.2-3,0.5-4.4,0.2c-0.3,0-0.7-0.1-1-0.4c-0.2-0.2-0.2-0.5-0.1-0.6c0.1-0.1,0.2-0.1,0.4-0.2c1.1-0.3,2.3-0.2,3.5-0.2
			c0.8,0,1.7,0.1,2.5,0c1.2,0.3,2.5,0.4,3.7,0.3l0.1,0c0.9,0,1.8-0.1,2.3,0.5c0.2,0.3,0.3,0.6,0.2,1c-0.2,0.7-0.8,1.4-1.5,1.6
			c-0.6,0.2-1.3,0.3-2,0.4c-0.7,0.1-1.5,0.2-2.2,0.4c-1,0.3-1.8,1.3-2,2.2c-0.2,0.7,0,1.3,0.4,1.7c0.5,0.6,1.3,0.7,1.9,0.8l3.1,0.6
			c0.4,0.1,0.8,0.2,0.8,0.4c0,0.2-0.4,0.3-0.7,0.4c-1.7,0.3-3.5,0.6-5.2,0.8c-0.1,0-0.3,0-0.4,0c0.3-0.1,0.7-0.3,0.8-0.6
			C104.7,188.1,104.7,187.8,104.5,187.5z M106.6,170.6c-0.8-0.5-1.9-0.6-3.1-0.7c-0.9-0.1-2.1-0.2-2.3-0.6c0-0.1,0-0.2,0-0.3
			c0-0.1,0.2-0.1,0.4-0.1c0.6,0,1.7,0.3,2.4,0.6c0.6,0.2,1.2,0.4,1.8,0.5c0.4,0.6,1.3,0.8,2,1c0.5,0.1,0.9,0.2,1.2,0.4
			c0.1,0.1,0.2,0.1,0.3,0.2c0,0,0,0.1,0,0.2c-0.1,0.2-0.3,0.5-0.7,0.6c-0.9,0.4-1.8,0.6-2.8,0.7c-0.3,0.1-0.7,0.1-1,0.2
			c-0.6,0-1.3-0.1-1.7-0.4c-0.1-0.1-0.2-0.2-0.2-0.3c0-0.1,0.3-0.2,0.7-0.2l2.2-0.1c0.7,0,1.2-0.4,1.2-0.9
			C107.2,171.2,107.1,170.9,106.6,170.6z M103.9,164.8c0.4,0.2,0.7,0.5,1.1,0.7c-0.2,0-0.4,0-0.7,0c-0.2,0-0.4,0-0.6,0
			c-0.1,0-0.2-0.1-0.3-0.1c0,0-0.1-0.1-0.1-0.2C103.3,165,103.5,164.9,103.9,164.8z M100.6,161.4c0,0,0-0.2,0.2-0.4
			c0.3-0.3,0.6-0.5,0.9-0.7c0.9-0.7,1.8-1.4,2.2-2.6c0.3-1.1,0.4-2.2,0.5-3.3c0-0.4,0.1-0.9,0.1-1.3c0-0.2,0.1-0.3,0.1-0.3
			c0,0,0.1,0.1,0.2,0.3c0.5,1,1.2,2,1.8,2.9c1.2,1.6,2.3,3.1,2.2,5.1c-0.2,0.1-0.9,0.2-1.4,0.3c-0.9,0.1-1.8,0.2-2,0.8
			c-0.1,0.3-0.2,0.6-0.2,0.9c0,0.1,0,0.2,0,0.3c0,0.3-0.6,0.5-1.1,0.6c-0.1,0-0.2,0-0.3,0.1c-0.2-0.1-0.4-0.2-0.5-0.3
			C102.2,162.9,100.7,162,100.6,161.4z M103.6,166.3c0.6,0.2,1.5,0.1,2.4,0.1c1.2,0,2.8-0.1,2.8,0.6c0,0.3-0.5,0.5-1.3,0.7
			c-0.3,0.1-0.7,0.2-1.1,0.3c-0.4-0.1-0.8-0.2-1.4-0.3c-0.8-0.2-2.5-0.5-2.6-0.9c0-0.1,0-0.2,0-0.2
			C102.7,166.5,103.1,166.4,103.6,166.3z M107.1,169.1c-0.1,0.1-0.4,0.1-0.7,0.1c0,0,0,0,0-0.1c0-0.1,0.1-0.2,0.2-0.3
			C106.8,169,107,169.1,107.1,169.1z M105.1,174.1c0.1,0,0.2,0,0.2,0c0.3,0,0.5,0,0.7,0c0.6,0,1.3,0.3,1.6,0.7
			c0.2,0.2,0.2,0.4,0.2,0.6c-0.1,0.6-0.9,1-1.1,1.1c-0.4,0.2-0.9,0.3-1.4,0.3c-0.5-0.1-0.9-0.2-1.3-0.4c-0.6-0.2-1.3-0.6-1.2-1.1
			c0.1-0.4,0.6-0.7,1-0.8C104.2,174.3,104.6,174.2,105.1,174.1z M237.2,50.7c-0.2,0.7-0.3,1.5-0.3,2.3c0,0.5-0.1,1.1-0.2,1.6
			c-0.2,1.3-1.2,2.5-2.3,2.4c-0.6-0.1-0.9-0.6-1.1-1c-0.3-0.9,0-2.3,0.7-3c0.6-0.7,1.4-1.1,2.2-1.6
			C236.6,51.1,236.9,50.9,237.2,50.7z M384.5,129.2c-0.1,4.4-10.9,7.7-18.7,8.2c-4.2,0.3-7-0.3-7.1-1.5c-0.1-1.1,2.2-2.1,3.1-2.5
			c0.1,0,0.2-0.1,0.3-0.1c5.8-2.6,12.9-4.1,19.4-4.1c0.3,0,0.6,0,1,0l0.2,0C383.3,129.1,383.9,129.1,384.5,129.2z"/>
	</defs>
	<clipPath id="SVGID_50_">
		<use xlink:href="#SVGID_49_"  overflow="visible"/>
	</clipPath>
	<g clip-path="url(#SVGID_50_)">
		<defs>
			<rect id="SVGID_51_" x="-734" y="-152" width="1440" height="1040"/>
		</defs>
		<clipPath id="SVGID_52_">
			<use xlink:href="#SVGID_51_"  overflow="visible"/>
		</clipPath>
		<rect x="-5" y="22" clip-path="url(#SVGID_52_)" fill="#221F1F" width="445" height="294"/>
	</g>
</g>
<g>
	<defs>
		<rect id="SVGID_53_" x="63.1" y="280" width="159.7" height="50.7"/>
	</defs>
	<clipPath id="SVGID_54_">
		<use xlink:href="#SVGID_53_"  overflow="visible"/>
	</clipPath>
	<g clip-path="url(#SVGID_54_)" enable-background="new    ">
		<g>
			<defs>
				<rect id="SVGID_55_" x="63" y="279" width="160" height="76"/>
			</defs>
			<clipPath id="SVGID_56_">
				<use xlink:href="#SVGID_55_"  overflow="visible"/>
			</clipPath>
			<g clip-path="url(#SVGID_56_)">
				<defs>
					<path id="SVGID_57_" d="M222.8,322.7c0-9.2-33.7-6.3-37.4-15.6c-1.2-3-0.3-6.5,2.4-8.4c2.6-1.9,5.9-2.6,8.6-4.5
						c2.7-1.8,4.6-5.6,2.8-8.3c-1-1.4-2.6-2.1-4.2-2.6c-9-2.9-18.6-3.2-28-3.3c-15.9-0.1-31.9,0.5-47.8,1.1
						c-15.6,0.6-31.3,1.2-46.9,1.8c-3.9,0.2-9,1.5-9.1,5.4c0,2.1,1.6,3.9,3.4,5.1c8.9,6,21.1,2.9,31.1,6.6c1.3,0.5,2.8,1.5,2.8,2.9
						c-0.1,1.1-1,1.8-1.9,2.4c-5.5,3.3-15.5,0.7-20.3,5.1c-8.3,7.6,60.8-0.1,60.8,7.2c0,10.2-61.7,2.7-64.5,8.4
						c-2.5,5.1,28.5,7.2,31.3,7.4c6.4,0.6,13.6,0.6,19.8,2.4c6.9,2-6.4,7.3-8.3,8.3c-11.1,5.7-1.4,9.2,6.8,9.1
						c8.7-0.1,18,1.1,26.9,0.5c4.1-0.3,25.1-3,20.1-10.6c-1.1-1.7-5.9-1.1-7.5-1.1c-2.1,0-14.4,1.3-14.1-2.7
						C150.3,323.9,222.8,332.9,222.8,322.7"/>
				</defs>
				<clipPath id="SVGID_58_">
					<use xlink:href="#SVGID_57_"  overflow="visible"/>
				</clipPath>
				<g clip-path="url(#SVGID_58_)">
					<defs>
						<rect id="SVGID_59_" x="63" y="280" width="160" height="51"/>
					</defs>
					<clipPath id="SVGID_60_">
						<use xlink:href="#SVGID_59_"  overflow="visible"/>
					</clipPath>
					<rect x="58.1" y="275" clip-path="url(#SVGID_60_)" fill="#408EC1" width="169.7" height="83.9"/>
				</g>
			</g>
		</g>
	</g>
</g>
<g>
	<defs>
		<path id="SVGID_61_" d="M370,256.2c-0.2-0.6-1-1.2-2.7-1.7c-9-2.6-18.1-2.7-27.4-2.5c-9.7,0.2-19.6,1.1-28.9,4.1
			c-1.1,0.4-2.4,0.9-2.9,1.9c-2.5,5,21.6,6.7,24.4,6.8c11.7,0.5,23.5-1.5,34.3-5.8C369,258.2,370.3,257.2,370,256.2"/>
	</defs>
	<clipPath id="SVGID_62_">
		<use xlink:href="#SVGID_61_"  overflow="visible"/>
	</clipPath>
	<g clip-path="url(#SVGID_62_)">
		<defs>
			<rect id="SVGID_63_" x="-734" y="-152" width="1440" height="1040"/>
		</defs>
		<clipPath id="SVGID_64_">
			<use xlink:href="#SVGID_63_"  overflow="visible"/>
		</clipPath>
		<rect x="303" y="247" clip-path="url(#SVGID_64_)" fill="#408EC1" width="72" height="23"/>
	</g>
</g>
<g>
	<defs>
		<path id="SVGID_65_" d="M379.9,240.7c-4-1.6-10.3-1.2-14.7-1.5c-5.5-0.3-11.1-0.5-16.6-0.5c-10.9,0-21.8,0.7-32.6,2.1
			c-1.6,0.2-6.3,0.9-6.3-1.3c0-1.5,2.7-2,4-2.3c0.6-0.2,2.2-0.4,2.4-0.9c0.6-1.2-2.8-1.2-3.8-1.2c-7-0.1-14.1,0.6-20.9,2
			c-3.5,0.7-7,1.7-10.4,2.8c-1,0.3-3.7,0.9-4.1,1.8c-0.5,1.3,1.7,1.5,2.8,1.5c2.5,0.2,10.6-1.1,10.8,2.2c0,0.6-0.8,1.7-0.3,2.2
			c0.7,0.8,3.5-0.1,4.4-0.2c4.4-0.7,8.9-1.2,13.3-1.6c11.1-1,22.3-0.5,33.4-0.7c11.7-0.2,24-0.1,35.5-1.7
			C378.3,243.3,383.1,241.9,379.9,240.7"/>
	</defs>
	<clipPath id="SVGID_66_">
		<use xlink:href="#SVGID_65_"  overflow="visible"/>
	</clipPath>
	<g clip-path="url(#SVGID_66_)">
		<defs>
			<rect id="SVGID_67_" x="-734" y="-152" width="1440" height="1040"/>
		</defs>
		<clipPath id="SVGID_68_">
			<use xlink:href="#SVGID_67_"  overflow="visible"/>
		</clipPath>
		<rect x="272" y="230" clip-path="url(#SVGID_68_)" fill="#408EC1" width="114" height="23"/>
	</g>
</g>
<g>
	<defs>
		<path id="SVGID_69_" d="M109.8,245.6c-0.1-0.2-0.2-0.3-0.4-0.4c-0.3-0.2-0.6-0.2-0.9-0.2c-2.1-0.1-4.2,0.1-6.3,0.7
			c-0.6,0.1-1.4,0.4-1.8,0.9c-1.3,1.5,2,1.4,2.4,1.4c1.9,0,3.8,0,5.7-0.4c0.4-0.1,0.7-0.2,1-0.4
			C109.9,246.9,110.2,246.2,109.8,245.6"/>
	</defs>
	<clipPath id="SVGID_70_">
		<use xlink:href="#SVGID_69_"  overflow="visible"/>
	</clipPath>
	<g clip-path="url(#SVGID_70_)">
		<defs>
			<rect id="SVGID_71_" x="-734" y="-152" width="1440" height="1040"/>
		</defs>
		<clipPath id="SVGID_72_">
			<use xlink:href="#SVGID_71_"  overflow="visible"/>
		</clipPath>
		<rect x="95" y="240" clip-path="url(#SVGID_72_)" fill="#408EC1" width="20" height="13"/>
	</g>
</g>
<g>
	<defs>
		<path id="SVGID_73_" d="M101.1,225.2c-6.4,0.8-12.7-1.8-19.1-2.6c-6.7-0.8-13.4-0.9-20.1,0c-0.3,0-0.6,0.1-0.8,0.3
			c-0.3,0.3-0.2,0.8,0,1.2c0.2,0.3,0.6,0.5,1,0.7c5.8,2.6,13,0.6,19.1,1.2c2.5,0.3,7.2,0.3,7.9,3.5c0.6,2.5-12.1,1.4-12.2,4
			c-0.2,2.9,13.3,0.3,14.6,2.9c1.1,2.2-8,1.2-9.7,2.9c-2.2,2.2,9.6,2.8,10.3,5.9c0.4,1.6,0.6,10.7,2.1,8.5c1.5-2.2-0.5-7.3,0.6-9.7
			c1.9-4.5,7.3,1.2,9.1-3.4c1.6-4-8.4-0.7-6.1-4.3c2.2-3.4,11.5,1,10.9-3c-0.8-5.1-14.2,1.4-14.6-3.8c-0.4-5.9,18.2,2.1,19.7-3.5
			C114.9,222.6,104.6,224.8,101.1,225.2"/>
	</defs>
	<clipPath id="SVGID_74_">
		<use xlink:href="#SVGID_73_"  overflow="visible"/>
	</clipPath>
	<g clip-path="url(#SVGID_74_)">
		<defs>
			<rect id="SVGID_75_" x="-734" y="-152" width="1440" height="1040"/>
		</defs>
		<clipPath id="SVGID_76_">
			<use xlink:href="#SVGID_75_"  overflow="visible"/>
		</clipPath>
		<rect x="56" y="217" clip-path="url(#SVGID_76_)" fill="#408EC1" width="63" height="42"/>
	</g>
</g>
</svg>
