<?xml version="1.0" encoding="utf-8"?>
<!-- Generator: Adobe Illustrator 25.0.0, SVG Export Plug-In . SVG Version: 6.00 Build 0)  -->
<svg version="1.1" id="Lag_1" xmlns="http://www.w3.org/2000/svg" xmlns:xlink="http://www.w3.org/1999/xlink" x="0px" y="0px"
	 viewBox="0 0 283 115" enable-background="new 0 0 283 115" xml:space="preserve">
<g>
	<defs>
		<circle id="SVGID_1_" cx="144.5" cy="48.6" r="33.5"/>
	</defs>
	<clipPath id="SVGID_2_">
		<use xlink:href="#SVGID_1_"  overflow="visible"/>
	</clipPath>
	<g clip-path="url(#SVGID_2_)">
		<defs>
			<rect id="SVGID_3_" x="-1124" y="-599" width="1440" height="1350"/>
		</defs>
		<clipPath id="SVGID_4_">
			<use xlink:href="#SVGID_3_"  overflow="visible"/>
		</clipPath>
		<rect x="106" y="10.1" clip-path="url(#SVGID_4_)" fill="#FEE062" width="77" height="77"/>
	</g>
</g>
<g>
	<defs>
		<path id="SVGID_5_" d="M145.1,89.1c20.6,0,37.9-16.5,37.9-39s-15.5-39-38.1-39s-40,23-37.7,44.6C109.5,77.3,124.5,89.1,145.1,89.1
			z"/>
	</defs>
	<clipPath id="SVGID_6_">
		<use xlink:href="#SVGID_5_"  overflow="visible"/>
	</clipPath>
	<g clip-path="url(#SVGID_6_)">
		<defs>
			<rect id="SVGID_7_" x="-1124" y="-599" width="1440" height="1350"/>
		</defs>
		<clipPath id="SVGID_8_">
			<use xlink:href="#SVGID_7_"  overflow="visible"/>
		</clipPath>
		<g clip-path="url(#SVGID_8_)" enable-background="new    ">
			<g>
				<defs>
					<rect id="SVGID_9_" x="94" y="1" width="100" height="99"/>
				</defs>
				<clipPath id="SVGID_10_">
					<use xlink:href="#SVGID_9_"  overflow="visible"/>
				</clipPath>
				<g clip-path="url(#SVGID_10_)">
					<defs>
						<rect id="SVGID_11_" x="107" y="11" width="77" height="79"/>
					</defs>
					<clipPath id="SVGID_12_">
						<use xlink:href="#SVGID_11_"  overflow="visible"/>
					</clipPath>
					<path clip-path="url(#SVGID_12_)" fill="none" stroke="#FFD00A" stroke-width="2" stroke-miterlimit="10" d="M145.1,89.1
						c20.6,0,37.9-16.5,37.9-39s-15.5-39-38.1-39s-40,23-37.7,44.6C109.5,77.3,124.5,89.1,145.1,89.1z"/>
				</g>
			</g>
		</g>
	</g>
</g>
<g>
	<defs>
		<rect id="SVGID_13_" width="283" height="115"/>
	</defs>
	<clipPath id="SVGID_14_">
		<use xlink:href="#SVGID_13_"  overflow="visible"/>
	</clipPath>
	<g clip-path="url(#SVGID_14_)" enable-background="new    ">
		<g>
			<defs>
				<rect id="SVGID_15_" y="-1" width="283" height="116"/>
			</defs>
			<clipPath id="SVGID_16_">
				<use xlink:href="#SVGID_15_"  overflow="visible"/>
			</clipPath>
			<g clip-path="url(#SVGID_16_)">
				<defs>
					<path id="SVGID_17_" d="M283,34.7c-3.1,0.4-6.2,0.9-9.3,1.5c-22.2,4.5-41.6,14.2-57.8,28.6c-19.5,17.4-36.3,14.3-47.5,12.3
						c-4.1-0.8-7.4-1.4-9.7-0.7c-2.3,0.7-3.8,1.4-4.9,2.3c0-0.4-0.1-0.7-0.3-0.9c-0.5-0.5-1.4-0.3-2.6-0.2c-1.2,0.2-2.5,0.4-3.7,0
						c-2-0.6-3.1-0.5-4.4-0.3c-0.7,0.1-1.4,0.1-2.4,0.1l-0.4,0c-1.5,0-2.3-0.1-2.4,0.4c-0.2,0.4,0.2,1,2.3,2.7
						c2.1,1.7,2.4,3.2,2.3,3.8c0,0.2-0.1,0.3-0.2,0.4c-0.1,0.1-0.3-0.1-0.6-0.3c-1.1-1.1-6-4-8.5-3.7c-0.7,0.1-1.1,0.4-1.4,0.9
						c-0.7,1.3-1.1,3.2-1,5c-0.2-0.3-0.3-0.8-0.5-1.4c-0.9-2.9,0-8,2.9-11.3c1.3-1.4,2.9-2.1,4.6-2.3c2,1.6,4,2.8,6.2,3.6
						c5,1.8,8,2,9.5,0.9c1.5-1.2,1.2-3.5,0.9-6c-0.1-0.6-0.1-1.1-0.2-1.7c-0.7-7.7-1.3-21.2,2.3-27.2c0.2,0.5,0.4,0.8,0.7,0.8h0
						c0.3,0,0.7-0.3,0.9-3c2.1-2.9,4.5-6.9,6.8-10.8c3-5,6.1-10.2,8.5-13c4.3-5.1,6.2-10.6,7.2-13.5l0.2-0.5
						c0.1-0.3,0.4-1.3-0.1-1.5c-0.9-0.4-3,2.2-4,4.5c-1.2,2.6-4.2,6-6.7,8.7c-0.9,1-1.7,1.9-2.2,2.5c-0.4,0.5-0.9,1.1-1.3,1.6
						c-1.8,2.2-3.9,4.6-6.1,7.8c-0.6,0.8-1.1,1.5-1.5,2.1c-1,1.3-1.7,2.3-2.2,3.5c-0.9-0.2-1.9,0.4-3.3,1.3c-3.1,2-6.5,6-6.9,9.4
						c-0.2,1.5-0.9,2.8-2.2,3.5c-1.1,0.6-2.5,0.7-3.7,0.1c-0.3-0.2-0.6-0.3-0.7-0.5c0.4-0.5,0.7-1,1-1.7c0.4-1,0.4-1.3,0.1-1.5
						c0,0-0.1,0-0.1-0.1c0.1-0.3,0.2-0.7,0.2-1.1c0-0.4,0.1-1.1,0.1-2c0.3-3.5,0.8-9.3-1.3-12.6c-0.9-1.4-2.1-2.7-3.2-3.9
						c-2-2.3-4.1-4.7-5.3-8.1c-1-2.8-1.4-2.9-1.5-2.9c-0.1,0-0.3,0-0.4,0.1c-0.4,0.5,0.3,3.4,1.3,5.6c0.8,1.9,1.9,4.3,1.6,4.6
						c0,0-0.3,0.2-2.4-1.2c-2.2-1.5-2.8-5.5-3.2-7.9c-0.2-1.6-0.4-2.3-0.8-2.4c-0.4,0-0.6,0.3-0.9,1c-1.7,4,0,11,3.4,13.8
						c0.4,0.3,0.6,0.5,0.7,0.7c-0.2,0-0.8-0.1-1.6-0.6c-2-1-4.4-3-5.1-5.7c-0.4-1.6-0.6-1.7-0.8-1.7l-0.2,0l-0.1,0.2
						c-0.2,0.6,0.5,5.9,1.9,8.4c-0.6-0.6-1.2-1.4-1.7-2.3c-1.1-2-1.1-4.6-1.1-7.1c0-1.5,0-2.9-0.2-4.2c-1.1-6.2-1.7-6.1-1.9-6.1
						c-0.4,0-0.6,0.3-0.4,3.5c0.1,2.7,0,4.9-0.2,6.9c-0.3,3-0.5,5.4,0.8,8.2c1.1,2.6,2.8,4,4.1,5.1c1,0.8,1.8,1.5,2.1,2.4
						c0.7,1.9,1.5,2.5,3.6,2.4c0,0.7,0.1,1.5,0.5,2.2c0.3,0.6,0.7,1.1,1,1.5c0.5,0.6,0.8,1,0.7,1.7c-0.1,1.1,0.8,1.5,1.7,1.8
						c0.5,0.2,1,0.4,1.4,0.7c0.4,0.3,0.6,0.7,0.8,1c0.4,0.7,0.9,1.4,2.2,1.3c0.8,0,1.7-0.8,2.5-1.5c-0.2,0.5-0.4,0.9-0.2,1.4
						c0,0.1,0,0.1,0.1,0.2c-0.3,0.3-0.6,0.5-1,0.5c-1,0.3-2.3-0.2-3.6-1.2c-0.7-0.6-1.4-1-2.1-1.4c-1.3-0.8-2.5-1.5-3.8-3.5
						c-0.1-0.7-0.4-1.1-0.7-1.2c0,0,0,0,0,0c-2.5-4.4-7.9-10.7-10.6-13.3c-0.7-0.7-1.6-1.4-2.5-2.1c-2.8-2.2-6-4.7-7-8.4
						c-0.5-2.1-0.6-3.5-0.3-4.6c0.2-0.7-0.2-0.9-0.3-1c-0.5-0.2-1.1,0.3-1.4,1c0,0,0,0,0,0c-0.1-0.3-0.1-0.9-0.1-2
						c0-1.5-0.4-2.2-0.7-2.5c-0.3-0.3-0.7-0.4-1.1-0.3c-0.1,0-0.2,0.1-0.3,0.3c-0.6,1.2,0.5,8.8,1.7,11.3c0.8,1.6,1.4,2.3,2.2,3.2
						c0.6,0.6,1.3,1.3,2.2,2.5c2,2.8,3.8,5.1,6.9,8.9l0.4,0.5c1.8,2.3,4.1,6.1,5.8,9.1c0.5,0.8,0.9,1.5,1.3,2.2
						c-0.2,0.7-0.2,1.4-0.1,2.1c0.3,1.1,1,2,2.3,2.8c0.8,0.4,2.5,2.5,4.4,4.6c2.1,2.4,4.5,5.1,6.1,6.4c1.6,1.2,4.7,1.4,7.4,1.6
						c2.4,0.2,4.9,0.3,5.3,1.2c0,0.1,0,0.1,0,0.1c-0.2,0.4-2.9,0.1-4.2-0.1c-2.5-0.3-3.3-0.3-3.4,0.2c-0.1,0.4,0.3,0.7,1.4,1.3
						c3.2,1.7,5.2,3.4,5.8,4.1c-0.2-0.1-0.5-0.2-1.1-0.5c-0.9-0.5-2.1-1.4-3.4-2.3c-2.8-2-6-4.3-7.9-3.6c-0.7,0.3-1.2,1-1.4,2.1
						c-0.1,0.7-0.3,1.4-0.4,2.1c-0.3,1.1-0.5,2.2-0.6,3c-0.3-0.3-0.6-0.6-0.9-0.9c-8.4-7.7-20-18.3-49.1-24.5
						C58.7,37,29.6,41.4,0,54.3v0.6c29.5-12.9,58.6-17.3,83.6-12c28.9,6.2,40.4,16.7,48.8,24.4c0.4,0.4,0.8,0.8,1.3,1.1
						c0,0.9,0.1,1.5,0.6,2c0.5,0.5,1.2,0.6,2.3,0.6c0.1,0.1,0.3,0.2,0.4,0.4c-1.6,0.3-3.2,1-4.4,2.4c-3.1,3.5-4,8.8-3.1,11.8
						c0.3,1.1,0.7,1.9,1.1,2.3c0.1,1.2,0.5,2.3,1.1,2.8c0.9,0.9,1.2,1.4,1.7,2.7c0.1,0.3,0.3,0.7,0.5,1.1c-0.8-1.2-1.6-2.2-2.1-2.8
						c-1.3-1.3-2.6-4.2-2.9-6.1c-0.2-1.1-0.7-1.6-1.1-1.8c-0.9-0.4-2.1-0.2-3.6,0.7c-1.8,1.1-3.5,1.2-5.7,1.3c-0.5,0-1.1,0-1.7,0.1
						c-2.7,0.2-4.2,1-5,2.7c-0.4,0.9-0.5,2,0,2.5c0.2,0.2,0.6,0.3,1.3-0.2c0.5-0.4,0.5-0.4,1-0.3c0.6,0.2,1.8,0.5,4.8,0.6
						c6.2,0.3,7.9,3.5,8.5,4.6c0,0.1,0.1,0.3,0.1,0.4c-0.3,0.4-2.4,0.1-3.4,0c-0.2,0-0.5-0.1-0.7-0.1c-1.8-0.2-3.6,0.4-5.3,1.8
						c-0.6,0.5-0.9,0.9-0.8,1.3c0.2,0.4,0.9,0.4,2.9,0.1c2.1-0.4,6.8,0.7,8.7,1.4c0.8,0.3,1.2,0.3,1.4,0.1c0.1-0.1,0.1-0.1,0.1-0.2
						c0.7,1.3,1.6,3,2.6,4.5c0.4,0.6,0.8,1.3,1.2,2.1c1.9,3.3,4.5,7.8,8.8,7c1.4-0.3,2.5-1,3.2-2.1c1.5-2.4,1-6.2,0.3-9.1
						c-0.3-1.3-0.7-3.2-1.1-5.3c-0.7-3.7-1.5-7.5-2.1-8.8c-1.1-2.3-6.6-2.3-9.1-1.6l-0.4,0.1c-1.3,0.4-2.1,0.6-2.7,0.3
						c-0.2-1.8,0.2-4.1,0.9-5.5c0.2-0.3,0.5-0.5,1-0.6c2.2-0.3,6.9,2.3,8.1,3.5c0.5,0.5,0.9,0.5,1.1,0.4c0.3-0.1,0.5-0.4,0.6-0.8
						c0.2-0.9-0.4-2.6-2.5-4.4c-1.9-1.5-2.1-2-2.2-2.1c0.2-0.1,1.1-0.1,1.9-0.1l0.4,0c1,0,1.8-0.1,2.5-0.1c1.2-0.1,2.3-0.3,4.2,0.3
						c1.3,0.4,2.8,0.2,3.9,0c0.9-0.1,1.8-0.3,2.1,0c0.1,0.1,0.2,0.4,0.1,0.8c0,0.1,0,0.2,0,0.2c-1.5,1.4-1.7,3-1.8,4.4
						c-0.1,0.6-0.1,1.2-0.3,1.8l-0.1,0.4c-0.4,1.4-0.8,2.8-0.9,4.3c-1-0.1-2.1-0.1-2.7,0.1c-0.1,0-2.9,0.8-2.8,1.4
						c0.1,0.4,0.6,0.3,0.9,0.2c1.3-0.2,2.9-0.3,4.4-0.3h0.2c0.1,1,0.3,2,0.9,3c1,1.9,0.8,4.1,0.5,6c-0.1,1-0.2,1.9-0.2,2.6
						c0.1,1.1,0.4,2.1,0.7,3.1c0.4,1.2,0.7,2.4,0.7,3.6c0,1-0.4,1.9-1.2,2.4c-0.9,0.7-2.2,0.8-3.7,0.4c-1.1-0.3-1.5-0.3-1.7-0.1
						c-0.1,0.1-0.1,0.2-0.1,0.4c0.1,0.5,1.6,1.4,2.3,1.6c0.4,0.1,1.1,0.3,2,0.3c1.4,0,3-0.4,3.9-2.1c1-1.9,0.2-8.6-0.4-13.4
						c-0.2-1.5-0.4-2.9-0.4-3.8c-0.1-0.8-0.1-1.4-0.1-2c-0.1-1.9-0.1-2.5-1.8-2.6c-0.3,0-0.6,0-0.9,0c0-0.1,0-0.2,0-0.3
						c1.6,0.1,2.5,0.1,2.7-0.4c0.2-0.4,0.2-1.1,0.1-2.3c0-1.1,0-2.3,0.1-3.2c0.2-0.9,0.2-1.7,0.1-2.6c0-0.8,0-1.6,0-2.7
						c1-0.9,2.6-1.7,5.1-2.5c2.2-0.7,5.4-0.1,9.4,0.7c11.3,2.1,28.3,5.2,48-12.4C234.6,49,257.1,39,283,35.4V34.7z M137.3,70.9
						c0.2,0,0.4-0.1,0.5-0.1c3.3-0.7,5.2,0.2,7.2,1c0.8,0.4,1.6,0.7,2.5,1c-1.1-0.1-2.5-0.3-3.6-0.7c-1.5-0.5-3.3-0.9-5.1-0.9
						c-0.3,0-0.7,0-1,0C137.6,71.1,137.5,71,137.3,70.9z M156.9,41.6c-0.1-0.2-0.2-0.4-0.3-0.7c0.1-0.1,0.1-0.1,0.2-0.2
						c0.1-0.1,0.2-0.3,0.3-0.5C157.1,41,157,41.4,156.9,41.6z M158.8,27.7c0.5-0.6,1-1.3,1.6-2.1c2.3-3.2,4.3-5.6,6.1-7.8
						c0.5-0.5,0.9-1.1,1.3-1.6c0.6-0.7,1.3-1.5,2.2-2.5c2.5-2.8,5.6-6.2,6.8-8.8c1.2-2.6,2.9-4.2,3.3-4.2c0,0,0.1,0.2-0.2,0.8
						l-0.2,0.5c-1,2.9-2.9,8.4-7.1,13.4c-2.4,2.8-5.5,8-8.5,13c-2.1,3.5-4.3,7.2-6.3,10c0-0.1,0-0.1,0-0.2c0.2-4.2-0.2-6.3-1.2-7
						C157.1,29.8,157.8,28.9,158.8,27.7z M156.5,31.5c0.7,0.7,1,2.8,0.8,6.4c0,0.4,0,0.8-0.1,1.1c-0.3,0.4-0.5,0.7-0.8,1
						c-0.3-1.4-0.5-3.5-0.5-5.3C156,33.4,156.2,32.4,156.5,31.5z M139.8,42.6c-0.2,0.5-0.4,1-0.7,1.4c0-0.4,0.3-0.9,0.6-1.5
						c0.1-0.2,0.2-0.4,0.4-0.6c0,0,0,0,0,0C140,42.1,139.9,42.3,139.8,42.6z M136.3,43.9c-1,0-1.3-0.4-1.7-1.1
						c-0.2-0.4-0.5-0.8-0.9-1.2c-0.5-0.4-1-0.6-1.6-0.8c-0.9-0.4-1.4-0.6-1.4-1.2c0.1-1-0.4-1.5-0.9-2.1c-0.3-0.4-0.6-0.8-0.9-1.4
						c-0.3-0.6-0.4-1.3-0.4-2c0.5,0,1-0.1,1.6-0.2c3.8-0.5,4.6,0,5.3,0.7c0.4,0.4,1,0.5,1.4,0.5c0.6,0.1,1.1,0.1,1.6,0.9
						c0.1,0.2,0.4,0.7,0.8,0.5c0.8-0.4-0.5-4.2-0.8-5.1c-0.4-0.9-0.4-1.6-0.4-2.2c0-1.3-0.2-2.1-3-3.9c-1-0.6-1.9-1.2-2.6-1.6
						c-2.1-1.4-2.6-1.7-2.9-1.4c-0.3,0.3-0.1,0.7,0.8,2c0.6,0.8,1.3,1.7,1.9,2.4c0.7,0.8,1.7,2,1.5,2.2c0,0-0.2,0.2-1.8-0.1
						c-2.1-0.4-3.7-1.2-4.5-1.6c-0.6-0.3-0.9-0.4-1.1-0.2c-0.2,0.2,0,0.5,0.5,1.2c0.5,0.8,1.2,1.4,1.6,1.9c0.5,0.5,1,1,0.9,1.2
						c0,0.1-0.1,0.2-0.2,0.3c-0.6,0.4-1,1.1-1.2,1.9c-2,0.1-2.5-0.4-3.2-2c-0.4-1.1-1.3-1.8-2.3-2.6c-1.4-1.1-2.9-2.4-4-4.9
						c-1.2-2.6-1-5-0.7-7.9c0.2-1.9,0.3-4.2,0.2-6.9c-0.1-1.3-0.1-2.1,0-2.5c0.3,0.9,0.8,3,1.2,5.2c0.2,1.2,0.2,2.6,0.2,4.1
						c0,2.6,0,5.2,1.1,7.4c1.2,2.4,3.2,3.9,3.8,3.9h0l0.2,0l0.1-0.2c0.1-0.2,0-0.4-0.8-1.1c-1.1-0.9-2-4.6-2.3-6.9
						c1.2,3.9,5.7,6.2,7,6.3c0.5,0,0.6-0.1,0.6-0.3c0.1-0.3-0.1-0.7-0.9-1.4c-3.2-2.6-4.9-9.4-3.3-13.1c0.1-0.3,0.2-0.4,0.3-0.5
						c0.1,0.3,0.2,1.1,0.3,1.8c0.4,2.5,1,6.6,3.4,8.2c1.8,1.2,2.6,1.6,3.1,1.2c0.6-0.5,0-1.9-1.4-5.3c-0.9-2.1-1.3-3.8-1.4-4.6
						c0.2,0.3,0.5,1,0.9,2.2c1.2,3.5,3.4,6,5.4,8.3c1.1,1.3,2.2,2.5,3.1,3.9c2.1,3.1,1.5,8.8,1.2,12.2c-0.1,0.9-0.1,1.6-0.1,2
						c0,0.5-0.2,0.9-0.4,1.4c-0.2,0.2-0.5,0.4-0.8,0.7C138,42.9,137,43.8,136.3,43.9z M128.9,29.8c-0.5-0.5-1.1-1.1-1.6-1.8
						c0,0-0.1-0.1-0.1-0.2c0,0,0,0,0,0c0.9,0.4,2.5,1.2,4.7,1.7c1.4,0.3,2.1,0.2,2.4-0.2c0.3-0.6-0.4-1.5-1.6-2.9
						c-0.6-0.7-1.3-1.5-1.8-2.3c-0.4-0.6-0.6-0.9-0.7-1.1c0.4,0.2,1.2,0.7,2.1,1.3c0.7,0.5,1.6,1,2.6,1.6c2.7,1.7,2.7,2.3,2.7,3.4
						c0,0.6,0,1.3,0.4,2.4c0.7,1.8,1,3.4,1.1,4.1c0,0,0,0,0-0.1c-0.6-1-1.4-1.1-2-1.2c-0.4,0-0.8-0.1-1.1-0.4
						c-0.7-0.7-1.5-1.1-3.1-1.1c-0.7,0-1.6,0.1-2.7,0.2c-0.5,0.1-1,0.1-1.4,0.2c0.2-0.6,0.5-1,0.9-1.3c0.3-0.2,0.4-0.4,0.5-0.7
						C130.1,31,129.6,30.5,128.9,29.8z M127.6,39.1c0.1,0.4,0.1,1,0.1,1.9c-0.1,2.7-0.7,4.2-1.2,4.5c-0.1,0-0.3,0.1-0.7-0.2
						c-0.4-0.3-1-1.3-1.8-2.6c0.2-0.6,0.5-1.3,1-2c1.2-1.7,1.8-2.2,2.1-2.3C127.3,38.6,127.4,38.9,127.6,39.1z M122.6,40.2
						c-1.8-3-4-6.8-5.9-9.2l-0.4-0.5c-3.1-3.8-5-6.1-6.9-8.9c-0.9-1.3-1.6-2-2.2-2.6c-0.8-0.8-1.4-1.5-2.1-3
						c-1.2-2.7-2.1-9.9-1.7-10.8c0.2,0,0.4,0,0.6,0.2c0.4,0.3,0.6,1,0.5,2c-0.1,2.6,0.4,2.7,0.5,2.8c0.4,0.1,0.6-0.4,0.7-0.5
						c0.2-0.5,0.6-0.7,0.7-0.7c0,0,0,0.1,0,0.3c-0.3,1.2-0.2,2.6,0.3,4.9c1,3.9,4.5,6.5,7.2,8.7c0.9,0.7,1.8,1.4,2.5,2.1
						c2.7,2.5,8,8.7,10.4,13c-0.6,0.3-1.3,1.1-2.2,2.5c-0.4,0.6-0.7,1.2-0.9,1.7C123.3,41.4,122.9,40.9,122.6,40.2z M134.6,70
						c-0.2-0.2-0.4-0.6-0.4-1.1c0.6,0.5,1.1,1,1.7,1.5C135.3,70.4,134.9,70.3,134.6,70z M136.7,70.4c-0.8-0.7-1.6-1.4-2.5-2.2
						c0.1-0.9,0.3-2.1,0.6-3.4c0.1-0.6,0.3-1.3,0.4-2.1c0.2-0.9,0.5-1.5,1.1-1.7c1.6-0.6,4.8,1.7,7.3,3.5c1.3,0.9,2.5,1.8,3.4,2.3
						c1.3,0.7,1.8,0.8,2,0.4c0.4-0.8-3.4-3.5-6.3-5c-0.6-0.3-0.9-0.5-1-0.6c0.5-0.1,1.8,0.1,2.7,0.2c2.7,0.3,4.3,0.4,4.7-0.2
						c0.1-0.1,0.2-0.4,0-0.7c-0.6-1.1-3-1.3-5.8-1.5c-2.7-0.2-5.7-0.4-7.1-1.5c-1.6-1.2-3.9-3.9-6-6.3c-2-2.3-3.7-4.2-4.5-4.7
						c-1.2-0.7-1.8-1.5-2.1-2.4c-0.1-0.4-0.1-0.8,0-1.2c0.7,1.1,1.2,1.9,1.6,2.3c0.5,0.5,1,0.5,1.3,0.3c1.1-0.5,1.5-2.9,1.6-5
						c0-0.4,0-0.7,0-1c1.2,1.5,2.3,2.2,3.4,2.9c0.7,0.4,1.3,0.8,2,1.4c1.4,1.2,2.8,1.7,4.1,1.3c0.4-0.1,0.8-0.3,1.2-0.6
						c0.2,0.2,0.5,0.4,0.9,0.6c1.4,0.7,3,0.6,4.2-0.1c1.4-0.8,2.3-2.2,2.4-3.9c0.3-3.2,3.6-7.1,6.6-9c1.2-0.7,2.1-1.3,2.8-1.2
						c-0.3,0.9-0.5,2-0.5,3.5c0,1.4,0.2,4.2,0.6,5.9c-4,5.9-3.4,20-2.7,27.9c0.1,0.6,0.1,1.1,0.2,1.7c0.3,2.3,0.6,4.5-0.7,5.5
						c-1.3,1-4.2,0.7-8.9-0.9c-2-0.7-3.7-1.8-5.5-3.1c1.8-0.1,3.7,0.4,5.3,0.9c2.4,0.8,6.2,0.9,6.6,0.5l0.1-0.2l-0.1-0.2
						c-0.1-0.2-0.2-0.3-1.5-0.4c-1.4-0.1-2.5-0.6-3.6-1.1c-2-0.9-4-1.8-7.5-1.1C137.4,70.3,137,70.3,136.7,70.4z M134,87.8l0.4-0.1
						c2.6-0.8,7.6-0.5,8.4,1.3c0.6,1.3,1.4,5.2,2,8.7c0.4,2.1,0.8,4,1.1,5.3c0.7,2.7,1.2,6.4-0.2,8.6c-0.6,1-1.6,1.6-2.8,1.8
						c-3.9,0.8-6.3-3.4-8.2-6.7c-0.4-0.8-0.9-1.5-1.3-2.1c-1.3-1.9-2.5-4.3-3.1-5.6c-0.5-0.9-0.6-1.1-0.7-1.1c0,0-0.1,0-0.2,0.1
						c-0.3,0.1-0.2,0.4-0.1,0.6c0.1,0.2,0.1,0.4,0.2,0.5c0.2,0.4,0.4,1,0.3,1.1c0,0-0.2,0.1-0.8-0.2c-1.9-0.7-6.7-1.8-8.9-1.4
						c-0.5,0.1-1.8,0.3-2.2,0.2c0-0.1,0.2-0.3,0.6-0.6c1.5-1.3,3.2-1.9,4.8-1.7c0.2,0,0.4,0.1,0.7,0.1c2,0.3,3.5,0.4,4-0.2
						c0.2-0.3,0.2-0.6,0-1c-0.6-1.1-2.5-4.6-9-4.9c-3-0.1-4.1-0.4-4.7-0.6c-0.7-0.2-0.8-0.1-1.5,0.4c-0.3,0.2-0.5,0.3-0.6,0.2
						c-0.2-0.2-0.2-0.9,0.1-1.8c0.4-1,1.3-2.2,4.5-2.4c0.6,0,1.1-0.1,1.6-0.1c2.2-0.1,4-0.1,6-1.3c1.3-0.8,2.3-1,3-0.7
						c0.5,0.2,0.7,0.7,0.8,1.4c0.3,2,1.7,5,3,6.4c1.1,1.1,3.3,4.3,4.7,7c0.2,0.6,0.5,1,0.6,1.4c0.1,0.3,0.2,0.4,0.3,0.6
						c0,0,0,0,0,0.1h0c0.1,0.3,0.2,0.2,0.4,0.2c0.2-0.1,0.2-0.1,0.1-0.4l0,0c0,0,0,0,0-0.1c-0.1-0.2-0.2-0.4-0.3-0.8
						c-0.2-0.4-0.3-0.8-0.6-1.2c-0.5-1.2-1.1-2.6-1.7-3.7c-0.4-0.8-0.7-1.5-0.9-2c-0.5-1.2-0.8-1.9-1.8-2.9c-0.4-0.4-0.7-1.1-0.8-2
						C131.9,88.5,132.8,88.2,134,87.8z M150,91c-1.3,0-2.7,0.1-3.9,0.2c0.4-0.2,0.9-0.3,1.4-0.5c0.3-0.1,0.8-0.1,1.3-0.1
						c0.4,0,0.8,0,1.2,0C150,90.8,150,90.9,150,91z M151.5,91.6c1.2,0.1,1.2,0.2,1.3,2.1c0,0.5,0,1.2,0.1,2c0.1,0.9,0.2,2.2,0.4,3.8
						c0.6,4.5,1.4,11.4,0.5,13.1c-1.2,2.3-4.1,1.9-5.2,1.6c-0.6-0.2-1.4-0.7-1.8-1c0.2,0,0.5,0.1,0.9,0.2c1.6,0.5,3.1,0.3,4.1-0.5
						c0.9-0.7,1.4-1.7,1.4-2.9c0-1.4-0.4-2.6-0.8-3.8c-0.3-1-0.6-2-0.7-3c-0.1-0.7,0.1-1.6,0.2-2.5c0.2-2,0.5-4.3-0.6-6.4
						c-0.5-0.9-0.7-1.8-0.8-2.8C150.9,91.6,151.2,91.6,151.5,91.6z M153.1,84.7c-0.2,1-0.2,2.2-0.2,3.3c0,0.9,0,1.8-0.1,2
						c-0.2,0.2-1.3,0.1-2.2,0.1c0.1-1.4,0.5-2.8,0.9-4.1l0.1-0.4c0.2-0.6,0.2-1.3,0.3-1.9c0.1-1.2,0.3-2.4,1.2-3.6
						c0,0.8,0,1.5,0,2.1C153.2,83.1,153.2,83.9,153.1,84.7z"/>
				</defs>
				<clipPath id="SVGID_18_">
					<use xlink:href="#SVGID_17_"  overflow="visible"/>
				</clipPath>
				<g clip-path="url(#SVGID_18_)">
					<defs>
						<rect id="SVGID_19_" width="283" height="115"/>
					</defs>
					<clipPath id="SVGID_20_">
						<use xlink:href="#SVGID_19_"  overflow="visible"/>
					</clipPath>
					<rect x="-5" y="-5" clip-path="url(#SVGID_20_)" fill="#676766" width="293" height="125"/>
				</g>
			</g>
		</g>
	</g>
</g>
</svg>
