<svg width="43" height="45" viewBox="0 0 43 45" fill="none" xmlns="http://www.w3.org/2000/svg">
<path fill-rule="evenodd" clip-rule="evenodd" d="M5.0395 42.8093C5.62658 42.8308 6.17372 42.8582 6.67793 42.8914C5.09241 43.1035 3.53186 43.1788 2.02122 43.1143L2.26834 42.7516C3.28025 42.759 4.21179 42.7785 5.0395 42.8093ZM26.5768 2.42051C26.7819 2.64045 27.0964 2.76117 27.385 2.73918C27.7424 2.7123 28.0005 2.52706 28.2302 2.36235C29.2875 1.60625 30.6299 1.28319 31.9449 1.46696C31.6703 2.52462 31.5629 3.65412 31.6343 4.76163C31.6528 5.03631 31.6768 5.41167 31.5649 5.52848C31.511 5.58371 31.3628 5.63552 31.243 5.67706L26.9537 7.17264C26.9337 7.17997 26.9152 7.18583 26.8983 7.19072C26.8803 7.13012 26.8563 7.05974 26.8194 6.98691C26.5558 6.46444 25.9413 6.32759 25.4705 6.46346C25.4585 6.46688 25.3931 6.4879 25.3896 6.48887C25.1011 6.59249 24.8889 6.76844 24.6992 6.92484C24.6568 6.96052 24.6128 6.99766 24.5684 7.03139C23.9114 7.54213 23.0872 7.62913 22.3334 7.28309L22.3039 7.26452L22.3034 2.96889C23.6179 3.05344 24.9468 2.67222 25.9837 1.90732L26.0656 1.84672C26.1639 1.77243 26.2717 1.6913 26.3656 1.64535C26.3581 1.67614 26.3516 1.70938 26.3476 1.74457C26.3177 1.98895 26.399 2.22941 26.5768 2.42051ZM21.6141 1.17339C21.5661 1.16069 21.5177 1.15287 21.4698 1.14944C21.4748 1.13967 21.4808 1.13136 21.4858 1.12892C21.5052 1.12501 21.5661 1.13283 21.6141 1.17339ZM21.287 28.1513L21.6924 28.0761L20.2926 29.2158L20.2601 28.9651C20.2432 28.8346 20.1643 28.7173 20.0505 28.6518C19.9351 28.5839 19.7924 28.5726 19.6676 28.621L16.5659 29.8092L20.2721 25.0448L20.7758 27.8068C20.7963 27.9182 20.8627 28.0189 20.957 28.0824C21.0539 28.1484 21.1737 28.1738 21.287 28.1513ZM33.1056 41.7065C33.1994 41.7969 33.3207 41.8428 33.4186 41.8292L33.6482 41.8257C35.8463 41.792 38.0388 41.7656 40.1835 41.7475L35.5263 43.0369H28.2297L26.4954 38.2847C26.4485 38.1586 26.3432 38.0599 26.2134 38.0213L26.1045 37.9885C25.4306 37.7838 24.8964 37.6044 24.515 37.4543L24.508 37.3434L26.1605 35.5609C26.2263 35.4896 26.2668 35.3977 26.2733 35.3029L26.7356 28.9046L32.9748 37.1093V41.4015C32.9748 41.5163 33.0212 41.6249 33.1056 41.7065ZM27.0151 23.1209C26.8728 22.9591 26.6277 22.9234 26.4455 23.0397L25.3832 23.7118L22.4003 21.986C22.5022 21.0735 22.4393 20.1409 22.3824 19.3145L22.3784 19.2578C22.3619 19.0066 22.3449 18.748 22.3324 18.4953C22.3185 18.2167 22.31 17.9357 22.3045 17.7128C22.3344 17.4015 22.3654 15.7481 22.4018 13.8341L22.4033 13.7588C22.4363 12.0282 22.4802 9.70025 22.5251 8.53409C23.5021 8.76234 24.4726 8.54533 25.2843 7.91436C25.3382 7.87281 25.3931 7.82736 25.4505 7.77995C25.5739 7.67829 25.6902 7.5825 25.7825 7.54877C25.789 7.54682 25.7965 7.54535 25.804 7.54388C25.805 7.54779 25.806 7.55073 25.807 7.55464C25.8339 7.6607 25.8754 7.82101 25.9932 7.97643C26.1549 8.19148 26.5443 8.51112 27.3416 8.23547L31.6344 6.73842C31.8565 6.66022 32.16 6.55367 32.4022 6.30246C32.8574 5.82983 32.8155 5.18762 32.7811 4.67247C32.7062 3.50485 32.8599 2.29861 33.2279 1.1735C33.2553 1.06598 33.2478 0.946724 33.1904 0.796678L33.168 0.755134C33.0921 0.627081 32.9608 0.528354 32.816 0.490231C31.0343 0.0308053 29.0819 0.384661 27.5747 1.43548C27.5587 1.24193 27.4804 1.05327 27.3451 0.893451C27.107 0.613396 26.7216 0.455041 26.3631 0.485832C25.9343 0.524444 25.6063 0.770285 25.3672 0.949657L25.2893 1.00782C24.531 1.56695 23.5725 1.8602 22.608 1.85287C22.632 1.82159 22.6559 1.78689 22.6779 1.74876C22.9505 1.28396 22.7687 0.716034 22.4482 0.395902C22.0768 0.0229852 21.5142 -0.101157 21.0459 0.0865229C20.5278 0.294731 20.2212 0.858749 20.3326 1.39833C20.392 1.68914 20.5672 1.95062 20.8123 2.11631C20.8483 2.14074 20.8857 2.16274 20.9241 2.18229C20.9336 2.49313 20.9441 2.80153 20.9546 3.10456L20.9596 3.25314C20.9795 3.82205 20.999 4.38069 21.0125 4.90952C20.985 6.14215 20.9701 7.40655 20.9676 8.66557L20.7279 20.3995L12.9985 30.7864L11.1964 29.5514C11.0671 29.4067 10.8923 29.326 10.6986 29.3246C10.4376 29.3246 10.185 29.4668 9.9024 29.7728C9.71469 29.9761 9.46408 30.2816 9.1361 30.7063C7.81317 32.4198 5.22123 36.0992 1.43316 41.6421L0.0742864 43.6333C-0.0115791 43.7574 -0.0240596 43.9192 0.0423364 44.0546C0.107734 44.1899 0.243521 44.2833 0.396282 44.297L0.77469 44.3312C1.5315 44.3991 2.30679 44.4333 3.07958 44.4333C5.51676 44.4333 8.05928 44.0976 10.6367 43.4343L11.3332 43.255C11.5189 43.2071 11.6497 43.0492 11.6586 42.862C11.6676 42.6748 11.5528 42.5047 11.3726 42.4397L10.6947 42.1973C9.68873 41.8386 7.8551 41.6147 5.08793 41.5126C4.48837 41.4911 3.83939 41.4749 3.14897 41.4647C6.59208 36.4393 8.96137 33.084 10.1924 31.4888C10.4121 31.2048 10.5943 30.9775 10.7366 30.8104L12.9476 32.3382C13.1408 32.4741 13.4119 32.4311 13.5537 32.2419L13.67 32.0855C13.7913 32.1789 13.9555 32.2048 14.0988 32.1481L19.0865 30.2361L19.1779 30.9516C19.1973 31.1075 19.3022 31.2395 19.4509 31.2962C19.5982 31.3539 19.7669 31.328 19.8908 31.2278L25.18 26.9263C25.3332 26.8016 25.3812 26.591 25.2963 26.4155C25.2124 26.2396 25.0207 26.1404 24.82 26.177L21.9241 26.7127L21.335 23.4845L21.3854 23.2523C21.4009 23.2372 21.4169 23.222 21.4313 23.2069C21.4478 23.2127 21.4638 23.2176 21.4788 23.2211C21.6146 23.2743 21.7678 23.2778 21.8991 23.2284C21.9086 23.2255 21.9171 23.222 21.9251 23.2176L25.1825 25.1023C25.3237 25.1844 25.5 25.1819 25.6417 25.093L26.5099 24.5431L40.3043 40.45C38.3478 40.4661 36.347 40.4891 34.3007 40.5189V36.823C34.3007 36.7306 34.2702 36.6397 34.2138 36.5674L26.3691 26.2498C26.2588 26.1052 26.0731 26.047 25.8958 26.0954C25.7226 26.1453 25.5968 26.2977 25.5828 26.4752L24.9723 34.913L23.1876 36.8391C22.7957 36.9691 22.6744 37.1979 22.6424 37.3709C22.5591 37.8215 23.0233 38.1387 23.1991 38.258C23.538 38.4896 24.2369 38.7668 25.3946 39.1299L27.1918 44.0506C27.2542 44.2207 27.4195 44.3346 27.6032 44.3346H35.6471C35.7085 44.3346 35.7963 44.3102 35.7963 44.3102L42.5398 42.4446C42.6511 42.4133 42.7465 42.3395 42.8034 42.2408C42.8393 42.1773 42.8578 42.1054 42.8568 42.0292C42.9392 41.9559 42.9896 41.8562 42.9986 41.7472C43.008 41.6347 42.9701 41.5209 42.8962 41.4358L27.0151 23.1209Z" fill="white"/>
</svg>