<svg width="617" height="327" viewBox="0 0 617 327" fill="none" xmlns="http://www.w3.org/2000/svg">
<g style="mix-blend-mode:overlay" opacity="0.194336">
<path fill-rule="evenodd" clip-rule="evenodd" d="M242.035 315.048C246.349 315.206 250.37 315.407 254.075 315.652C242.423 317.213 230.955 317.767 219.854 317.292L221.67 314.623C229.106 314.677 235.952 314.821 242.035 315.048M400.308 17.8119C401.816 19.4305 404.128 20.3189 406.248 20.157C408.875 19.9592 410.772 18.596 412.459 17.3838C420.229 11.8195 430.094 9.44192 439.758 10.7944C437.74 18.578 436.951 26.8904 437.476 35.0409C437.612 37.0624 437.788 39.8248 436.966 40.6845C436.57 41.0909 435.48 41.4722 434.6 41.7779L403.078 52.7844C402.932 52.8383 402.796 52.8815 402.671 52.9175C402.539 52.4714 402.363 51.9535 402.091 51.4176C400.154 47.5725 395.638 46.5654 392.179 47.5653C392.091 47.5905 391.61 47.7451 391.584 47.7523C389.464 48.5149 387.905 49.8097 386.511 50.9608C386.199 51.2233 385.876 51.4967 385.549 51.7449C380.721 55.5036 374.664 56.1439 369.125 53.5973L368.908 53.4606L368.905 21.8476C378.564 22.4698 388.33 19.6643 395.95 14.0351L396.552 13.5891C397.274 13.0424 398.067 12.4453 398.757 12.1072C398.702 12.3338 398.654 12.5784 398.625 12.8374C398.404 14.6358 399.002 16.4055 400.308 17.8119M363.838 8.63622C363.486 8.5427 363.13 8.48515 362.778 8.45997C362.815 8.38804 362.859 8.32689 362.895 8.3089C363.038 8.28013 363.486 8.33768 363.838 8.63622M448.287 306.933C448.977 307.598 449.869 307.937 450.588 307.836L452.275 307.811C468.428 307.562 484.541 307.368 500.302 307.235L466.077 316.724H412.455L399.71 281.751C399.366 280.823 398.592 280.097 397.638 279.812L396.838 279.571C391.885 278.064 387.96 276.744 385.157 275.64L385.105 274.824L397.249 261.706C397.733 261.181 398.03 260.504 398.078 259.807L401.475 212.72L447.326 273.101V304.689C447.326 305.534 447.667 306.332 448.287 306.933M403.53 170.154C402.484 168.964 400.683 168.701 399.344 169.557L391.537 174.503L369.616 161.802C370.365 155.087 369.902 148.224 369.484 142.142L369.455 141.725C369.334 139.876 369.209 137.973 369.117 136.113C369.015 134.063 368.952 131.995 368.912 130.355C369.132 128.064 369.36 115.895 369.627 101.81L369.638 101.256C369.88 88.5194 370.203 71.3875 370.533 62.8053C377.713 64.485 384.845 62.888 390.81 58.2444C391.206 57.9387 391.61 57.6042 392.032 57.2553C392.938 56.5071 393.793 55.8022 394.472 55.554C394.519 55.5396 394.574 55.5288 394.629 55.518C394.637 55.5468 394.644 55.5684 394.651 55.5971C394.849 56.3777 395.154 57.5574 396.02 58.7012C397.208 60.2839 400.07 62.6362 405.929 60.6076L437.476 49.5903C439.108 49.0148 441.339 48.2307 443.118 46.3819C446.464 42.9037 446.156 38.1774 445.903 34.3863C445.352 25.7934 446.482 16.9162 449.186 8.63622C449.388 7.84491 449.333 6.96727 448.911 5.86302L448.746 5.55729C448.188 4.6149 447.223 3.88833 446.16 3.60778C433.066 0.226706 418.718 2.83085 407.642 10.5641C407.525 9.13978 406.949 7.75139 405.955 6.57521C404.205 4.51419 401.372 3.3488 398.738 3.57541C395.587 3.85956 393.177 5.66879 391.419 6.98885L390.847 7.41688C385.274 11.5317 378.23 13.6898 371.143 13.6359C371.319 13.4057 371.495 13.1503 371.656 12.8698C373.659 9.44912 372.324 5.26954 369.969 2.91358C367.239 0.169156 363.104 -0.744452 359.663 0.636751C355.855 2.16902 353.603 6.31983 354.421 10.2908C354.857 12.4309 356.145 14.3553 357.946 15.5746C358.21 15.7545 358.486 15.9163 358.768 16.0602C358.838 18.3478 358.915 20.6174 358.992 22.8475L359.029 23.941C359.175 28.1277 359.318 32.239 359.417 36.1308C359.216 45.2021 359.106 54.5073 359.087 63.7729L357.326 150.127L300.524 226.568L287.28 217.478C286.33 216.414 285.046 215.82 283.623 215.81C281.704 215.81 279.848 216.856 277.771 219.108C276.392 220.604 274.55 222.852 272.14 225.978C262.418 238.589 243.37 265.666 215.532 306.458L205.546 321.112C204.915 322.026 204.823 323.216 205.311 324.212C205.792 325.209 206.79 325.896 207.912 325.996L210.693 326.248C216.255 326.748 221.952 327 227.631 327C245.542 327 264.226 324.529 283.168 319.648L288.286 318.328C289.65 317.975 290.611 316.814 290.677 315.436C290.744 314.058 289.9 312.807 288.575 312.328L283.593 310.544C276.201 307.904 262.726 306.257 242.39 305.505C237.984 305.347 233.215 305.228 228.141 305.153C253.444 268.169 270.856 243.477 279.903 231.737C281.517 229.647 282.856 227.974 283.901 226.744L300.15 237.988C301.57 238.988 303.562 238.671 304.604 237.279L305.459 236.128C306.35 236.815 307.557 237.006 308.61 236.589L345.264 222.518L345.935 227.784C346.078 228.931 346.849 229.902 347.942 230.319C349.024 230.744 350.264 230.553 351.174 229.816L390.044 198.16C391.17 197.242 391.522 195.692 390.898 194.401C390.282 193.106 388.873 192.376 387.398 192.646L366.116 196.588L361.787 172.83L362.158 171.122C362.272 171.01 362.389 170.899 362.495 170.787C362.617 170.831 362.734 170.866 362.844 170.892C363.842 171.284 364.968 171.309 365.933 170.946C366.003 170.924 366.065 170.899 366.124 170.866L390.062 184.736C391.1 185.34 392.395 185.322 393.437 184.668L399.817 180.621L501.19 297.685C486.812 297.804 472.108 297.973 457.07 298.193V270.993C457.07 270.313 456.846 269.644 456.432 269.112L398.782 193.182C397.972 192.117 396.607 191.689 395.304 192.045C394.031 192.412 393.107 193.534 393.004 194.84L388.517 256.936L375.402 271.112C372.522 272.068 371.63 273.752 371.396 275.025C370.783 278.341 374.195 280.676 375.486 281.553C377.977 283.258 383.113 285.298 391.621 287.97L404.828 324.184C405.287 325.435 406.501 326.273 407.851 326.273H466.965C467.416 326.273 468.061 326.094 468.061 326.094L517.618 312.364C518.436 312.134 519.137 311.591 519.555 310.864C519.819 310.397 519.955 309.868 519.948 309.307C520.553 308.767 520.923 308.034 520.989 307.232C521.059 306.404 520.78 305.566 520.237 304.94L403.53 170.154Z" fill="white"/>
</g>
<g style="mix-blend-mode:overlay" opacity="0.1">
<mask id="mask0" mask-type="alpha" maskUnits="userSpaceOnUse" x="0" y="170" width="262" height="70">
<path fill-rule="evenodd" clip-rule="evenodd" d="M0 170H261.82V239.152H0V170Z" fill="white"/>
</mask>
<g mask="url(#mask0)">
<path fill-rule="evenodd" clip-rule="evenodd" d="M259.483 239.152C258.832 239.152 258.185 238.997 257.724 238.693L227.58 218.933L222.101 222.084C221.204 222.605 219.748 222.612 218.828 222.104L130.708 173.433L101.269 198.951C100.639 199.5 99.4117 199.704 98.3668 199.437L73.7622 193.12L52.3656 206.752C51.9133 207.039 51.3191 207.209 50.5908 207.196C49.9171 207.19 49.2793 207.015 48.8442 206.719L46.3302 205.01L4.22307 237.91C3.45734 238.509 1.99295 238.638 0.952748 238.196C-0.0874542 237.755 -0.310466 236.912 0.45526 236.313L44.3184 202.04C44.7442 201.709 45.4085 201.508 46.1228 201.494C46.8589 201.478 47.5264 201.655 47.988 201.969L50.686 203.805L71.4292 190.59C72.1076 190.158 73.1946 190.026 74.1178 190.262L98.4667 196.514L128.358 170.601C128.742 170.268 129.361 170.051 130.05 170.007C130.746 169.966 131.427 170.099 131.926 170.374L220.414 219.249L226.037 216.013C226.494 215.749 227.123 215.596 227.767 215.619C228.412 215.632 229.022 215.798 229.448 216.077L261.239 236.918C262.092 237.476 261.995 238.327 261.024 238.817C260.581 239.042 260.03 239.152 259.483 239.152" fill="white"/>
</g>
<path fill-rule="evenodd" clip-rule="evenodd" d="M130 173.497L128.413 194.253L116.66 200.389L102.365 210.497L99 198.743" fill="white"/>
<path fill-rule="evenodd" clip-rule="evenodd" d="M73 191.498L60.6223 215.539L46 223.498L50.7026 210.255L50.4766 205.909L72.9174 191.576" fill="white"/>
<path fill-rule="evenodd" clip-rule="evenodd" d="M46 204.907L45.1026 210.819L16 228.498L45.9006 204.498L46 204.907Z" fill="white"/>
<mask id="mask1" mask-type="alpha" maskUnits="userSpaceOnUse" x="79" y="196" width="52" height="51">
<path fill-rule="evenodd" clip-rule="evenodd" d="M79.4082 196.963H130.184V246.497H79.4082V196.963Z" fill="white"/>
</mask>
<g mask="url(#mask1)">
<path fill-rule="evenodd" clip-rule="evenodd" d="M130.184 196.963L122.65 243.495L79.4082 246.498L117.408 225.858L130.184 196.963Z" fill="white"/>
</g>
<path fill-rule="evenodd" clip-rule="evenodd" d="M44 225.498L19 243.346L32.3335 244.498L44 225.498Z" fill="white"/>
</g>
<g style="mix-blend-mode:overlay" opacity="0.1">
<mask id="mask2" mask-type="alpha" maskUnits="userSpaceOnUse" x="451" y="182" width="166" height="51">
<path fill-rule="evenodd" clip-rule="evenodd" d="M451 182H616.62V232.381H451V182Z" fill="white"/>
</mask>
<g mask="url(#mask2)">
<path fill-rule="evenodd" clip-rule="evenodd" d="M614.673 232.381C614.424 232.381 614.17 232.333 613.925 232.23L560.871 209.901L549.532 218.254C548.844 218.761 547.909 218.758 547.225 218.247L504.649 186.395L454.089 223.473C453.223 224.11 452.002 223.918 451.372 223.039C450.74 222.164 450.932 220.938 451.801 220.301L503.517 182.375C504.203 181.871 505.138 181.876 505.819 182.386L548.394 214.236L559.461 206.081C560.01 205.677 560.727 205.589 561.359 205.855L615.424 228.61C616.416 229.027 616.883 230.175 616.469 231.176C616.158 231.928 615.436 232.381 614.673 232.381" fill="white"/>
</g>
<path fill-rule="evenodd" clip-rule="evenodd" d="M505 183.381L499.283 214.289L496.621 201.153L482.302 221.024L452 223.381L505 183.381Z" fill="white"/>
<path fill-rule="evenodd" clip-rule="evenodd" d="M561 208.77L558.975 216.779L557.087 214.911L548.314 218.381L548 216.456L560.555 207.381" fill="white"/>
</g>
</svg>
