<svg width="140" height="130" viewBox="0 0 140 130" fill="none" xmlns="http://www.w3.org/2000/svg">
<path fill-rule="evenodd" clip-rule="evenodd" d="M140 52.0746C140 49.8506 138.531 47.8939 136.395 47.2733C134.26 46.6526 131.971 47.5172 130.779 49.3949C128.23 53.4102 122.515 57.0808 112.069 59.6637C101.772 62.2096 87.7782 63.4763 70.0004 63.4763C52.3563 63.4763 38.3795 61.6868 28.0653 58.8764C17.5706 56.0168 11.5457 52.286 8.91954 48.9703C7.59837 47.3022 5.36617 46.653 3.35649 47.3525C1.3468 48.0519 0 49.9467 0 52.0746C0 56.8543 1.6994 75.7094 11.1027 93.5635C20.6633 111.716 38.4003 129.075 70.0004 129.075C116.25 129.075 140 87.593 140 52.0746ZM70.0004 68.4763C40.5691 68.4763 20.569 63.5912 10.3314 56.798C8.08163 55.3052 6.30332 53.7202 5 52.0746C5 52.0747 5 52.0747 5 52.0747C12.234 61.2082 34.1013 68.4764 70.0004 68.4764C99.5399 68.4764 119.615 65.0302 129.801 57.5065C119.614 65.0301 99.5398 68.4763 70.0004 68.4763Z" fill="white"/>
<path fill-rule="evenodd" clip-rule="evenodd" d="M47.3898 24.0502C47.3896 24.05 47.3905 24.0459 47.3928 24.0384C47.391 24.0466 47.3899 24.0503 47.3898 24.0502ZM49.0262 23.4226C49.0228 23.4203 49.0178 23.4172 49.0113 23.4135C49.0254 23.4236 49.0322 23.4275 49.0321 23.4269C49.032 23.4266 49.03 23.4251 49.0262 23.4226ZM16.1814 23.1581C16.1815 23.1578 16.1864 23.1543 16.1959 23.1488C16.186 23.1557 16.1813 23.1585 16.1814 23.1581ZM17.847 23.8124C17.8513 23.8275 17.8529 23.8361 17.8526 23.8367C17.8523 23.8372 17.8501 23.8296 17.847 23.8124ZM32.6282 0C27.3524 0 22.8829 3.99527 19.8459 8.57678C16.7758 13.2081 14.8193 18.9433 14.8193 23.3047C14.8193 23.6572 14.8358 24.0021 14.8887 24.3114C14.9335 24.573 15.04 25.0483 15.3941 25.4465C15.5967 25.6742 15.8754 25.8704 16.2258 25.968C16.5651 26.0625 16.8752 26.0379 17.1114 25.9826C17.5351 25.8832 17.8648 25.6504 18.0494 25.5087C18.4435 25.206 18.8942 24.7361 19.315 24.2972L19.4296 24.1776L19.4297 24.1775C19.8574 23.7311 20.336 23.2314 20.892 22.6999C23.3023 20.3956 27.0249 17.6306 32.6282 17.6306C38.2572 17.6306 41.9723 20.5501 44.3821 22.955C44.8791 23.4509 45.3099 23.914 45.7018 24.3351C45.7886 24.4283 45.8734 24.5196 45.9567 24.6086C46.3709 25.0517 46.8363 25.5452 47.2608 25.8499C47.4563 25.9902 47.8559 26.2525 48.3819 26.2926C48.6827 26.3156 49.019 26.265 49.3408 26.0932C49.6534 25.9262 49.8648 25.6918 50.0024 25.4804C50.2505 25.0992 50.3349 24.6751 50.3751 24.3893C50.4204 24.0669 50.4364 23.6993 50.4364 23.3047C50.4364 18.8467 48.4821 13.1107 45.4078 8.49874C42.3651 3.93423 37.8954 0 32.6282 0Z" fill="white"/>
<path fill-rule="evenodd" clip-rule="evenodd" d="M107.18 0C101.913 0 97.4433 3.93423 94.4006 8.49874C91.3263 13.1107 89.3721 18.8467 89.3721 23.3047C89.3721 23.6993 89.388 24.0669 89.4334 24.3893C89.4736 24.6751 89.5579 25.0992 89.806 25.4804C89.9436 25.6918 90.1551 25.9262 90.4676 26.0932C90.7895 26.265 91.1258 26.3156 91.4265 26.2926C91.9525 26.2525 92.3521 25.9902 92.5476 25.8499C92.9721 25.5452 93.4375 25.0517 93.8517 24.6086C93.935 24.5196 94.0199 24.4284 94.1066 24.3351L94.1067 24.335C94.4985 23.914 94.9294 23.4509 95.4264 22.955C97.8362 20.5501 101.551 17.6306 107.18 17.6306C112.783 17.6306 116.506 20.3956 118.916 22.6999C119.472 23.2315 119.951 23.7311 120.379 24.1776L120.493 24.2972C120.914 24.7361 121.365 25.206 121.759 25.5087C121.944 25.6504 122.273 25.8832 122.697 25.9826C122.933 26.0379 123.243 26.0625 123.583 25.968C123.933 25.8704 124.212 25.6742 124.414 25.4465C124.768 25.0483 124.875 24.573 124.92 24.3114C124.973 24.0021 124.989 23.6572 124.989 23.3047C124.989 18.9433 123.033 13.2081 119.963 8.57678C116.926 3.99527 112.456 0 107.18 0ZM121.957 23.8314C121.956 23.8347 121.956 23.8364 121.956 23.8367C121.956 23.8369 121.957 23.8344 121.958 23.8289C121.959 23.825 121.96 23.8195 121.961 23.8124C121.959 23.8209 121.957 23.8273 121.957 23.8314ZM123.613 23.1488C123.622 23.1544 123.627 23.1579 123.627 23.1581C123.627 23.1584 123.622 23.1556 123.613 23.1488ZM90.7764 23.4269C90.7765 23.4263 90.7836 23.4213 90.7972 23.4135C90.783 23.4236 90.7762 23.4275 90.7764 23.4269ZM92.4156 24.0384C92.4179 24.0459 92.4188 24.05 92.4187 24.0502C92.4186 24.0504 92.4174 24.0466 92.4156 24.0384Z" fill="white"/>
</svg>