<svg width="127" height="90" viewBox="0 0 127 90" fill="none" xmlns="http://www.w3.org/2000/svg">
<path fill-rule="evenodd" clip-rule="evenodd" d="M26.9996 26C22.5822 26 19 20.1795 19 13C19 5.82046 22.5822 0 26.9996 0C31.4186 0 35 5.82046 35 13C35 20.1795 31.4186 26 26.9996 26Z" fill="white"/>
<path fill-rule="evenodd" clip-rule="evenodd" d="M106 13C106 20.1795 102.418 26 97.9996 26C93.5814 26 90 20.1795 90 13C90 5.82046 93.5814 0 97.9996 0C102.418 0 106 5.82046 106 13" fill="white"/>
<path fill-rule="evenodd" clip-rule="evenodd" d="M0 87.5C0 86.3954 0.89543 85.5 2 85.5H125C126.105 85.5 127 86.3954 127 87.5C127 88.6046 126.105 89.5 125 89.5H2C0.89543 89.5 0 88.6046 0 87.5Z" fill="white"/>
</svg>