<svg width="131" height="91" viewBox="0 0 131 91" fill="none" xmlns="http://www.w3.org/2000/svg">
<path fill-rule="evenodd" clip-rule="evenodd" d="M65.4996 35C31.2907 35 4 59.4054 4 89C4 90.1046 3.10457 91 2 91C0.89543 91 0 90.1046 0 89C0 56.7386 29.5688 31 65.4996 31C101.43 31 131 56.7386 131 89C131 90.1046 130.105 91 129 91C127.895 91 127 90.1046 127 89C127 59.4054 99.7086 35 65.4996 35Z" fill="white"/>
<path fill-rule="evenodd" clip-rule="evenodd" d="M37 11.5C37 17.8511 33.8655 23 29.9996 23C26.1337 23 23 17.8511 23 11.5C23 5.14887 26.1337 0 29.9996 0C33.8655 0 37 5.14887 37 11.5" fill="white"/>
<path fill-rule="evenodd" clip-rule="evenodd" d="M107 11.5C107 17.8511 103.866 23 99.9996 23C96.1337 23 93 17.8511 93 11.5C93 5.14887 96.1337 0 99.9996 0C103.866 0 107 5.14887 107 11.5" fill="white"/>
</svg>