<svg width="150" height="127" viewBox="0 0 150 127" fill="none" xmlns="http://www.w3.org/2000/svg">
<path fill-rule="evenodd" clip-rule="evenodd" d="M48.0005 13C48.0005 20.1795 44.8668 26 41.0001 26C37.1349 26 34.0005 20.1795 34.0005 13C34.0005 5.82046 37.1349 0 41.0001 0C44.8668 0 48.0005 5.82046 48.0005 13" fill="white"/>
<path fill-rule="evenodd" clip-rule="evenodd" d="M118 13C118 20.1795 114.866 26 111 26C107.134 26 104 20.1795 104 13C104 5.82046 107.134 0 111 0C114.866 0 118 5.82046 118 13" fill="white"/>
<path fill-rule="evenodd" clip-rule="evenodd" d="M17.884 53.3274C18.2555 54.3676 17.7134 55.512 16.6732 55.8835L12.0031 57.5514C12.2883 93.8184 40.677 123 75.5006 123C110.211 123 138.528 94.0092 138.995 57.9076L133.328 55.8835C132.288 55.512 131.746 54.3676 132.117 53.3274C132.489 52.2872 133.633 51.7451 134.673 52.1166L148.673 57.1166C149.713 57.4881 150.256 58.6325 149.884 59.6727C149.513 60.7129 148.368 61.255 147.328 60.8835L142.964 59.3252C141.782 96.8426 112.097 127 75.5006 127C38.7897 127 9.03329 96.6528 8.02726 58.9714L2.67322 60.8835C1.633 61.255 0.488568 60.7129 0.117061 59.6727C-0.254446 58.6325 0.287653 57.4881 1.32787 57.1166L15.3279 52.1166C16.3681 51.7451 17.5125 52.2872 17.884 53.3274Z" fill="white"/>
</svg>