<svg width="94" height="94" viewBox="0 0 94 94" fill="none" xmlns="http://www.w3.org/2000/svg">
<path fill-rule="evenodd" clip-rule="evenodd" d="M46.9997 94.0002C21.0427 94.0002 0 72.9575 0 47.0002C0 21.0429 21.0427 0.000488281 46.9997 0.000488281C72.9573 0.000488281 93.9997 21.0429 93.9997 47.0002C93.9997 72.9575 72.9573 94.0002 46.9997 94.0002Z" fill="#FF9A08"/>
<path d="M75.1998 50.1333C75.1998 65.1309 62.1067 77.2889 45.9552 77.2889C29.8041 77.2889 16.7109 65.1309 16.7109 50.1333" stroke="white" stroke-width="2" stroke-linecap="round" stroke-linejoin="round"/>
<path fill-rule="evenodd" clip-rule="evenodd" d="M33.4224 32.3777C33.4224 35.2618 32.0197 37.6 30.2889 37.6C28.5588 37.6 27.1558 35.2618 27.1558 32.3777C27.1558 29.4937 28.5588 27.1555 30.2889 27.1555C32.0197 27.1555 33.4224 29.4937 33.4224 32.3777" fill="white"/>
<path fill-rule="evenodd" clip-rule="evenodd" d="M64.7554 32.3777C64.7554 35.2618 63.3524 37.6 61.6219 37.6C59.8915 37.6 58.4888 35.2618 58.4888 32.3777C58.4888 29.4937 59.8915 27.1555 61.6219 27.1555C63.3524 27.1555 64.7554 29.4937 64.7554 32.3777" fill="white"/>
<path d="M14.6221 50.1333L20.8887 48.0444" stroke="white" stroke-width="2" stroke-linecap="round" stroke-linejoin="round"/>
<path d="M79.378 50.1333L73.1113 48.0444" stroke="white" stroke-width="2" stroke-linecap="round" stroke-linejoin="round"/>
</svg>